<svg xmlns="http://www.w3.org/2000/svg" xmlns:xlink="http://www.w3.org/1999/xlink" width="500" zoomAndPan="magnify" viewBox="0 0 375 262.499992" height="350" preserveAspectRatio="xMidYMid meet" version="1.0"><defs><g/><clipPath id="d9743d55be"><path d="M 62.515625 10 L 365 10 L 365 149 L 62.515625 149 Z M 62.515625 10 " clip-rule="nonzero"/></clipPath></defs><g clip-path="url(#d9743d55be)"><path fill="#000000" d="M 288.542969 17.230469 C 296.222656 12.238281 306.945312 12.675781 315.621094 14.300781 C 334.28125 17.867188 350.789062 30.808594 358.4375 48.324219 C 370.882812 75.390625 363.519531 105.15625 345.523438 127.761719 C 341.730469 132.152344 336.234375 138.59375 330.070312 139.144531 C 322.175781 139.632812 314.308594 137.175781 307.386719 133.621094 C 290.734375 125.25 276.996094 111.367188 268.34375 94.886719 C 259.703125 78.605469 256.402344 59.816406 257.261719 41.492188 C 257.484375 32.273438 261.585938 23.15625 268.785156 17.335938 C 272.257812 14.386719 276.488281 12.207031 280.917969 11.121094 C 287.6875 9.371094 294.886719 10.789062 301.265625 13.378906 C 316.503906 19.65625 328.457031 32.285156 336.082031 46.738281 C 338.285156 50.964844 340.023438 55.617188 340.609375 60.40625 C 341.992188 69.554688 342.449219 78.769531 342.253906 87.992188 C 341.714844 114.789062 334.675781 152.929688 299.671875 147.617188 C 267.832031 142.5625 244.199219 108.144531 236.273438 78.8125 C 234.117188 70.910156 233.269531 62.449219 234.542969 54.273438 C 235.929688 43.695312 239.871094 32.832031 248.515625 26.058594 C 257.40625 19.046875 269.605469 17.316406 280.53125 17.589844 C 293.101562 18.816406 303.773438 27.328125 310.898438 37.324219 C 313.621094 41.171875 315.867188 45.421875 317.253906 50.027344 C 318.660156 54.542969 318.855469 59.304688 319.140625 63.988281 C 319.828125 77.78125 319.210938 91.769531 316.046875 105.285156 C 309.777344 131.476562 294.652344 148.894531 265.984375 141.777344 C 243.035156 135.429688 230.171875 111.792969 224.917969 90.042969 C 222.898438 81.007812 221.746094 71.417969 223.851562 62.269531 C 227.855469 43.523438 243.234375 27.421875 262.300781 23.71875 C 275.203125 21.15625 296.03125 24.664062 295.648438 41.453125 C 295.207031 47.621094 290.027344 53.101562 286.289062 57.496094 C 280.074219 64.308594 273.699219 70.824219 266.757812 76.855469 C 259.71875 82.839844 252.5625 88.660156 244.003906 92.5 C 240.535156 94.015625 236.476562 94.929688 232.769531 93.480469 C 228.933594 91.96875 226.246094 88.285156 225.488281 84.285156 C 223.925781 76.566406 228.164062 69 233.75 64.023438 C 242.691406 56.105469 254.667969 52.605469 266.242188 50.941406 C 279.328125 49.285156 302.0625 47.167969 308.613281 61.808594 C 312.621094 72.238281 306.476562 83.582031 300.335938 91.785156 C 287.953125 107.5625 269.007812 120.105469 248.4375 120.414062 C 242.65625 120.257812 229.96875 120.339844 227.929688 113.488281 C 225.855469 104.878906 242.902344 95.714844 249.269531 92.402344 C 259.664062 87.257812 270.789062 83.015625 282.527344 82.457031 C 292.964844 81.796875 304.253906 85.113281 305.847656 97.046875 C 306.285156 100.289062 306.039062 103.652344 304.695312 106.65625 C 299.234375 118.042969 285.128906 127.484375 273.804688 132.359375 C 269.449219 134.152344 264.875 135.601562 259.941406 135.957031 C 257.496094 136.09375 255.324219 136.050781 252.925781 136.007812 C 245.925781 135.855469 238.972656 135.078125 232.167969 133.167969 C 227.632812 131.878906 223.199219 130.046875 219.128906 127.6875 C 215.191406 125.492188 211.523438 122.640625 207.617188 120.648438 C 195.597656 114.496094 182.152344 123.394531 171.175781 128.527344 C 169.113281 129.515625 166.910156 130.515625 164.765625 131.316406 C 158.230469 133.945312 150.910156 134.175781 144.066406 134.679688 C 121.273438 135.71875 98.179688 135.910156 75.742188 131.167969 C 71.253906 130.109375 66.78125 128.746094 62.570312 126.601562 C 62.570312 126.601562 63.707031 124.203125 63.707031 124.203125 C 67.761719 125.851562 72.078125 126.953125 76.460938 127.800781 C 89.722656 130.25 103.246094 131.039062 116.746094 131.21875 C 130.148438 131.25 143.875 131.078125 157.09375 129.101562 C 165.71875 127.351562 173.394531 122.140625 181.554688 118.542969 C 186.796875 116.179688 192.769531 114.007812 198.785156 114.011719 C 202.519531 113.890625 206.40625 114.847656 209.65625 116.539062 C 213.855469 118.671875 217.402344 121.429688 221.402344 123.671875 C 231.9375 129.804688 244.34375 131.417969 256.371094 131.355469 C 269.488281 131.71875 284.601562 122.515625 293.84375 113.582031 C 296.914062 110.445312 299.9375 107.046875 301.125 102.773438 C 301.785156 99.304688 301.328125 95.269531 299.277344 92.394531 C 296.992188 89.160156 293.015625 87.734375 289.109375 87.210938 C 273.261719 85.265625 252.675781 94 239.671875 102.875 C 237.285156 104.589844 229.8125 110.191406 232.09375 113.230469 C 234.050781 115.214844 237.320312 115.6875 240.195312 116.148438 C 242.863281 116.519531 245.714844 116.636719 248.449219 116.683594 C 267.714844 116.605469 286 104.613281 297.652344 89.742188 C 304.660156 80.867188 312.703125 63.710938 299.238281 56.859375 C 288.480469 51.421875 268.785156 55.117188 257.304688 58.019531 C 248.210938 60.691406 238.699219 64.640625 232.921875 72.417969 C 229.054688 77.519531 227.589844 86.574219 234.210938 89.992188 C 242.289062 93.597656 259.046875 80.410156 265.304688 75.175781 C 274.902344 66.839844 285.59375 56.359375 289.367188 43.953125 C 289.859375 42.023438 289.507812 40.683594 289.003906 39.003906 C 287.007812 33.628906 281.109375 31.4375 275.820312 30.554688 C 267.585938 29.261719 259.011719 30.421875 251.382812 34.140625 C 239.6875 39.609375 230.4375 50.414062 227.320312 63.140625 C 224.167969 76.082031 226.925781 89.933594 231.210938 102.40625 C 235.761719 114.933594 243.160156 127.023438 254.34375 134.589844 C 265.164062 142.09375 280.386719 143.636719 291.824219 136.753906 C 299.339844 132.347656 304.535156 124.957031 307.800781 116.933594 C 314.421875 100.410156 315.515625 81.925781 314.816406 64.214844 C 314.570312 59.839844 314.402344 55.421875 313.246094 51.175781 C 309.949219 38.574219 300.082031 27.730469 288 22.996094 C 283.972656 21.414062 279.679688 20.847656 275.394531 21.285156 C 270.949219 21.59375 266.550781 22.179688 262.378906 23.402344 C 244.539062 28.339844 238.976562 44.492188 238.492188 61.425781 C 238.769531 79.476562 248.140625 98.761719 258.550781 113.203125 C 268.785156 127.109375 283.152344 139.5 300.492188 142.582031 C 344.796875 151.128906 341.445312 87.742188 335.199219 59.683594 C 334.875 58.167969 334.441406 56.648438 333.859375 55.199219 C 331.449219 49.152344 327.878906 43.570312 323.972656 38.320312 C 319.96875 33.050781 315.621094 28.027344 310.8125 23.472656 C 302.578125 15.675781 291.109375 8.488281 279.414062 12.128906 C 278.847656 12.300781 277.574219 12.808594 277.039062 12.984375 C 276.621094 13.195312 275.195312 13.832031 274.746094 14.054688 C 271.519531 15.75 268.589844 18.035156 266.125 20.730469 C 265.804688 21.046875 264.855469 22.3125 264.523438 22.6875 C 263.949219 23.421875 263.164062 24.667969 262.625 25.46875 C 261.273438 27.878906 260.101562 30.539062 259.425781 33.222656 C 258.671875 35.925781 258.425781 38.734375 258.359375 41.535156 C 258.1875 55.03125 260.328125 68.714844 265.449219 81.1875 C 273.6875 101.789062 289.757812 119.226562 309.660156 128.972656 C 314.515625 131.273438 319.742188 133.269531 324.945312 134.609375 C 326.707031 135.082031 328.582031 135.390625 330.390625 135.546875 C 335.699219 135.390625 340.535156 130.289062 343.679688 126.308594 C 354.441406 112.191406 358.300781 93.597656 357.722656 76.238281 C 357.082031 54.710938 346.625 32.609375 327.15625 22.207031 C 316.742188 16.441406 300.035156 12.675781 288.753906 17.609375 C 288.753906 17.609375 288.535156 17.25 288.535156 17.25 Z M 288.542969 17.230469 " fill-opacity="1" fill-rule="nonzero"/></g><g fill="#000000" fill-opacity="1"><g transform="translate(-2.05671, 104.133006)"><g><path d="M 66.53125 -14.703125 C 69.40625 -9.753906 71.695312 -6.269531 73.40625 -4.25 C 75.113281 -2.226562 76.375 -1.21875 77.1875 -1.21875 L 77.1875 0 L 60.3125 0 L 60.3125 -1.21875 C 60.675781 -1.21875 60.945312 -1.351562 61.125 -1.625 C 61.300781 -1.894531 61.273438 -2.429688 61.046875 -3.234375 C 60.828125 -4.046875 60.398438 -5.171875 59.765625 -6.609375 C 59.140625 -8.046875 58.15625 -9.9375 56.8125 -12.28125 L 31.984375 -56.265625 L 16.734375 -41.15625 L 16.734375 -11.609375 C 16.734375 -9.441406 16.867188 -7.660156 17.140625 -6.265625 C 17.410156 -4.878906 17.703125 -3.828125 18.015625 -3.109375 C 18.328125 -2.390625 18.660156 -1.894531 19.015625 -1.625 C 19.378906 -1.351562 19.695312 -1.21875 19.96875 -1.21875 L 19.96875 0 L 4.046875 0 L 4.046875 -1.21875 C 4.222656 -1.21875 4.488281 -1.351562 4.84375 -1.625 C 5.207031 -1.894531 5.546875 -2.390625 5.859375 -3.109375 C 6.179688 -3.828125 6.476562 -4.878906 6.75 -6.265625 C 7.019531 -7.660156 7.15625 -9.441406 7.15625 -11.609375 L 7.15625 -83.125 C 7.15625 -85.375 7.019531 -87.171875 6.75 -88.515625 C 6.476562 -89.867188 6.179688 -90.90625 5.859375 -91.625 C 5.546875 -92.34375 5.207031 -92.835938 4.84375 -93.109375 C 4.488281 -93.378906 4.222656 -93.515625 4.046875 -93.515625 L 4.046875 -94.71875 L 19.96875 -94.71875 L 19.96875 -93.515625 C 19.695312 -93.515625 19.378906 -93.378906 19.015625 -93.109375 C 18.660156 -92.835938 18.328125 -92.34375 18.015625 -91.625 C 17.703125 -90.90625 17.410156 -89.867188 17.140625 -88.515625 C 16.867188 -87.171875 16.734375 -85.375 16.734375 -83.125 L 16.734375 -42.78125 L 53.171875 -79.078125 C 57.660156 -83.660156 60.421875 -87.210938 61.453125 -89.734375 C 62.492188 -92.253906 60.945312 -93.515625 56.8125 -93.515625 L 56.8125 -94.71875 L 78.40625 -94.71875 L 78.40625 -93.515625 C 76.507812 -93.515625 74.484375 -93.019531 72.328125 -92.03125 C 70.171875 -91.039062 67.988281 -89.78125 65.78125 -88.25 C 63.570312 -86.71875 61.410156 -85.03125 59.296875 -83.1875 C 57.191406 -81.34375 55.328125 -79.613281 53.703125 -78 L 39.125 -63.421875 Z M 66.53125 -14.703125 "/></g></g></g><g fill="#000000" fill-opacity="1"><g transform="translate(80.385139, 104.133006)"><g><path d="M 3.375 -65.046875 L 15.78125 -65.046875 L 15.78125 -30.09375 C 16.320312 -34.226562 17.066406 -37.957031 18.015625 -41.28125 C 18.960938 -44.613281 20.019531 -47.585938 21.1875 -50.203125 C 22.082031 -52.085938 23.113281 -53.925781 24.28125 -55.71875 C 25.457031 -57.519531 26.832031 -59.160156 28.40625 -60.640625 C 29.976562 -62.128906 31.6875 -63.320312 33.53125 -64.21875 C 35.375 -65.125 37.421875 -65.578125 39.671875 -65.578125 C 43.359375 -65.578125 46.347656 -64.8125 48.640625 -63.28125 C 50.929688 -61.75 52.726562 -59.769531 54.03125 -57.34375 C 55.34375 -54.914062 56.242188 -52.171875 56.734375 -49.109375 C 57.234375 -46.054688 57.484375 -43 57.484375 -39.9375 L 57.484375 -11.609375 C 57.484375 -9.359375 57.59375 -7.554688 57.8125 -6.203125 C 58.039062 -4.859375 58.332031 -3.800781 58.6875 -3.03125 C 59.050781 -2.269531 59.410156 -1.773438 59.765625 -1.546875 C 60.128906 -1.328125 60.40625 -1.21875 60.59375 -1.21875 L 60.59375 0 L 44.9375 0 L 44.9375 -1.21875 C 45.113281 -1.21875 45.378906 -1.328125 45.734375 -1.546875 C 46.097656 -1.773438 46.4375 -2.269531 46.75 -3.03125 C 47.070312 -3.800781 47.363281 -4.859375 47.625 -6.203125 C 47.894531 -7.554688 48.03125 -9.359375 48.03125 -11.609375 L 48.03125 -39.9375 C 48.03125 -41.5625 47.941406 -43.519531 47.765625 -45.8125 C 47.585938 -48.101562 47.207031 -50.347656 46.625 -52.546875 C 46.039062 -54.753906 45.1875 -56.757812 44.0625 -58.5625 C 42.9375 -60.363281 41.425781 -61.578125 39.53125 -62.203125 C 37.644531 -62.835938 35.800781 -62.816406 34 -62.140625 C 32.207031 -61.460938 30.566406 -60.445312 29.078125 -59.09375 C 27.597656 -57.75 26.269531 -56.222656 25.09375 -54.515625 C 23.925781 -52.804688 22.984375 -51.1875 22.265625 -49.65625 C 20.285156 -45.34375 18.707031 -40.054688 17.53125 -33.796875 C 16.363281 -27.546875 15.78125 -20.148438 15.78125 -11.609375 C 15.78125 -9.359375 15.894531 -7.554688 16.125 -6.203125 C 16.351562 -4.859375 16.644531 -3.800781 17 -3.03125 C 17.363281 -2.269531 17.722656 -1.773438 18.078125 -1.546875 C 18.441406 -1.328125 18.710938 -1.21875 18.890625 -1.21875 L 18.890625 0 L 3.375 0 L 3.375 -1.21875 C 3.550781 -1.21875 3.816406 -1.328125 4.171875 -1.546875 C 4.535156 -1.773438 4.875 -2.269531 5.1875 -3.03125 C 5.507812 -3.800781 5.804688 -4.859375 6.078125 -6.203125 C 6.347656 -7.554688 6.484375 -9.359375 6.484375 -11.609375 L 6.484375 -53.4375 C 6.484375 -55.59375 6.347656 -57.367188 6.078125 -58.765625 C 5.804688 -60.160156 5.507812 -61.21875 5.1875 -61.9375 C 4.875 -62.65625 4.535156 -63.148438 4.171875 -63.421875 C 3.816406 -63.691406 3.550781 -63.828125 3.375 -63.828125 Z M 3.375 -65.046875 "/></g></g></g><g fill="#000000" fill-opacity="1"><g transform="translate(144.341648, 104.133006)"><g><path d="M 3.375 -60.1875 L 16.0625 -65.046875 L 16.0625 -11.609375 C 16.0625 -9.359375 16.171875 -7.554688 16.390625 -6.203125 C 16.617188 -4.859375 16.910156 -3.800781 17.265625 -3.03125 C 17.628906 -2.269531 17.988281 -1.773438 18.34375 -1.546875 C 18.707031 -1.328125 18.976562 -1.21875 19.15625 -1.21875 L 19.15625 0 L 3.515625 0 L 3.515625 -1.21875 C 3.773438 -1.21875 4.085938 -1.328125 4.453125 -1.546875 C 4.816406 -1.773438 5.15625 -2.269531 5.46875 -3.03125 C 5.78125 -3.800781 6.070312 -4.859375 6.34375 -6.203125 C 6.613281 -7.554688 6.75 -9.359375 6.75 -11.609375 L 6.75 -53.296875 C 6.382812 -55.722656 5.882812 -57.296875 5.25 -58.015625 C 4.625 -58.742188 4.132812 -59.109375 3.78125 -59.109375 Z M 10.390625 -75.96875 C 8.585938 -75.96875 7.078125 -76.570312 5.859375 -77.78125 C 4.648438 -79 4.046875 -80.507812 4.046875 -82.3125 C 4.046875 -84.113281 4.648438 -85.617188 5.859375 -86.828125 C 7.078125 -88.046875 8.585938 -88.65625 10.390625 -88.65625 C 12.191406 -88.65625 13.695312 -88.046875 14.90625 -86.828125 C 16.125 -85.617188 16.734375 -84.113281 16.734375 -82.3125 C 16.734375 -80.507812 16.125 -79 14.90625 -77.78125 C 13.695312 -76.570312 12.191406 -75.96875 10.390625 -75.96875 Z M 10.390625 -75.96875 "/></g></g></g><g fill="#000000" fill-opacity="1"><g transform="translate(166.874851, 104.133006)"><g><path d="M 3.375 -65.046875 C 3.914062 -65.046875 4.90625 -65.175781 6.34375 -65.4375 C 7.78125 -65.707031 9.238281 -66.453125 10.71875 -67.671875 C 12.207031 -68.890625 13.515625 -70.734375 14.640625 -73.203125 C 15.765625 -75.679688 16.328125 -79.125 16.328125 -83.53125 L 25.765625 -83.53125 C 25.765625 -78.132812 24.6875 -73.972656 22.53125 -71.046875 C 20.375 -68.117188 17.132812 -66.117188 12.8125 -65.046875 L 33.0625 -65.046875 L 33.0625 -64.09375 L 21.3125 -64.09375 L 21.3125 -25.09375 C 21.3125 -23.476562 21.398438 -21.519531 21.578125 -19.21875 C 21.765625 -16.925781 22.148438 -14.675781 22.734375 -12.46875 C 23.316406 -10.269531 24.171875 -8.269531 25.296875 -6.46875 C 26.421875 -4.675781 27.929688 -3.460938 29.828125 -2.828125 C 31.710938 -2.203125 33.550781 -2.203125 35.34375 -2.828125 C 37.144531 -3.460938 38.785156 -4.453125 40.265625 -5.796875 C 41.753906 -7.148438 43.082031 -8.679688 44.25 -10.390625 C 45.425781 -12.097656 46.375 -13.71875 47.09375 -15.25 C 47.632812 -16.507812 48.148438 -17.832031 48.640625 -19.21875 C 49.140625 -20.613281 49.613281 -22.078125 50.0625 -23.609375 L 51.28125 -23.609375 C 50.832031 -21.992188 50.359375 -20.441406 49.859375 -18.953125 C 49.367188 -17.472656 48.804688 -16.101562 48.171875 -14.84375 C 47.359375 -12.957031 46.34375 -11.113281 45.125 -9.3125 C 43.914062 -7.507812 42.546875 -5.863281 41.015625 -4.375 C 39.492188 -2.894531 37.785156 -1.703125 35.890625 -0.796875 C 34.003906 0.0976562 31.9375 0.546875 29.6875 0.546875 C 26 0.546875 23.003906 -0.21875 20.703125 -1.75 C 18.410156 -3.28125 16.613281 -5.257812 15.3125 -7.6875 C 14.007812 -10.113281 13.109375 -12.859375 12.609375 -15.921875 C 12.117188 -18.984375 11.875 -22.039062 11.875 -25.09375 L 11.875 -55.859375 C 11.875 -58.109375 11.109375 -60.039062 9.578125 -61.65625 C 8.046875 -63.28125 5.976562 -64.09375 3.375 -64.09375 Z M 3.375 -65.046875 "/></g></g></g><g fill="#000000" fill-opacity="1"><g transform="translate(156.073915, 247.083229)"><g><path d="M 73.8125 -93.515625 C 73.632812 -93.515625 73.363281 -93.378906 73 -93.109375 C 72.644531 -92.835938 72.285156 -92.34375 71.921875 -91.625 C 71.554688 -90.90625 71.257812 -89.867188 71.03125 -88.515625 C 70.8125 -87.171875 70.703125 -85.375 70.703125 -83.125 L 70.703125 -11.609375 C 70.703125 -9.441406 70.8125 -7.660156 71.03125 -6.265625 C 71.257812 -4.878906 71.554688 -3.828125 71.921875 -3.109375 C 72.285156 -2.390625 72.644531 -1.894531 73 -1.625 C 73.363281 -1.351562 73.632812 -1.21875 73.8125 -1.21875 L 73.8125 0 L 57.890625 0 L 57.890625 -1.21875 C 58.066406 -1.21875 58.332031 -1.351562 58.6875 -1.625 C 59.050781 -1.894531 59.390625 -2.390625 59.703125 -3.109375 C 60.023438 -3.828125 60.316406 -4.878906 60.578125 -6.265625 C 60.847656 -7.660156 60.984375 -9.441406 60.984375 -11.609375 L 60.984375 -55.59375 L 16.734375 -55.59375 L 16.734375 -11.609375 C 16.734375 -9.441406 16.84375 -7.660156 17.0625 -6.265625 C 17.289062 -4.878906 17.582031 -3.828125 17.9375 -3.109375 C 18.300781 -2.390625 18.660156 -1.894531 19.015625 -1.625 C 19.378906 -1.351562 19.648438 -1.21875 19.828125 -1.21875 L 19.828125 0 L 4.046875 0 L 4.046875 -1.21875 C 4.222656 -1.21875 4.488281 -1.351562 4.84375 -1.625 C 5.207031 -1.894531 5.546875 -2.390625 5.859375 -3.109375 C 6.179688 -3.828125 6.476562 -4.878906 6.75 -6.265625 C 7.019531 -7.660156 7.15625 -9.441406 7.15625 -11.609375 L 7.15625 -83.125 C 7.15625 -85.375 7.019531 -87.171875 6.75 -88.515625 C 6.476562 -89.867188 6.179688 -90.90625 5.859375 -91.625 C 5.546875 -92.34375 5.207031 -92.835938 4.84375 -93.109375 C 4.488281 -93.378906 4.222656 -93.515625 4.046875 -93.515625 L 4.046875 -94.71875 L 19.828125 -94.71875 L 19.828125 -93.515625 C 19.648438 -93.515625 19.378906 -93.378906 19.015625 -93.109375 C 18.660156 -92.835938 18.300781 -92.34375 17.9375 -91.625 C 17.582031 -90.90625 17.289062 -89.867188 17.0625 -88.515625 C 16.84375 -87.171875 16.734375 -85.375 16.734375 -83.125 L 16.734375 -56.8125 L 60.984375 -56.8125 L 60.984375 -83.125 C 60.984375 -85.375 60.847656 -87.171875 60.578125 -88.515625 C 60.316406 -89.867188 60.023438 -90.90625 59.703125 -91.625 C 59.390625 -92.34375 59.050781 -92.835938 58.6875 -93.109375 C 58.332031 -93.378906 58.066406 -93.515625 57.890625 -93.515625 L 57.890625 -94.71875 L 73.8125 -94.71875 Z M 73.8125 -93.515625 "/></g></g></g><g fill="#000000" fill-opacity="1"><g transform="translate(233.928149, 247.083229)"><g><path d="M 60.59375 0 L 48.171875 0 L 48.171875 -34.8125 C 47.546875 -30.757812 46.78125 -27.066406 45.875 -23.734375 C 44.976562 -20.410156 43.945312 -17.445312 42.78125 -14.84375 C 41.875 -12.957031 40.835938 -11.113281 39.671875 -9.3125 C 38.503906 -7.507812 37.128906 -5.863281 35.546875 -4.375 C 33.972656 -2.894531 32.265625 -1.703125 30.421875 -0.796875 C 28.578125 0.0976562 26.53125 0.546875 24.28125 0.546875 C 20.59375 0.546875 17.601562 -0.21875 15.3125 -1.75 C 13.019531 -3.28125 11.222656 -5.257812 9.921875 -7.6875 C 8.617188 -10.113281 7.71875 -12.859375 7.21875 -15.921875 C 6.726562 -18.984375 6.484375 -22.039062 6.484375 -25.09375 L 6.484375 -53.4375 C 6.484375 -55.6875 6.347656 -57.484375 6.078125 -58.828125 C 5.804688 -60.179688 5.507812 -61.21875 5.1875 -61.9375 C 4.875 -62.65625 4.535156 -63.148438 4.171875 -63.421875 C 3.816406 -63.691406 3.550781 -63.828125 3.375 -63.828125 L 3.375 -65.046875 L 15.921875 -65.046875 L 15.921875 -25.09375 C 15.921875 -23.476562 16.007812 -21.519531 16.1875 -19.21875 C 16.375 -16.925781 16.757812 -14.675781 17.34375 -12.46875 C 17.925781 -10.269531 18.78125 -8.269531 19.90625 -6.46875 C 21.03125 -4.675781 22.535156 -3.460938 24.421875 -2.828125 C 26.304688 -2.203125 28.148438 -2.203125 29.953125 -2.828125 C 31.753906 -3.460938 33.394531 -4.453125 34.875 -5.796875 C 36.363281 -7.148438 37.691406 -8.679688 38.859375 -10.390625 C 40.023438 -12.097656 40.972656 -13.71875 41.703125 -15.25 C 43.679688 -19.5625 45.253906 -24.84375 46.421875 -31.09375 C 47.585938 -37.351562 48.171875 -44.800781 48.171875 -53.4375 C 48.171875 -55.6875 48.035156 -57.484375 47.765625 -58.828125 C 47.492188 -60.179688 47.203125 -61.21875 46.890625 -61.9375 C 46.578125 -62.65625 46.238281 -63.148438 45.875 -63.421875 C 45.519531 -63.691406 45.25 -63.828125 45.0625 -63.828125 L 45.0625 -65.046875 L 57.484375 -65.046875 L 57.484375 -11.609375 C 57.484375 -9.359375 57.59375 -7.554688 57.8125 -6.203125 C 58.039062 -4.859375 58.332031 -3.800781 58.6875 -3.03125 C 59.050781 -2.269531 59.410156 -1.773438 59.765625 -1.546875 C 60.128906 -1.328125 60.40625 -1.21875 60.59375 -1.21875 Z M 60.59375 0 "/></g></g></g><g fill="#000000" fill-opacity="1"><g transform="translate(297.884658, 247.083229)"><g><path d="M 16.0625 -29.28125 C 16.6875 -33.601562 17.5625 -37.515625 18.6875 -41.015625 C 19.8125 -44.523438 21.140625 -47.722656 22.671875 -50.609375 C 25.546875 -55.910156 28.828125 -59.734375 32.515625 -62.078125 C 32.878906 -62.335938 33.421875 -62.648438 34.140625 -63.015625 C 36.472656 -64.367188 38.941406 -65.242188 41.546875 -65.640625 C 44.160156 -66.046875 46.773438 -66.023438 49.390625 -65.578125 C 54.066406 -64.765625 57.910156 -63.234375 60.921875 -60.984375 C 63.929688 -58.742188 66.222656 -56.023438 67.796875 -52.828125 C 69.378906 -49.628906 70.304688 -46.164062 70.578125 -42.4375 C 70.847656 -38.707031 70.53125 -34.929688 69.625 -31.109375 C 68.726562 -27.285156 67.332031 -23.570312 65.4375 -19.96875 C 63.550781 -16.375 61.257812 -13.179688 58.5625 -10.390625 C 55.226562 -6.972656 51.3125 -4.179688 46.8125 -2.015625 C 42.320312 0.140625 37.378906 1.171875 31.984375 1.078125 C 27.304688 1.171875 22 0.09375 16.0625 -2.15625 L 15.25 -2.5625 C 13.175781 -3.28125 11.421875 -3.367188 9.984375 -2.828125 C 8.546875 -2.296875 7.828125 -1.351562 7.828125 0 L 6.609375 0 L 6.609375 -85.953125 C 6.335938 -88.296875 5.882812 -89.828125 5.25 -90.546875 C 4.625 -91.265625 4.132812 -91.625 3.78125 -91.625 L 3.375 -92.84375 L 16.0625 -97.5625 Z M 16.0625 -3.234375 C 18.9375 -2.066406 21.703125 -1.234375 24.359375 -0.734375 C 27.015625 -0.242188 29.597656 0.046875 32.109375 0.140625 C 36.878906 -0.046875 40.992188 -1.304688 44.453125 -3.640625 C 47.921875 -5.984375 50.828125 -9.222656 53.171875 -13.359375 C 54.785156 -16.328125 56.0625 -19.898438 57 -24.078125 C 57.945312 -28.265625 58.421875 -32.515625 58.421875 -36.828125 C 58.421875 -41.148438 57.835938 -45.265625 56.671875 -49.171875 C 55.503906 -53.085938 53.660156 -56.304688 51.140625 -58.828125 C 48.804688 -61.171875 46.242188 -62.703125 43.453125 -63.421875 C 40.660156 -64.140625 37.734375 -63.734375 34.671875 -62.203125 C 31.253906 -60.222656 28.378906 -57.4375 26.046875 -53.84375 C 23.703125 -50.425781 21.832031 -46.644531 20.4375 -42.5 C 19.039062 -38.363281 17.984375 -34.226562 17.265625 -30.09375 C 16.910156 -28.113281 16.644531 -26.132812 16.46875 -24.15625 C 16.195312 -21.726562 16.0625 -19.253906 16.0625 -16.734375 Z M 16.0625 -3.234375 "/></g></g></g></svg>