<svg xmlns="http://www.w3.org/2000/svg" xmlns:xlink="http://www.w3.org/1999/xlink" width="500" zoomAndPan="magnify" viewBox="0 0 375 374.999991" height="500" preserveAspectRatio="xMidYMid meet" version="1.0"><defs><g/></defs><g fill="#000000" fill-opacity="1"><g transform="translate(37.500002, 153.944283)"><g><path d="M 10.671875 -49.9375 C 10.578125 -49.9375 10.429688 -49.863281 10.234375 -49.71875 C 10.046875 -49.570312 9.851562 -49.304688 9.65625 -48.921875 C 9.46875 -48.535156 9.3125 -47.984375 9.1875 -47.265625 C 9.070312 -46.546875 9.015625 -45.582031 9.015625 -44.375 L 9.015625 -0.65625 L 17.171875 -0.65625 C 18.953125 -0.84375 20.578125 -1.101562 22.046875 -1.4375 C 23.515625 -1.78125 24.859375 -2.175781 26.078125 -2.625 C 27.304688 -3.082031 28.460938 -3.597656 29.546875 -4.171875 C 30.628906 -4.753906 31.722656 -5.382812 32.828125 -6.0625 L 33.484375 -6.0625 L 33.484375 0.078125 L 27.28125 0.078125 L 25.40625 0 L 2.171875 0 L 2.171875 -0.65625 C 2.265625 -0.65625 2.40625 -0.710938 2.59375 -0.828125 C 2.789062 -0.953125 2.972656 -1.21875 3.140625 -1.625 C 3.304688 -2.03125 3.460938 -2.59375 3.609375 -3.3125 C 3.753906 -4.039062 3.828125 -5.003906 3.828125 -6.203125 L 3.828125 -44.375 C 3.828125 -45.582031 3.753906 -46.546875 3.609375 -47.265625 C 3.460938 -47.984375 3.304688 -48.535156 3.140625 -48.921875 C 2.972656 -49.304688 2.789062 -49.570312 2.59375 -49.71875 C 2.40625 -49.863281 2.265625 -49.9375 2.171875 -49.9375 L 2.171875 -50.578125 L 10.671875 -50.578125 Z M 10.671875 -49.9375 "/></g></g></g><g fill="#000000" fill-opacity="1"><g transform="translate(69.535253, 153.944283)"><g><path d="M 2.453125 -12.765625 C 1.828125 -15.128906 1.679688 -17.460938 2.015625 -19.765625 C 2.359375 -22.078125 3.09375 -24.207031 4.21875 -26.15625 C 5.351562 -28.101562 6.832031 -29.796875 8.65625 -31.234375 C 10.488281 -32.679688 12.582031 -33.71875 14.9375 -34.34375 C 17.4375 -35.019531 19.835938 -35.175781 22.140625 -34.8125 C 24.453125 -34.457031 26.546875 -33.75 28.421875 -32.6875 C 30.304688 -31.625 31.921875 -30.273438 33.265625 -28.640625 C 34.609375 -27.003906 35.570312 -25.226562 36.15625 -23.3125 C 34.414062 -23.3125 32.546875 -23.238281 30.546875 -23.09375 C 28.554688 -22.945312 26.742188 -22.679688 25.109375 -22.296875 C 26.453125 -22.347656 27.6875 -22.117188 28.8125 -21.609375 C 29.945312 -21.109375 30.921875 -20.421875 31.734375 -19.546875 C 32.554688 -18.679688 33.207031 -17.671875 33.6875 -16.515625 C 34.175781 -15.367188 34.46875 -14.171875 34.5625 -12.921875 C 34.75 -10.316406 34.207031 -8.0625 32.9375 -6.15625 C 31.664062 -4.257812 29.984375 -2.769531 27.890625 -1.6875 C 25.796875 -0.613281 23.445312 0.00390625 20.84375 0.171875 C 18.25 0.347656 15.738281 0.00390625 13.3125 -0.859375 C 10.882812 -1.734375 8.679688 -3.144531 6.703125 -5.09375 C 4.734375 -7.039062 3.316406 -9.597656 2.453125 -12.765625 Z M 6.703125 -17.96875 C 6.847656 -16.570312 7.066406 -15.273438 7.359375 -14.078125 C 8.273438 -10.609375 9.671875 -7.882812 11.546875 -5.90625 C 13.421875 -3.9375 15.453125 -2.59375 17.640625 -1.875 C 19.828125 -1.15625 22.023438 -1 24.234375 -1.40625 C 26.453125 -1.8125 28.378906 -2.640625 30.015625 -3.890625 C 31.648438 -5.140625 32.835938 -6.738281 33.578125 -8.6875 C 34.328125 -10.632812 34.34375 -12.8125 33.625 -15.21875 C 33.238281 -16.519531 32.613281 -17.695312 31.75 -18.75 C 30.882812 -19.8125 29.828125 -20.59375 28.578125 -21.09375 C 27.328125 -21.601562 25.90625 -21.796875 24.3125 -21.671875 C 22.726562 -21.554688 21.046875 -20.972656 19.265625 -19.921875 C 17.535156 -18.910156 15.835938 -18.195312 14.171875 -17.78125 C 12.515625 -17.375 10.988281 -17.21875 9.59375 -17.3125 C 9.0625 -17.363281 8.554688 -17.425781 8.078125 -17.5 C 7.597656 -17.570312 7.140625 -17.726562 6.703125 -17.96875 Z M 30.59375 -23.671875 C 29.914062 -25.203125 29.046875 -26.675781 27.984375 -28.09375 C 26.929688 -29.519531 25.742188 -30.738281 24.421875 -31.75 C 23.097656 -32.757812 21.640625 -33.476562 20.046875 -33.90625 C 18.460938 -34.34375 16.804688 -34.320312 15.078125 -33.84375 C 13.441406 -33.40625 12.070312 -32.65625 10.96875 -31.59375 C 9.863281 -30.539062 8.984375 -29.316406 8.328125 -27.921875 C 7.679688 -26.523438 7.222656 -25.007812 6.953125 -23.375 C 6.691406 -21.738281 6.609375 -20.128906 6.703125 -18.546875 C 7.523438 -18.160156 8.488281 -17.921875 9.59375 -17.828125 C 10.9375 -17.722656 12.414062 -17.875 14.03125 -18.28125 C 15.644531 -18.695312 17.296875 -19.382812 18.984375 -20.34375 C 20.992188 -21.5 23.007812 -22.316406 25.03125 -22.796875 C 27.050781 -23.273438 28.90625 -23.566406 30.59375 -23.671875 Z M 30.59375 -23.671875 "/></g></g></g><g fill="#000000" fill-opacity="1"><g transform="translate(103.879382, 153.944283)"><g><path d="M 1.796875 -34.78125 C 2.085938 -34.78125 2.617188 -34.851562 3.390625 -35 C 4.160156 -35.144531 4.941406 -35.539062 5.734375 -36.1875 C 6.523438 -36.832031 7.222656 -37.816406 7.828125 -39.140625 C 8.429688 -40.460938 8.734375 -42.304688 8.734375 -44.671875 L 13.78125 -44.671875 C 13.78125 -41.773438 13.203125 -39.546875 12.046875 -37.984375 C 10.890625 -36.421875 9.160156 -35.351562 6.859375 -34.78125 L 17.671875 -34.78125 L 17.671875 -34.28125 L 11.40625 -34.28125 L 11.40625 -13.421875 C 11.40625 -12.554688 11.453125 -11.507812 11.546875 -10.28125 C 11.640625 -9.050781 11.84375 -7.847656 12.15625 -6.671875 C 12.46875 -5.492188 12.925781 -4.421875 13.53125 -3.453125 C 14.132812 -2.492188 14.941406 -1.847656 15.953125 -1.515625 C 16.960938 -1.179688 17.945312 -1.179688 18.90625 -1.515625 C 19.863281 -1.847656 20.738281 -2.375 21.53125 -3.09375 C 22.332031 -3.820312 23.046875 -4.640625 23.671875 -5.546875 C 24.296875 -6.460938 24.800781 -7.332031 25.1875 -8.15625 C 25.46875 -8.820312 25.738281 -9.53125 26 -10.28125 C 26.269531 -11.03125 26.523438 -11.8125 26.765625 -12.625 L 27.421875 -12.625 C 27.179688 -11.757812 26.925781 -10.929688 26.65625 -10.140625 C 26.394531 -9.347656 26.097656 -8.613281 25.765625 -7.9375 C 25.328125 -6.925781 24.78125 -5.9375 24.125 -4.96875 C 23.476562 -4.007812 22.742188 -3.132812 21.921875 -2.34375 C 21.109375 -1.550781 20.195312 -0.914062 19.1875 -0.4375 C 18.175781 0.0390625 17.070312 0.28125 15.875 0.28125 C 13.90625 0.28125 12.304688 -0.125 11.078125 -0.9375 C 9.847656 -1.757812 8.882812 -2.816406 8.1875 -4.109375 C 7.488281 -5.410156 7.003906 -6.878906 6.734375 -8.515625 C 6.472656 -10.148438 6.34375 -11.785156 6.34375 -13.421875 L 6.34375 -29.875 C 6.34375 -31.070312 5.929688 -32.101562 5.109375 -32.96875 C 4.296875 -33.84375 3.191406 -34.28125 1.796875 -34.28125 Z M 1.796875 -34.78125 "/></g></g></g><g fill="#000000" fill-opacity="1"><g transform="translate(129.493082, 153.944283)"><g/></g></g><g fill="#000000" fill-opacity="1"><g transform="translate(141.97506, 153.944283)"><g><path d="M 32.390625 0 L 25.765625 0 L 25.765625 -18.609375 C 25.421875 -16.453125 25.007812 -14.484375 24.53125 -12.703125 C 24.050781 -10.921875 23.5 -9.332031 22.875 -7.9375 C 22.394531 -6.925781 21.84375 -5.9375 21.21875 -4.96875 C 20.59375 -4.007812 19.859375 -3.132812 19.015625 -2.34375 C 18.171875 -1.550781 17.253906 -0.914062 16.265625 -0.4375 C 15.285156 0.0390625 14.191406 0.28125 12.984375 0.28125 C 11.015625 0.28125 9.414062 -0.125 8.1875 -0.9375 C 6.957031 -1.757812 5.992188 -2.816406 5.296875 -4.109375 C 4.597656 -5.410156 4.117188 -6.878906 3.859375 -8.515625 C 3.597656 -10.148438 3.46875 -11.785156 3.46875 -13.421875 L 3.46875 -28.578125 C 3.46875 -29.773438 3.394531 -30.734375 3.25 -31.453125 C 3.101562 -32.179688 2.945312 -32.738281 2.78125 -33.125 C 2.613281 -33.507812 2.429688 -33.769531 2.234375 -33.90625 C 2.046875 -34.050781 1.898438 -34.125 1.796875 -34.125 L 1.796875 -34.78125 L 8.515625 -34.78125 L 8.515625 -13.421875 C 8.515625 -12.554688 8.5625 -11.507812 8.65625 -10.28125 C 8.75 -9.050781 8.953125 -7.847656 9.265625 -6.671875 C 9.578125 -5.492188 10.035156 -4.421875 10.640625 -3.453125 C 11.242188 -2.492188 12.050781 -1.847656 13.0625 -1.515625 C 14.070312 -1.179688 15.054688 -1.179688 16.015625 -1.515625 C 16.984375 -1.847656 17.863281 -2.375 18.65625 -3.09375 C 19.445312 -3.820312 20.15625 -4.640625 20.78125 -5.546875 C 21.40625 -6.460938 21.910156 -7.332031 22.296875 -8.15625 C 23.359375 -10.457031 24.203125 -13.28125 24.828125 -16.625 C 25.453125 -19.96875 25.765625 -23.953125 25.765625 -28.578125 C 25.765625 -29.773438 25.691406 -30.734375 25.546875 -31.453125 C 25.398438 -32.179688 25.242188 -32.738281 25.078125 -33.125 C 24.910156 -33.507812 24.726562 -33.769531 24.53125 -33.90625 C 24.34375 -34.050781 24.195312 -34.125 24.09375 -34.125 L 24.09375 -34.78125 L 30.734375 -34.78125 L 30.734375 -6.203125 C 30.734375 -5.003906 30.789062 -4.039062 30.90625 -3.3125 C 31.03125 -2.59375 31.1875 -2.03125 31.375 -1.625 C 31.570312 -1.21875 31.765625 -0.953125 31.953125 -0.828125 C 32.148438 -0.710938 32.296875 -0.65625 32.390625 -0.65625 Z M 32.390625 0 "/></g></g></g><g fill="#000000" fill-opacity="1"><g transform="translate(172.567265, 153.944283)"><g><path d="M 26.765625 -21.796875 C 26.765625 -22.804688 26.488281 -23.898438 25.9375 -25.078125 C 25.382812 -26.253906 24.625 -27.40625 23.65625 -28.53125 C 22.695312 -29.664062 21.601562 -30.675781 20.375 -31.5625 C 19.15625 -32.457031 17.882812 -33.109375 16.5625 -33.515625 C 15.238281 -33.921875 13.914062 -34.015625 12.59375 -33.796875 C 11.269531 -33.585938 10.078125 -32.929688 9.015625 -31.828125 C 8.003906 -30.816406 7.523438 -29.625 7.578125 -28.25 C 7.628906 -26.875 8.207031 -25.632812 9.3125 -24.53125 C 10.125 -23.71875 11.335938 -22.898438 12.953125 -22.078125 C 14.566406 -21.265625 16.695312 -20.519531 19.34375 -19.84375 C 21.3125 -19.3125 22.96875 -18.6875 24.3125 -17.96875 C 25.664062 -17.25 26.773438 -16.476562 27.640625 -15.65625 C 29.035156 -14.257812 29.851562 -12.695312 30.09375 -10.96875 C 30.332031 -9.238281 29.96875 -7.503906 29 -5.765625 C 28.519531 -4.953125 27.957031 -4.195312 27.3125 -3.5 C 26.664062 -2.800781 25.957031 -2.234375 25.1875 -1.796875 C 24.414062 -1.273438 23.5625 -0.832031 22.625 -0.46875 C 21.6875 -0.101562 20.710938 0.179688 19.703125 0.390625 C 18.691406 0.609375 17.679688 0.753906 16.671875 0.828125 C 15.660156 0.898438 14.695312 0.910156 13.78125 0.859375 C 12.050781 0.722656 10.234375 0.351562 8.328125 -0.25 C 6.429688 -0.851562 4.445312 -1.78125 2.375 -3.03125 L 1.796875 -3.390625 L 3.53125 -11.40625 L 4.109375 -11.25 C 4.015625 -10.820312 4.109375 -10.269531 4.390625 -9.59375 C 4.679688 -8.925781 5.046875 -8.226562 5.484375 -7.5 C 5.921875 -6.78125 6.378906 -6.117188 6.859375 -5.515625 C 7.335938 -4.921875 7.742188 -4.476562 8.078125 -4.1875 C 9.046875 -3.21875 10.101562 -2.457031 11.25 -1.90625 C 12.40625 -1.351562 13.609375 -0.957031 14.859375 -0.71875 C 16.066406 -0.476562 17.257812 -0.378906 18.4375 -0.421875 C 19.613281 -0.472656 20.734375 -0.644531 21.796875 -0.9375 C 22.367188 -1.082031 22.894531 -1.257812 23.375 -1.46875 C 23.851562 -1.6875 24.359375 -1.941406 24.890625 -2.234375 C 25.367188 -2.566406 25.800781 -2.925781 26.1875 -3.3125 C 26.53125 -3.695312 26.832031 -4.101562 27.09375 -4.53125 C 27.351562 -4.96875 27.535156 -5.429688 27.640625 -5.921875 C 27.734375 -6.691406 27.679688 -7.390625 27.484375 -8.015625 C 27.148438 -8.921875 26.585938 -9.695312 25.796875 -10.34375 C 25.003906 -11 24.078125 -11.554688 23.015625 -12.015625 C 21.960938 -12.472656 20.820312 -12.867188 19.59375 -13.203125 C 18.363281 -13.535156 17.148438 -13.894531 15.953125 -14.28125 C 13.640625 -14.957031 11.601562 -15.921875 9.84375 -17.171875 C 8.09375 -18.421875 6.816406 -19.851562 6.015625 -21.46875 C 5.222656 -23.082031 4.984375 -24.800781 5.296875 -26.625 C 5.609375 -28.457031 6.707031 -30.3125 8.59375 -32.1875 C 9.84375 -33.476562 11.488281 -34.28125 13.53125 -34.59375 C 15.570312 -34.90625 17.640625 -34.90625 19.734375 -34.59375 C 21.828125 -34.28125 23.726562 -33.703125 25.4375 -32.859375 C 27.144531 -32.023438 28.3125 -31.078125 28.9375 -30.015625 L 27.125 -21.796875 Z M 26.765625 -21.796875 "/></g></g></g><g fill="#000000" fill-opacity="1"><g transform="translate(37.500002, 222.194275)"><g><path d="M 1.796875 -32.1875 L 8.59375 -34.78125 L 8.59375 -6.203125 C 8.59375 -5.003906 8.648438 -4.039062 8.765625 -3.3125 C 8.890625 -2.59375 9.046875 -2.03125 9.234375 -1.625 C 9.429688 -1.21875 9.625 -0.953125 9.8125 -0.828125 C 10.007812 -0.710938 10.15625 -0.65625 10.25 -0.65625 L 10.25 0 L 1.875 0 L 1.875 -0.65625 C 2.019531 -0.65625 2.1875 -0.710938 2.375 -0.828125 C 2.570312 -0.953125 2.753906 -1.21875 2.921875 -1.625 C 3.085938 -2.03125 3.242188 -2.59375 3.390625 -3.3125 C 3.535156 -4.039062 3.609375 -5.003906 3.609375 -6.203125 L 3.609375 -28.5 C 3.410156 -29.800781 3.144531 -30.644531 2.8125 -31.03125 C 2.476562 -31.414062 2.210938 -31.609375 2.015625 -31.609375 Z M 5.5625 -40.625 C 4.59375 -40.625 3.785156 -40.945312 3.140625 -41.59375 C 2.492188 -42.25 2.171875 -43.054688 2.171875 -44.015625 C 2.171875 -44.972656 2.492188 -45.773438 3.140625 -46.421875 C 3.785156 -47.078125 4.59375 -47.40625 5.5625 -47.40625 C 6.519531 -47.40625 7.320312 -47.078125 7.96875 -46.421875 C 8.625 -45.773438 8.953125 -44.972656 8.953125 -44.015625 C 8.953125 -43.054688 8.625 -42.25 7.96875 -41.59375 C 7.320312 -40.945312 6.519531 -40.625 5.5625 -40.625 Z M 5.5625 -40.625 "/></g></g></g><g fill="#000000" fill-opacity="1"><g transform="translate(45.941452, 222.194275)"><g><path d="M 1.796875 -34.78125 L 8.4375 -34.78125 L 8.4375 -16.09375 C 8.726562 -18.300781 9.125 -20.296875 9.625 -22.078125 C 10.132812 -23.859375 10.703125 -25.445312 11.328125 -26.84375 C 11.804688 -27.851562 12.359375 -28.835938 12.984375 -29.796875 C 13.609375 -30.765625 14.34375 -31.644531 15.1875 -32.4375 C 16.03125 -33.226562 16.941406 -33.863281 17.921875 -34.34375 C 18.910156 -34.820312 20.007812 -35.0625 21.21875 -35.0625 C 23.1875 -35.0625 24.785156 -34.648438 26.015625 -33.828125 C 27.242188 -33.015625 28.203125 -31.957031 28.890625 -30.65625 C 29.585938 -29.363281 30.066406 -27.898438 30.328125 -26.265625 C 30.597656 -24.628906 30.734375 -22.992188 30.734375 -21.359375 L 30.734375 -6.203125 C 30.734375 -5.003906 30.789062 -4.039062 30.90625 -3.3125 C 31.03125 -2.59375 31.1875 -2.03125 31.375 -1.625 C 31.570312 -1.21875 31.765625 -0.953125 31.953125 -0.828125 C 32.148438 -0.710938 32.296875 -0.65625 32.390625 -0.65625 L 32.390625 0 L 24.03125 0 L 24.03125 -0.65625 C 24.125 -0.65625 24.265625 -0.710938 24.453125 -0.828125 C 24.648438 -0.953125 24.832031 -1.21875 25 -1.625 C 25.164062 -2.03125 25.320312 -2.59375 25.46875 -3.3125 C 25.613281 -4.039062 25.6875 -5.003906 25.6875 -6.203125 L 25.6875 -21.359375 C 25.6875 -22.222656 25.640625 -23.269531 25.546875 -24.5 C 25.453125 -25.726562 25.25 -26.929688 24.9375 -28.109375 C 24.625 -29.285156 24.164062 -30.351562 23.5625 -31.3125 C 22.957031 -32.28125 22.148438 -32.929688 21.140625 -33.265625 C 20.128906 -33.597656 19.140625 -33.582031 18.171875 -33.21875 C 17.210938 -32.863281 16.335938 -32.320312 15.546875 -31.59375 C 14.753906 -30.875 14.046875 -30.054688 13.421875 -29.140625 C 12.796875 -28.234375 12.289062 -27.367188 11.90625 -26.546875 C 10.84375 -24.242188 10 -21.421875 9.375 -18.078125 C 8.75 -14.734375 8.4375 -10.773438 8.4375 -6.203125 C 8.4375 -5.003906 8.492188 -4.039062 8.609375 -3.3125 C 8.734375 -2.59375 8.890625 -2.03125 9.078125 -1.625 C 9.273438 -1.21875 9.46875 -0.953125 9.65625 -0.828125 C 9.851562 -0.710938 10.003906 -0.65625 10.109375 -0.65625 L 10.109375 0 L 1.796875 0 L 1.796875 -0.65625 C 1.898438 -0.65625 2.046875 -0.710938 2.234375 -0.828125 C 2.429688 -0.953125 2.613281 -1.21875 2.78125 -1.625 C 2.945312 -2.03125 3.101562 -2.59375 3.25 -3.3125 C 3.394531 -4.039062 3.46875 -5.003906 3.46875 -6.203125 L 3.46875 -28.578125 C 3.46875 -29.734375 3.394531 -30.679688 3.25 -31.421875 C 3.101562 -32.171875 2.945312 -32.738281 2.78125 -33.125 C 2.613281 -33.507812 2.429688 -33.769531 2.234375 -33.90625 C 2.046875 -34.050781 1.898438 -34.125 1.796875 -34.125 Z M 1.796875 -34.78125 "/></g></g></g><g fill="#000000" fill-opacity="1"><g transform="translate(76.53366, 222.194275)"><g><path d="M 26.765625 -21.796875 C 26.765625 -22.804688 26.488281 -23.898438 25.9375 -25.078125 C 25.382812 -26.253906 24.625 -27.40625 23.65625 -28.53125 C 22.695312 -29.664062 21.601562 -30.675781 20.375 -31.5625 C 19.15625 -32.457031 17.882812 -33.109375 16.5625 -33.515625 C 15.238281 -33.921875 13.914062 -34.015625 12.59375 -33.796875 C 11.269531 -33.585938 10.078125 -32.929688 9.015625 -31.828125 C 8.003906 -30.816406 7.523438 -29.625 7.578125 -28.25 C 7.628906 -26.875 8.207031 -25.632812 9.3125 -24.53125 C 10.125 -23.71875 11.335938 -22.898438 12.953125 -22.078125 C 14.566406 -21.265625 16.695312 -20.519531 19.34375 -19.84375 C 21.3125 -19.3125 22.96875 -18.6875 24.3125 -17.96875 C 25.664062 -17.25 26.773438 -16.476562 27.640625 -15.65625 C 29.035156 -14.257812 29.851562 -12.695312 30.09375 -10.96875 C 30.332031 -9.238281 29.96875 -7.503906 29 -5.765625 C 28.519531 -4.953125 27.957031 -4.195312 27.3125 -3.5 C 26.664062 -2.800781 25.957031 -2.234375 25.1875 -1.796875 C 24.414062 -1.273438 23.5625 -0.832031 22.625 -0.46875 C 21.6875 -0.101562 20.710938 0.179688 19.703125 0.390625 C 18.691406 0.609375 17.679688 0.753906 16.671875 0.828125 C 15.660156 0.898438 14.695312 0.910156 13.78125 0.859375 C 12.050781 0.722656 10.234375 0.351562 8.328125 -0.25 C 6.429688 -0.851562 4.445312 -1.78125 2.375 -3.03125 L 1.796875 -3.390625 L 3.53125 -11.40625 L 4.109375 -11.25 C 4.015625 -10.820312 4.109375 -10.269531 4.390625 -9.59375 C 4.679688 -8.925781 5.046875 -8.226562 5.484375 -7.5 C 5.921875 -6.78125 6.378906 -6.117188 6.859375 -5.515625 C 7.335938 -4.921875 7.742188 -4.476562 8.078125 -4.1875 C 9.046875 -3.21875 10.101562 -2.457031 11.25 -1.90625 C 12.40625 -1.351562 13.609375 -0.957031 14.859375 -0.71875 C 16.066406 -0.476562 17.257812 -0.378906 18.4375 -0.421875 C 19.613281 -0.472656 20.734375 -0.644531 21.796875 -0.9375 C 22.367188 -1.082031 22.894531 -1.257812 23.375 -1.46875 C 23.851562 -1.6875 24.359375 -1.941406 24.890625 -2.234375 C 25.367188 -2.566406 25.800781 -2.925781 26.1875 -3.3125 C 26.53125 -3.695312 26.832031 -4.101562 27.09375 -4.53125 C 27.351562 -4.96875 27.535156 -5.429688 27.640625 -5.921875 C 27.734375 -6.691406 27.679688 -7.390625 27.484375 -8.015625 C 27.148438 -8.921875 26.585938 -9.695312 25.796875 -10.34375 C 25.003906 -11 24.078125 -11.554688 23.015625 -12.015625 C 21.960938 -12.472656 20.820312 -12.867188 19.59375 -13.203125 C 18.363281 -13.535156 17.148438 -13.894531 15.953125 -14.28125 C 13.640625 -14.957031 11.601562 -15.921875 9.84375 -17.171875 C 8.09375 -18.421875 6.816406 -19.851562 6.015625 -21.46875 C 5.222656 -23.082031 4.984375 -24.800781 5.296875 -26.625 C 5.609375 -28.457031 6.707031 -30.3125 8.59375 -32.1875 C 9.84375 -33.476562 11.488281 -34.28125 13.53125 -34.59375 C 15.570312 -34.90625 17.640625 -34.90625 19.734375 -34.59375 C 21.828125 -34.28125 23.726562 -33.703125 25.4375 -32.859375 C 27.144531 -32.023438 28.3125 -31.078125 28.9375 -30.015625 L 27.125 -21.796875 Z M 26.765625 -21.796875 "/></g></g></g><g fill="#000000" fill-opacity="1"><g transform="translate(104.961301, 222.194275)"><g><path d="M 8.4375 -15.296875 C 8.78125 -17.703125 9.265625 -19.890625 9.890625 -21.859375 C 10.515625 -23.835938 11.257812 -25.617188 12.125 -27.203125 C 13.5625 -29.992188 15.289062 -32.015625 17.3125 -33.265625 C 17.507812 -33.410156 17.800781 -33.578125 18.1875 -33.765625 C 19.4375 -34.535156 20.757812 -35.015625 22.15625 -35.203125 C 23.550781 -35.398438 24.96875 -35.378906 26.40625 -35.140625 C 28.90625 -34.703125 30.960938 -33.882812 32.578125 -32.6875 C 34.191406 -31.488281 35.414062 -30.035156 36.25 -28.328125 C 37.09375 -26.617188 37.570312 -24.765625 37.6875 -22.765625 C 37.8125 -20.765625 37.644531 -18.742188 37.1875 -16.703125 C 36.738281 -14.660156 35.992188 -12.675781 34.953125 -10.75 C 33.921875 -8.820312 32.6875 -7.113281 31.25 -5.625 C 29.46875 -3.800781 27.382812 -2.320312 25 -1.1875 C 22.625 -0.0625 19.96875 0.5 17.03125 0.5 C 15.78125 0.5 14.441406 0.367188 13.015625 0.109375 C 11.597656 -0.148438 10.070312 -0.617188 8.4375 -1.296875 L 8.4375 11.1875 C 8.632812 12.4375 8.898438 13.253906 9.234375 13.640625 C 9.566406 14.023438 9.804688 14.21875 9.953125 14.21875 L 10.25 14.859375 L 3.46875 17.46875 L 3.46875 -28.5 C 3.46875 -29.707031 3.394531 -30.671875 3.25 -31.390625 C 3.101562 -32.109375 2.945312 -32.660156 2.78125 -33.046875 C 2.613281 -33.429688 2.429688 -33.695312 2.234375 -33.84375 C 2.046875 -33.988281 1.898438 -34.0625 1.796875 -34.0625 L 1.796875 -34.703125 L 8.4375 -34.703125 Z M 8.4375 -1.875 C 11.46875 -0.675781 14.351562 -0.078125 17.09375 -0.078125 C 19.644531 -0.171875 21.859375 -0.828125 23.734375 -2.046875 C 25.609375 -3.273438 27.148438 -5 28.359375 -7.21875 C 29.273438 -8.800781 29.984375 -10.710938 30.484375 -12.953125 C 30.992188 -15.191406 31.234375 -17.460938 31.203125 -19.765625 C 31.179688 -22.078125 30.867188 -24.28125 30.265625 -26.375 C 29.671875 -28.46875 28.695312 -30.1875 27.34375 -31.53125 C 26.09375 -32.78125 24.707031 -33.597656 23.1875 -33.984375 C 21.675781 -34.367188 20.101562 -34.15625 18.46875 -33.34375 C 17.550781 -32.8125 16.71875 -32.171875 15.96875 -31.421875 C 15.226562 -30.679688 14.523438 -29.828125 13.859375 -28.859375 C 12.648438 -27.078125 11.660156 -25.078125 10.890625 -22.859375 C 10.117188 -20.648438 9.539062 -18.414062 9.15625 -16.15625 L 8.734375 -13.0625 C 8.585938 -11.519531 8.515625 -9.929688 8.515625 -8.296875 L 8.4375 -8.296875 Z M 8.4375 -1.875 "/></g></g></g><g fill="#000000" fill-opacity="1"><g transform="translate(140.964924, 222.194275)"><g><path d="M 1.796875 -32.1875 L 8.59375 -34.78125 L 8.59375 -6.203125 C 8.59375 -5.003906 8.648438 -4.039062 8.765625 -3.3125 C 8.890625 -2.59375 9.046875 -2.03125 9.234375 -1.625 C 9.429688 -1.21875 9.625 -0.953125 9.8125 -0.828125 C 10.007812 -0.710938 10.15625 -0.65625 10.25 -0.65625 L 10.25 0 L 1.875 0 L 1.875 -0.65625 C 2.019531 -0.65625 2.1875 -0.710938 2.375 -0.828125 C 2.570312 -0.953125 2.753906 -1.21875 2.921875 -1.625 C 3.085938 -2.03125 3.242188 -2.59375 3.390625 -3.3125 C 3.535156 -4.039062 3.609375 -5.003906 3.609375 -6.203125 L 3.609375 -28.5 C 3.410156 -29.800781 3.144531 -30.644531 2.8125 -31.03125 C 2.476562 -31.414062 2.210938 -31.609375 2.015625 -31.609375 Z M 5.5625 -40.625 C 4.59375 -40.625 3.785156 -40.945312 3.140625 -41.59375 C 2.492188 -42.25 2.171875 -43.054688 2.171875 -44.015625 C 2.171875 -44.972656 2.492188 -45.773438 3.140625 -46.421875 C 3.785156 -47.078125 4.59375 -47.40625 5.5625 -47.40625 C 6.519531 -47.40625 7.320312 -47.078125 7.96875 -46.421875 C 8.625 -45.773438 8.953125 -44.972656 8.953125 -44.015625 C 8.953125 -43.054688 8.625 -42.25 7.96875 -41.59375 C 7.320312 -40.945312 6.519531 -40.625 5.5625 -40.625 Z M 5.5625 -40.625 "/></g></g></g><g fill="#000000" fill-opacity="1"><g transform="translate(149.406371, 222.194275)"><g><path d="M 27.78125 -27.859375 C 28.164062 -26.023438 28.644531 -25.179688 29.21875 -25.328125 L 29.4375 -24.75 L 25.546875 -23.234375 L 25.328125 -23.15625 L 21.578125 -21.71875 L 21.578125 -22.375 C 22.109375 -22.707031 22.46875 -23.242188 22.65625 -23.984375 C 22.851562 -24.734375 22.953125 -25.445312 22.953125 -26.125 C 22.847656 -26.9375 22.710938 -27.738281 22.546875 -28.53125 C 22.378906 -29.332031 22.125 -30.066406 21.78125 -30.734375 C 21.445312 -31.410156 21.003906 -31.976562 20.453125 -32.4375 C 19.898438 -32.894531 19.238281 -33.171875 18.46875 -33.265625 C 16.445312 -33.554688 14.8125 -33.457031 13.5625 -32.96875 C 12.3125 -32.488281 11.328125 -31.769531 10.609375 -30.8125 C 9.890625 -29.851562 9.375 -28.734375 9.0625 -27.453125 C 8.75 -26.179688 8.566406 -24.867188 8.515625 -23.515625 L 8.515625 -6.203125 C 8.515625 -5.003906 8.570312 -4.039062 8.6875 -3.3125 C 8.8125 -2.59375 8.96875 -2.03125 9.15625 -1.625 C 9.351562 -1.21875 9.546875 -0.953125 9.734375 -0.828125 C 9.929688 -0.710938 10.078125 -0.65625 10.171875 -0.65625 L 10.171875 0 L 1.796875 0 L 1.796875 -0.65625 C 1.941406 -0.65625 2.109375 -0.710938 2.296875 -0.828125 C 2.492188 -0.953125 2.675781 -1.21875 2.84375 -1.625 C 3.019531 -2.03125 3.175781 -2.59375 3.3125 -3.3125 C 3.457031 -4.039062 3.53125 -5.003906 3.53125 -6.203125 L 3.53125 -28.578125 C 3.53125 -29.773438 3.457031 -30.734375 3.3125 -31.453125 C 3.175781 -32.179688 3.019531 -32.738281 2.84375 -33.125 C 2.675781 -33.507812 2.492188 -33.769531 2.296875 -33.90625 C 2.109375 -34.050781 1.941406 -34.125 1.796875 -34.125 L 1.796875 -34.78125 L 8.515625 -34.78125 L 8.515625 -27.921875 C 8.753906 -28.929688 9.113281 -29.878906 9.59375 -30.765625 C 10.070312 -31.660156 10.707031 -32.421875 11.5 -33.046875 C 12.300781 -33.671875 13.273438 -34.160156 14.421875 -34.515625 C 15.578125 -34.878906 16.972656 -35.0625 18.609375 -35.0625 C 21.359375 -35.0625 23.460938 -34.390625 24.921875 -33.046875 C 26.390625 -31.703125 27.34375 -29.972656 27.78125 -27.859375 Z M 27.78125 -27.859375 "/></g></g></g><g fill="#000000" fill-opacity="1"><g transform="translate(177.040336, 222.194275)"><g><path d="M 2.453125 -12.765625 C 1.828125 -15.128906 1.679688 -17.460938 2.015625 -19.765625 C 2.359375 -22.078125 3.09375 -24.207031 4.21875 -26.15625 C 5.351562 -28.101562 6.832031 -29.796875 8.65625 -31.234375 C 10.488281 -32.679688 12.582031 -33.71875 14.9375 -34.34375 C 17.4375 -35.019531 19.835938 -35.175781 22.140625 -34.8125 C 24.453125 -34.457031 26.546875 -33.75 28.421875 -32.6875 C 30.304688 -31.625 31.921875 -30.273438 33.265625 -28.640625 C 34.609375 -27.003906 35.570312 -25.226562 36.15625 -23.3125 C 34.414062 -23.3125 32.546875 -23.238281 30.546875 -23.09375 C 28.554688 -22.945312 26.742188 -22.679688 25.109375 -22.296875 C 26.453125 -22.347656 27.6875 -22.117188 28.8125 -21.609375 C 29.945312 -21.109375 30.921875 -20.421875 31.734375 -19.546875 C 32.554688 -18.679688 33.207031 -17.671875 33.6875 -16.515625 C 34.175781 -15.367188 34.46875 -14.171875 34.5625 -12.921875 C 34.75 -10.316406 34.207031 -8.0625 32.9375 -6.15625 C 31.664062 -4.257812 29.984375 -2.769531 27.890625 -1.6875 C 25.796875 -0.613281 23.445312 0.00390625 20.84375 0.171875 C 18.25 0.347656 15.738281 0.00390625 13.3125 -0.859375 C 10.882812 -1.734375 8.679688 -3.144531 6.703125 -5.09375 C 4.734375 -7.039062 3.316406 -9.597656 2.453125 -12.765625 Z M 6.703125 -17.96875 C 6.847656 -16.570312 7.066406 -15.273438 7.359375 -14.078125 C 8.273438 -10.609375 9.671875 -7.882812 11.546875 -5.90625 C 13.421875 -3.9375 15.453125 -2.59375 17.640625 -1.875 C 19.828125 -1.15625 22.023438 -1 24.234375 -1.40625 C 26.453125 -1.8125 28.378906 -2.640625 30.015625 -3.890625 C 31.648438 -5.140625 32.835938 -6.738281 33.578125 -8.6875 C 34.328125 -10.632812 34.34375 -12.8125 33.625 -15.21875 C 33.238281 -16.519531 32.613281 -17.695312 31.75 -18.75 C 30.882812 -19.8125 29.828125 -20.59375 28.578125 -21.09375 C 27.328125 -21.601562 25.90625 -21.796875 24.3125 -21.671875 C 22.726562 -21.554688 21.046875 -20.972656 19.265625 -19.921875 C 17.535156 -18.910156 15.835938 -18.195312 14.171875 -17.78125 C 12.515625 -17.375 10.988281 -17.21875 9.59375 -17.3125 C 9.0625 -17.363281 8.554688 -17.425781 8.078125 -17.5 C 7.597656 -17.570312 7.140625 -17.726562 6.703125 -17.96875 Z M 30.59375 -23.671875 C 29.914062 -25.203125 29.046875 -26.675781 27.984375 -28.09375 C 26.929688 -29.519531 25.742188 -30.738281 24.421875 -31.75 C 23.097656 -32.757812 21.640625 -33.476562 20.046875 -33.90625 C 18.460938 -34.34375 16.804688 -34.320312 15.078125 -33.84375 C 13.441406 -33.40625 12.070312 -32.65625 10.96875 -31.59375 C 9.863281 -30.539062 8.984375 -29.316406 8.328125 -27.921875 C 7.679688 -26.523438 7.222656 -25.007812 6.953125 -23.375 C 6.691406 -21.738281 6.609375 -20.128906 6.703125 -18.546875 C 7.523438 -18.160156 8.488281 -17.921875 9.59375 -17.828125 C 10.9375 -17.722656 12.414062 -17.875 14.03125 -18.28125 C 15.644531 -18.695312 17.296875 -19.382812 18.984375 -20.34375 C 20.992188 -21.5 23.007812 -22.316406 25.03125 -22.796875 C 27.050781 -23.273438 28.90625 -23.566406 30.59375 -23.671875 Z M 30.59375 -23.671875 "/></g></g></g><g fill="#000000" fill-opacity="1"><g transform="translate(211.384463, 222.194275)"><g/></g></g><g fill="#000000" fill-opacity="1"><g transform="translate(223.86644, 222.194275)"><g><path d="M 9.09375 2.3125 C 8.5625 2.695312 8.296875 3.128906 8.296875 3.609375 C 8.296875 4.085938 8.394531 4.519531 8.59375 4.90625 C 9.21875 6.207031 9.984375 7.375 10.890625 8.40625 C 11.804688 9.4375 12.769531 10.109375 13.78125 10.421875 C 14.789062 10.734375 15.773438 10.539062 16.734375 9.84375 C 17.703125 9.144531 18.59375 7.691406 19.40625 5.484375 L 21.4375 0 L 21.21875 0 L 7.65625 -31.3125 C 7.21875 -32.28125 6.804688 -32.988281 6.421875 -33.4375 C 6.035156 -33.894531 5.53125 -34.125 4.90625 -34.125 L 4.90625 -34.78125 L 14.078125 -34.78125 L 14.078125 -34.125 C 12.722656 -34.125 12.429688 -33.257812 13.203125 -31.53125 L 23.953125 -6.640625 L 32.96875 -30.59375 C 33.257812 -31.414062 33.34375 -32.050781 33.21875 -32.5 C 33.101562 -32.957031 32.925781 -33.304688 32.6875 -33.546875 C 32.394531 -33.835938 32.007812 -34.03125 31.53125 -34.125 L 31.53125 -34.78125 L 37.671875 -34.78125 L 37.671875 -34.125 C 36.847656 -34.125 36.039062 -33.785156 35.25 -33.109375 C 34.457031 -32.441406 33.867188 -31.554688 33.484375 -30.453125 L 19.921875 5.625 C 18.953125 8.320312 17.804688 10.367188 16.484375 11.765625 C 15.160156 13.160156 13.726562 13.925781 12.1875 14.0625 C 10.65625 14.207031 9.035156 13.738281 7.328125 12.65625 C 5.617188 11.582031 3.921875 9.9375 2.234375 7.71875 L 1.796875 7.21875 L 8.65625 1.796875 Z M 9.09375 2.3125 "/></g></g></g><g fill="#000000" fill-opacity="1"><g transform="translate(259.725765, 222.194275)"><g><path d="M 2.453125 -13.203125 C 1.828125 -15.554688 1.679688 -17.890625 2.015625 -20.203125 C 2.359375 -22.515625 3.09375 -24.644531 4.21875 -26.59375 C 5.351562 -28.539062 6.832031 -30.234375 8.65625 -31.671875 C 10.488281 -33.117188 12.582031 -34.15625 14.9375 -34.78125 C 17.289062 -35.40625 19.625 -35.546875 21.9375 -35.203125 C 24.25 -34.867188 26.390625 -34.132812 28.359375 -33 C 30.328125 -31.875 32.03125 -30.394531 33.46875 -28.5625 C 34.914062 -26.738281 35.953125 -24.648438 36.578125 -22.296875 C 37.203125 -19.941406 37.347656 -17.609375 37.015625 -15.296875 C 36.679688 -12.984375 35.945312 -10.851562 34.8125 -8.90625 C 33.6875 -6.957031 32.207031 -5.257812 30.375 -3.8125 C 28.550781 -2.375 26.457031 -1.34375 24.09375 -0.71875 C 21.738281 -0.09375 19.40625 0.0507812 17.09375 -0.28125 C 14.789062 -0.625 12.648438 -1.359375 10.671875 -2.484375 C 8.703125 -3.617188 6.992188 -5.097656 5.546875 -6.921875 C 4.109375 -8.753906 3.078125 -10.847656 2.453125 -13.203125 Z M 31.671875 -21 C 31.191406 -22.726562 30.445312 -24.492188 29.4375 -26.296875 C 28.425781 -28.097656 27.195312 -29.6875 25.75 -31.0625 C 24.3125 -32.4375 22.675781 -33.445312 20.84375 -34.09375 C 19.019531 -34.738281 17.097656 -34.800781 15.078125 -34.28125 C 13.054688 -33.75 11.429688 -32.75 10.203125 -31.28125 C 8.984375 -29.8125 8.082031 -28.125 7.5 -26.21875 C 6.925781 -24.320312 6.640625 -22.328125 6.640625 -20.234375 C 6.640625 -18.140625 6.878906 -16.226562 7.359375 -14.5 C 7.835938 -12.769531 8.582031 -10.988281 9.59375 -9.15625 C 10.601562 -7.332031 11.828125 -5.742188 13.265625 -4.390625 C 14.710938 -3.046875 16.347656 -2.035156 18.171875 -1.359375 C 20.003906 -0.691406 21.929688 -0.648438 23.953125 -1.234375 C 25.972656 -1.753906 27.609375 -2.75 28.859375 -4.21875 C 30.109375 -5.6875 31.019531 -7.367188 31.59375 -9.265625 C 32.175781 -11.171875 32.453125 -13.171875 32.421875 -15.265625 C 32.398438 -17.359375 32.148438 -19.269531 31.671875 -21 Z M 31.671875 -21 "/></g></g></g><g fill="#000000" fill-opacity="1"><g transform="translate(295.152182, 222.194275)"><g><path d="M 32.390625 0 L 25.765625 0 L 25.765625 -18.609375 C 25.421875 -16.453125 25.007812 -14.484375 24.53125 -12.703125 C 24.050781 -10.921875 23.5 -9.332031 22.875 -7.9375 C 22.394531 -6.925781 21.84375 -5.9375 21.21875 -4.96875 C 20.59375 -4.007812 19.859375 -3.132812 19.015625 -2.34375 C 18.171875 -1.550781 17.253906 -0.914062 16.265625 -0.4375 C 15.285156 0.0390625 14.191406 0.28125 12.984375 0.28125 C 11.015625 0.28125 9.414062 -0.125 8.1875 -0.9375 C 6.957031 -1.757812 5.992188 -2.816406 5.296875 -4.109375 C 4.597656 -5.410156 4.117188 -6.878906 3.859375 -8.515625 C 3.597656 -10.148438 3.46875 -11.785156 3.46875 -13.421875 L 3.46875 -28.578125 C 3.46875 -29.773438 3.394531 -30.734375 3.25 -31.453125 C 3.101562 -32.179688 2.945312 -32.738281 2.78125 -33.125 C 2.613281 -33.507812 2.429688 -33.769531 2.234375 -33.90625 C 2.046875 -34.050781 1.898438 -34.125 1.796875 -34.125 L 1.796875 -34.78125 L 8.515625 -34.78125 L 8.515625 -13.421875 C 8.515625 -12.554688 8.5625 -11.507812 8.65625 -10.28125 C 8.75 -9.050781 8.953125 -7.847656 9.265625 -6.671875 C 9.578125 -5.492188 10.035156 -4.421875 10.640625 -3.453125 C 11.242188 -2.492188 12.050781 -1.847656 13.0625 -1.515625 C 14.070312 -1.179688 15.054688 -1.179688 16.015625 -1.515625 C 16.984375 -1.847656 17.863281 -2.375 18.65625 -3.09375 C 19.445312 -3.820312 20.15625 -4.640625 20.78125 -5.546875 C 21.40625 -6.460938 21.910156 -7.332031 22.296875 -8.15625 C 23.359375 -10.457031 24.203125 -13.28125 24.828125 -16.625 C 25.453125 -19.96875 25.765625 -23.953125 25.765625 -28.578125 C 25.765625 -29.773438 25.691406 -30.734375 25.546875 -31.453125 C 25.398438 -32.179688 25.242188 -32.738281 25.078125 -33.125 C 24.910156 -33.507812 24.726562 -33.769531 24.53125 -33.90625 C 24.34375 -34.050781 24.195312 -34.125 24.09375 -34.125 L 24.09375 -34.78125 L 30.734375 -34.78125 L 30.734375 -6.203125 C 30.734375 -5.003906 30.789062 -4.039062 30.90625 -3.3125 C 31.03125 -2.59375 31.1875 -2.03125 31.375 -1.625 C 31.570312 -1.21875 31.765625 -0.953125 31.953125 -0.828125 C 32.148438 -0.710938 32.296875 -0.65625 32.390625 -0.65625 Z M 32.390625 0 "/></g></g></g><g fill="#000000" fill-opacity="1"><g transform="translate(325.744387, 222.194275)"><g><path d="M 5.40625 -6.28125 C 6.320312 -6.28125 7.09375 -5.96875 7.71875 -5.34375 C 8.34375 -4.71875 8.65625 -3.972656 8.65625 -3.109375 C 8.65625 -2.234375 8.34375 -1.492188 7.71875 -0.890625 C 7.09375 -0.296875 6.320312 0 5.40625 0 C 4.539062 0 3.785156 -0.296875 3.140625 -0.890625 C 2.492188 -1.492188 2.171875 -2.234375 2.171875 -3.109375 C 2.171875 -3.972656 2.492188 -4.71875 3.140625 -5.34375 C 3.785156 -5.96875 4.539062 -6.28125 5.40625 -6.28125 Z M 5.40625 -6.28125 "/></g></g></g><g fill="#000000" fill-opacity="1"><g transform="translate(37.500002, 273.841387)"><g><path d="M 10.015625 -2.21875 C 10.453125 -1.46875 10.796875 -0.941406 11.046875 -0.640625 C 11.304688 -0.335938 11.5 -0.1875 11.625 -0.1875 L 11.625 0 L 9.078125 0 L 9.078125 -0.1875 C 9.128906 -0.1875 9.171875 -0.207031 9.203125 -0.25 C 9.234375 -0.289062 9.226562 -0.367188 9.1875 -0.484375 C 9.15625 -0.609375 9.09375 -0.78125 9 -1 C 8.90625 -1.21875 8.753906 -1.5 8.546875 -1.84375 L 4.8125 -8.46875 L 2.515625 -6.203125 L 2.515625 -1.75 C 2.515625 -1.425781 2.535156 -1.15625 2.578125 -0.9375 C 2.617188 -0.726562 2.660156 -0.570312 2.703125 -0.46875 C 2.753906 -0.363281 2.804688 -0.289062 2.859375 -0.25 C 2.921875 -0.207031 2.96875 -0.1875 3 -0.1875 L 3 0 L 0.609375 0 L 0.609375 -0.1875 C 0.640625 -0.1875 0.679688 -0.207031 0.734375 -0.25 C 0.785156 -0.289062 0.832031 -0.363281 0.875 -0.46875 C 0.925781 -0.570312 0.972656 -0.726562 1.015625 -0.9375 C 1.054688 -1.15625 1.078125 -1.425781 1.078125 -1.75 L 1.078125 -12.515625 C 1.078125 -12.847656 1.054688 -13.113281 1.015625 -13.3125 C 0.972656 -13.519531 0.925781 -13.675781 0.875 -13.78125 C 0.832031 -13.894531 0.785156 -13.972656 0.734375 -14.015625 C 0.679688 -14.054688 0.640625 -14.078125 0.609375 -14.078125 L 0.609375 -14.265625 L 3 -14.265625 L 3 -14.078125 C 2.96875 -14.078125 2.921875 -14.054688 2.859375 -14.015625 C 2.804688 -13.972656 2.753906 -13.894531 2.703125 -13.78125 C 2.660156 -13.675781 2.617188 -13.519531 2.578125 -13.3125 C 2.535156 -13.113281 2.515625 -12.847656 2.515625 -12.515625 L 2.515625 -6.4375 L 8 -11.90625 C 8.675781 -12.59375 9.09375 -13.125 9.25 -13.5 C 9.40625 -13.882812 9.171875 -14.078125 8.546875 -14.078125 L 8.546875 -14.265625 L 11.796875 -14.265625 L 11.796875 -14.078125 C 11.515625 -14.078125 11.210938 -14 10.890625 -13.84375 C 10.566406 -13.695312 10.238281 -13.507812 9.90625 -13.28125 C 9.570312 -13.050781 9.242188 -12.796875 8.921875 -12.515625 C 8.609375 -12.242188 8.328125 -11.984375 8.078125 -11.734375 L 5.890625 -9.546875 Z M 10.015625 -2.21875 "/></g></g></g><g fill="#000000" fill-opacity="1"><g transform="translate(50.924258, 273.841387)"><g><path d="M 12.109375 -2.015625 L 13.6875 0 L 11.84375 0 L 2.140625 -12.328125 L 2.140625 -3.328125 C 2.140625 -2.859375 2.164062 -2.429688 2.21875 -2.046875 C 2.269531 -1.660156 2.332031 -1.328125 2.40625 -1.046875 C 2.476562 -0.765625 2.554688 -0.550781 2.640625 -0.40625 C 2.734375 -0.257812 2.820312 -0.1875 2.90625 -0.1875 L 2.90625 0 L 1.171875 0 L 1.171875 -0.1875 C 1.253906 -0.1875 1.335938 -0.257812 1.421875 -0.40625 C 1.515625 -0.550781 1.597656 -0.765625 1.671875 -1.046875 C 1.742188 -1.328125 1.804688 -1.660156 1.859375 -2.046875 C 1.921875 -2.429688 1.953125 -2.859375 1.953125 -3.328125 L 1.953125 -12.546875 L 0.609375 -14.265625 L 2.453125 -14.265625 L 11.921875 -2.234375 L 11.921875 -10.953125 C 11.921875 -11.421875 11.894531 -11.847656 11.84375 -12.234375 C 11.789062 -12.617188 11.722656 -12.945312 11.640625 -13.21875 C 11.566406 -13.488281 11.488281 -13.695312 11.40625 -13.84375 C 11.320312 -14 11.238281 -14.078125 11.15625 -14.078125 L 11.15625 -14.265625 L 12.875 -14.265625 L 12.875 -14.078125 C 12.789062 -14.078125 12.707031 -14 12.625 -13.84375 C 12.539062 -13.695312 12.457031 -13.488281 12.375 -13.21875 C 12.300781 -12.945312 12.238281 -12.617188 12.1875 -12.234375 C 12.132812 -11.847656 12.109375 -11.421875 12.109375 -10.953125 Z M 12.109375 -2.015625 "/></g></g></g><g fill="#000000" fill-opacity="1"><g transform="translate(66.237211, 273.841387)"><g><path d="M 3 -14.078125 C 2.96875 -14.078125 2.921875 -14.054688 2.859375 -14.015625 C 2.804688 -13.972656 2.753906 -13.894531 2.703125 -13.78125 C 2.660156 -13.675781 2.617188 -13.519531 2.578125 -13.3125 C 2.535156 -13.113281 2.515625 -12.847656 2.515625 -12.515625 L 2.515625 -1.75 C 2.515625 -1.425781 2.535156 -1.15625 2.578125 -0.9375 C 2.617188 -0.726562 2.660156 -0.570312 2.703125 -0.46875 C 2.753906 -0.363281 2.804688 -0.289062 2.859375 -0.25 C 2.921875 -0.207031 2.96875 -0.1875 3 -0.1875 L 3 0 L 0.609375 0 L 0.609375 -0.1875 C 0.640625 -0.1875 0.679688 -0.207031 0.734375 -0.25 C 0.785156 -0.289062 0.832031 -0.363281 0.875 -0.46875 C 0.925781 -0.570312 0.972656 -0.726562 1.015625 -0.9375 C 1.054688 -1.15625 1.078125 -1.425781 1.078125 -1.75 L 1.078125 -12.515625 C 1.078125 -12.847656 1.054688 -13.113281 1.015625 -13.3125 C 0.972656 -13.519531 0.925781 -13.675781 0.875 -13.78125 C 0.832031 -13.894531 0.785156 -13.972656 0.734375 -14.015625 C 0.679688 -14.054688 0.640625 -14.078125 0.609375 -14.078125 L 0.609375 -14.265625 L 3 -14.265625 Z M 3 -14.078125 "/></g></g></g><g fill="#000000" fill-opacity="1"><g transform="translate(70.867839, 273.841387)"><g><path d="M 12.1875 -12.53125 L 12 -12.53125 C 11.707031 -12.851562 11.414062 -13.113281 11.125 -13.3125 C 10.84375 -13.519531 10.519531 -13.675781 10.15625 -13.78125 C 9.789062 -13.894531 9.363281 -13.972656 8.875 -14.015625 C 8.382812 -14.054688 7.796875 -14.078125 7.109375 -14.078125 L 7.109375 -1.75 C 7.109375 -1.425781 7.125 -1.15625 7.15625 -0.9375 C 7.195312 -0.726562 7.242188 -0.570312 7.296875 -0.46875 C 7.347656 -0.363281 7.398438 -0.289062 7.453125 -0.25 C 7.503906 -0.207031 7.546875 -0.1875 7.578125 -0.1875 L 7.578125 0 L 5.203125 0 L 5.203125 -0.1875 C 5.222656 -0.1875 5.257812 -0.207031 5.3125 -0.25 C 5.375 -0.289062 5.425781 -0.363281 5.46875 -0.46875 C 5.519531 -0.570312 5.566406 -0.726562 5.609375 -0.9375 C 5.648438 -1.15625 5.671875 -1.425781 5.671875 -1.75 L 5.671875 -14.078125 C 4.972656 -14.078125 4.378906 -14.054688 3.890625 -14.015625 C 3.410156 -13.972656 2.988281 -13.894531 2.625 -13.78125 C 2.269531 -13.675781 1.945312 -13.519531 1.65625 -13.3125 C 1.375 -13.113281 1.085938 -12.851562 0.796875 -12.53125 L 0.609375 -12.53125 L 0.609375 -14.265625 L 12.1875 -14.265625 Z M 12.1875 -12.53125 "/></g></g></g><g fill="#000000" fill-opacity="1"><g transform="translate(84.677955, 273.841387)"><g><path d="M 11.109375 -14.078125 C 11.085938 -14.078125 11.046875 -14.054688 10.984375 -14.015625 C 10.929688 -13.972656 10.878906 -13.894531 10.828125 -13.78125 C 10.773438 -13.675781 10.726562 -13.519531 10.6875 -13.3125 C 10.65625 -13.113281 10.640625 -12.847656 10.640625 -12.515625 L 10.640625 -1.75 C 10.640625 -1.425781 10.65625 -1.15625 10.6875 -0.9375 C 10.726562 -0.726562 10.773438 -0.570312 10.828125 -0.46875 C 10.878906 -0.363281 10.929688 -0.289062 10.984375 -0.25 C 11.046875 -0.207031 11.085938 -0.1875 11.109375 -0.1875 L 11.109375 0 L 8.71875 0 L 8.71875 -0.1875 C 8.738281 -0.1875 8.773438 -0.207031 8.828125 -0.25 C 8.890625 -0.289062 8.941406 -0.363281 8.984375 -0.46875 C 9.035156 -0.570312 9.082031 -0.726562 9.125 -0.9375 C 9.164062 -1.15625 9.1875 -1.425781 9.1875 -1.75 L 9.1875 -8.375 L 2.515625 -8.375 L 2.515625 -1.75 C 2.515625 -1.425781 2.53125 -1.15625 2.5625 -0.9375 C 2.601562 -0.726562 2.648438 -0.570312 2.703125 -0.46875 C 2.753906 -0.363281 2.804688 -0.289062 2.859375 -0.25 C 2.921875 -0.207031 2.960938 -0.1875 2.984375 -0.1875 L 2.984375 0 L 0.609375 0 L 0.609375 -0.1875 C 0.640625 -0.1875 0.679688 -0.207031 0.734375 -0.25 C 0.785156 -0.289062 0.832031 -0.363281 0.875 -0.46875 C 0.925781 -0.570312 0.972656 -0.726562 1.015625 -0.9375 C 1.054688 -1.15625 1.078125 -1.425781 1.078125 -1.75 L 1.078125 -12.515625 C 1.078125 -12.847656 1.054688 -13.113281 1.015625 -13.3125 C 0.972656 -13.519531 0.925781 -13.675781 0.875 -13.78125 C 0.832031 -13.894531 0.785156 -13.972656 0.734375 -14.015625 C 0.679688 -14.054688 0.640625 -14.078125 0.609375 -14.078125 L 0.609375 -14.265625 L 2.984375 -14.265625 L 2.984375 -14.078125 C 2.960938 -14.078125 2.921875 -14.054688 2.859375 -14.015625 C 2.804688 -13.972656 2.753906 -13.894531 2.703125 -13.78125 C 2.648438 -13.675781 2.601562 -13.519531 2.5625 -13.3125 C 2.53125 -13.113281 2.515625 -12.847656 2.515625 -12.515625 L 2.515625 -8.546875 L 9.1875 -8.546875 L 9.1875 -12.515625 C 9.1875 -12.847656 9.164062 -13.113281 9.125 -13.3125 C 9.082031 -13.519531 9.035156 -13.675781 8.984375 -13.78125 C 8.941406 -13.894531 8.890625 -13.972656 8.828125 -14.015625 C 8.773438 -14.054688 8.738281 -14.078125 8.71875 -14.078125 L 8.71875 -14.265625 L 11.109375 -14.265625 Z M 11.109375 -14.078125 "/></g></g></g><g fill="#000000" fill-opacity="1"><g transform="translate(97.41172, 273.841387)"><g><path d="M 1.078125 -12.515625 C 1.078125 -12.847656 1.054688 -13.113281 1.015625 -13.3125 C 0.972656 -13.519531 0.925781 -13.675781 0.875 -13.78125 C 0.832031 -13.894531 0.785156 -13.972656 0.734375 -14.015625 C 0.679688 -14.054688 0.640625 -14.078125 0.609375 -14.078125 L 0.609375 -14.265625 L 2.984375 -14.265625 L 2.984375 -14.078125 C 2.960938 -14.078125 2.921875 -14.054688 2.859375 -14.015625 C 2.804688 -13.972656 2.753906 -13.894531 2.703125 -13.78125 C 2.648438 -13.675781 2.601562 -13.519531 2.5625 -13.3125 C 2.53125 -13.113281 2.515625 -12.847656 2.515625 -12.515625 L 2.515625 -5.359375 C 2.503906 -4.367188 2.628906 -3.5 2.890625 -2.75 C 2.992188 -2.414062 3.132812 -2.085938 3.3125 -1.765625 C 3.5 -1.453125 3.726562 -1.171875 4 -0.921875 C 4.28125 -0.679688 4.613281 -0.488281 5 -0.34375 C 5.394531 -0.195312 5.847656 -0.125 6.359375 -0.125 C 6.859375 -0.125 7.390625 -0.191406 7.953125 -0.328125 C 8.523438 -0.460938 9.054688 -0.71875 9.546875 -1.09375 C 10.035156 -1.476562 10.4375 -2.007812 10.75 -2.6875 C 11.070312 -3.375 11.234375 -4.265625 11.234375 -5.359375 L 11.234375 -10.953125 C 11.234375 -11.421875 11.207031 -11.847656 11.15625 -12.234375 C 11.101562 -12.617188 11.035156 -12.945312 10.953125 -13.21875 C 10.878906 -13.488281 10.796875 -13.695312 10.703125 -13.84375 C 10.617188 -14 10.539062 -14.078125 10.46875 -14.078125 L 10.46875 -14.265625 L 12.1875 -14.265625 L 12.1875 -14.078125 C 12.101562 -14.078125 12.015625 -14 11.921875 -13.84375 C 11.835938 -13.695312 11.757812 -13.488281 11.6875 -13.21875 C 11.613281 -12.945312 11.550781 -12.617188 11.5 -12.234375 C 11.445312 -11.847656 11.421875 -11.421875 11.421875 -10.953125 L 11.421875 -5.359375 C 11.421875 -4.503906 11.320312 -3.773438 11.125 -3.171875 C 10.9375 -2.578125 10.691406 -2.078125 10.390625 -1.671875 C 10.097656 -1.265625 9.765625 -0.941406 9.390625 -0.703125 C 9.023438 -0.460938 8.65625 -0.28125 8.28125 -0.15625 C 7.914062 -0.0390625 7.570312 0.03125 7.25 0.0625 C 6.9375 0.101562 6.6875 0.125 6.5 0.125 C 6.3125 0.125 6.046875 0.101562 5.703125 0.0625 C 5.359375 0.0195312 4.984375 -0.0664062 4.578125 -0.203125 C 4.171875 -0.335938 3.757812 -0.523438 3.34375 -0.765625 C 2.925781 -1.015625 2.550781 -1.34375 2.21875 -1.75 C 1.894531 -2.15625 1.625 -2.648438 1.40625 -3.234375 C 1.1875 -3.828125 1.078125 -4.535156 1.078125 -5.359375 Z M 1.078125 -12.515625 "/></g></g></g><g fill="#000000" fill-opacity="1"><g transform="translate(111.221835, 273.841387)"><g><path d="M 0.609375 0 L 0.609375 -0.1875 C 0.640625 -0.1875 0.679688 -0.207031 0.734375 -0.25 C 0.785156 -0.289062 0.832031 -0.363281 0.875 -0.46875 C 0.925781 -0.570312 0.972656 -0.726562 1.015625 -0.9375 C 1.054688 -1.15625 1.078125 -1.425781 1.078125 -1.75 L 1.078125 -12.515625 C 1.078125 -12.847656 1.054688 -13.113281 1.015625 -13.3125 C 0.972656 -13.519531 0.925781 -13.675781 0.875 -13.78125 C 0.832031 -13.894531 0.785156 -13.972656 0.734375 -14.015625 C 0.679688 -14.054688 0.640625 -14.078125 0.609375 -14.078125 L 0.609375 -14.265625 L 0.796875 -14.265625 C 1.398438 -14.273438 2.03125 -14.3125 2.6875 -14.375 C 3.34375 -14.445312 3.960938 -14.484375 4.546875 -14.484375 C 5.578125 -14.484375 6.441406 -14.394531 7.140625 -14.21875 C 7.847656 -14.050781 8.414062 -13.816406 8.84375 -13.515625 C 9.28125 -13.222656 9.59375 -12.867188 9.78125 -12.453125 C 9.976562 -12.046875 10.078125 -11.597656 10.078125 -11.109375 C 10.078125 -10.691406 10.007812 -10.300781 9.875 -9.9375 C 9.738281 -9.582031 9.515625 -9.257812 9.203125 -8.96875 C 8.898438 -8.6875 8.5 -8.445312 8 -8.25 C 7.507812 -8.0625 6.910156 -7.925781 6.203125 -7.84375 C 6.910156 -7.757812 7.578125 -7.617188 8.203125 -7.421875 C 8.828125 -7.222656 9.363281 -6.960938 9.8125 -6.640625 C 10.269531 -6.316406 10.628906 -5.929688 10.890625 -5.484375 C 11.160156 -5.035156 11.296875 -4.519531 11.296875 -3.9375 C 11.296875 -3.144531 11.113281 -2.492188 10.75 -1.984375 C 10.382812 -1.472656 9.890625 -1.070312 9.265625 -0.78125 C 8.648438 -0.488281 7.9375 -0.285156 7.125 -0.171875 C 6.3125 -0.0546875 5.453125 0 4.546875 0 Z M 9.859375 -3.9375 C 9.859375 -4.550781 9.738281 -5.070312 9.5 -5.5 C 9.269531 -5.925781 8.984375 -6.273438 8.640625 -6.546875 C 8.296875 -6.828125 7.910156 -7.046875 7.484375 -7.203125 C 7.054688 -7.367188 6.648438 -7.492188 6.265625 -7.578125 C 5.878906 -7.660156 5.535156 -7.710938 5.234375 -7.734375 C 4.941406 -7.753906 4.738281 -7.765625 4.625 -7.765625 L 2.515625 -7.765625 L 2.515625 -0.1875 L 4.546875 -0.1875 C 5.535156 -0.195312 6.414062 -0.332031 7.1875 -0.59375 C 7.507812 -0.695312 7.832031 -0.835938 8.15625 -1.015625 C 8.476562 -1.203125 8.765625 -1.425781 9.015625 -1.6875 C 9.265625 -1.957031 9.46875 -2.273438 9.625 -2.640625 C 9.78125 -3.015625 9.859375 -3.445312 9.859375 -3.9375 Z M 4.546875 -7.9375 L 4.546875 -7.921875 C 4.992188 -7.921875 5.457031 -7.96875 5.9375 -8.0625 C 6.414062 -8.15625 6.851562 -8.320312 7.25 -8.5625 C 7.65625 -8.8125 7.988281 -9.140625 8.25 -9.546875 C 8.519531 -9.960938 8.65625 -10.484375 8.65625 -11.109375 C 8.65625 -11.734375 8.519531 -12.25 8.25 -12.65625 C 7.988281 -13.070312 7.65625 -13.398438 7.25 -13.640625 C 6.851562 -13.890625 6.414062 -14.066406 5.9375 -14.171875 C 5.457031 -14.273438 4.992188 -14.328125 4.546875 -14.328125 C 4.234375 -14.328125 3.90625 -14.3125 3.5625 -14.28125 C 3.21875 -14.25 2.867188 -14.222656 2.515625 -14.203125 L 2.515625 -7.9375 Z M 4.546875 -7.9375 "/></g></g></g></svg>