<svg xmlns="http://www.w3.org/2000/svg" xmlns:xlink="http://www.w3.org/1999/xlink" width="200" zoomAndPan="magnify" viewBox="0 0 375 374.999991" height="200" preserveAspectRatio="xMidYMid meet" version="1.0"><defs><g/><clipPath id="aa154985a5"><path d="M 95 100.957031 L 299.871094 100.957031 L 299.871094 184.957031 L 95 184.957031 Z M 95 100.957031 " clip-rule="nonzero"/></clipPath><clipPath id="09f2830c9d"><path d="M 75 101 L 296 101 L 296 184.957031 L 75 184.957031 Z M 75 101 " clip-rule="nonzero"/></clipPath></defs><g clip-path="url(#aa154985a5)"><path stroke-linecap="butt" transform="matrix(0.449786, 0, 0, 0.452342, 75.487682, 101.453432)" fill="none" stroke-linejoin="miter" d="M 390.221492 15.837018 C 406.55738 5.906074 462.182772 11.501945 479.960318 65.258574 C 497.581539 118.53161 460.940863 171.536942 444.18811 171.536942 C 415.242063 171.536942 346.89361 132.400388 350.106943 46.027086 C 351.027519 21.389711 371.3931 7.089152 387.329493 7.158237 C 418.073269 7.287771 449.980793 49.472692 453.90627 68.989155 C 460.73243 102.901168 464.249727 186.226103 410.691289 182.296903 C 357.141536 178.367704 320.744031 106.623113 321.977256 72.296591 C 324.252643 24.541706 353.407122 19.36898 375.527009 18.332707 C 397.646896 17.296435 423.918061 41.078886 426.40188 67.1325 C 429.927861 104.196509 426.358456 178.074093 374.172199 177.910017 C 321.977256 177.74594 300.274234 104.21378 308.133872 74.783645 C 314.7516 46.035722 339.563738 30.742069 357.341284 28.263651 C 375.118829 25.776597 394.972013 30.742069 395.388878 47.08063 C 395.805743 63.419191 344.522692 112.210348 323.853147 113.246621 C 303.183603 114.291529 297.7991 67.547009 373.268992 61.139392 C 459.499205 53.082374 397.047653 147.573143 337.913649 147.158634 C 278.77096 146.752761 341.430945 108.695658 374.719334 103.937441 C 408.007722 99.179223 410.699974 116.761311 409.657812 125.863237 C 407.868767 141.580035 373.312415 166.364215 351.14042 166.795996 C 299.032325 167.832268 295.523713 145.707853 275.870276 144.257072 C 256.234209 142.80629 237.405817 160.181124 220.036451 163.48856 C 202.667086 166.795996 125.53842 169.688923 96.800805 156.053305 " stroke="#000000" stroke-width="3.72" stroke-opacity="1" stroke-miterlimit="10"/></g><g clip-path="url(#09f2830c9d)"><path fill="#000000" d="M 253.597656 109.144531 C 256.855469 106.917969 260.574219 104.3125 264.703125 104.984375 C 268.832031 105.660156 272.730469 106.832031 276.253906 108.804688 C 276.96875 109.203125 277.589844 109.574219 277.984375 110.316406 C 278.382812 111.058594 278.558594 111.875 278.757812 112.671875 C 278.960938 113.46875 279.15625 114.285156 279.464844 115.058594 C 279.777344 115.832031 280.292969 116.488281 280.757812 117.207031 C 282.96875 120.667969 283.390625 124.945312 285.460938 128.480469 C 286.589844 130.414062 288.128906 132.054688 289.347656 133.921875 C 290.566406 135.789062 291.398438 137.847656 291.992188 139.988281 C 293.207031 144.378906 293.648438 149.074219 293.960938 153.609375 C 294.277344 158.148438 293.992188 162.808594 291.425781 166.710938 C 289.050781 170.316406 285.308594 173.078125 281.707031 175.339844 C 277.789062 177.796875 273.421875 179.328125 268.785156 178.355469 C 264.144531 177.382812 260.410156 174.847656 256.871094 172.097656 C 250.03125 166.765625 243.773438 160.476562 239.136719 153.089844 C 234.5 145.703125 231.46875 136.769531 231.566406 127.765625 C 231.652344 119.726562 234.226562 110.09375 241.230469 105.339844 C 244.941406 102.820312 249.308594 102.636719 253.492188 104.007812 C 255.722656 104.738281 257.816406 105.8125 259.851562 106.976562 C 261.882812 108.140625 263.832031 109.273438 265.671875 110.621094 C 267.640625 112.066406 269.007812 113.90625 270.226562 116 C 271.445312 118.09375 272.570312 120.097656 273.675781 122.1875 C 275.890625 126.371094 277.859375 130.710938 279.09375 135.296875 C 281.25 143.347656 281.210938 151.9375 279.167969 160.007812 C 278.152344 164.019531 276.65625 167.902344 274.671875 171.53125 C 273.675781 173.347656 272.566406 175.105469 271.34375 176.777344 C 270.121094 178.453125 268.679688 180.351562 266.816406 181.464844 C 264.738281 182.707031 262.136719 182.75 259.789062 182.941406 C 257.574219 183.125 255.351562 183.234375 253.136719 183.132812 C 248.480469 182.925781 244.0625 181.636719 240.429688 178.625 C 237.0625 175.832031 234.414062 172.199219 231.832031 168.695312 C 229.1875 165.105469 226.695312 161.398438 224.554688 157.484375 C 220.53125 150.140625 217.617188 141.75 218.285156 133.253906 C 218.84375 126.183594 221.761719 119.019531 227.019531 114.171875 C 229.648438 111.753906 232.953125 109.898438 236.480469 109.25 C 237.664062 109.035156 238.898438 108.984375 240.074219 109.289062 C 241.246094 109.589844 242.183594 110.238281 243.257812 110.675781 C 245.285156 111.503906 247.414062 111.101562 249.503906 111.53125 C 251.875 112.019531 253.027344 114.246094 254.257812 116.117188 C 255.492188 117.992188 256.734375 119.949219 257.898438 121.910156 C 260.3125 125.96875 262.519531 130.1875 264.214844 134.609375 C 267.316406 142.699219 268.707031 151.574219 266.8125 160.125 C 265.066406 167.996094 260.492188 174.96875 253.257812 178.695312 C 249.914062 180.414062 246.164062 181.382812 242.402344 181.300781 C 238.4375 181.214844 234.761719 179.820312 231.550781 177.503906 C 228.046875 174.976562 225.113281 171.601562 222.390625 168.265625 C 219.671875 164.925781 217.101562 161.195312 215.125 157.257812 C 211.378906 149.804688 209.878906 141.1875 212.933594 133.21875 C 215.597656 126.269531 221.21875 120.636719 227.808594 117.371094 C 233.933594 114.335938 241.808594 112.992188 248.070312 116.425781 C 251.160156 118.121094 253.277344 121.082031 253.171875 124.71875 C 253.039062 129.203125 249.9375 133.125 246.929688 136.160156 C 241.03125 142.109375 233.460938 146.3125 225.34375 148.261719 C 223.269531 148.757812 221.160156 149.113281 219.03125 149.296875 C 218.671875 149.328125 218.238281 149.429688 217.902344 149.320312 C 217.570312 149.210938 217.253906 148.84375 217.039062 148.59375 C 216.550781 148.011719 216.261719 147.292969 216.117188 146.554688 C 215.34375 142.621094 218.222656 139.675781 221.367188 137.914062 C 223.140625 136.917969 225.027344 136.15625 226.859375 135.28125 C 228.960938 134.269531 230.972656 133.082031 233.105469 132.136719 C 237.820312 130.046875 242.667969 130.363281 247.601562 131.402344 C 251.265625 132.175781 255.175781 132.960938 258.363281 135.035156 C 261.792969 137.269531 262.9375 141.085938 261.132812 144.832031 C 259.214844 148.8125 255.578125 152.007812 252.453125 155.019531 C 249.167969 158.183594 245.609375 161.078125 241.425781 162.949219 C 237.246094 164.820312 232.976562 165.617188 228.582031 165.535156 C 226.351562 165.496094 224.128906 165.207031 221.96875 164.65625 C 221.15625 164.445312 220.007812 164.226562 219.558594 163.417969 C 218.945312 162.324219 219.980469 160.992188 220.703125 160.238281 C 226.449219 154.261719 235.546875 152.378906 243.414062 151.371094 C 245.425781 151.113281 247.441406 150.90625 249.457031 150.71875 C 251.582031 150.519531 254.136719 150.132812 255.933594 151.582031 C 257.488281 152.832031 258.097656 154.964844 258.523438 156.839844 C 259.019531 158.988281 259.246094 161.296875 258.691406 163.460938 C 257.582031 167.71875 253.414062 169.582031 249.785156 171.273438 C 245.40625 173.3125 241 175.328125 236.355469 176.664062 C 227.988281 179.0625 218.410156 178.914062 211.640625 172.757812 C 208.527344 169.921875 205.867188 166.644531 201.816406 165.121094 C 197.761719 163.597656 193.589844 163.863281 189.601562 164.785156 C 185.222656 165.804688 181.167969 167.820312 177.125 169.742188 C 172.726562 171.832031 168.292969 173.707031 163.453125 174.429688 C 153.6875 175.890625 143.640625 173.679688 134.027344 172.085938 C 129.0625 171.261719 124.101562 170.394531 119.171875 169.382812 C 114.242188 168.367188 109.335938 167.105469 104.410156 166.007812 C 95.121094 163.933594 85.535156 162.660156 76.097656 164.492188 C 75.042969 164.695312 75.492188 166.320312 76.542969 166.117188 C 87.574219 163.976562 98.632812 166.332031 109.371094 168.894531 C 120.105469 171.453125 130.84375 173.3125 141.683594 175.03125 C 152.523438 176.75 162.445312 177.6875 172.363281 173.707031 C 181.105469 170.195312 190.492188 163.464844 200.375 166.410156 C 205.117188 167.824219 207.863281 171.890625 211.542969 174.886719 C 214.988281 177.695312 219.191406 179.191406 223.570312 179.667969 C 233.535156 180.753906 243 176.351562 251.78125 172.195312 C 255.609375 170.382812 259.390625 168.019531 260.390625 163.574219 C 260.878906 161.382812 260.710938 159.101562 260.261719 156.925781 C 259.847656 154.925781 259.234375 152.824219 257.925781 151.21875 C 254.988281 147.613281 249.476562 149.003906 245.496094 149.445312 C 241.117188 149.933594 236.722656 150.589844 232.488281 151.859375 C 228.257812 153.125 224.402344 154.953125 221.039062 157.699219 C 219.546875 158.917969 217.738281 160.566406 217.707031 162.667969 C 217.675781 164.773438 219.445312 165.714844 221.171875 166.191406 C 230.261719 168.703125 240.316406 166.644531 247.902344 161.113281 C 251.847656 158.234375 255.394531 154.695312 258.6875 151.09375 C 261.496094 148.023438 264.378906 144.078125 263.582031 139.652344 C 262.90625 135.886719 259.71875 133.539062 256.414062 132.144531 C 252.363281 130.441406 247.730469 129.488281 243.382812 129.015625 C 240.773438 128.730469 238.101562 128.789062 235.554688 129.480469 C 233.230469 130.109375 231.074219 131.226562 228.949219 132.339844 C 226.828125 133.453125 224.6875 134.425781 222.535156 135.441406 C 220.566406 136.378906 218.613281 137.457031 217.054688 139.007812 C 214.667969 141.371094 213.523438 145.222656 214.960938 148.398438 C 215.613281 149.832031 216.878906 151.15625 218.515625 151.035156 C 220.734375 150.867188 222.941406 150.539062 225.113281 150.054688 C 233.8125 148.105469 241.96875 143.613281 248.238281 137.238281 C 251.394531 134.03125 254.351562 130.0625 254.800781 125.433594 C 255.164062 121.683594 253.441406 118.203125 250.476562 115.988281 C 244.449219 111.476562 235.882812 112.199219 229.28125 114.882812 C 222 117.847656 215.664062 123.4375 212.246094 130.605469 C 208.417969 138.640625 209.074219 147.601562 212.523438 155.648438 C 214.386719 159.996094 216.953125 164.003906 219.832031 167.734375 C 222.710938 171.46875 225.765625 175.058594 229.386719 177.96875 C 232.707031 180.632812 236.480469 182.441406 240.730469 182.894531 C 244.625 183.304688 248.605469 182.566406 252.203125 181.046875 C 260.09375 177.71875 265.578125 170.8125 267.910156 162.621094 C 270.460938 153.679688 269.398438 144.105469 266.296875 135.457031 C 264.605469 130.738281 262.355469 126.242188 259.835938 121.921875 C 258.554688 119.726562 257.203125 117.574219 255.808594 115.453125 C 254.664062 113.710938 253.53125 111.585938 251.644531 110.546875 C 249.484375 109.355469 247.019531 110 244.722656 109.421875 C 243.617188 109.148438 242.652344 108.511719 241.605469 108.066406 C 240.5625 107.625 239.367188 107.402344 238.195312 107.414062 C 234.265625 107.453125 230.296875 109.40625 227.253906 111.792969 C 221.28125 116.488281 217.8125 123.917969 216.816406 131.363281 C 215.625 140.277344 218.316406 149.1875 222.402344 157.03125 C 224.664062 161.378906 227.378906 165.46875 230.277344 169.410156 C 233.171875 173.347656 235.871094 177.109375 239.523438 180.058594 C 243.175781 183.007812 247.652344 184.476562 252.382812 184.792969 C 254.785156 184.953125 257.203125 184.851562 259.597656 184.660156 C 261.996094 184.472656 264.550781 184.390625 266.769531 183.398438 C 268.867188 182.464844 270.4375 180.703125 271.828125 178.917969 C 273.21875 177.128906 274.421875 175.355469 275.527344 173.453125 C 277.726562 169.65625 279.421875 165.550781 280.566406 161.3125 C 282.898438 152.71875 283.023438 143.476562 280.710938 134.867188 C 279.390625 129.945312 277.238281 125.292969 274.84375 120.8125 C 272.445312 116.335938 270.394531 111.960938 266.371094 109.078125 C 262.351562 106.199219 257.886719 103.53125 253.210938 102.175781 C 248.941406 100.941406 244.433594 101.28125 240.652344 103.730469 C 233.195312 108.558594 230.207031 118.375 229.921875 126.847656 C 229.265625 146.332031 241.949219 162.953125 256.761719 174.121094 C 260.550781 176.980469 264.828125 179.554688 269.601562 180.214844 C 274.375 180.875 278.890625 179.171875 282.882812 176.609375 C 286.667969 174.179688 290.515625 171.269531 292.980469 167.4375 C 295.589844 163.386719 295.96875 158.519531 295.664062 153.824219 C 295.355469 149.128906 294.882812 144.019531 293.570312 139.386719 C 292.929688 137.121094 292.015625 134.902344 290.707031 132.941406 C 289.398438 130.976562 287.777344 129.269531 286.664062 127.191406 C 285.546875 125.117188 284.949219 122.816406 284.160156 120.609375 C 283.832031 119.679688 283.46875 118.753906 283.042969 117.867188 C 282.566406 116.886719 281.902344 116.058594 281.351562 115.128906 C 280.441406 113.597656 280.402344 111.679688 279.707031 110.050781 C 278.960938 108.292969 277.472656 107.5 275.824219 106.707031 C 272.171875 104.945312 268.0625 103.671875 264.035156 103.222656 C 260.003906 102.773438 255.980469 105.519531 252.765625 107.714844 C 251.878906 108.320312 252.71875 109.777344 253.613281 109.164062 Z M 253.597656 109.144531 " fill-opacity="1" fill-rule="nonzero"/></g><g fill="#000000" fill-opacity="1"><g transform="translate(70.609116, 155.73926)"><g><path d="M 39.484375 -8.734375 C 41.191406 -5.796875 42.550781 -3.722656 43.5625 -2.515625 C 44.570312 -1.316406 45.320312 -0.71875 45.8125 -0.71875 L 45.8125 0 L 35.796875 0 L 35.796875 -0.71875 C 36.003906 -0.71875 36.160156 -0.796875 36.265625 -0.953125 C 36.378906 -1.117188 36.367188 -1.441406 36.234375 -1.921875 C 36.097656 -2.398438 35.84375 -3.066406 35.46875 -3.921875 C 35.101562 -4.773438 34.519531 -5.894531 33.71875 -7.28125 L 18.984375 -33.390625 L 9.9375 -24.421875 L 9.9375 -6.890625 C 9.9375 -5.609375 10.015625 -4.550781 10.171875 -3.71875 C 10.328125 -2.894531 10.5 -2.269531 10.6875 -1.84375 C 10.875 -1.414062 11.070312 -1.117188 11.28125 -0.953125 C 11.5 -0.796875 11.691406 -0.71875 11.859375 -0.71875 L 11.859375 0 L 2.40625 0 L 2.40625 -0.71875 C 2.507812 -0.71875 2.664062 -0.796875 2.875 -0.953125 C 3.09375 -1.117188 3.296875 -1.414062 3.484375 -1.84375 C 3.671875 -2.269531 3.84375 -2.894531 4 -3.71875 C 4.164062 -4.550781 4.25 -5.609375 4.25 -6.890625 L 4.25 -49.328125 C 4.25 -50.660156 4.164062 -51.726562 4 -52.53125 C 3.84375 -53.332031 3.671875 -53.945312 3.484375 -54.375 C 3.296875 -54.800781 3.09375 -55.09375 2.875 -55.25 C 2.664062 -55.414062 2.507812 -55.5 2.40625 -55.5 L 2.40625 -56.21875 L 11.859375 -56.21875 L 11.859375 -55.5 C 11.691406 -55.5 11.5 -55.414062 11.28125 -55.25 C 11.070312 -55.09375 10.875 -54.800781 10.6875 -54.375 C 10.5 -53.945312 10.328125 -53.332031 10.171875 -52.53125 C 10.015625 -51.726562 9.9375 -50.660156 9.9375 -49.328125 L 9.9375 -25.390625 L 31.546875 -46.921875 C 34.222656 -49.648438 35.863281 -51.757812 36.46875 -53.25 C 37.082031 -54.75 36.164062 -55.5 33.71875 -55.5 L 33.71875 -56.21875 L 46.53125 -56.21875 L 46.53125 -55.5 C 45.40625 -55.5 44.203125 -55.203125 42.921875 -54.609375 C 41.640625 -54.023438 40.34375 -53.28125 39.03125 -52.375 C 37.726562 -51.46875 36.445312 -50.46875 35.1875 -49.375 C 33.9375 -48.28125 32.832031 -47.25 31.875 -46.28125 L 23.21875 -37.640625 Z M 39.484375 -8.734375 "/></g></g></g><g fill="#000000" fill-opacity="1"><g transform="translate(119.534782, 155.73926)"><g><path d="M 2 -38.59375 L 9.375 -38.59375 L 9.375 -17.859375 C 9.6875 -20.316406 10.125 -22.53125 10.6875 -24.5 C 11.25 -26.476562 11.878906 -28.242188 12.578125 -29.796875 C 13.109375 -30.910156 13.71875 -32 14.40625 -33.0625 C 15.101562 -34.132812 15.921875 -35.109375 16.859375 -35.984375 C 17.796875 -36.867188 18.8125 -37.578125 19.90625 -38.109375 C 21 -38.648438 22.210938 -38.921875 23.546875 -38.921875 C 25.734375 -38.921875 27.503906 -38.46875 28.859375 -37.5625 C 30.222656 -36.65625 31.289062 -35.476562 32.0625 -34.03125 C 32.84375 -32.59375 33.378906 -30.960938 33.671875 -29.140625 C 33.960938 -27.328125 34.109375 -25.515625 34.109375 -23.703125 L 34.109375 -6.890625 C 34.109375 -5.554688 34.175781 -4.488281 34.3125 -3.6875 C 34.445312 -2.882812 34.617188 -2.253906 34.828125 -1.796875 C 35.046875 -1.347656 35.257812 -1.054688 35.46875 -0.921875 C 35.6875 -0.785156 35.847656 -0.71875 35.953125 -0.71875 L 35.953125 0 L 26.671875 0 L 26.671875 -0.71875 C 26.773438 -0.71875 26.929688 -0.785156 27.140625 -0.921875 C 27.359375 -1.054688 27.5625 -1.347656 27.75 -1.796875 C 27.9375 -2.253906 28.109375 -2.882812 28.265625 -3.6875 C 28.429688 -4.488281 28.515625 -5.554688 28.515625 -6.890625 L 28.515625 -23.703125 C 28.515625 -24.660156 28.457031 -25.820312 28.34375 -27.1875 C 28.238281 -28.550781 28.007812 -29.882812 27.65625 -31.1875 C 27.3125 -32.5 26.804688 -33.6875 26.140625 -34.75 C 25.472656 -35.820312 24.582031 -36.546875 23.46875 -36.921875 C 22.34375 -37.296875 21.242188 -37.28125 20.171875 -36.875 C 19.109375 -36.476562 18.132812 -35.878906 17.25 -35.078125 C 16.375 -34.273438 15.585938 -33.363281 14.890625 -32.34375 C 14.203125 -31.332031 13.644531 -30.375 13.21875 -29.46875 C 12.039062 -26.90625 11.101562 -23.769531 10.40625 -20.0625 C 9.71875 -16.351562 9.375 -11.960938 9.375 -6.890625 C 9.375 -5.554688 9.4375 -4.488281 9.5625 -3.6875 C 9.695312 -2.882812 9.867188 -2.253906 10.078125 -1.796875 C 10.296875 -1.347656 10.507812 -1.054688 10.71875 -0.921875 C 10.9375 -0.785156 11.101562 -0.71875 11.21875 -0.71875 L 11.21875 0 L 2 0 L 2 -0.71875 C 2.101562 -0.71875 2.257812 -0.785156 2.46875 -0.921875 C 2.6875 -1.054688 2.890625 -1.347656 3.078125 -1.796875 C 3.265625 -2.253906 3.4375 -2.882812 3.59375 -3.6875 C 3.757812 -4.488281 3.84375 -5.554688 3.84375 -6.890625 L 3.84375 -31.71875 C 3.84375 -33 3.757812 -34.050781 3.59375 -34.875 C 3.4375 -35.695312 3.265625 -36.320312 3.078125 -36.75 C 2.890625 -37.175781 2.6875 -37.46875 2.46875 -37.625 C 2.257812 -37.789062 2.101562 -37.875 2 -37.875 Z M 2 -38.59375 "/></g></g></g><g fill="#000000" fill-opacity="1"><g transform="translate(157.4902, 155.73926)"><g><path d="M 2 -35.71875 L 9.53125 -38.59375 L 9.53125 -6.890625 C 9.53125 -5.554688 9.597656 -4.488281 9.734375 -3.6875 C 9.867188 -2.882812 10.039062 -2.253906 10.25 -1.796875 C 10.46875 -1.347656 10.679688 -1.054688 10.890625 -0.921875 C 11.109375 -0.785156 11.269531 -0.71875 11.375 -0.71875 L 11.375 0 L 2.078125 0 L 2.078125 -0.71875 C 2.242188 -0.71875 2.429688 -0.785156 2.640625 -0.921875 C 2.859375 -1.054688 3.0625 -1.347656 3.25 -1.796875 C 3.4375 -2.253906 3.609375 -2.882812 3.765625 -3.6875 C 3.921875 -4.488281 4 -5.554688 4 -6.890625 L 4 -31.625 C 3.789062 -33.070312 3.5 -34.007812 3.125 -34.4375 C 2.75 -34.863281 2.457031 -35.078125 2.25 -35.078125 Z M 6.171875 -45.078125 C 5.097656 -45.078125 4.203125 -45.4375 3.484375 -46.15625 C 2.765625 -46.882812 2.40625 -47.78125 2.40625 -48.84375 C 2.40625 -49.914062 2.765625 -50.8125 3.484375 -51.53125 C 4.203125 -52.25 5.097656 -52.609375 6.171875 -52.609375 C 7.234375 -52.609375 8.125 -52.25 8.84375 -51.53125 C 9.570312 -50.8125 9.9375 -49.914062 9.9375 -48.84375 C 9.9375 -47.78125 9.570312 -46.882812 8.84375 -46.15625 C 8.125 -45.4375 7.234375 -45.078125 6.171875 -45.078125 Z M 6.171875 -45.078125 "/></g></g></g><g fill="#000000" fill-opacity="1"><g transform="translate(170.86268, 155.73926)"><g><path d="M 2 -38.59375 C 2.320312 -38.59375 2.910156 -38.671875 3.765625 -38.828125 C 4.617188 -38.992188 5.484375 -39.4375 6.359375 -40.15625 C 7.242188 -40.875 8.019531 -41.96875 8.6875 -43.4375 C 9.351562 -44.90625 9.6875 -46.945312 9.6875 -49.5625 L 15.296875 -49.5625 C 15.296875 -46.363281 14.65625 -43.894531 13.375 -42.15625 C 12.09375 -40.425781 10.171875 -39.238281 7.609375 -38.59375 L 19.625 -38.59375 L 19.625 -38.03125 L 12.65625 -38.03125 L 12.65625 -14.890625 C 12.65625 -13.929688 12.707031 -12.769531 12.8125 -11.40625 C 12.914062 -10.050781 13.140625 -8.71875 13.484375 -7.40625 C 13.835938 -6.101562 14.347656 -4.914062 15.015625 -3.84375 C 15.679688 -2.78125 16.578125 -2.0625 17.703125 -1.6875 C 18.816406 -1.3125 19.90625 -1.3125 20.96875 -1.6875 C 22.039062 -2.0625 23.015625 -2.644531 23.890625 -3.4375 C 24.773438 -4.238281 25.566406 -5.144531 26.265625 -6.15625 C 26.960938 -7.175781 27.523438 -8.140625 27.953125 -9.046875 C 28.265625 -9.796875 28.566406 -10.582031 28.859375 -11.40625 C 29.160156 -12.238281 29.441406 -13.109375 29.703125 -14.015625 L 30.4375 -14.015625 C 30.164062 -13.054688 29.882812 -12.132812 29.59375 -11.25 C 29.300781 -10.375 28.96875 -9.5625 28.59375 -8.8125 C 28.113281 -7.6875 27.507812 -6.585938 26.78125 -5.515625 C 26.0625 -4.453125 25.25 -3.476562 24.34375 -2.59375 C 23.4375 -1.71875 22.421875 -1.007812 21.296875 -0.46875 C 20.179688 0.0625 18.957031 0.328125 17.625 0.328125 C 15.425781 0.328125 13.644531 -0.125 12.28125 -1.03125 C 10.925781 -1.945312 9.859375 -3.125 9.078125 -4.5625 C 8.304688 -6.007812 7.773438 -7.640625 7.484375 -9.453125 C 7.191406 -11.265625 7.046875 -13.078125 7.046875 -14.890625 L 7.046875 -33.15625 C 7.046875 -34.488281 6.59375 -35.632812 5.6875 -36.59375 C 4.78125 -37.550781 3.550781 -38.03125 2 -38.03125 Z M 2 -38.59375 "/></g></g></g><g fill="#000000" fill-opacity="1"><g transform="translate(172.563744, 246.299998)"><g><path d="M 43.796875 -55.5 C 43.691406 -55.5 43.53125 -55.414062 43.3125 -55.25 C 43.101562 -55.09375 42.890625 -54.800781 42.671875 -54.375 C 42.460938 -53.945312 42.289062 -53.332031 42.15625 -52.53125 C 42.03125 -51.726562 41.96875 -50.660156 41.96875 -49.328125 L 41.96875 -6.890625 C 41.96875 -5.609375 42.03125 -4.550781 42.15625 -3.71875 C 42.289062 -2.894531 42.460938 -2.269531 42.671875 -1.84375 C 42.890625 -1.414062 43.101562 -1.117188 43.3125 -0.953125 C 43.53125 -0.796875 43.691406 -0.71875 43.796875 -0.71875 L 43.796875 0 L 34.359375 0 L 34.359375 -0.71875 C 34.460938 -0.71875 34.617188 -0.796875 34.828125 -0.953125 C 35.046875 -1.117188 35.25 -1.414062 35.4375 -1.84375 C 35.625 -2.269531 35.796875 -2.894531 35.953125 -3.71875 C 36.117188 -4.550781 36.203125 -5.609375 36.203125 -6.890625 L 36.203125 -33 L 9.9375 -33 L 9.9375 -6.890625 C 9.9375 -5.609375 10 -4.550781 10.125 -3.71875 C 10.257812 -2.894531 10.429688 -2.269531 10.640625 -1.84375 C 10.859375 -1.414062 11.070312 -1.117188 11.28125 -0.953125 C 11.5 -0.796875 11.660156 -0.71875 11.765625 -0.71875 L 11.765625 0 L 2.40625 0 L 2.40625 -0.71875 C 2.507812 -0.71875 2.664062 -0.796875 2.875 -0.953125 C 3.09375 -1.117188 3.296875 -1.414062 3.484375 -1.84375 C 3.671875 -2.269531 3.84375 -2.894531 4 -3.71875 C 4.164062 -4.550781 4.25 -5.609375 4.25 -6.890625 L 4.25 -49.328125 C 4.25 -50.660156 4.164062 -51.726562 4 -52.53125 C 3.84375 -53.332031 3.671875 -53.945312 3.484375 -54.375 C 3.296875 -54.800781 3.09375 -55.09375 2.875 -55.25 C 2.664062 -55.414062 2.507812 -55.5 2.40625 -55.5 L 2.40625 -56.21875 L 11.765625 -56.21875 L 11.765625 -55.5 C 11.660156 -55.5 11.5 -55.414062 11.28125 -55.25 C 11.070312 -55.09375 10.859375 -54.800781 10.640625 -54.375 C 10.429688 -53.945312 10.257812 -53.332031 10.125 -52.53125 C 10 -51.726562 9.9375 -50.660156 9.9375 -49.328125 L 9.9375 -33.71875 L 36.203125 -33.71875 L 36.203125 -49.328125 C 36.203125 -50.660156 36.117188 -51.726562 35.953125 -52.53125 C 35.796875 -53.332031 35.625 -53.945312 35.4375 -54.375 C 35.25 -54.800781 35.046875 -55.09375 34.828125 -55.25 C 34.617188 -55.414062 34.460938 -55.5 34.359375 -55.5 L 34.359375 -56.21875 L 43.796875 -56.21875 Z M 43.796875 -55.5 "/></g></g></g><g fill="#000000" fill-opacity="1"><g transform="translate(218.76686, 246.299998)"><g><path d="M 35.953125 0 L 28.59375 0 L 28.59375 -20.65625 C 28.21875 -18.257812 27.757812 -16.070312 27.21875 -14.09375 C 26.6875 -12.113281 26.078125 -10.351562 25.390625 -8.8125 C 24.847656 -7.6875 24.226562 -6.585938 23.53125 -5.515625 C 22.84375 -4.453125 22.03125 -3.476562 21.09375 -2.59375 C 20.164062 -1.71875 19.15625 -1.007812 18.0625 -0.46875 C 16.96875 0.0625 15.753906 0.328125 14.421875 0.328125 C 12.222656 0.328125 10.441406 -0.125 9.078125 -1.03125 C 7.722656 -1.945312 6.65625 -3.125 5.875 -4.5625 C 5.101562 -6.007812 4.570312 -7.640625 4.28125 -9.453125 C 3.988281 -11.265625 3.84375 -13.078125 3.84375 -14.890625 L 3.84375 -31.71875 C 3.84375 -33.050781 3.757812 -34.113281 3.59375 -34.90625 C 3.4375 -35.707031 3.265625 -36.320312 3.078125 -36.75 C 2.890625 -37.175781 2.6875 -37.46875 2.46875 -37.625 C 2.257812 -37.789062 2.101562 -37.875 2 -37.875 L 2 -38.59375 L 9.453125 -38.59375 L 9.453125 -14.890625 C 9.453125 -13.929688 9.503906 -12.769531 9.609375 -11.40625 C 9.710938 -10.050781 9.9375 -8.71875 10.28125 -7.40625 C 10.632812 -6.101562 11.144531 -4.914062 11.8125 -3.84375 C 12.476562 -2.78125 13.375 -2.0625 14.5 -1.6875 C 15.613281 -1.3125 16.703125 -1.3125 17.765625 -1.6875 C 18.835938 -2.0625 19.8125 -2.644531 20.6875 -3.4375 C 21.570312 -4.238281 22.363281 -5.144531 23.0625 -6.15625 C 23.757812 -7.175781 24.320312 -8.140625 24.75 -9.046875 C 25.914062 -11.609375 26.847656 -14.742188 27.546875 -18.453125 C 28.242188 -22.171875 28.59375 -26.59375 28.59375 -31.71875 C 28.59375 -33.050781 28.507812 -34.113281 28.34375 -34.90625 C 28.1875 -35.707031 28.015625 -36.320312 27.828125 -36.75 C 27.640625 -37.175781 27.4375 -37.46875 27.21875 -37.625 C 27.007812 -37.789062 26.851562 -37.875 26.75 -37.875 L 26.75 -38.59375 L 34.109375 -38.59375 L 34.109375 -6.890625 C 34.109375 -5.554688 34.175781 -4.488281 34.3125 -3.6875 C 34.445312 -2.882812 34.617188 -2.253906 34.828125 -1.796875 C 35.046875 -1.347656 35.257812 -1.054688 35.46875 -0.921875 C 35.6875 -0.785156 35.847656 -0.71875 35.953125 -0.71875 Z M 35.953125 0 "/></g></g></g><g fill="#000000" fill-opacity="1"><g transform="translate(256.722278, 246.299998)"><g><path d="M 9.53125 -17.375 C 9.90625 -19.9375 10.425781 -22.257812 11.09375 -24.34375 C 11.757812 -26.425781 12.546875 -28.320312 13.453125 -30.03125 C 15.160156 -33.175781 17.109375 -35.445312 19.296875 -36.84375 C 19.515625 -37 19.835938 -37.179688 20.265625 -37.390625 C 21.648438 -38.191406 23.113281 -38.710938 24.65625 -38.953125 C 26.207031 -39.191406 27.757812 -39.179688 29.3125 -38.921875 C 32.082031 -38.441406 34.363281 -37.53125 36.15625 -36.1875 C 37.945312 -34.851562 39.304688 -33.238281 40.234375 -31.34375 C 41.171875 -29.457031 41.71875 -27.40625 41.875 -25.1875 C 42.039062 -22.96875 41.851562 -20.722656 41.3125 -18.453125 C 40.78125 -16.191406 39.953125 -13.992188 38.828125 -11.859375 C 37.710938 -9.722656 36.351562 -7.828125 34.75 -6.171875 C 32.78125 -4.140625 30.457031 -2.484375 27.78125 -1.203125 C 25.113281 0.078125 22.179688 0.691406 18.984375 0.640625 C 16.203125 0.691406 13.050781 0.0507812 9.53125 -1.28125 L 9.046875 -1.515625 C 7.816406 -1.941406 6.773438 -1.992188 5.921875 -1.671875 C 5.066406 -1.359375 4.640625 -0.800781 4.640625 0 L 3.921875 0 L 3.921875 -51.015625 C 3.765625 -52.398438 3.5 -53.304688 3.125 -53.734375 C 2.75 -54.160156 2.457031 -54.375 2.25 -54.375 L 2 -55.09375 L 9.53125 -57.890625 Z M 9.53125 -1.921875 C 11.238281 -1.222656 12.878906 -0.726562 14.453125 -0.4375 C 16.023438 -0.144531 17.5625 0.0234375 19.0625 0.078125 C 21.882812 -0.0234375 24.320312 -0.769531 26.375 -2.15625 C 28.4375 -3.550781 30.160156 -5.472656 31.546875 -7.921875 C 32.515625 -9.691406 33.273438 -11.816406 33.828125 -14.296875 C 34.390625 -16.773438 34.671875 -19.296875 34.671875 -21.859375 C 34.671875 -24.421875 34.320312 -26.863281 33.625 -29.1875 C 32.9375 -31.507812 31.84375 -33.421875 30.34375 -34.921875 C 28.957031 -36.304688 27.4375 -37.210938 25.78125 -37.640625 C 24.125 -38.066406 22.390625 -37.828125 20.578125 -36.921875 C 18.546875 -35.742188 16.835938 -34.085938 15.453125 -31.953125 C 14.066406 -29.921875 12.957031 -27.675781 12.125 -25.21875 C 11.300781 -22.769531 10.675781 -20.316406 10.25 -17.859375 C 10.039062 -16.679688 9.878906 -15.503906 9.765625 -14.328125 C 9.609375 -12.890625 9.53125 -11.425781 9.53125 -9.9375 Z M 9.53125 -1.921875 "/></g></g></g></svg>