<svg xmlns="http://www.w3.org/2000/svg" xmlns:xlink="http://www.w3.org/1999/xlink" width="500" zoomAndPan="magnify" viewBox="0 0 375 374.999991" height="500" preserveAspectRatio="xMidYMid meet" version="1.0"><defs><g/></defs><g fill="#000000" fill-opacity="1"><g transform="translate(73.910155, 210.125026)"><g><path d="M 34.515625 -7.625 C 36.003906 -5.0625 37.191406 -3.253906 38.078125 -2.203125 C 38.960938 -1.148438 39.617188 -0.625 40.046875 -0.625 L 40.046875 0 L 31.296875 0 L 31.296875 -0.625 C 31.472656 -0.625 31.609375 -0.691406 31.703125 -0.828125 C 31.796875 -0.972656 31.785156 -1.253906 31.671875 -1.671875 C 31.554688 -2.097656 31.332031 -2.679688 31 -3.421875 C 30.675781 -4.171875 30.164062 -5.15625 29.46875 -6.375 L 16.59375 -29.1875 L 8.6875 -21.34375 L 8.6875 -6.015625 C 8.6875 -4.898438 8.753906 -3.976562 8.890625 -3.25 C 9.023438 -2.53125 9.175781 -1.984375 9.34375 -1.609375 C 9.507812 -1.234375 9.6875 -0.972656 9.875 -0.828125 C 10.0625 -0.691406 10.222656 -0.625 10.359375 -0.625 L 10.359375 0 L 2.09375 0 L 2.09375 -0.625 C 2.1875 -0.625 2.328125 -0.691406 2.515625 -0.828125 C 2.703125 -0.972656 2.878906 -1.234375 3.046875 -1.609375 C 3.210938 -1.984375 3.363281 -2.53125 3.5 -3.25 C 3.632812 -3.976562 3.703125 -4.898438 3.703125 -6.015625 L 3.703125 -43.125 C 3.703125 -44.289062 3.632812 -45.222656 3.5 -45.921875 C 3.363281 -46.617188 3.210938 -47.15625 3.046875 -47.53125 C 2.878906 -47.90625 2.703125 -48.160156 2.515625 -48.296875 C 2.328125 -48.441406 2.1875 -48.515625 2.09375 -48.515625 L 2.09375 -49.140625 L 10.359375 -49.140625 L 10.359375 -48.515625 C 10.222656 -48.515625 10.0625 -48.441406 9.875 -48.296875 C 9.6875 -48.160156 9.507812 -47.90625 9.34375 -47.53125 C 9.175781 -47.15625 9.023438 -46.617188 8.890625 -45.921875 C 8.753906 -45.222656 8.6875 -44.289062 8.6875 -43.125 L 8.6875 -22.1875 L 27.578125 -41.015625 C 29.910156 -43.398438 31.34375 -45.242188 31.875 -46.546875 C 32.414062 -47.859375 31.613281 -48.515625 29.46875 -48.515625 L 29.46875 -49.140625 L 40.671875 -49.140625 L 40.671875 -48.515625 C 39.691406 -48.515625 38.640625 -48.253906 37.515625 -47.734375 C 36.398438 -47.222656 35.269531 -46.570312 34.125 -45.78125 C 32.976562 -44.988281 31.859375 -44.113281 30.765625 -43.15625 C 29.671875 -42.195312 28.703125 -41.296875 27.859375 -40.453125 L 20.296875 -32.90625 Z M 34.515625 -7.625 "/></g></g></g><g fill="#000000" fill-opacity="1"><g transform="translate(116.677822, 210.125026)"><g><path d="M 1.75 -33.734375 L 8.1875 -33.734375 L 8.1875 -15.609375 C 8.46875 -17.753906 8.851562 -19.691406 9.34375 -21.421875 C 9.832031 -23.148438 10.378906 -24.691406 10.984375 -26.046875 C 11.453125 -27.023438 11.988281 -27.976562 12.59375 -28.90625 C 13.207031 -29.84375 13.921875 -30.695312 14.734375 -31.46875 C 15.546875 -32.238281 16.429688 -32.851562 17.390625 -33.3125 C 18.347656 -33.78125 19.410156 -34.015625 20.578125 -34.015625 C 22.492188 -34.015625 24.046875 -33.617188 25.234375 -32.828125 C 26.421875 -32.035156 27.351562 -31.007812 28.03125 -29.75 C 28.707031 -28.488281 29.171875 -27.0625 29.421875 -25.46875 C 29.679688 -23.882812 29.8125 -22.300781 29.8125 -20.71875 L 29.8125 -6.015625 C 29.8125 -4.847656 29.867188 -3.914062 29.984375 -3.21875 C 30.109375 -2.519531 30.265625 -1.972656 30.453125 -1.578125 C 30.640625 -1.179688 30.828125 -0.921875 31.015625 -0.796875 C 31.203125 -0.679688 31.34375 -0.625 31.4375 -0.625 L 31.4375 0 L 23.3125 0 L 23.3125 -0.625 C 23.40625 -0.625 23.546875 -0.679688 23.734375 -0.796875 C 23.921875 -0.921875 24.09375 -1.179688 24.25 -1.578125 C 24.414062 -1.972656 24.566406 -2.519531 24.703125 -3.21875 C 24.847656 -3.914062 24.921875 -4.847656 24.921875 -6.015625 L 24.921875 -20.71875 C 24.921875 -21.5625 24.875 -22.578125 24.78125 -23.765625 C 24.6875 -24.953125 24.488281 -26.117188 24.1875 -27.265625 C 23.882812 -28.410156 23.441406 -29.445312 22.859375 -30.375 C 22.273438 -31.3125 21.492188 -31.941406 20.515625 -32.265625 C 19.535156 -32.597656 18.578125 -32.585938 17.640625 -32.234375 C 16.703125 -31.878906 15.847656 -31.351562 15.078125 -30.65625 C 14.316406 -29.957031 13.628906 -29.164062 13.015625 -28.28125 C 12.410156 -27.394531 11.921875 -26.554688 11.546875 -25.765625 C 10.523438 -23.523438 9.707031 -20.78125 9.09375 -17.53125 C 8.488281 -14.289062 8.1875 -10.453125 8.1875 -6.015625 C 8.1875 -4.847656 8.242188 -3.914062 8.359375 -3.21875 C 8.484375 -2.519531 8.632812 -1.972656 8.8125 -1.578125 C 9 -1.179688 9.1875 -0.921875 9.375 -0.796875 C 9.5625 -0.679688 9.703125 -0.625 9.796875 -0.625 L 9.796875 0 L 1.75 0 L 1.75 -0.625 C 1.84375 -0.625 1.984375 -0.679688 2.171875 -0.796875 C 2.359375 -0.921875 2.53125 -1.179688 2.6875 -1.578125 C 2.851562 -1.972656 3.003906 -2.519531 3.140625 -3.21875 C 3.285156 -3.914062 3.359375 -4.847656 3.359375 -6.015625 L 3.359375 -27.71875 C 3.359375 -28.84375 3.285156 -29.765625 3.140625 -30.484375 C 3.003906 -31.203125 2.851562 -31.75 2.6875 -32.125 C 2.53125 -32.5 2.359375 -32.753906 2.171875 -32.890625 C 1.984375 -33.035156 1.84375 -33.109375 1.75 -33.109375 Z M 1.75 -33.734375 "/></g></g></g><g fill="#000000" fill-opacity="1"><g transform="translate(149.856004, 210.125026)"><g><path d="M 1.75 -31.21875 L 8.328125 -33.734375 L 8.328125 -6.015625 C 8.328125 -4.847656 8.382812 -3.914062 8.5 -3.21875 C 8.625 -2.519531 8.773438 -1.972656 8.953125 -1.578125 C 9.140625 -1.179688 9.328125 -0.921875 9.515625 -0.796875 C 9.703125 -0.679688 9.84375 -0.625 9.9375 -0.625 L 9.9375 0 L 1.8125 0 L 1.8125 -0.625 C 1.957031 -0.625 2.125 -0.679688 2.3125 -0.796875 C 2.5 -0.921875 2.671875 -1.179688 2.828125 -1.578125 C 2.992188 -1.972656 3.144531 -2.519531 3.28125 -3.21875 C 3.425781 -3.914062 3.5 -4.847656 3.5 -6.015625 L 3.5 -27.65625 C 3.3125 -28.914062 3.050781 -29.726562 2.71875 -30.09375 C 2.394531 -30.46875 2.140625 -30.65625 1.953125 -30.65625 Z M 5.390625 -39.40625 C 4.453125 -39.40625 3.664062 -39.71875 3.03125 -40.34375 C 2.40625 -40.976562 2.09375 -41.765625 2.09375 -42.703125 C 2.09375 -43.628906 2.40625 -44.40625 3.03125 -45.03125 C 3.664062 -45.664062 4.453125 -45.984375 5.390625 -45.984375 C 6.328125 -45.984375 7.109375 -45.664062 7.734375 -45.03125 C 8.367188 -44.40625 8.6875 -43.628906 8.6875 -42.703125 C 8.6875 -41.765625 8.367188 -40.976562 7.734375 -40.34375 C 7.109375 -39.71875 6.328125 -39.40625 5.390625 -39.40625 Z M 5.390625 -39.40625 "/></g></g></g><g fill="#000000" fill-opacity="1"><g transform="translate(161.545365, 210.125026)"><g><path d="M 1.75 -33.734375 C 2.03125 -33.734375 2.539062 -33.800781 3.28125 -33.9375 C 4.03125 -34.082031 4.789062 -34.46875 5.5625 -35.09375 C 6.332031 -35.726562 7.007812 -36.6875 7.59375 -37.96875 C 8.175781 -39.257812 8.46875 -41.046875 8.46875 -43.328125 L 13.375 -43.328125 C 13.375 -40.523438 12.8125 -38.363281 11.6875 -36.84375 C 10.570312 -35.332031 8.894531 -34.296875 6.65625 -33.734375 L 17.15625 -33.734375 L 17.15625 -33.25 L 11.0625 -33.25 L 11.0625 -13.015625 C 11.0625 -12.179688 11.109375 -11.164062 11.203125 -9.96875 C 11.296875 -8.78125 11.492188 -7.613281 11.796875 -6.46875 C 12.097656 -5.332031 12.539062 -4.296875 13.125 -3.359375 C 13.707031 -2.421875 14.488281 -1.789062 15.46875 -1.46875 C 16.445312 -1.144531 17.398438 -1.144531 18.328125 -1.46875 C 19.265625 -1.789062 20.117188 -2.300781 20.890625 -3 C 21.660156 -3.707031 22.347656 -4.503906 22.953125 -5.390625 C 23.566406 -6.273438 24.0625 -7.113281 24.4375 -7.90625 C 24.707031 -8.5625 24.972656 -9.25 25.234375 -9.96875 C 25.492188 -10.695312 25.738281 -11.457031 25.96875 -12.25 L 26.59375 -12.25 C 26.363281 -11.40625 26.117188 -10.597656 25.859375 -9.828125 C 25.609375 -9.066406 25.316406 -8.359375 24.984375 -7.703125 C 24.566406 -6.722656 24.039062 -5.765625 23.40625 -4.828125 C 22.78125 -3.898438 22.070312 -3.050781 21.28125 -2.28125 C 20.488281 -1.507812 19.601562 -0.890625 18.625 -0.421875 C 17.644531 0.046875 16.570312 0.28125 15.40625 0.28125 C 13.488281 0.28125 11.929688 -0.113281 10.734375 -0.90625 C 9.546875 -1.695312 8.613281 -2.722656 7.9375 -3.984375 C 7.269531 -5.242188 6.804688 -6.664062 6.546875 -8.25 C 6.285156 -9.84375 6.15625 -11.429688 6.15625 -13.015625 L 6.15625 -28.984375 C 6.15625 -30.148438 5.757812 -31.148438 4.96875 -31.984375 C 4.175781 -32.828125 3.101562 -33.25 1.75 -33.25 Z M 1.75 -33.734375 "/></g></g></g><g fill="#000000" fill-opacity="1"><g transform="translate(189.89382, 210.125026)"><g><path d="M 38.296875 -48.515625 C 38.203125 -48.515625 38.0625 -48.441406 37.875 -48.296875 C 37.6875 -48.160156 37.5 -47.90625 37.3125 -47.53125 C 37.125 -47.15625 36.972656 -46.617188 36.859375 -45.921875 C 36.742188 -45.222656 36.6875 -44.289062 36.6875 -43.125 L 36.6875 -6.015625 C 36.6875 -4.898438 36.742188 -3.976562 36.859375 -3.25 C 36.972656 -2.53125 37.125 -1.984375 37.3125 -1.609375 C 37.5 -1.234375 37.6875 -0.972656 37.875 -0.828125 C 38.0625 -0.691406 38.203125 -0.625 38.296875 -0.625 L 38.296875 0 L 30.03125 0 L 30.03125 -0.625 C 30.125 -0.625 30.265625 -0.691406 30.453125 -0.828125 C 30.640625 -0.972656 30.8125 -1.234375 30.96875 -1.609375 C 31.132812 -1.984375 31.285156 -2.53125 31.421875 -3.25 C 31.566406 -3.976562 31.640625 -4.898438 31.640625 -6.015625 L 31.640625 -28.84375 L 8.6875 -28.84375 L 8.6875 -6.015625 C 8.6875 -4.898438 8.742188 -3.976562 8.859375 -3.25 C 8.972656 -2.53125 9.125 -1.984375 9.3125 -1.609375 C 9.5 -1.234375 9.6875 -0.972656 9.875 -0.828125 C 10.0625 -0.691406 10.203125 -0.625 10.296875 -0.625 L 10.296875 0 L 2.09375 0 L 2.09375 -0.625 C 2.1875 -0.625 2.328125 -0.691406 2.515625 -0.828125 C 2.703125 -0.972656 2.878906 -1.234375 3.046875 -1.609375 C 3.210938 -1.984375 3.363281 -2.53125 3.5 -3.25 C 3.632812 -3.976562 3.703125 -4.898438 3.703125 -6.015625 L 3.703125 -43.125 C 3.703125 -44.289062 3.632812 -45.222656 3.5 -45.921875 C 3.363281 -46.617188 3.210938 -47.15625 3.046875 -47.53125 C 2.878906 -47.90625 2.703125 -48.160156 2.515625 -48.296875 C 2.328125 -48.441406 2.1875 -48.515625 2.09375 -48.515625 L 2.09375 -49.140625 L 10.296875 -49.140625 L 10.296875 -48.515625 C 10.203125 -48.515625 10.0625 -48.441406 9.875 -48.296875 C 9.6875 -48.160156 9.5 -47.90625 9.3125 -47.53125 C 9.125 -47.15625 8.972656 -46.617188 8.859375 -45.921875 C 8.742188 -45.222656 8.6875 -44.289062 8.6875 -43.125 L 8.6875 -29.46875 L 31.640625 -29.46875 L 31.640625 -43.125 C 31.640625 -44.289062 31.566406 -45.222656 31.421875 -45.921875 C 31.285156 -46.617188 31.132812 -47.15625 30.96875 -47.53125 C 30.8125 -47.90625 30.640625 -48.160156 30.453125 -48.296875 C 30.265625 -48.441406 30.125 -48.515625 30.03125 -48.515625 L 30.03125 -49.140625 L 38.296875 -49.140625 Z M 38.296875 -48.515625 "/></g></g></g><g fill="#000000" fill-opacity="1"><g transform="translate(230.281609, 210.125026)"><g><path d="M 31.4375 0 L 24.984375 0 L 24.984375 -18.0625 C 24.660156 -15.957031 24.265625 -14.039062 23.796875 -12.3125 C 23.328125 -10.59375 22.789062 -9.054688 22.1875 -7.703125 C 21.71875 -6.722656 21.179688 -5.765625 20.578125 -4.828125 C 19.972656 -3.898438 19.257812 -3.050781 18.4375 -2.28125 C 17.625 -1.507812 16.738281 -0.890625 15.78125 -0.421875 C 14.820312 0.046875 13.757812 0.28125 12.59375 0.28125 C 10.6875 0.28125 9.132812 -0.113281 7.9375 -0.90625 C 6.75 -1.695312 5.816406 -2.722656 5.140625 -3.984375 C 4.460938 -5.242188 3.992188 -6.664062 3.734375 -8.25 C 3.484375 -9.84375 3.359375 -11.429688 3.359375 -13.015625 L 3.359375 -27.71875 C 3.359375 -28.882812 3.285156 -29.816406 3.140625 -30.515625 C 3.003906 -31.210938 2.851562 -31.75 2.6875 -32.125 C 2.53125 -32.5 2.359375 -32.753906 2.171875 -32.890625 C 1.984375 -33.035156 1.84375 -33.109375 1.75 -33.109375 L 1.75 -33.734375 L 8.265625 -33.734375 L 8.265625 -13.015625 C 8.265625 -12.179688 8.3125 -11.164062 8.40625 -9.96875 C 8.5 -8.78125 8.695312 -7.613281 9 -6.46875 C 9.300781 -5.332031 9.742188 -4.296875 10.328125 -3.359375 C 10.910156 -2.421875 11.691406 -1.789062 12.671875 -1.46875 C 13.648438 -1.144531 14.601562 -1.144531 15.53125 -1.46875 C 16.46875 -1.789062 17.320312 -2.300781 18.09375 -3 C 18.863281 -3.707031 19.550781 -4.503906 20.15625 -5.390625 C 20.757812 -6.273438 21.25 -7.113281 21.625 -7.90625 C 22.65625 -10.144531 23.472656 -12.882812 24.078125 -16.125 C 24.679688 -19.375 24.984375 -23.238281 24.984375 -27.71875 C 24.984375 -28.882812 24.910156 -29.816406 24.765625 -30.515625 C 24.628906 -31.210938 24.476562 -31.75 24.3125 -32.125 C 24.15625 -32.5 23.984375 -32.753906 23.796875 -32.890625 C 23.609375 -33.035156 23.46875 -33.109375 23.375 -33.109375 L 23.375 -33.734375 L 29.8125 -33.734375 L 29.8125 -6.015625 C 29.8125 -4.847656 29.867188 -3.914062 29.984375 -3.21875 C 30.109375 -2.519531 30.265625 -1.972656 30.453125 -1.578125 C 30.640625 -1.179688 30.828125 -0.921875 31.015625 -0.796875 C 31.203125 -0.679688 31.34375 -0.625 31.4375 -0.625 Z M 31.4375 0 "/></g></g></g><g fill="#000000" fill-opacity="1"><g transform="translate(263.459791, 210.125026)"><g><path d="M 8.328125 -15.1875 C 8.648438 -17.425781 9.101562 -19.457031 9.6875 -21.28125 C 10.269531 -23.101562 10.960938 -24.757812 11.765625 -26.25 C 13.253906 -29 14.957031 -30.984375 16.875 -32.203125 C 17.0625 -32.335938 17.335938 -32.5 17.703125 -32.6875 C 18.921875 -33.382812 20.207031 -33.835938 21.5625 -34.046875 C 22.914062 -34.265625 24.269531 -34.253906 25.625 -34.015625 C 28.050781 -33.597656 30.046875 -32.804688 31.609375 -31.640625 C 33.171875 -30.472656 34.359375 -29.0625 35.171875 -27.40625 C 35.992188 -25.75 36.472656 -23.953125 36.609375 -22.015625 C 36.742188 -20.078125 36.578125 -18.113281 36.109375 -16.125 C 35.648438 -14.144531 34.929688 -12.222656 33.953125 -10.359375 C 32.972656 -8.492188 31.78125 -6.835938 30.375 -5.390625 C 28.65625 -3.617188 26.628906 -2.171875 24.296875 -1.046875 C 21.960938 0.0664062 19.394531 0.601562 16.59375 0.5625 C 14.164062 0.601562 11.410156 0.0390625 8.328125 -1.125 L 7.90625 -1.328125 C 6.832031 -1.703125 5.921875 -1.75 5.171875 -1.46875 C 4.429688 -1.1875 4.0625 -0.695312 4.0625 0 L 3.4375 0 L 3.4375 -44.59375 C 3.289062 -45.800781 3.050781 -46.59375 2.71875 -46.96875 C 2.394531 -47.34375 2.140625 -47.53125 1.953125 -47.53125 L 1.75 -48.15625 L 8.328125 -50.609375 Z M 8.328125 -1.6875 C 9.816406 -1.070312 11.25 -0.632812 12.625 -0.375 C 14.007812 -0.125 15.351562 0.0195312 16.65625 0.0625 C 19.132812 -0.0195312 21.269531 -0.664062 23.0625 -1.875 C 24.863281 -3.09375 26.367188 -4.78125 27.578125 -6.9375 C 28.421875 -8.46875 29.085938 -10.316406 29.578125 -12.484375 C 30.066406 -14.660156 30.3125 -16.867188 30.3125 -19.109375 C 30.3125 -21.347656 30.003906 -23.484375 29.390625 -25.515625 C 28.785156 -27.546875 27.832031 -29.210938 26.53125 -30.515625 C 25.3125 -31.734375 23.976562 -32.523438 22.53125 -32.890625 C 21.09375 -33.265625 19.578125 -33.054688 17.984375 -32.265625 C 16.210938 -31.242188 14.722656 -29.800781 13.515625 -27.9375 C 12.296875 -26.15625 11.320312 -24.191406 10.59375 -22.046875 C 9.875 -19.898438 9.328125 -17.753906 8.953125 -15.609375 C 8.773438 -14.578125 8.640625 -13.550781 8.546875 -12.53125 C 8.398438 -11.269531 8.328125 -9.988281 8.328125 -8.6875 Z M 8.328125 -1.6875 "/></g></g></g></svg>