<svg xmlns="http://www.w3.org/2000/svg" xmlns:xlink="http://www.w3.org/1999/xlink" width="500" zoomAndPan="magnify" viewBox="0 0 375 262.499992" height="350" preserveAspectRatio="xMidYMid meet" version="1.0"><defs><g/><clipPath id="867b5f2aff"><path d="M 62.515625 10 L 365 10 L 365 148 L 62.515625 148 Z M 62.515625 10 " clip-rule="nonzero"/></clipPath></defs><g clip-path="url(#867b5f2aff)"><path fill="#f6964b" d="M 288.757812 17.222656 C 296.445312 12.234375 307.175781 12.671875 315.863281 14.292969 C 334.539062 17.855469 351.0625 30.785156 358.71875 48.277344 C 371.175781 75.316406 363.804688 105.046875 345.789062 127.628906 C 341.992188 132.011719 336.496094 138.445312 330.324219 138.996094 C 322.421875 139.480469 314.550781 137.027344 307.621094 133.476562 C 290.953125 125.117188 277.199219 111.25 268.539062 94.789062 C 259.886719 78.527344 256.585938 59.757812 257.449219 41.453125 C 257.667969 32.246094 261.773438 23.140625 268.980469 17.328125 C 272.457031 14.378906 276.691406 12.203125 281.125 11.117188 C 287.898438 9.367188 295.105469 10.785156 301.492188 13.375 C 316.742188 19.644531 328.710938 32.257812 336.339844 46.695312 C 338.546875 50.917969 340.285156 55.566406 340.871094 60.347656 C 342.257812 69.484375 342.714844 78.6875 342.515625 87.902344 C 341.980469 114.671875 334.933594 152.765625 299.894531 147.460938 C 268.027344 142.410156 244.371094 108.03125 236.4375 78.730469 C 234.28125 70.839844 233.429688 62.390625 234.707031 54.222656 C 236.09375 43.65625 240.039062 32.804688 248.695312 26.035156 C 257.589844 19.035156 269.800781 17.308594 280.738281 17.578125 C 293.320312 18.804688 304 27.308594 311.132812 37.292969 C 313.859375 41.132812 316.109375 45.382812 317.496094 49.980469 C 318.902344 54.492188 319.097656 59.246094 319.382812 63.925781 C 320.074219 77.703125 319.457031 91.675781 316.289062 105.175781 C 310.011719 131.339844 294.871094 148.734375 266.175781 141.628906 C 243.207031 135.285156 230.328125 111.675781 225.070312 89.949219 C 223.050781 80.925781 221.898438 71.347656 224.003906 62.210938 C 228.011719 43.484375 243.40625 27.398438 262.488281 23.699219 C 275.40625 21.140625 296.253906 24.644531 295.871094 41.417969 C 295.425781 47.574219 290.242188 53.050781 286.5 57.4375 C 280.28125 64.246094 273.902344 70.753906 266.953125 76.777344 C 259.90625 82.757812 252.742188 88.570312 244.175781 92.402344 C 240.703125 93.921875 236.640625 94.832031 232.929688 93.382812 C 229.089844 91.875 226.402344 88.195312 225.644531 84.199219 C 224.078125 76.488281 228.320312 68.929688 233.910156 63.960938 C 242.863281 56.050781 254.851562 52.558594 266.433594 50.890625 C 279.535156 49.238281 302.289062 47.125 308.847656 61.746094 C 312.859375 72.164062 306.707031 83.496094 300.5625 91.6875 C 288.164062 107.453125 269.203125 119.976562 248.613281 120.285156 C 242.824219 120.132812 230.125 120.210938 228.085938 113.371094 C 226.007812 104.769531 243.070312 95.617188 249.445312 92.304688 C 259.851562 87.171875 270.984375 82.929688 282.734375 82.375 C 293.183594 81.714844 304.484375 85.023438 306.078125 96.949219 C 306.515625 100.183594 306.269531 103.542969 304.925781 106.546875 C 299.457031 117.917969 285.339844 127.351562 274.003906 132.21875 C 269.648438 134.007812 265.066406 135.457031 260.128906 135.816406 C 257.679688 135.949219 255.503906 135.90625 253.109375 135.863281 C 246.097656 135.710938 239.140625 134.933594 232.328125 133.027344 C 227.789062 131.738281 223.351562 129.910156 219.277344 127.554688 C 215.335938 125.359375 211.664062 122.511719 207.753906 120.519531 C 195.722656 114.375 182.265625 123.261719 171.28125 128.390625 C 169.214844 129.378906 167.007812 130.378906 164.863281 131.179688 C 158.320312 133.804688 150.992188 134.03125 144.144531 134.539062 C 121.328125 135.574219 98.210938 135.765625 75.753906 131.03125 C 71.261719 129.96875 66.785156 128.609375 62.570312 126.46875 C 62.570312 126.46875 63.710938 124.070312 63.710938 124.070312 C 67.765625 125.71875 72.085938 126.820312 76.476562 127.664062 C 89.75 130.113281 103.285156 130.902344 116.796875 131.082031 C 130.210938 131.109375 143.953125 130.9375 157.183594 128.964844 C 165.816406 127.214844 173.5 122.011719 181.667969 118.417969 C 186.914062 116.058594 192.894531 113.886719 198.914062 113.894531 C 202.652344 113.769531 206.539062 114.726562 209.796875 116.414062 C 214 118.546875 217.550781 121.304688 221.550781 123.539062 C 232.097656 129.667969 244.515625 131.277344 256.554688 131.214844 C 269.683594 131.578125 284.8125 122.386719 294.066406 113.460938 C 297.132812 110.332031 300.160156 106.933594 301.351562 102.667969 C 302.011719 99.203125 301.554688 95.171875 299.5 92.300781 C 297.214844 89.070312 293.230469 87.644531 289.324219 87.121094 C 273.460938 85.179688 252.855469 93.902344 239.839844 102.765625 C 237.449219 104.480469 229.972656 110.078125 232.253906 113.109375 C 234.214844 115.09375 237.488281 115.5625 240.367188 116.027344 C 243.035156 116.394531 245.890625 116.511719 248.625 116.5625 C 267.910156 116.484375 286.210938 104.503906 297.875 89.648438 C 304.890625 80.785156 312.941406 63.648438 299.464844 56.804688 C 288.695312 51.375 268.980469 55.066406 257.492188 57.964844 C 248.386719 60.632812 238.867188 64.578125 233.085938 72.34375 C 229.214844 77.441406 227.746094 86.484375 234.375 89.902344 C 242.460938 93.5 259.234375 80.328125 265.5 75.101562 C 275.101562 66.773438 285.804688 56.304688 289.582031 43.914062 C 290.074219 41.984375 289.726562 40.648438 289.21875 38.96875 C 287.222656 33.601562 281.316406 31.414062 276.019531 30.53125 C 267.777344 29.238281 259.199219 30.394531 251.558594 34.113281 C 239.855469 39.574219 230.59375 50.367188 227.476562 63.078125 C 224.320312 76.007812 227.082031 89.839844 231.371094 102.296875 C 235.925781 114.8125 243.332031 126.886719 254.523438 134.445312 C 265.355469 141.941406 280.59375 143.484375 292.042969 136.609375 C 299.5625 132.207031 304.765625 124.824219 308.035156 116.808594 C 314.660156 100.308594 315.757812 81.84375 315.054688 64.152344 C 314.808594 59.78125 314.640625 55.367188 313.484375 51.125 C 310.183594 38.539062 300.308594 27.707031 288.214844 22.980469 C 284.183594 21.402344 279.886719 20.835938 275.59375 21.273438 C 271.144531 21.578125 266.742188 22.164062 262.570312 23.386719 C 244.710938 28.316406 239.144531 44.449219 238.65625 61.367188 C 238.933594 79.398438 248.316406 98.660156 258.734375 113.085938 C 268.980469 126.972656 283.363281 139.351562 300.714844 142.429688 C 345.0625 150.96875 341.710938 87.652344 335.460938 59.628906 C 335.132812 58.109375 334.699219 56.59375 334.117188 55.144531 C 331.703125 49.105469 328.128906 43.53125 324.222656 38.285156 C 320.214844 33.019531 315.863281 28.003906 311.046875 23.453125 C 302.804688 15.667969 291.328125 8.488281 279.621094 12.125 C 279.054688 12.296875 277.777344 12.800781 277.242188 12.980469 C 276.824219 13.191406 275.398438 13.824219 274.949219 14.046875 C 271.71875 15.742188 268.785156 18.023438 266.316406 20.71875 C 265.996094 21.03125 265.046875 22.296875 264.714844 22.671875 C 264.140625 23.40625 263.351562 24.648438 262.816406 25.453125 C 261.460938 27.855469 260.289062 30.511719 259.609375 33.195312 C 258.859375 35.894531 258.613281 38.699219 258.542969 41.496094 C 258.371094 54.980469 260.515625 68.644531 265.640625 81.105469 C 273.886719 101.683594 289.972656 119.101562 309.894531 128.835938 C 314.753906 131.136719 319.984375 133.125 325.195312 134.464844 C 326.957031 134.9375 328.832031 135.246094 330.644531 135.402344 C 335.957031 135.246094 340.796875 130.148438 343.949219 126.171875 C 354.71875 112.074219 358.582031 93.5 358.003906 76.160156 C 357.363281 54.660156 346.894531 32.582031 327.410156 22.191406 C 316.984375 16.433594 300.261719 12.671875 288.964844 17.597656 C 288.964844 17.597656 288.75 17.242188 288.75 17.242188 Z M 288.757812 17.222656 " fill-opacity="1" fill-rule="nonzero"/></g><g fill="#f6964b" fill-opacity="1"><g transform="translate(-2.05671, 104.133016)"><g><path d="M 66.53125 -14.703125 C 69.40625 -9.753906 71.695312 -6.269531 73.40625 -4.25 C 75.113281 -2.226562 76.375 -1.21875 77.1875 -1.21875 L 77.1875 0 L 60.3125 0 L 60.3125 -1.21875 C 60.675781 -1.21875 60.945312 -1.351562 61.125 -1.625 C 61.300781 -1.894531 61.273438 -2.429688 61.046875 -3.234375 C 60.828125 -4.046875 60.398438 -5.171875 59.765625 -6.609375 C 59.140625 -8.046875 58.15625 -9.9375 56.8125 -12.28125 L 31.984375 -56.265625 L 16.734375 -41.15625 L 16.734375 -11.609375 C 16.734375 -9.441406 16.867188 -7.660156 17.140625 -6.265625 C 17.410156 -4.878906 17.703125 -3.828125 18.015625 -3.109375 C 18.328125 -2.390625 18.660156 -1.894531 19.015625 -1.625 C 19.378906 -1.351562 19.695312 -1.21875 19.96875 -1.21875 L 19.96875 0 L 4.046875 0 L 4.046875 -1.21875 C 4.222656 -1.21875 4.488281 -1.351562 4.84375 -1.625 C 5.207031 -1.894531 5.546875 -2.390625 5.859375 -3.109375 C 6.179688 -3.828125 6.476562 -4.878906 6.75 -6.265625 C 7.019531 -7.660156 7.15625 -9.441406 7.15625 -11.609375 L 7.15625 -83.125 C 7.15625 -85.375 7.019531 -87.171875 6.75 -88.515625 C 6.476562 -89.867188 6.179688 -90.90625 5.859375 -91.625 C 5.546875 -92.34375 5.207031 -92.835938 4.84375 -93.109375 C 4.488281 -93.378906 4.222656 -93.515625 4.046875 -93.515625 L 4.046875 -94.71875 L 19.96875 -94.71875 L 19.96875 -93.515625 C 19.695312 -93.515625 19.378906 -93.378906 19.015625 -93.109375 C 18.660156 -92.835938 18.328125 -92.34375 18.015625 -91.625 C 17.703125 -90.90625 17.410156 -89.867188 17.140625 -88.515625 C 16.867188 -87.171875 16.734375 -85.375 16.734375 -83.125 L 16.734375 -42.78125 L 53.171875 -79.078125 C 57.660156 -83.660156 60.421875 -87.210938 61.453125 -89.734375 C 62.492188 -92.253906 60.945312 -93.515625 56.8125 -93.515625 L 56.8125 -94.71875 L 78.40625 -94.71875 L 78.40625 -93.515625 C 76.507812 -93.515625 74.484375 -93.019531 72.328125 -92.03125 C 70.171875 -91.039062 67.988281 -89.78125 65.78125 -88.25 C 63.570312 -86.71875 61.410156 -85.03125 59.296875 -83.1875 C 57.191406 -81.34375 55.328125 -79.613281 53.703125 -78 L 39.125 -63.421875 Z M 66.53125 -14.703125 "/></g></g></g><g fill="#f6964b" fill-opacity="1"><g transform="translate(80.385139, 104.133016)"><g><path d="M 3.375 -65.046875 L 15.78125 -65.046875 L 15.78125 -30.09375 C 16.320312 -34.226562 17.066406 -37.957031 18.015625 -41.28125 C 18.960938 -44.613281 20.019531 -47.585938 21.1875 -50.203125 C 22.082031 -52.085938 23.113281 -53.925781 24.28125 -55.71875 C 25.457031 -57.519531 26.832031 -59.160156 28.40625 -60.640625 C 29.976562 -62.128906 31.6875 -63.320312 33.53125 -64.21875 C 35.375 -65.125 37.421875 -65.578125 39.671875 -65.578125 C 43.359375 -65.578125 46.347656 -64.8125 48.640625 -63.28125 C 50.929688 -61.75 52.726562 -59.769531 54.03125 -57.34375 C 55.34375 -54.914062 56.242188 -52.171875 56.734375 -49.109375 C 57.234375 -46.054688 57.484375 -43 57.484375 -39.9375 L 57.484375 -11.609375 C 57.484375 -9.359375 57.59375 -7.554688 57.8125 -6.203125 C 58.039062 -4.859375 58.332031 -3.800781 58.6875 -3.03125 C 59.050781 -2.269531 59.410156 -1.773438 59.765625 -1.546875 C 60.128906 -1.328125 60.40625 -1.21875 60.59375 -1.21875 L 60.59375 0 L 44.9375 0 L 44.9375 -1.21875 C 45.113281 -1.21875 45.378906 -1.328125 45.734375 -1.546875 C 46.097656 -1.773438 46.4375 -2.269531 46.75 -3.03125 C 47.070312 -3.800781 47.363281 -4.859375 47.625 -6.203125 C 47.894531 -7.554688 48.03125 -9.359375 48.03125 -11.609375 L 48.03125 -39.9375 C 48.03125 -41.5625 47.941406 -43.519531 47.765625 -45.8125 C 47.585938 -48.101562 47.207031 -50.347656 46.625 -52.546875 C 46.039062 -54.753906 45.1875 -56.757812 44.0625 -58.5625 C 42.9375 -60.363281 41.425781 -61.578125 39.53125 -62.203125 C 37.644531 -62.835938 35.800781 -62.816406 34 -62.140625 C 32.207031 -61.460938 30.566406 -60.445312 29.078125 -59.09375 C 27.597656 -57.75 26.269531 -56.222656 25.09375 -54.515625 C 23.925781 -52.804688 22.984375 -51.1875 22.265625 -49.65625 C 20.285156 -45.34375 18.707031 -40.054688 17.53125 -33.796875 C 16.363281 -27.546875 15.78125 -20.148438 15.78125 -11.609375 C 15.78125 -9.359375 15.894531 -7.554688 16.125 -6.203125 C 16.351562 -4.859375 16.644531 -3.800781 17 -3.03125 C 17.363281 -2.269531 17.722656 -1.773438 18.078125 -1.546875 C 18.441406 -1.328125 18.710938 -1.21875 18.890625 -1.21875 L 18.890625 0 L 3.375 0 L 3.375 -1.21875 C 3.550781 -1.21875 3.816406 -1.328125 4.171875 -1.546875 C 4.535156 -1.773438 4.875 -2.269531 5.1875 -3.03125 C 5.507812 -3.800781 5.804688 -4.859375 6.078125 -6.203125 C 6.347656 -7.554688 6.484375 -9.359375 6.484375 -11.609375 L 6.484375 -53.4375 C 6.484375 -55.59375 6.347656 -57.367188 6.078125 -58.765625 C 5.804688 -60.160156 5.507812 -61.21875 5.1875 -61.9375 C 4.875 -62.65625 4.535156 -63.148438 4.171875 -63.421875 C 3.816406 -63.691406 3.550781 -63.828125 3.375 -63.828125 Z M 3.375 -65.046875 "/></g></g></g><g fill="#f6964b" fill-opacity="1"><g transform="translate(144.341648, 104.133016)"><g><path d="M 3.375 -60.1875 L 16.0625 -65.046875 L 16.0625 -11.609375 C 16.0625 -9.359375 16.171875 -7.554688 16.390625 -6.203125 C 16.617188 -4.859375 16.910156 -3.800781 17.265625 -3.03125 C 17.628906 -2.269531 17.988281 -1.773438 18.34375 -1.546875 C 18.707031 -1.328125 18.976562 -1.21875 19.15625 -1.21875 L 19.15625 0 L 3.515625 0 L 3.515625 -1.21875 C 3.773438 -1.21875 4.085938 -1.328125 4.453125 -1.546875 C 4.816406 -1.773438 5.15625 -2.269531 5.46875 -3.03125 C 5.78125 -3.800781 6.070312 -4.859375 6.34375 -6.203125 C 6.613281 -7.554688 6.75 -9.359375 6.75 -11.609375 L 6.75 -53.296875 C 6.382812 -55.722656 5.882812 -57.296875 5.25 -58.015625 C 4.625 -58.742188 4.132812 -59.109375 3.78125 -59.109375 Z M 10.390625 -75.96875 C 8.585938 -75.96875 7.078125 -76.570312 5.859375 -77.78125 C 4.648438 -79 4.046875 -80.507812 4.046875 -82.3125 C 4.046875 -84.113281 4.648438 -85.617188 5.859375 -86.828125 C 7.078125 -88.046875 8.585938 -88.65625 10.390625 -88.65625 C 12.191406 -88.65625 13.695312 -88.046875 14.90625 -86.828125 C 16.125 -85.617188 16.734375 -84.113281 16.734375 -82.3125 C 16.734375 -80.507812 16.125 -79 14.90625 -77.78125 C 13.695312 -76.570312 12.191406 -75.96875 10.390625 -75.96875 Z M 10.390625 -75.96875 "/></g></g></g><g fill="#f6964b" fill-opacity="1"><g transform="translate(166.874851, 104.133016)"><g><path d="M 3.375 -65.046875 C 3.914062 -65.046875 4.90625 -65.175781 6.34375 -65.4375 C 7.78125 -65.707031 9.238281 -66.453125 10.71875 -67.671875 C 12.207031 -68.890625 13.515625 -70.734375 14.640625 -73.203125 C 15.765625 -75.679688 16.328125 -79.125 16.328125 -83.53125 L 25.765625 -83.53125 C 25.765625 -78.132812 24.6875 -73.972656 22.53125 -71.046875 C 20.375 -68.117188 17.132812 -66.117188 12.8125 -65.046875 L 33.0625 -65.046875 L 33.0625 -64.09375 L 21.3125 -64.09375 L 21.3125 -25.09375 C 21.3125 -23.476562 21.398438 -21.519531 21.578125 -19.21875 C 21.765625 -16.925781 22.148438 -14.675781 22.734375 -12.46875 C 23.316406 -10.269531 24.171875 -8.269531 25.296875 -6.46875 C 26.421875 -4.675781 27.929688 -3.460938 29.828125 -2.828125 C 31.710938 -2.203125 33.550781 -2.203125 35.34375 -2.828125 C 37.144531 -3.460938 38.785156 -4.453125 40.265625 -5.796875 C 41.753906 -7.148438 43.082031 -8.679688 44.25 -10.390625 C 45.425781 -12.097656 46.375 -13.71875 47.09375 -15.25 C 47.632812 -16.507812 48.148438 -17.832031 48.640625 -19.21875 C 49.140625 -20.613281 49.613281 -22.078125 50.0625 -23.609375 L 51.28125 -23.609375 C 50.832031 -21.992188 50.359375 -20.441406 49.859375 -18.953125 C 49.367188 -17.472656 48.804688 -16.101562 48.171875 -14.84375 C 47.359375 -12.957031 46.34375 -11.113281 45.125 -9.3125 C 43.914062 -7.507812 42.546875 -5.863281 41.015625 -4.375 C 39.492188 -2.894531 37.785156 -1.703125 35.890625 -0.796875 C 34.003906 0.0976562 31.9375 0.546875 29.6875 0.546875 C 26 0.546875 23.003906 -0.21875 20.703125 -1.75 C 18.410156 -3.28125 16.613281 -5.257812 15.3125 -7.6875 C 14.007812 -10.113281 13.109375 -12.859375 12.609375 -15.921875 C 12.117188 -18.984375 11.875 -22.039062 11.875 -25.09375 L 11.875 -55.859375 C 11.875 -58.109375 11.109375 -60.039062 9.578125 -61.65625 C 8.046875 -63.28125 5.976562 -64.09375 3.375 -64.09375 Z M 3.375 -65.046875 "/></g></g></g><g fill="#f6964b" fill-opacity="1"><g transform="translate(156.073915, 247.083222)"><g><path d="M 73.8125 -93.515625 C 73.632812 -93.515625 73.363281 -93.378906 73 -93.109375 C 72.644531 -92.835938 72.285156 -92.34375 71.921875 -91.625 C 71.554688 -90.90625 71.257812 -89.867188 71.03125 -88.515625 C 70.8125 -87.171875 70.703125 -85.375 70.703125 -83.125 L 70.703125 -11.609375 C 70.703125 -9.441406 70.8125 -7.660156 71.03125 -6.265625 C 71.257812 -4.878906 71.554688 -3.828125 71.921875 -3.109375 C 72.285156 -2.390625 72.644531 -1.894531 73 -1.625 C 73.363281 -1.351562 73.632812 -1.21875 73.8125 -1.21875 L 73.8125 0 L 57.890625 0 L 57.890625 -1.21875 C 58.066406 -1.21875 58.332031 -1.351562 58.6875 -1.625 C 59.050781 -1.894531 59.390625 -2.390625 59.703125 -3.109375 C 60.023438 -3.828125 60.316406 -4.878906 60.578125 -6.265625 C 60.847656 -7.660156 60.984375 -9.441406 60.984375 -11.609375 L 60.984375 -55.59375 L 16.734375 -55.59375 L 16.734375 -11.609375 C 16.734375 -9.441406 16.84375 -7.660156 17.0625 -6.265625 C 17.289062 -4.878906 17.582031 -3.828125 17.9375 -3.109375 C 18.300781 -2.390625 18.660156 -1.894531 19.015625 -1.625 C 19.378906 -1.351562 19.648438 -1.21875 19.828125 -1.21875 L 19.828125 0 L 4.046875 0 L 4.046875 -1.21875 C 4.222656 -1.21875 4.488281 -1.351562 4.84375 -1.625 C 5.207031 -1.894531 5.546875 -2.390625 5.859375 -3.109375 C 6.179688 -3.828125 6.476562 -4.878906 6.75 -6.265625 C 7.019531 -7.660156 7.15625 -9.441406 7.15625 -11.609375 L 7.15625 -83.125 C 7.15625 -85.375 7.019531 -87.171875 6.75 -88.515625 C 6.476562 -89.867188 6.179688 -90.90625 5.859375 -91.625 C 5.546875 -92.34375 5.207031 -92.835938 4.84375 -93.109375 C 4.488281 -93.378906 4.222656 -93.515625 4.046875 -93.515625 L 4.046875 -94.71875 L 19.828125 -94.71875 L 19.828125 -93.515625 C 19.648438 -93.515625 19.378906 -93.378906 19.015625 -93.109375 C 18.660156 -92.835938 18.300781 -92.34375 17.9375 -91.625 C 17.582031 -90.90625 17.289062 -89.867188 17.0625 -88.515625 C 16.84375 -87.171875 16.734375 -85.375 16.734375 -83.125 L 16.734375 -56.8125 L 60.984375 -56.8125 L 60.984375 -83.125 C 60.984375 -85.375 60.847656 -87.171875 60.578125 -88.515625 C 60.316406 -89.867188 60.023438 -90.90625 59.703125 -91.625 C 59.390625 -92.34375 59.050781 -92.835938 58.6875 -93.109375 C 58.332031 -93.378906 58.066406 -93.515625 57.890625 -93.515625 L 57.890625 -94.71875 L 73.8125 -94.71875 Z M 73.8125 -93.515625 "/></g></g></g><g fill="#f6964b" fill-opacity="1"><g transform="translate(233.928149, 247.083222)"><g><path d="M 60.59375 0 L 48.171875 0 L 48.171875 -34.8125 C 47.546875 -30.757812 46.78125 -27.066406 45.875 -23.734375 C 44.976562 -20.410156 43.945312 -17.445312 42.78125 -14.84375 C 41.875 -12.957031 40.835938 -11.113281 39.671875 -9.3125 C 38.503906 -7.507812 37.128906 -5.863281 35.546875 -4.375 C 33.972656 -2.894531 32.265625 -1.703125 30.421875 -0.796875 C 28.578125 0.0976562 26.53125 0.546875 24.28125 0.546875 C 20.59375 0.546875 17.601562 -0.21875 15.3125 -1.75 C 13.019531 -3.28125 11.222656 -5.257812 9.921875 -7.6875 C 8.617188 -10.113281 7.71875 -12.859375 7.21875 -15.921875 C 6.726562 -18.984375 6.484375 -22.039062 6.484375 -25.09375 L 6.484375 -53.4375 C 6.484375 -55.6875 6.347656 -57.484375 6.078125 -58.828125 C 5.804688 -60.179688 5.507812 -61.21875 5.1875 -61.9375 C 4.875 -62.65625 4.535156 -63.148438 4.171875 -63.421875 C 3.816406 -63.691406 3.550781 -63.828125 3.375 -63.828125 L 3.375 -65.046875 L 15.921875 -65.046875 L 15.921875 -25.09375 C 15.921875 -23.476562 16.007812 -21.519531 16.1875 -19.21875 C 16.375 -16.925781 16.757812 -14.675781 17.34375 -12.46875 C 17.925781 -10.269531 18.78125 -8.269531 19.90625 -6.46875 C 21.03125 -4.675781 22.535156 -3.460938 24.421875 -2.828125 C 26.304688 -2.203125 28.148438 -2.203125 29.953125 -2.828125 C 31.753906 -3.460938 33.394531 -4.453125 34.875 -5.796875 C 36.363281 -7.148438 37.691406 -8.679688 38.859375 -10.390625 C 40.023438 -12.097656 40.972656 -13.71875 41.703125 -15.25 C 43.679688 -19.5625 45.253906 -24.84375 46.421875 -31.09375 C 47.585938 -37.351562 48.171875 -44.800781 48.171875 -53.4375 C 48.171875 -55.6875 48.035156 -57.484375 47.765625 -58.828125 C 47.492188 -60.179688 47.203125 -61.21875 46.890625 -61.9375 C 46.578125 -62.65625 46.238281 -63.148438 45.875 -63.421875 C 45.519531 -63.691406 45.25 -63.828125 45.0625 -63.828125 L 45.0625 -65.046875 L 57.484375 -65.046875 L 57.484375 -11.609375 C 57.484375 -9.359375 57.59375 -7.554688 57.8125 -6.203125 C 58.039062 -4.859375 58.332031 -3.800781 58.6875 -3.03125 C 59.050781 -2.269531 59.410156 -1.773438 59.765625 -1.546875 C 60.128906 -1.328125 60.40625 -1.21875 60.59375 -1.21875 Z M 60.59375 0 "/></g></g></g><g fill="#f6964b" fill-opacity="1"><g transform="translate(297.884658, 247.083222)"><g><path d="M 16.0625 -29.28125 C 16.6875 -33.601562 17.5625 -37.515625 18.6875 -41.015625 C 19.8125 -44.523438 21.140625 -47.722656 22.671875 -50.609375 C 25.546875 -55.910156 28.828125 -59.734375 32.515625 -62.078125 C 32.878906 -62.335938 33.421875 -62.648438 34.140625 -63.015625 C 36.472656 -64.367188 38.941406 -65.242188 41.546875 -65.640625 C 44.160156 -66.046875 46.773438 -66.023438 49.390625 -65.578125 C 54.066406 -64.765625 57.910156 -63.234375 60.921875 -60.984375 C 63.929688 -58.742188 66.222656 -56.023438 67.796875 -52.828125 C 69.378906 -49.628906 70.304688 -46.164062 70.578125 -42.4375 C 70.847656 -38.707031 70.53125 -34.929688 69.625 -31.109375 C 68.726562 -27.285156 67.332031 -23.570312 65.4375 -19.96875 C 63.550781 -16.375 61.257812 -13.179688 58.5625 -10.390625 C 55.226562 -6.972656 51.3125 -4.179688 46.8125 -2.015625 C 42.320312 0.140625 37.378906 1.171875 31.984375 1.078125 C 27.304688 1.171875 22 0.09375 16.0625 -2.15625 L 15.25 -2.5625 C 13.175781 -3.28125 11.421875 -3.367188 9.984375 -2.828125 C 8.546875 -2.296875 7.828125 -1.351562 7.828125 0 L 6.609375 0 L 6.609375 -85.953125 C 6.335938 -88.296875 5.882812 -89.828125 5.25 -90.546875 C 4.625 -91.265625 4.132812 -91.625 3.78125 -91.625 L 3.375 -92.84375 L 16.0625 -97.5625 Z M 16.0625 -3.234375 C 18.9375 -2.066406 21.703125 -1.234375 24.359375 -0.734375 C 27.015625 -0.242188 29.597656 0.046875 32.109375 0.140625 C 36.878906 -0.046875 40.992188 -1.304688 44.453125 -3.640625 C 47.921875 -5.984375 50.828125 -9.222656 53.171875 -13.359375 C 54.785156 -16.328125 56.0625 -19.898438 57 -24.078125 C 57.945312 -28.265625 58.421875 -32.515625 58.421875 -36.828125 C 58.421875 -41.148438 57.835938 -45.265625 56.671875 -49.171875 C 55.503906 -53.085938 53.660156 -56.304688 51.140625 -58.828125 C 48.804688 -61.171875 46.242188 -62.703125 43.453125 -63.421875 C 40.660156 -64.140625 37.734375 -63.734375 34.671875 -62.203125 C 31.253906 -60.222656 28.378906 -57.4375 26.046875 -53.84375 C 23.703125 -50.425781 21.832031 -46.644531 20.4375 -42.5 C 19.039062 -38.363281 17.984375 -34.226562 17.265625 -30.09375 C 16.910156 -28.113281 16.644531 -26.132812 16.46875 -24.15625 C 16.195312 -21.726562 16.0625 -19.253906 16.0625 -16.734375 Z M 16.0625 -3.234375 "/></g></g></g></svg>