<svg xmlns="http://www.w3.org/2000/svg" xmlns:xlink="http://www.w3.org/1999/xlink" width="500" zoomAndPan="magnify" viewBox="0 0 375 374.999991" height="500" preserveAspectRatio="xMidYMid meet" version="1.0"><path fill="#bd5e67" d="M 145.394531 185.589844 C 148.082031 187.972656 150.304688 190.816406 152.011719 194.023438 C 154.699219 199.148438 155.835938 204.992188 155.265625 210.789062 C 153.664062 227.242188 138.984375 239.296875 122.542969 237.640625 C 106.105469 235.984375 94.058594 221.394531 95.660156 204.890625 C 97.265625 188.386719 111.945312 176.382812 128.386719 178.039062 C 134.742188 178.65625 140.6875 181.398438 145.394531 185.589844 Z M 145.394531 185.589844 " fill-opacity="1" fill-rule="nonzero"/><path fill="#542d34" d="M 145.703125 215.753906 C 147.203125 212.910156 148.648438 210.011719 149.992188 207.0625 C 151.335938 204.164062 152.578125 201.164062 153.765625 198.214844 C 153.664062 197.851562 153.507812 197.542969 153.40625 197.179688 C 153.199219 197.179688 152.992188 197.285156 152.890625 197.492188 C 150.769531 202.976562 148.339844 208.304688 145.703125 213.53125 C 145.496094 213.894531 145.289062 214.308594 145.132812 214.667969 C 144.308594 213.21875 143.429688 211.824219 142.496094 210.476562 C 143.84375 207.941406 145.082031 205.355469 146.273438 202.71875 C 147.875 199.148438 149.375 195.578125 150.769531 191.902344 C 150.613281 191.644531 150.40625 191.386719 150.253906 191.128906 C 150.046875 191.128906 149.890625 191.230469 149.785156 191.4375 C 147.511719 197.59375 144.824219 203.597656 141.824219 209.441406 C 141 208.304688 140.171875 207.167969 139.292969 206.082031 C 135.570312 201.421875 131.175781 197.285156 126.367188 193.714844 C 127.507812 192.730469 128.695312 191.800781 129.882812 190.921875 C 133.710938 188.023438 137.84375 185.4375 142.34375 183.832031 C 142.550781 183.730469 142.652344 183.574219 142.652344 183.417969 C 142.394531 183.210938 142.136719 183.054688 141.878906 182.902344 C 137.792969 184.347656 134.019531 186.625 130.503906 189.160156 C 128.796875 190.402344 127.09375 191.695312 125.488281 193.09375 C 124.144531 192.164062 122.800781 191.230469 121.40625 190.402344 C 122.542969 189.417969 123.679688 188.4375 124.921875 187.609375 C 128.4375 185.125 132.3125 183.210938 136.398438 181.867188 C 136.964844 181.710938 137.484375 181.554688 138.050781 181.398438 C 138.308594 181.347656 138.414062 181.140625 138.464844 180.933594 C 138.15625 180.78125 137.792969 180.625 137.433594 180.46875 C 133.296875 181.660156 129.316406 183.417969 125.695312 185.796875 C 123.835938 186.988281 122.078125 188.386719 120.476562 189.886719 C 116.441406 187.503906 112.152344 185.488281 107.707031 183.882812 C 107.707031 183.882812 107.65625 183.882812 107.65625 183.882812 C 107.449219 184.039062 107.242188 184.246094 106.984375 184.402344 C 106.984375 184.609375 107.085938 184.816406 107.292969 184.917969 C 111.582031 186.472656 115.71875 188.386719 119.597656 190.660156 C 118.460938 191.800781 117.320312 192.988281 116.339844 194.230469 C 116.183594 194.4375 116.03125 194.59375 115.925781 194.800781 C 115.617188 194.59375 115.304688 194.386719 114.996094 194.230469 C 111.171875 191.902344 107.191406 189.886719 103.003906 188.28125 C 102.796875 188.539062 102.539062 188.800781 102.332031 189.058594 C 102.382812 189.160156 102.484375 189.214844 102.589844 189.265625 C 107.035156 190.972656 111.273438 193.144531 115.253906 195.679688 C 113.136719 198.527344 111.378906 201.578125 109.980469 204.839844 C 109.257812 206.492188 108.636719 208.203125 108.121094 209.960938 C 107.191406 208.71875 106.363281 207.476562 105.535156 206.183594 C 103.054688 202.199219 101.089844 197.800781 100.160156 193.144531 C 100.109375 192.886719 99.953125 192.78125 99.746094 192.730469 C 99.539062 193.042969 99.382812 193.351562 99.175781 193.714844 C 100.054688 197.851562 101.710938 201.785156 103.828125 205.40625 C 105.019531 207.425781 106.363281 209.390625 107.757812 211.203125 C 107.292969 212.859375 106.984375 214.566406 106.671875 216.273438 C 105.433594 214.617188 104.242188 212.910156 103.15625 211.097656 C 100.933594 207.425781 99.074219 203.542969 97.523438 199.507812 C 97.417969 199.199219 97.058594 199.148438 96.851562 199.25 C 96.746094 199.507812 96.695312 199.820312 96.644531 200.078125 C 99.074219 206.390625 102.277344 212.445312 106.519531 217.722656 C 106 221.757812 106 225.84375 106.414062 229.878906 C 106.464844 230.292969 106.519531 230.65625 106.570312 231.070312 C 106.878906 231.328125 107.191406 231.535156 107.5 231.792969 C 107.65625 231.691406 107.707031 231.535156 107.707031 231.277344 C 107.136719 227.136719 107.035156 222.949219 107.5 218.808594 C 107.808594 219.222656 108.171875 219.585938 108.480469 219.945312 C 109.464844 221.03125 110.5 222.121094 111.636719 223.152344 C 111.378906 226.984375 111.480469 230.8125 112.101562 234.589844 C 112.460938 234.742188 112.773438 234.898438 113.136719 235.105469 C 113.1875 235.003906 113.238281 234.898438 113.238281 234.742188 C 112.667969 231.226562 112.515625 227.65625 112.722656 224.136719 C 117.011719 227.914062 121.976562 230.914062 127.453125 232.675781 C 126.265625 234.277344 125.023438 235.882812 123.730469 237.484375 C 123.679688 237.589844 123.628906 237.691406 123.628906 237.746094 C 124.042969 237.746094 124.457031 237.796875 124.871094 237.796875 C 126.109375 236.246094 127.351562 234.640625 128.539062 232.984375 C 130.089844 233.449219 131.695312 233.8125 133.296875 234.070312 C 132.625 235.003906 131.953125 235.984375 131.226562 236.917969 C 131.125 237.074219 131.125 237.175781 131.125 237.332031 C 131.589844 237.226562 132.003906 237.175781 132.46875 237.074219 C 133.140625 236.140625 133.8125 235.210938 134.484375 234.277344 C 136.085938 234.484375 137.742188 234.535156 139.34375 234.535156 C 139.863281 234.277344 140.328125 234.019531 140.84375 233.710938 C 140.738281 233.554688 140.585938 233.398438 140.328125 233.449219 C 138.621094 233.554688 136.863281 233.503906 135.15625 233.347656 C 136.035156 232.105469 136.863281 230.863281 137.691406 229.621094 C 139.34375 229.726562 141 229.671875 142.601562 229.519531 C 143.171875 229.464844 143.738281 229.363281 144.359375 229.257812 C 144.515625 229.671875 144.722656 230.085938 144.875 230.5 C 144.925781 230.605469 144.980469 230.707031 145.082031 230.761719 C 145.339844 230.554688 145.597656 230.292969 145.859375 230.085938 C 144.773438 227.5 143.53125 224.964844 142.1875 222.535156 C 143.222656 220.722656 144.253906 218.910156 145.238281 217.101562 C 146.789062 220 148.082031 222.949219 149.167969 226.050781 C 149.21875 226.15625 149.269531 226.257812 149.375 226.308594 C 149.632812 226 149.839844 225.691406 150.097656 225.328125 C 148.753906 221.914062 147.355469 218.757812 145.703125 215.753906 Z M 125.488281 194.4375 C 126.835938 195.421875 128.125 196.40625 129.367188 197.441406 C 133.863281 201.214844 137.84375 205.667969 141.207031 210.476562 C 140.222656 212.339844 139.1875 214.203125 138.15625 216.066406 C 136.605469 213.789062 134.949219 211.667969 133.140625 209.597656 C 129.625 205.5625 125.75 201.835938 121.507812 198.628906 C 121.820312 198.265625 122.128906 197.851562 122.441406 197.492188 C 123.371094 196.40625 124.40625 195.421875 125.488281 194.4375 Z M 137.535156 217.101562 C 135.519531 220.617188 133.347656 224.035156 131.019531 227.34375 C 130.195312 227.085938 129.316406 226.828125 128.488281 226.570312 C 125.542969 225.484375 122.957031 223.980469 120.425781 222.121094 C 117.996094 220.308594 115.667969 218.34375 113.496094 216.167969 C 114.011719 213.632812 114.738281 211.152344 115.667969 208.71875 C 116.910156 205.40625 118.613281 202.304688 120.785156 199.507812 C 121.457031 200.027344 122.179688 200.59375 122.855469 201.164062 C 128.488281 205.71875 133.449219 211.097656 137.535156 217.101562 Z M 120.527344 191.179688 C 121.921875 192.007812 123.265625 192.886719 124.609375 193.816406 C 123.785156 194.59375 122.957031 195.371094 122.179688 196.144531 C 121.613281 196.714844 121.097656 197.335938 120.578125 197.957031 C 119.339844 197.027344 118.046875 196.144531 116.753906 195.265625 C 117.941406 193.816406 119.183594 192.421875 120.527344 191.179688 Z M 111.84375 219.894531 C 111.738281 220.515625 111.6875 221.136719 111.636719 221.757812 C 110.1875 220.359375 108.84375 218.859375 107.550781 217.308594 C 107.808594 215.546875 108.121094 213.839844 108.535156 212.132812 C 109.359375 213.167969 110.238281 214.203125 111.171875 215.1875 C 111.582031 215.601562 111.945312 216.015625 112.359375 216.429688 C 112.203125 217.617188 111.996094 218.757812 111.84375 219.894531 Z M 108.894531 210.890625 C 109.308594 209.441406 109.773438 208.046875 110.292969 206.648438 C 111.738281 202.925781 113.703125 199.355469 116.082031 196.144531 C 117.375 196.972656 118.667969 197.90625 119.90625 198.835938 C 116.238281 203.648438 113.910156 209.339844 112.617188 215.238281 C 111.324219 213.839844 110.085938 212.390625 108.894531 210.890625 Z M 127.917969 231.742188 C 124.609375 230.707031 121.507812 229.207031 118.613281 227.34375 C 116.496094 226 114.480469 224.449219 112.617188 222.742188 C 112.667969 222.429688 112.667969 222.066406 112.722656 221.757812 C 112.875 220.308594 113.082031 218.859375 113.339844 217.410156 C 115.152344 219.222656 117.0625 220.878906 119.132812 222.429688 C 121.507812 224.242188 123.9375 225.84375 126.679688 226.984375 C 127.917969 227.5 129.160156 227.964844 130.402344 228.277344 C 129.574219 229.464844 128.796875 230.605469 127.917969 231.742188 Z M 133.8125 233.089844 C 132.210938 232.882812 130.609375 232.519531 129.058594 232.054688 C 129.882812 230.914062 130.710938 229.726562 131.539062 228.585938 C 133.140625 229 134.742188 229.257812 136.347656 229.414062 C 135.519531 230.65625 134.691406 231.847656 133.8125 233.089844 Z M 137.019531 228.378906 C 135.363281 228.277344 133.761719 228.019531 132.160156 227.65625 C 133.65625 225.484375 135.054688 223.308594 136.449219 221.03125 C 137.070312 220.050781 137.636719 219.066406 138.207031 218.082031 C 138.308594 218.238281 138.414062 218.394531 138.515625 218.601562 C 139.292969 219.792969 140.066406 221.03125 140.792969 222.273438 C 139.550781 224.34375 138.308594 226.363281 137.019531 228.378906 Z M 143.789062 228.121094 C 141.980469 228.378906 140.121094 228.484375 138.257812 228.433594 C 139.34375 226.777344 140.378906 225.070312 141.414062 223.359375 C 142.238281 224.914062 143.015625 226.515625 143.789062 228.121094 Z M 141.414062 221.238281 C 140.585938 219.792969 139.707031 218.445312 138.777344 217.050781 C 139.863281 215.238281 140.84375 213.375 141.824219 211.511719 C 142.550781 212.597656 143.273438 213.738281 143.945312 214.875 C 144.101562 215.1875 144.253906 215.445312 144.460938 215.753906 C 143.480469 217.617188 142.496094 219.429688 141.414062 221.238281 Z M 141.414062 221.238281 " fill-opacity="1" fill-rule="nonzero"/><path fill="#542d34" d="M 151.957031 194.023438 C 150.304688 190.816406 148.027344 187.972656 145.339844 185.589844 C 143.066406 183.574219 140.480469 181.867188 137.691406 180.574219 C 138.105469 181.246094 138.515625 181.917969 138.878906 182.640625 C 141.566406 187.765625 142.703125 193.609375 142.136719 199.40625 C 140.535156 215.859375 125.851562 227.914062 109.414062 226.257812 C 106.105469 225.949219 102.949219 225.070312 100.054688 223.773438 C 104.8125 231.328125 112.875 236.710938 122.441406 237.640625 C 138.878906 239.246094 153.5625 227.242188 155.164062 210.789062 C 155.835938 205.046875 154.644531 199.148438 151.957031 194.023438 Z M 151.957031 194.023438 " fill-opacity="0.15" fill-rule="nonzero"/><path fill="#542d34" d="M 151.957031 194.023438 C 150.613281 191.386719 148.804688 189.007812 146.738281 186.9375 C 146.945312 187.351562 147.203125 187.710938 147.410156 188.125 C 150.097656 193.25 151.234375 199.09375 150.664062 204.890625 C 149.0625 221.34375 134.382812 233.398438 117.941406 231.742188 C 110.707031 231.019531 104.347656 227.8125 99.589844 223 C 104.292969 230.96875 112.566406 236.710938 122.492188 237.691406 C 138.929688 239.296875 153.613281 227.292969 155.214844 210.839844 C 155.835938 205.046875 154.644531 199.148438 151.957031 194.023438 Z M 151.957031 194.023438 " fill-opacity="0.15" fill-rule="nonzero"/><path fill="#8a4654" d="M 249.507812 185.4375 C 252.195312 187.816406 254.417969 190.660156 256.125 193.871094 C 258.8125 198.992188 259.949219 204.839844 259.382812 210.632812 C 257.777344 227.085938 243.097656 239.140625 226.65625 237.484375 C 210.21875 235.832031 198.175781 221.1875 199.828125 204.734375 C 201.429688 188.28125 216.113281 176.226562 232.550781 177.882812 C 238.859375 178.503906 244.804688 181.246094 249.507812 185.4375 Z M 249.507812 185.4375 " fill-opacity="1" fill-rule="nonzero"/><path fill="#542d34" d="M 249.816406 215.601562 C 251.316406 212.753906 252.765625 209.855469 254.109375 206.90625 C 255.453125 204.011719 256.691406 201.007812 257.882812 198.058594 C 257.777344 197.699219 257.625 197.386719 257.519531 197.027344 C 257.3125 197.027344 257.105469 197.128906 257.003906 197.335938 C 254.882812 202.820312 252.453125 208.148438 249.816406 213.375 C 249.609375 213.738281 249.402344 214.152344 249.25 214.515625 C 248.421875 213.066406 247.542969 211.667969 246.613281 210.324219 C 247.957031 207.789062 249.199219 205.199219 250.386719 202.5625 C 251.988281 198.992188 253.488281 195.421875 254.882812 191.75 C 254.730469 191.488281 254.523438 191.230469 254.367188 190.972656 C 254.160156 190.972656 254.003906 191.074219 253.902344 191.28125 C 251.574219 197.441406 248.9375 203.441406 245.941406 209.289062 C 245.113281 208.148438 244.285156 207.011719 243.40625 205.925781 C 239.683594 201.269531 235.292969 197.128906 230.484375 193.558594 C 231.621094 192.574219 232.808594 191.644531 234 190.765625 C 237.824219 187.867188 241.960938 185.28125 246.457031 183.675781 C 246.714844 183.574219 246.769531 183.417969 246.769531 183.261719 C 246.507812 183.054688 246.25 182.902344 245.992188 182.746094 C 241.910156 184.195312 238.132812 186.472656 234.621094 189.007812 C 232.914062 190.246094 231.207031 191.542969 229.605469 192.9375 C 228.261719 192.007812 226.917969 191.074219 225.519531 190.246094 C 226.605469 189.265625 227.796875 188.28125 229.035156 187.453125 C 232.550781 184.96875 236.429688 183.054688 240.511719 181.710938 C 241.03125 181.554688 241.597656 181.398438 242.167969 181.246094 C 242.425781 181.191406 242.527344 180.984375 242.582031 180.78125 C 242.269531 180.625 241.910156 180.46875 241.546875 180.3125 C 237.410156 181.503906 233.429688 183.261719 229.8125 185.644531 C 227.949219 186.832031 226.191406 188.230469 224.589844 189.730469 C 220.507812 187.351562 216.265625 185.332031 211.820312 183.730469 C 211.820312 183.730469 211.769531 183.730469 211.769531 183.730469 C 211.5625 183.882812 211.304688 184.089844 211.097656 184.246094 C 211.097656 184.453125 211.148438 184.660156 211.40625 184.761719 C 215.699219 186.316406 219.835938 188.230469 223.710938 190.507812 C 222.574219 191.644531 221.4375 192.835938 220.453125 194.078125 C 220.300781 194.285156 220.144531 194.4375 220.042969 194.644531 C 219.730469 194.4375 219.421875 194.230469 219.109375 194.078125 C 215.285156 191.75 211.304688 189.730469 207.117188 188.125 C 206.910156 188.386719 206.652344 188.644531 206.445312 188.902344 C 206.496094 189.007812 206.601562 189.058594 206.703125 189.109375 C 211.148438 190.816406 215.386719 192.988281 219.367188 195.523438 C 217.25 198.371094 215.492188 201.421875 214.097656 204.683594 C 213.371094 206.339844 212.804688 208.046875 212.285156 209.804688 C 211.355469 208.5625 210.476562 207.320312 209.703125 206.027344 C 207.21875 202.042969 205.257812 197.648438 204.324219 192.988281 C 204.273438 192.730469 204.117188 192.628906 203.914062 192.574219 C 203.707031 192.886719 203.550781 193.195312 203.34375 193.558594 C 204.222656 197.699219 205.875 201.628906 207.996094 205.253906 C 209.183594 207.269531 210.527344 209.234375 211.925781 211.046875 C 211.460938 212.703125 211.148438 214.410156 210.839844 216.117188 C 209.546875 214.460938 208.410156 212.753906 207.324219 210.945312 C 205.101562 207.269531 203.238281 203.390625 201.6875 199.355469 C 201.585938 199.042969 201.222656 198.992188 201.015625 199.09375 C 200.914062 199.355469 200.863281 199.664062 200.757812 199.921875 C 203.1875 206.234375 206.394531 212.289062 210.632812 217.566406 C 210.117188 221.601562 210.117188 225.691406 210.527344 229.726562 C 210.582031 230.140625 210.632812 230.5 210.683594 230.914062 C 210.996094 231.175781 211.304688 231.382812 211.613281 231.640625 C 211.769531 231.535156 211.820312 231.382812 211.820312 231.121094 C 211.253906 226.984375 211.148438 222.792969 211.613281 218.652344 C 211.925781 219.066406 212.285156 219.429688 212.597656 219.792969 C 213.578125 220.878906 214.613281 221.964844 215.75 223 C 215.492188 226.828125 215.59375 230.65625 216.214844 234.433594 C 216.527344 234.589844 216.886719 234.742188 217.25 234.949219 C 217.300781 234.847656 217.351562 234.742188 217.351562 234.589844 C 216.785156 231.070312 216.628906 227.5 216.835938 223.980469 C 221.125 227.757812 226.140625 230.761719 231.570312 232.519531 C 230.378906 234.125 229.140625 235.726562 227.847656 237.332031 C 227.796875 237.433594 227.742188 237.539062 227.742188 237.589844 C 228.15625 237.589844 228.570312 237.640625 228.984375 237.640625 C 230.226562 236.089844 231.464844 234.484375 232.65625 232.828125 C 234.207031 233.296875 235.808594 233.65625 237.410156 233.917969 C 236.738281 234.847656 236.066406 235.832031 235.34375 236.761719 C 235.238281 236.917969 235.238281 237.019531 235.238281 237.175781 C 235.703125 237.074219 236.117188 237.019531 236.582031 236.917969 C 237.253906 235.984375 237.929688 235.054688 238.601562 234.125 C 240.203125 234.332031 241.855469 234.382812 243.460938 234.382812 C 243.976562 234.125 244.492188 233.863281 244.957031 233.554688 C 244.855469 233.398438 244.699219 233.242188 244.441406 233.296875 C 242.734375 233.398438 240.976562 233.347656 239.273438 233.191406 C 240.152344 231.949219 240.976562 230.707031 241.804688 229.464844 C 243.460938 229.570312 245.113281 229.519531 246.714844 229.363281 C 247.285156 229.3125 247.851562 229.207031 248.472656 229.105469 C 248.628906 229.519531 248.835938 229.933594 248.992188 230.347656 C 249.042969 230.449219 249.09375 230.554688 249.199219 230.605469 C 249.457031 230.398438 249.714844 230.140625 249.972656 229.933594 C 248.886719 227.34375 247.648438 224.808594 246.300781 222.378906 C 247.335938 220.566406 248.371094 218.757812 249.351562 216.945312 C 250.902344 219.84375 252.195312 222.792969 253.28125 225.894531 C 253.332031 226 253.382812 226.101562 253.488281 226.15625 C 253.746094 225.84375 253.953125 225.535156 254.210938 225.171875 C 252.867188 221.757812 251.472656 218.601562 249.816406 215.601562 Z M 229.605469 194.285156 C 230.949219 195.265625 232.191406 196.25 233.480469 197.285156 C 237.980469 201.0625 241.960938 205.511719 245.320312 210.324219 C 244.339844 212.183594 243.304688 214.046875 242.269531 215.910156 C 240.71875 213.632812 239.066406 211.511719 237.253906 209.441406 C 233.742188 205.40625 229.863281 201.683594 225.625 198.472656 C 225.933594 198.113281 226.246094 197.699219 226.554688 197.335938 C 227.484375 196.25 228.519531 195.214844 229.605469 194.285156 Z M 241.703125 216.945312 C 239.632812 220.464844 237.515625 223.878906 235.1875 227.191406 C 234.359375 226.929688 233.480469 226.671875 232.65625 226.414062 C 229.707031 225.328125 227.125 223.828125 224.589844 221.964844 C 222.160156 220.152344 219.835938 218.1875 217.664062 216.015625 C 218.179688 213.480469 218.902344 210.996094 219.78125 208.5625 C 221.023438 205.253906 222.730469 202.148438 224.902344 199.355469 C 225.625 199.871094 226.296875 200.441406 226.96875 201.007812 C 232.601562 205.511719 237.566406 210.945312 241.703125 216.945312 Z M 224.695312 190.972656 C 226.089844 191.800781 227.433594 192.679688 228.777344 193.609375 C 227.949219 194.386719 227.125 195.164062 226.347656 195.9375 C 225.78125 196.507812 225.261719 197.128906 224.746094 197.75 C 223.503906 196.820312 222.210938 195.9375 220.921875 195.058594 C 222.058594 193.664062 223.351562 192.265625 224.695312 190.972656 Z M 215.957031 219.738281 C 215.855469 220.359375 215.800781 220.980469 215.75 221.601562 C 214.304688 220.207031 212.957031 218.703125 211.667969 217.152344 C 211.925781 215.394531 212.234375 213.6875 212.648438 211.976562 C 213.476562 213.011719 214.40625 214.046875 215.285156 215.03125 C 215.699219 215.445312 216.0625 215.859375 216.472656 216.273438 C 216.320312 217.410156 216.113281 218.601562 215.957031 219.738281 Z M 213.011719 210.738281 C 213.425781 209.289062 213.890625 207.890625 214.40625 206.492188 C 215.855469 202.769531 217.816406 199.199219 220.195312 195.992188 C 221.488281 196.820312 222.78125 197.75 224.023438 198.679688 C 220.351562 203.492188 218.023438 209.183594 216.734375 215.082031 C 215.492188 213.6875 214.199219 212.238281 213.011719 210.738281 Z M 232.085938 231.585938 C 228.777344 230.554688 225.675781 229.050781 222.78125 227.191406 C 220.660156 225.84375 218.644531 224.292969 216.785156 222.585938 C 216.785156 222.273438 216.835938 221.914062 216.886719 221.601562 C 217.042969 220.152344 217.25 218.703125 217.507812 217.257812 C 219.316406 219.066406 221.230469 220.722656 223.296875 222.273438 C 225.625 224.085938 228.15625 225.691406 230.84375 226.828125 C 232.085938 227.34375 233.328125 227.8125 234.566406 228.121094 C 233.742188 229.3125 232.914062 230.449219 232.085938 231.585938 Z M 237.929688 232.933594 C 236.324219 232.726562 234.722656 232.363281 233.171875 231.898438 C 234 230.761719 234.824219 229.570312 235.652344 228.433594 C 237.253906 228.84375 238.859375 229.105469 240.460938 229.257812 C 239.632812 230.5 238.804688 231.691406 237.929688 232.933594 Z M 241.132812 228.226562 C 239.480469 228.121094 237.875 227.863281 236.273438 227.5 C 237.773438 225.328125 239.167969 223.152344 240.5625 220.878906 C 241.183594 219.894531 241.753906 218.910156 242.320312 217.929688 C 242.425781 218.082031 242.527344 218.238281 242.632812 218.445312 C 243.40625 219.636719 244.183594 220.878906 244.90625 222.121094 C 243.71875 224.1875 242.425781 226.207031 241.132812 228.226562 Z M 247.90625 227.964844 C 246.09375 228.226562 244.234375 228.328125 242.375 228.277344 C 243.460938 226.621094 244.492188 224.914062 245.527344 223.207031 C 246.355469 224.757812 247.179688 226.363281 247.90625 227.964844 Z M 245.578125 221.085938 C 244.75 219.636719 243.871094 218.289062 242.992188 216.894531 C 244.027344 215.082031 245.0625 213.21875 246.042969 211.359375 C 246.769531 212.445312 247.492188 213.582031 248.113281 214.71875 C 248.265625 215.03125 248.421875 215.289062 248.628906 215.601562 C 247.648438 217.460938 246.613281 219.273438 245.578125 221.085938 Z M 245.578125 221.085938 " fill-opacity="1" fill-rule="nonzero"/><path fill="#542d34" d="M 256.125 193.871094 C 254.46875 190.660156 252.195312 187.816406 249.507812 185.4375 C 247.234375 183.417969 244.648438 181.710938 241.855469 180.417969 C 242.269531 181.089844 242.683594 181.761719 243.046875 182.488281 C 245.734375 187.609375 246.871094 193.457031 246.300781 199.25 C 244.699219 215.703125 230.019531 227.757812 213.578125 226.101562 C 210.269531 225.792969 207.117188 224.914062 204.222656 223.621094 C 208.976562 231.175781 217.042969 236.554688 226.605469 237.484375 C 243.046875 239.089844 257.726562 227.085938 259.328125 210.632812 C 259.949219 204.839844 258.761719 198.992188 256.125 193.871094 Z M 256.125 193.871094 " fill-opacity="0.15" fill-rule="nonzero"/><path fill="#542d34" d="M 256.125 193.871094 C 254.78125 191.230469 252.972656 188.851562 250.902344 186.78125 C 251.109375 187.195312 251.367188 187.558594 251.574219 187.972656 C 254.261719 193.09375 255.402344 198.941406 254.832031 204.734375 C 253.230469 221.1875 238.546875 233.242188 222.109375 231.585938 C 214.871094 230.863281 208.511719 227.65625 203.757812 222.84375 C 208.410156 230.8125 216.734375 236.554688 226.65625 237.539062 C 243.097656 239.140625 257.777344 227.136719 259.382812 210.683594 C 259.949219 204.839844 258.761719 198.992188 256.125 193.871094 Z M 256.125 193.871094 " fill-opacity="0.15" fill-rule="nonzero"/><path fill="#f0b49e" d="M 303.996094 212.652344 C 308.027344 217.050781 311.335938 222.171875 313.558594 227.757812 C 317.175781 236.710938 318.160156 246.644531 316.246094 256.164062 C 310.820312 283.277344 284.503906 300.867188 257.417969 295.433594 C 230.328125 290.003906 212.753906 263.667969 218.128906 236.554688 C 223.554688 209.441406 249.871094 191.851562 276.957031 197.234375 C 287.402344 199.355469 296.859375 204.890625 303.996094 212.652344 Z M 303.996094 212.652344 " fill-opacity="1" fill-rule="nonzero"/><path fill="#542d34" d="M 315.679688 234.382812 C 315.625 234.125 315.523438 233.8125 315.472656 233.554688 C 315.210938 233.503906 314.902344 233.554688 314.800781 233.8125 C 310.351562 242.609375 305.441406 251.144531 300.066406 259.425781 C 299.601562 260.148438 299.082031 260.871094 298.617188 261.597656 C 297.378906 258.804688 296.035156 256.0625 294.585938 253.421875 C 297.273438 249.335938 299.859375 245.144531 302.289062 240.902344 C 305.234375 235.882812 307.976562 230.707031 310.558594 225.535156 C 310.871094 224.914062 311.179688 224.242188 311.492188 223.621094 C 311.492188 223.566406 311.542969 223.566406 311.542969 223.515625 C 311.4375 223.359375 311.335938 223.152344 311.285156 223 C 311.023438 222.894531 310.664062 222.949219 310.507812 223.257812 C 307.976562 228.433594 305.234375 233.554688 302.390625 238.574219 C 299.703125 243.230469 296.914062 247.835938 293.964844 252.335938 C 292.726562 250.164062 291.484375 248.042969 290.089844 245.917969 C 286.523438 240.433594 282.488281 235.261719 278.042969 230.449219 C 275.613281 227.8125 273.027344 225.328125 270.339844 222.949219 C 272.460938 221.445312 274.632812 220 276.855469 218.652344 C 283.007812 214.925781 289.519531 211.511719 296.445312 209.496094 C 297.222656 209.234375 298.050781 209.027344 298.824219 208.875 C 299.1875 208.769531 299.289062 208.460938 299.238281 208.203125 C 299.082031 208.097656 298.929688 207.941406 298.773438 207.789062 C 298.722656 207.789062 298.671875 207.789062 298.671875 207.789062 C 291.585938 209.496094 284.867188 212.703125 278.613281 216.375 C 275.511719 218.1875 272.410156 220.101562 269.460938 222.222656 C 267.238281 220.308594 264.964844 218.445312 262.636719 216.6875 C 262.636719 216.6875 262.585938 216.636719 262.585938 216.636719 C 264.757812 215.03125 267.03125 213.53125 269.410156 212.132812 C 275.664062 208.5625 282.488281 205.976562 289.570312 204.476562 C 290.503906 204.269531 291.382812 204.113281 292.3125 203.957031 C 292.621094 203.90625 292.726562 203.699219 292.726562 203.441406 C 292.464844 203.285156 292.15625 203.078125 291.898438 202.925781 C 284.660156 204.21875 277.628906 206.546875 271.117188 209.960938 C 267.808594 211.71875 264.65625 213.6875 261.707031 215.910156 C 256.074219 211.769531 250.078125 208.148438 243.820312 204.992188 C 242.992188 204.578125 242.113281 204.164062 241.234375 203.75 C 240.617188 203.441406 240.203125 204.476562 240.824219 204.734375 C 247.492188 207.890625 253.902344 211.667969 259.949219 215.960938 C 260.207031 216.167969 260.519531 216.375 260.777344 216.582031 C 258.503906 218.34375 256.382812 220.257812 254.316406 222.273438 C 254.003906 222.585938 253.644531 222.949219 253.332031 223.308594 C 252.765625 222.84375 252.195312 222.429688 251.628906 221.964844 C 246.300781 217.929688 240.667969 214.308594 234.824219 211.203125 C 234.101562 210.839844 233.378906 210.425781 232.65625 210.0625 C 232.65625 210.0625 232.65625 210.0625 232.601562 210.0625 C 232.394531 210.269531 232.191406 210.476562 231.984375 210.683594 C 231.984375 210.839844 232.085938 210.996094 232.292969 211.097656 C 238.1875 214.101562 243.820312 217.566406 249.144531 221.445312 C 250.335938 222.328125 251.523438 223.207031 252.660156 224.136719 C 248.523438 228.585938 245.011719 233.503906 242.113281 238.832031 C 240.5625 241.625 239.21875 244.574219 238.03125 247.523438 C 236.582031 245.246094 235.292969 242.867188 234.050781 240.433594 C 230.84375 234.019531 228.46875 227.191406 227.382812 220.101562 C 227.277344 219.222656 227.125 218.34375 227.070312 217.460938 C 227.019531 217.152344 226.8125 216.996094 226.554688 217.050781 C 226.347656 217.308594 226.191406 217.566406 226.039062 217.824219 C 226.8125 225.015625 228.984375 232.054688 231.984375 238.625 C 233.585938 242.144531 235.5 245.503906 237.515625 248.765625 C 236.375 251.765625 235.445312 254.820312 234.671875 257.921875 C 232.707031 254.820312 230.949219 251.609375 229.347656 248.351562 C 226.503906 242.503906 224.226562 236.453125 222.417969 230.242188 C 222.160156 229.464844 221.953125 228.691406 221.746094 227.914062 C 221.59375 227.398438 220.921875 227.398438 220.714844 227.707031 C 220.714844 227.757812 220.660156 227.757812 220.660156 227.8125 C 220.660156 227.863281 220.660156 227.964844 220.660156 228.070312 C 222.417969 234.382812 224.589844 240.640625 227.332031 246.644531 C 229.347656 251.042969 231.671875 255.335938 234.308594 259.425781 C 232.757812 266.097656 232.035156 272.980469 232.136719 279.808594 C 232.136719 280.585938 232.191406 281.363281 232.191406 282.136719 C 232.449219 282.394531 232.707031 282.601562 232.914062 282.863281 C 233.121094 282.757812 233.273438 282.601562 233.222656 282.292969 C 232.964844 275.203125 233.535156 268.0625 234.980469 261.078125 C 235.03125 260.925781 235.03125 260.769531 235.085938 260.613281 C 235.757812 261.597656 236.429688 262.578125 237.101562 263.511719 C 238.546875 265.527344 240.152344 267.445312 241.753906 269.359375 C 240.769531 274.996094 240.304688 280.792969 240.511719 286.484375 C 240.511719 287.261719 240.5625 288.035156 240.617188 288.761719 C 240.925781 288.96875 241.183594 289.121094 241.496094 289.277344 C 241.597656 289.175781 241.703125 289.019531 241.703125 288.8125 C 241.289062 282.65625 241.648438 276.394531 242.683594 270.289062 C 245.0625 272.875 247.59375 275.308594 250.335938 277.53125 C 255.296875 281.621094 260.777344 285.035156 266.617188 287.621094 C 264.757812 289.691406 262.792969 291.761719 260.878906 293.777344 C 260.363281 294.296875 259.898438 294.8125 259.382812 295.332031 C 259.277344 295.433594 259.226562 295.539062 259.226562 295.640625 C 259.640625 295.695312 260 295.746094 260.363281 295.796875 C 262.84375 293.261719 265.273438 290.675781 267.652344 288.035156 C 270.394531 289.175781 273.234375 290.105469 276.128906 290.828125 C 274.734375 292.433594 273.289062 294.039062 271.839844 295.640625 C 271.738281 295.746094 271.683594 295.902344 271.738281 296.003906 C 272.203125 295.953125 272.667969 295.902344 273.082031 295.847656 C 274.527344 294.296875 275.925781 292.691406 277.320312 291.089844 C 279.851562 291.65625 282.4375 292.070312 285.023438 292.277344 C 285.4375 292.332031 285.847656 292.332031 286.316406 292.382812 C 286.832031 292.175781 287.402344 291.917969 287.917969 291.65625 C 287.867188 291.503906 287.710938 291.347656 287.503906 291.347656 C 284.351562 291.242188 281.25 290.828125 278.199219 290.15625 C 280.007812 288.035156 281.816406 285.914062 283.523438 283.742188 C 286.367188 284.207031 289.210938 284.414062 292.054688 284.363281 C 293.085938 284.363281 294.070312 284.3125 295.101562 284.257812 C 295.363281 285.035156 295.621094 285.757812 295.828125 286.535156 C 295.878906 286.691406 295.980469 286.847656 296.136719 286.949219 C 296.394531 286.742188 296.652344 286.585938 296.914062 286.433594 C 296.914062 286.433594 296.914062 286.433594 296.914062 286.378906 C 295.515625 281.777344 293.863281 277.324219 291.949219 272.929688 C 294.171875 269.875 296.34375 266.824219 298.410156 263.71875 C 300.324219 268.269531 301.925781 272.929688 303.21875 277.6875 C 303.425781 278.414062 303.582031 279.085938 303.789062 279.808594 C 303.839844 279.964844 303.890625 280.066406 304.046875 280.121094 C 304.304688 279.859375 304.5625 279.550781 304.769531 279.292969 C 303.324219 273.601562 301.460938 268.011719 299.1875 262.632812 C 302.238281 258.078125 305.132812 253.421875 307.871094 248.660156 C 310.613281 244.109375 313.195312 239.296875 315.679688 234.382812 Z M 269.515625 223.671875 C 271.632812 225.535156 273.699219 227.5 275.664062 229.570312 C 280.214844 234.226562 284.351562 239.296875 287.96875 244.679688 C 289.882812 247.523438 291.640625 250.421875 293.292969 253.421875 C 291.226562 256.578125 289.054688 259.734375 286.832031 262.839844 C 284.558594 258.699219 282.074219 254.714844 279.335938 250.835938 C 275.511719 245.351562 271.21875 240.175781 266.566406 235.363281 C 264.914062 233.65625 263.207031 232 261.5 230.398438 C 262.121094 229.777344 262.742188 229.15625 263.363281 228.585938 C 265.121094 226.984375 266.980469 225.484375 268.894531 224.085938 C 269.152344 223.929688 269.359375 223.773438 269.515625 223.671875 Z M 286.210938 263.769531 C 285.332031 265.011719 284.402344 266.253906 283.472656 267.496094 C 280.265625 271.839844 276.855469 276.03125 273.390625 280.171875 C 272.203125 279.707031 271.066406 279.242188 269.925781 278.722656 C 267.03125 277.378906 264.1875 275.773438 261.605469 273.859375 C 259.898438 272.617188 258.246094 271.273438 256.691406 269.824219 C 252.710938 266.253906 249.042969 262.320312 245.628906 258.183594 C 246.921875 254.042969 248.472656 250.007812 250.386719 246.179688 C 253.074219 240.695312 256.589844 235.570312 260.777344 231.121094 C 261.914062 232.15625 263.050781 233.242188 264.136719 234.382812 C 268.789062 239.039062 273.132812 244.058594 277.007812 249.386719 C 280.421875 253.992188 283.472656 258.804688 286.210938 263.769531 Z M 261.757812 217.359375 C 264.136719 219.117188 266.410156 220.980469 268.6875 222.949219 C 267.03125 224.1875 265.378906 225.484375 263.828125 226.828125 C 262.792969 227.757812 261.757812 228.691406 260.828125 229.671875 C 258.710938 227.757812 256.539062 225.894531 254.316406 224.085938 C 256.589844 221.652344 259.070312 219.378906 261.757812 217.359375 Z M 241.910156 241.625 C 244.957031 235.570312 248.886719 229.933594 253.488281 224.914062 C 253.488281 224.914062 253.539062 224.863281 253.539062 224.863281 C 255.761719 226.621094 257.933594 228.484375 260.054688 230.449219 C 258.8125 231.742188 257.675781 233.089844 256.589844 234.484375 C 254.367188 237.277344 252.402344 240.226562 250.695312 243.382812 C 248.320312 247.78125 246.355469 252.4375 244.855469 257.25 C 242.683594 254.507812 240.617188 251.664062 238.753906 248.714844 C 239.683594 246.28125 240.71875 243.902344 241.910156 241.625 Z M 242.890625 264.496094 C 242.632812 265.683594 242.375 266.875 242.113281 268.117188 C 241.183594 267.082031 240.304688 265.996094 239.480469 264.910156 C 238.082031 263.097656 236.738281 261.234375 235.5 259.269531 C 236.222656 256.113281 237.152344 253.007812 238.289062 250.007812 C 239.738281 252.230469 241.289062 254.40625 242.890625 256.527344 C 243.40625 257.199219 243.925781 257.871094 244.492188 258.542969 C 243.871094 260.457031 243.355469 262.476562 242.890625 264.496094 Z M 267.496094 286.949219 C 262.277344 284.726562 257.417969 281.777344 252.917969 278.359375 C 249.351562 275.617188 246.042969 272.515625 243.046875 269.152344 C 243.148438 268.582031 243.253906 268.011719 243.355469 267.445312 C 243.871094 264.804688 244.542969 262.113281 245.269531 259.527344 C 248.214844 263.097656 251.421875 266.511719 254.78125 269.667969 C 258.503906 273.136719 262.484375 276.1875 266.980469 278.566406 C 268.789062 279.550781 270.703125 280.378906 272.617188 281.101562 C 270.960938 283.070312 269.253906 284.984375 267.496094 286.949219 Z M 277.113281 290.105469 C 274.476562 289.484375 271.890625 288.65625 269.359375 287.671875 C 269.101562 287.570312 268.839844 287.46875 268.582031 287.363281 C 269.71875 286.070312 270.859375 284.777344 271.996094 283.484375 C 272.5625 282.808594 273.183594 282.136719 273.753906 281.414062 C 276.597656 282.449219 279.492188 283.222656 282.4375 283.742188 C 280.679688 285.914062 278.871094 288.035156 277.113281 290.105469 Z M 283.160156 282.808594 C 280.214844 282.292969 277.269531 281.570312 274.425781 280.585938 C 277.371094 277.117188 280.214844 273.550781 282.953125 269.925781 C 284.246094 268.269531 285.488281 266.5625 286.726562 264.855469 C 286.988281 265.320312 287.195312 265.789062 287.453125 266.203125 C 288.589844 268.425781 289.675781 270.703125 290.707031 272.980469 C 288.277344 276.292969 285.746094 279.601562 283.160156 282.808594 Z M 294.792969 283.429688 C 291.328125 283.636719 287.8125 283.484375 284.402344 283.015625 C 286.726562 280.121094 289.003906 277.117188 291.226562 274.117188 C 292.570312 277.171875 293.757812 280.273438 294.792969 283.429688 Z M 291.484375 271.996094 C 290.863281 270.652344 290.242188 269.304688 289.570312 267.960938 C 288.898438 266.617188 288.175781 265.21875 287.453125 263.875 C 289.363281 261.183594 291.277344 258.492188 293.085938 255.75 C 293.34375 255.335938 293.65625 254.921875 293.914062 254.457031 C 295.050781 256.578125 296.136719 258.75 297.121094 260.925781 C 297.378906 261.492188 297.636719 262.0625 297.894531 262.683594 C 295.828125 265.839844 293.65625 268.945312 291.484375 271.996094 Z M 291.484375 271.996094 " fill-opacity="1" fill-rule="nonzero"/><path fill="#542d34" d="M 313.558594 227.757812 C 311.285156 222.171875 308.027344 217.050781 303.996094 212.652344 C 300.53125 208.875 296.5 205.613281 292.054688 203.027344 C 292.671875 204.21875 293.191406 205.460938 293.707031 206.699219 C 297.324219 215.652344 298.308594 225.585938 296.394531 235.105469 C 290.96875 262.21875 264.65625 279.808594 237.566406 274.375 C 232.085938 273.289062 227.019531 271.324219 222.472656 268.738281 C 229.140625 282.085938 241.703125 292.332031 257.417969 295.488281 C 284.503906 300.917969 310.871094 283.277344 316.246094 256.164062 C 318.160156 246.695312 317.175781 236.761719 313.558594 227.757812 Z M 313.558594 227.757812 " fill-opacity="0.15" fill-rule="nonzero"/><path fill="#542d34" d="M 313.558594 227.757812 C 311.699219 223.152344 309.164062 218.910156 306.0625 215.082031 C 306.371094 215.753906 306.683594 216.480469 306.941406 217.152344 C 310.558594 226.101562 311.542969 236.039062 309.628906 245.558594 C 304.203125 272.667969 277.886719 290.261719 250.800781 284.878906 C 238.910156 282.5 228.828125 276.085938 221.746094 267.289062 C 228.210938 281.308594 241.082031 292.175781 257.417969 295.433594 C 284.503906 300.867188 310.871094 283.222656 316.246094 256.113281 C 318.160156 246.695312 317.175781 236.761719 313.558594 227.757812 Z M 313.558594 227.757812 " fill-opacity="0.15" fill-rule="nonzero"/><path fill="#8a4654" d="M 220.816406 193.714844 C 226.246094 198.578125 230.792969 204.371094 234.207031 210.839844 C 239.632812 221.238281 242.011719 233.140625 240.875 244.832031 C 237.566406 278.308594 207.839844 302.730469 174.445312 299.417969 C 141.050781 296.105469 116.648438 266.304688 119.957031 232.882812 C 123.265625 199.457031 152.992188 175.035156 186.386719 178.347656 C 199.207031 179.589844 211.304688 185.175781 220.816406 193.714844 Z M 220.816406 193.714844 " fill-opacity="1" fill-rule="nonzero"/><path fill="#542d34" d="M 220.816406 254.921875 C 221.125 254.351562 221.4375 253.734375 221.746094 253.164062 C 224.539062 247.886719 227.175781 242.503906 229.65625 237.074219 C 232.136719 231.585938 234.515625 226.050781 236.738281 220.464844 C 236.996094 219.792969 237.253906 219.117188 237.515625 218.445312 C 237.410156 218.1875 237.359375 217.980469 237.253906 217.722656 C 236.996094 217.617188 236.636719 217.667969 236.53125 217.980469 C 234.359375 223.566406 232.035156 229.105469 229.605469 234.535156 C 227.175781 239.96875 224.589844 245.351562 221.851562 250.628906 C 221.332031 251.664062 220.765625 252.75 220.195312 253.785156 C 218.335938 250.472656 216.320312 247.265625 214.199219 244.109375 C 216.992188 238.832031 219.574219 233.449219 222.058594 227.964844 C 224.953125 221.550781 227.691406 215.082031 230.226562 208.511719 C 230.535156 207.683594 230.84375 206.855469 231.15625 206.027344 C 231.414062 205.355469 230.378906 204.992188 230.171875 205.613281 C 227.691406 212.183594 225.054688 218.703125 222.160156 225.121094 C 219.472656 231.175781 216.578125 237.175781 213.527344 243.074219 C 211.769531 240.539062 209.910156 238.054688 207.996094 235.625 C 203.035156 229.414062 197.554688 223.671875 191.609375 218.394531 C 188.300781 215.496094 184.835938 212.703125 181.320312 210.117188 C 183.855469 207.941406 186.4375 205.820312 189.074219 203.855469 C 196.003906 198.628906 203.445312 193.871094 211.511719 190.609375 C 212.441406 190.246094 213.371094 189.886719 214.355469 189.523438 C 215.027344 189.316406 214.5625 188.332031 213.890625 188.539062 C 205.617188 191.4375 197.96875 196.09375 190.832031 201.214844 C 187.214844 203.804688 183.699219 206.546875 180.339844 209.496094 C 177.390625 207.375 174.34375 205.40625 171.242188 203.492188 C 171.1875 203.441406 171.136719 203.441406 171.085938 203.390625 C 173.566406 201.113281 176.203125 198.992188 178.941406 197.027344 C 186.078125 191.902344 194.039062 188.023438 202.414062 185.332031 C 203.5 184.96875 204.53125 184.660156 205.617188 184.347656 C 205.929688 184.246094 206.082031 183.988281 206.03125 183.730469 C 205.773438 183.625 205.515625 183.46875 205.257812 183.367188 C 196.675781 185.796875 188.402344 189.472656 180.960938 194.335938 C 177.132812 196.871094 173.515625 199.664062 170.15625 202.769531 C 162.8125 198.421875 155.113281 194.75 147.203125 191.644531 C 146.117188 191.230469 145.082031 190.816406 143.996094 190.453125 C 143.324219 190.246094 142.964844 191.230469 143.582031 191.4375 C 152.0625 194.492188 160.28125 198.265625 168.085938 202.769531 C 168.5 203.027344 168.914062 203.285156 169.328125 203.492188 C 166.792969 205.925781 164.417969 208.460938 162.195312 211.203125 C 161.78125 211.71875 161.367188 212.183594 161.003906 212.703125 C 160.230469 212.238281 159.503906 211.71875 158.730469 211.253906 C 151.855469 207.011719 144.667969 203.339844 137.171875 200.285156 C 136.242188 199.921875 135.3125 199.507812 134.382812 199.148438 C 134.328125 199.148438 134.277344 199.09375 134.226562 199.09375 C 134.019531 199.300781 133.863281 199.507812 133.65625 199.714844 C 133.710938 199.871094 133.761719 200.027344 133.96875 200.128906 C 141.464844 203.027344 148.703125 206.546875 155.628906 210.632812 C 157.230469 211.566406 158.78125 212.546875 160.332031 213.53125 C 155.886719 219.378906 152.164062 225.84375 149.269531 232.621094 C 147.71875 236.296875 146.375 240.019531 145.289062 243.851562 C 143.167969 241.109375 141.207031 238.3125 139.394531 235.417969 C 134.847656 228.121094 131.175781 220.207031 129.058594 211.875 C 128.796875 210.839844 128.539062 209.753906 128.332031 208.71875 C 128.28125 208.355469 127.972656 208.253906 127.714844 208.304688 C 127.558594 208.5625 127.453125 208.769531 127.300781 209.027344 C 129.058594 217.617188 132.46875 225.792969 136.863281 233.296875 C 139.292969 237.433594 141.980469 241.367188 144.925781 245.144531 C 143.894531 249.023438 143.066406 252.90625 142.496094 256.886719 C 139.601562 253.214844 136.964844 249.335938 134.535156 245.351562 C 130.503906 238.675781 127.039062 231.640625 124.144531 224.394531 C 123.785156 223.515625 123.421875 222.636719 123.113281 221.757812 C 122.855469 221.136719 121.871094 221.550781 122.128906 222.222656 C 124.972656 229.621094 128.332031 236.8125 132.3125 243.644531 C 135.3125 248.765625 138.621094 253.734375 142.34375 258.390625 C 141.257812 266.617188 141.257812 274.945312 142.136719 283.171875 C 142.238281 284.207031 142.394531 285.242188 142.496094 286.226562 C 142.757812 286.433594 143.015625 286.640625 143.273438 286.847656 C 143.480469 286.742188 143.636719 286.585938 143.582031 286.277344 C 142.394531 277.738281 142.238281 268.996094 143.167969 260.40625 C 143.222656 260.097656 143.222656 259.785156 143.273438 259.527344 C 144.152344 260.613281 145.082031 261.699219 146.011719 262.785156 C 148.132812 265.117188 150.304688 267.390625 152.628906 269.566406 C 152.113281 276.496094 152.269531 283.535156 153.148438 290.417969 C 153.25 291.398438 153.40625 292.332031 153.5625 293.3125 C 153.871094 293.46875 154.179688 293.625 154.492188 293.777344 C 154.59375 293.675781 154.644531 293.519531 154.644531 293.3125 C 153.355469 285.8125 153.09375 278.101562 153.613281 270.496094 C 156.765625 273.34375 160.125 275.980469 163.640625 278.359375 C 170.15625 282.757812 177.238281 286.277344 184.734375 288.707031 C 184.785156 288.707031 184.835938 288.761719 184.941406 288.761719 C 182.871094 291.554688 180.753906 294.347656 178.582031 297.039062 C 178.011719 297.710938 177.496094 298.4375 176.925781 299.109375 C 176.875 299.210938 176.824219 299.316406 176.824219 299.367188 C 177.238281 299.367188 177.652344 299.417969 178.0625 299.417969 C 180.804688 296.003906 183.441406 292.539062 186.027344 289.070312 C 189.59375 290.15625 193.210938 290.984375 196.882812 291.503906 C 195.796875 293.054688 194.660156 294.605469 193.519531 296.160156 C 193.054688 296.726562 192.640625 297.347656 192.230469 297.917969 C 192.125 298.074219 192.125 298.230469 192.125 298.332031 C 192.589844 298.230469 193.003906 298.125 193.46875 298.074219 C 195.019531 295.953125 196.570312 293.832031 198.121094 291.65625 C 201.277344 292.070312 204.480469 292.226562 207.6875 292.175781 C 208.253906 292.175781 208.824219 292.125 209.390625 292.125 C 209.910156 291.863281 210.375 291.554688 210.890625 291.296875 C 210.789062 291.140625 210.632812 290.984375 210.375 291.035156 C 206.496094 291.296875 202.671875 291.140625 198.847656 290.675781 C 200.398438 288.449219 201.949219 286.171875 203.5 283.898438 C 203.914062 283.277344 204.324219 282.65625 204.738281 282.035156 C 208.152344 282.242188 211.5625 282.136719 214.976562 281.777344 C 216.265625 281.621094 217.613281 281.464844 218.902344 281.257812 C 218.902344 281.308594 218.957031 281.363281 218.957031 281.363281 C 219.367188 282.242188 219.730469 283.171875 220.144531 284.050781 C 220.195312 284.257812 220.351562 284.3125 220.507812 284.363281 C 220.714844 284.15625 220.921875 284 221.125 283.792969 C 221.125 283.742188 221.125 283.691406 221.074219 283.585938 C 218.851562 278.207031 216.265625 273.03125 213.425781 267.960938 C 215.800781 263.925781 218.078125 259.890625 220.246094 255.800781 C 223.144531 261.183594 225.726562 266.71875 227.847656 272.410156 C 228.15625 273.238281 228.46875 274.066406 228.726562 274.894531 C 228.777344 275.050781 228.828125 275.101562 228.933594 275.152344 C 229.140625 274.84375 229.398438 274.53125 229.605469 274.222656 C 227.226562 267.753906 224.28125 261.234375 220.816406 254.921875 Z M 180.492188 210.996094 C 183.335938 213.066406 186.078125 215.1875 188.765625 217.460938 C 194.8125 222.585938 200.449219 228.226562 205.515625 234.328125 C 208.152344 237.539062 210.683594 240.847656 213.011719 244.265625 C 210.839844 248.453125 208.566406 252.542969 206.1875 256.628906 C 202.878906 251.816406 199.3125 247.160156 195.539062 242.761719 C 190.265625 236.660156 184.527344 230.914062 178.375 225.691406 C 176.152344 223.773438 173.878906 221.964844 171.550781 220.207031 C 172.273438 219.273438 173.050781 218.394531 173.824219 217.464844 C 175.738281 215.289062 177.859375 213.324219 179.976562 211.410156 C 180.132812 211.253906 180.339844 211.152344 180.492188 210.996094 Z M 205.566406 257.664062 C 204.585938 259.320312 203.601562 260.976562 202.621094 262.632812 C 199.207031 268.269531 195.640625 273.753906 191.917969 279.1875 C 190.160156 278.722656 188.351562 278.152344 186.644531 277.53125 C 183.078125 276.238281 179.667969 274.6875 176.460938 272.722656 C 174.238281 271.375 172.066406 269.875 170 268.324219 C 164.882812 264.546875 160.074219 260.355469 155.628906 255.855469 C 156.714844 250.578125 158.160156 245.402344 160.074219 240.382812 C 162.710938 233.449219 166.328125 226.929688 170.828125 221.03125 C 172.378906 222.171875 173.878906 223.414062 175.375 224.601562 C 181.578125 229.671875 187.421875 235.261719 192.746094 241.261719 C 197.398438 246.4375 201.6875 251.921875 205.566406 257.664062 Z M 170.363281 204.269531 C 173.515625 206.183594 176.566406 208.148438 179.5625 210.324219 C 177.703125 211.976562 175.894531 213.738281 174.136719 215.546875 C 172.894531 216.84375 171.757812 218.1875 170.671875 219.585938 C 167.828125 217.460938 164.933594 215.445312 161.933594 213.480469 C 164.519531 210.21875 167.3125 207.113281 170.363281 204.269531 Z M 153.300781 263.5625 C 153.09375 265.167969 152.941406 266.769531 152.785156 268.375 C 151.335938 267.03125 149.941406 265.632812 148.597656 264.183594 C 146.839844 262.269531 145.132812 260.304688 143.480469 258.285156 C 143.996094 254.300781 144.773438 250.371094 145.804688 246.4375 C 147.769531 248.867188 149.785156 251.195312 151.90625 253.472656 C 152.734375 254.40625 153.613281 255.285156 154.492188 256.164062 C 154.027344 258.597656 153.613281 261.078125 153.300781 263.5625 Z M 154.542969 254.714844 C 151.597656 251.664062 148.804688 248.453125 146.167969 245.144531 C 146.996094 242.089844 147.976562 239.089844 149.113281 236.140625 C 152.113281 228.433594 156.09375 221.136719 161.109375 214.566406 C 161.160156 214.515625 161.210938 214.410156 161.261719 214.359375 C 164.261719 216.273438 167.15625 218.289062 170 220.464844 C 168.757812 222.066406 167.570312 223.773438 166.484375 225.429688 C 164.054688 229.105469 162.039062 232.984375 160.28125 237.019531 C 157.800781 242.761719 155.992188 248.816406 154.699219 254.972656 C 154.644531 254.820312 154.59375 254.765625 154.542969 254.714844 Z M 185.664062 288.035156 C 178.890625 285.914062 172.429688 282.863281 166.484375 279.085938 C 161.988281 276.238281 157.75 272.980469 153.820312 269.359375 C 153.871094 268.582031 153.921875 267.804688 154.027344 267.082031 C 154.335938 263.769531 154.800781 260.457031 155.421875 257.148438 C 159.300781 261.027344 163.433594 264.648438 167.777344 268.011719 C 172.480469 271.632812 177.445312 274.84375 182.921875 277.222656 C 185.664062 278.414062 188.507812 279.34375 191.351562 280.171875 C 191.296875 280.222656 191.246094 280.328125 191.195312 280.378906 C 189.386719 282.914062 187.523438 285.449219 185.664062 288.035156 Z M 197.605469 290.726562 C 194.195312 290.261719 190.832031 289.535156 187.578125 288.605469 C 187.316406 288.554688 187.007812 288.449219 186.75 288.347656 C 188.042969 286.585938 189.335938 284.828125 190.574219 283.015625 C 191.195312 282.136719 191.816406 281.257812 192.4375 280.378906 C 196.054688 281.308594 199.726562 281.878906 203.445312 282.1875 C 201.535156 285.035156 199.621094 287.878906 197.605469 290.726562 Z M 204.117188 281.15625 C 200.398438 280.894531 196.675781 280.328125 193.054688 279.445312 C 196.210938 274.84375 199.257812 270.132812 202.207031 265.375 C 203.550781 263.148438 204.894531 260.925781 206.238281 258.648438 C 206.652344 259.269531 207.015625 259.835938 207.425781 260.457031 C 209.082031 262.992188 210.632812 265.582031 212.132812 268.21875 C 209.597656 272.566406 206.910156 276.910156 204.117188 281.15625 Z M 218.386719 280.480469 C 214.097656 281.207031 209.703125 281.414062 205.359375 281.207031 C 207.894531 277.273438 210.375 273.34375 212.753906 269.304688 C 214.769531 272.980469 216.628906 276.652344 218.386719 280.480469 Z M 213.21875 266.460938 C 213.0625 266.71875 212.90625 266.925781 212.804688 267.183594 C 211.875 265.527344 210.890625 263.925781 209.910156 262.320312 C 208.925781 260.71875 207.894531 259.164062 206.859375 257.613281 C 208.875 254.09375 210.839844 250.578125 212.753906 247.007812 C 213.0625 246.4375 213.371094 245.816406 213.683594 245.246094 C 215.386719 247.78125 216.992188 250.316406 218.492188 252.957031 C 218.902344 253.628906 219.265625 254.300781 219.628906 254.972656 C 217.558594 258.804688 215.441406 262.632812 213.21875 266.460938 Z M 213.21875 266.460938 " fill-opacity="1" fill-rule="nonzero"/><path fill="#542d34" d="M 234.207031 210.839844 C 230.84375 204.371094 226.246094 198.527344 220.816406 193.714844 C 216.164062 189.574219 210.890625 186.109375 205.257812 183.523438 C 206.136719 184.867188 206.960938 186.316406 207.6875 187.765625 C 213.113281 198.164062 215.492188 210.0625 214.355469 221.757812 C 211.046875 255.179688 181.320312 279.601562 147.925781 276.292969 C 141.207031 275.617188 134.796875 273.859375 128.953125 271.273438 C 138.621094 286.640625 155.007812 297.503906 174.445312 299.417969 C 207.839844 302.730469 237.566406 278.308594 240.875 244.886719 C 242.011719 233.140625 239.632812 221.238281 234.207031 210.839844 Z M 234.207031 210.839844 " fill-opacity="0.15" fill-rule="nonzero"/><path fill="#542d34" d="M 234.207031 210.839844 C 231.414062 205.511719 227.847656 200.648438 223.660156 196.40625 C 224.125 197.179688 224.589844 198.007812 225.003906 198.835938 C 230.433594 209.234375 232.808594 221.136719 231.671875 232.828125 C 228.363281 266.253906 198.640625 290.675781 165.242188 287.363281 C 150.5625 285.914062 137.636719 279.34375 127.972656 269.617188 C 137.484375 285.8125 154.335938 297.402344 174.445312 299.417969 C 207.839844 302.730469 237.566406 278.308594 240.875 244.886719 C 242.011719 233.140625 239.632812 221.238281 234.207031 210.839844 Z M 234.207031 210.839844 " fill-opacity="0.15" fill-rule="nonzero"/><path fill="#f0d5d1" d="M 271.167969 250.785156 C 274.375 253.628906 277.113281 257.09375 279.128906 260.925781 C 282.335938 267.082031 283.78125 274.167969 283.058594 281.101562 C 281.09375 300.917969 263.464844 315.40625 243.664062 313.441406 C 223.867188 311.472656 209.390625 293.832031 211.355469 274.015625 C 213.320312 254.199219 230.949219 239.710938 250.75 241.675781 C 258.347656 242.453125 265.535156 245.710938 271.167969 250.785156 Z M 271.167969 250.785156 " fill-opacity="1" fill-rule="nonzero"/><path fill="#542d34" d="M 271.425781 287.105469 C 273.234375 283.636719 274.992188 280.171875 276.597656 276.601562 C 278.25 273.03125 279.75 269.410156 281.195312 265.789062 C 281.09375 265.476562 280.9375 265.167969 280.835938 264.804688 C 280.628906 264.804688 280.371094 264.855469 280.316406 265.117188 C 277.734375 271.6875 274.839844 278.152344 271.632812 284.464844 C 271.375 284.984375 271.117188 285.5 270.859375 285.964844 C 269.824219 284.15625 268.738281 282.394531 267.550781 280.6875 C 269.152344 277.585938 270.703125 274.429688 272.148438 271.273438 C 274.113281 266.976562 275.925781 262.632812 277.527344 258.234375 C 277.371094 257.976562 277.214844 257.769531 277.0625 257.507812 C 276.855469 257.507812 276.648438 257.5625 276.542969 257.820312 C 273.753906 265.269531 270.496094 272.566406 266.878906 279.652344 C 265.894531 278.257812 264.859375 276.859375 263.777344 275.515625 C 260.828125 271.839844 257.570312 268.375 254.003906 265.269531 C 252.09375 263.613281 250.128906 262.011719 248.113281 260.511719 C 249.507812 259.320312 250.953125 258.183594 252.453125 257.042969 C 256.589844 253.941406 260.984375 251.09375 265.792969 249.128906 C 266.359375 248.867188 266.929688 248.660156 267.496094 248.507812 C 267.757812 248.402344 267.859375 248.195312 267.808594 247.988281 C 267.550781 247.835938 267.34375 247.679688 267.085938 247.523438 C 267.085938 247.523438 267.085938 247.523438 267.03125 247.523438 C 262.070312 249.230469 257.519531 252.023438 253.28125 255.078125 C 251.214844 256.578125 249.144531 258.183594 247.234375 259.835938 C 245.578125 258.648438 243.871094 257.5625 242.113281 256.476562 C 243.511719 255.234375 244.957031 254.042969 246.457031 252.957031 C 250.644531 249.957031 255.347656 247.628906 260.3125 246.023438 C 260.933594 245.816406 261.605469 245.609375 262.277344 245.453125 C 262.535156 245.402344 262.636719 245.195312 262.691406 244.988281 C 262.378906 244.832031 262.070312 244.679688 261.707031 244.523438 C 256.691406 245.972656 251.886719 248.09375 247.492188 250.992188 C 245.21875 252.4375 243.097656 254.09375 241.132812 255.957031 C 236.84375 253.421875 232.34375 251.25 227.691406 249.488281 C 227.019531 249.230469 226.398438 248.972656 225.726562 248.765625 C 225.675781 248.765625 225.625 248.765625 225.574219 248.714844 C 225.367188 248.867188 225.210938 248.972656 225.003906 249.128906 C 224.953125 249.386719 225.003906 249.644531 225.3125 249.75 C 230.328125 251.558594 235.1875 253.785156 239.789062 256.421875 C 239.945312 256.527344 240.097656 256.628906 240.304688 256.734375 C 238.859375 258.128906 237.515625 259.578125 236.273438 261.078125 C 236.066406 261.339844 235.859375 261.597656 235.703125 261.804688 C 235.292969 261.546875 234.929688 261.285156 234.515625 261.078125 C 230.433594 258.542969 226.140625 256.371094 221.695312 254.558594 C 221.125 254.351562 220.609375 254.09375 220.042969 253.886719 C 219.835938 254.144531 219.628906 254.40625 219.421875 254.664062 C 219.472656 254.765625 219.574219 254.871094 219.679688 254.921875 C 224.125 256.628906 228.414062 258.75 232.5 261.132812 C 233.378906 261.648438 234.207031 262.167969 235.085938 262.683594 C 232.5 266.097656 230.328125 269.875 228.621094 273.859375 C 227.742188 275.929688 227.019531 278 226.398438 280.171875 C 225.261719 278.671875 224.175781 277.066406 223.144531 275.464844 C 220.453125 271.167969 218.285156 266.5625 217.042969 261.648438 C 216.886719 261.027344 216.734375 260.40625 216.628906 259.734375 C 216.578125 259.476562 216.371094 259.320312 216.164062 259.320312 C 215.957031 259.632812 215.800781 259.941406 215.648438 260.25 C 216.734375 265.21875 218.695312 270.03125 221.28125 274.429688 C 222.730469 276.859375 224.332031 279.1875 226.039062 281.464844 C 225.46875 283.535156 225.054688 285.707031 224.695312 287.828125 C 223.089844 285.757812 221.59375 283.585938 220.246094 281.363281 C 217.613281 276.964844 215.386719 272.253906 213.527344 267.445312 C 213.371094 267.082031 213.011719 267.082031 212.753906 267.238281 C 212.699219 267.445312 212.648438 267.652344 212.546875 267.910156 C 215.492188 275.566406 219.367188 282.914062 224.488281 289.328125 C 223.867188 294.191406 223.816406 299.160156 224.382812 304.023438 C 224.433594 304.539062 224.488281 305.058594 224.589844 305.574219 C 224.902344 305.835938 225.160156 306.042969 225.46875 306.300781 C 225.625 306.195312 225.726562 306.042969 225.675781 305.78125 C 224.953125 300.710938 224.902344 295.589844 225.417969 290.519531 C 225.832031 291.035156 226.296875 291.554688 226.710938 292.070312 C 227.949219 293.417969 229.191406 294.761719 230.535156 296.003906 C 230.226562 300.089844 230.328125 304.230469 230.84375 308.316406 C 230.898438 308.835938 231 309.351562 231.105469 309.871094 C 231.414062 310.027344 231.777344 310.179688 232.136719 310.335938 C 232.191406 310.230469 232.242188 310.078125 232.242188 309.921875 C 231.515625 305.628906 231.363281 301.230469 231.621094 296.882812 C 236.84375 301.539062 242.941406 305.160156 249.609375 307.386719 C 248.113281 309.40625 246.613281 311.371094 245.0625 313.285156 C 245.011719 313.386719 244.957031 313.492188 244.957031 313.542969 C 245.371094 313.542969 245.785156 313.59375 246.199219 313.59375 C 247.75 311.628906 249.25 309.664062 250.75 307.695312 C 252.710938 308.265625 254.675781 308.730469 256.691406 309.042969 C 255.867188 310.230469 254.988281 311.421875 254.109375 312.5625 C 254.003906 312.714844 254.003906 312.871094 254.003906 312.972656 C 254.46875 312.871094 254.882812 312.820312 255.347656 312.714844 C 256.226562 311.578125 257.054688 310.386719 257.882812 309.199219 C 259.898438 309.457031 261.964844 309.558594 264.035156 309.457031 C 264.550781 309.199219 265.015625 308.9375 265.53125 308.628906 C 265.429688 308.472656 265.273438 308.316406 265.015625 308.371094 C 262.898438 308.472656 260.726562 308.421875 258.605469 308.214844 C 259.691406 306.664062 260.726562 305.109375 261.8125 303.507812 C 263.777344 303.609375 265.792969 303.558594 267.757812 303.351562 C 268.480469 303.300781 269.203125 303.195312 269.925781 303.039062 C 270.132812 303.558594 270.394531 304.074219 270.597656 304.59375 C 270.652344 304.695312 270.753906 304.800781 270.859375 304.851562 C 271.117188 304.644531 271.375 304.386719 271.632812 304.179688 C 271.632812 304.179688 271.632812 304.179688 271.632812 304.128906 C 270.339844 300.972656 268.839844 297.917969 267.1875 294.96875 C 268.480469 292.746094 269.773438 290.46875 271.011719 288.191406 C 272.667969 291.242188 274.113281 294.398438 275.304688 297.609375 C 275.511719 298.125 275.664062 298.644531 275.871094 299.109375 C 275.925781 299.210938 275.976562 299.316406 276.078125 299.367188 C 276.335938 299.054688 276.542969 298.746094 276.804688 298.4375 C 275.148438 294.554688 273.441406 290.726562 271.425781 287.105469 Z M 247.234375 261.285156 C 248.835938 262.476562 250.4375 263.667969 251.9375 264.960938 C 255.554688 268.011719 258.863281 271.324219 261.863281 274.945312 C 263.414062 276.808594 264.859375 278.722656 266.257812 280.742188 C 265.015625 283.070312 263.777344 285.398438 262.429688 287.671875 C 260.519531 284.929688 258.503906 282.292969 256.332031 279.757812 C 253.179688 276.136719 249.765625 272.722656 246.097656 269.617188 C 244.804688 268.53125 243.511719 267.496094 242.21875 266.460938 C 242.632812 265.941406 242.992188 265.476562 243.460938 265.011719 C 244.597656 263.71875 245.890625 262.476562 247.234375 261.285156 Z M 261.863281 288.707031 C 259.382812 292.953125 256.746094 297.140625 253.953125 301.179688 C 252.917969 300.917969 251.9375 300.609375 250.902344 300.246094 C 247.285156 298.953125 244.183594 297.140625 241.132812 294.8125 C 238.132812 292.589844 235.34375 290.15625 232.757812 287.519531 C 233.378906 284.464844 234.207031 281.464844 235.34375 278.566406 C 236.894531 274.53125 238.960938 270.703125 241.597656 267.289062 C 242.425781 267.910156 243.253906 268.582031 244.078125 269.253906 C 247.75 272.253906 251.214844 275.566406 254.367188 279.136719 C 257.054688 282.1875 259.589844 285.398438 261.863281 288.707031 Z M 241.289062 257.355469 C 243.046875 258.390625 244.699219 259.527344 246.355469 260.664062 C 245.320312 261.597656 244.285156 262.578125 243.355469 263.5625 C 242.683594 264.289062 242.011719 265.011719 241.390625 265.789062 C 239.839844 264.597656 238.238281 263.511719 236.582031 262.425781 C 238.03125 260.664062 239.582031 258.90625 241.289062 257.355469 Z M 230.898438 292.125 C 230.792969 292.953125 230.691406 293.726562 230.640625 294.554688 C 228.828125 292.796875 227.125 290.933594 225.519531 288.96875 C 225.832031 286.792969 226.246094 284.621094 226.761719 282.5 C 227.796875 283.792969 228.882812 285.085938 230.070312 286.277344 C 230.585938 286.792969 231.050781 287.3125 231.570312 287.878906 C 231.3125 289.328125 231.105469 290.726562 230.898438 292.125 Z M 227.125 281.257812 C 227.640625 279.5 228.15625 277.738281 228.828125 276.085938 C 230.585938 271.53125 232.964844 267.238281 235.859375 263.355469 C 237.515625 264.441406 239.117188 265.527344 240.667969 266.71875 C 238.394531 269.71875 236.480469 273.03125 235.03125 276.445312 C 233.636719 279.757812 232.601562 283.171875 231.828125 286.691406 C 230.171875 284.929688 228.621094 283.121094 227.125 281.257812 Z M 250.230469 306.457031 C 246.25 305.214844 242.476562 303.402344 238.960938 301.179688 C 236.375 299.523438 233.894531 297.609375 231.671875 295.539062 C 231.722656 295.125 231.722656 294.710938 231.777344 294.296875 C 231.984375 292.484375 232.191406 290.675781 232.550781 288.863281 C 234.773438 291.035156 237.101562 293.105469 239.582031 295.019531 C 242.375 297.140625 245.320312 299.109375 248.578125 300.503906 C 250.128906 301.179688 251.730469 301.746094 253.332031 302.210938 C 252.300781 303.558594 251.265625 305.007812 250.230469 306.457031 Z M 257.3125 308.058594 C 255.296875 307.800781 253.28125 307.335938 251.316406 306.765625 C 252.351562 305.316406 253.386719 303.867188 254.417969 302.417969 C 256.382812 302.9375 258.449219 303.246094 260.46875 303.402344 C 259.433594 305.007812 258.398438 306.507812 257.3125 308.058594 Z M 261.140625 302.417969 C 259.070312 302.265625 257.054688 301.953125 255.039062 301.488281 C 256.847656 298.851562 258.605469 296.105469 260.3125 293.363281 C 261.035156 292.175781 261.757812 290.933594 262.484375 289.691406 C 262.636719 289.949219 262.792969 290.15625 262.949219 290.417969 C 263.929688 291.917969 264.808594 293.417969 265.6875 294.96875 C 264.292969 297.453125 262.742188 299.9375 261.140625 302.417969 Z M 269.359375 302.058594 C 267.03125 302.417969 264.707031 302.574219 262.378906 302.472656 C 263.722656 300.351562 265.066406 298.230469 266.359375 296.054688 C 267.445312 298.023438 268.480469 299.988281 269.359375 302.058594 Z M 266.410156 293.933594 C 265.894531 293.054688 265.429688 292.226562 264.859375 291.398438 C 264.292969 290.46875 263.722656 289.589844 263.105469 288.707031 C 264.394531 286.433594 265.6875 284.105469 266.929688 281.828125 C 267.859375 283.222656 268.738281 284.621094 269.566406 286.070312 C 269.773438 286.433594 269.980469 286.792969 270.1875 287.15625 C 268.996094 289.382812 267.703125 291.65625 266.410156 293.933594 Z M 266.410156 293.933594 " fill-opacity="1" fill-rule="nonzero"/><path fill="#542d34" d="M 279.128906 260.925781 C 277.113281 257.09375 274.425781 253.628906 271.167969 250.785156 C 268.429688 248.300781 265.273438 246.28125 261.914062 244.730469 C 262.429688 245.558594 262.898438 246.386719 263.363281 247.214844 C 266.566406 253.371094 268.015625 260.457031 267.289062 267.390625 C 265.328125 287.207031 247.699219 301.695312 227.898438 299.730469 C 223.917969 299.316406 220.144531 298.28125 216.679688 296.726562 C 222.417969 305.835938 232.136719 312.300781 243.613281 313.441406 C 263.414062 315.40625 281.042969 300.917969 283.007812 281.101562 C 283.730469 274.167969 282.335938 267.132812 279.128906 260.925781 Z M 279.128906 260.925781 " fill-opacity="0.15" fill-rule="nonzero"/><path fill="#542d34" d="M 279.128906 260.925781 C 277.476562 257.769531 275.355469 254.871094 272.875 252.386719 C 273.132812 252.851562 273.390625 253.320312 273.648438 253.835938 C 276.855469 259.992188 278.300781 267.082031 277.578125 274.015625 C 275.613281 293.832031 257.984375 308.316406 238.1875 306.351562 C 229.5 305.472656 221.796875 301.59375 216.113281 295.796875 C 221.746094 305.421875 231.722656 312.300781 243.664062 313.441406 C 263.464844 315.40625 281.09375 300.917969 283.058594 281.101562 C 283.730469 274.167969 282.335938 267.132812 279.128906 260.925781 Z M 279.128906 260.925781 " fill-opacity="0.15" fill-rule="nonzero"/><path fill="#f0b49e" d="M 118.460938 214.046875 C 121.664062 216.894531 124.40625 220.359375 126.421875 224.1875 C 129.625 230.347656 131.074219 237.433594 130.347656 244.367188 C 128.386719 264.183594 110.757812 278.671875 90.957031 276.703125 C 71.15625 274.738281 56.683594 257.09375 58.648438 237.277344 C 60.613281 217.464844 78.242188 202.976562 98.039062 204.941406 C 105.585938 205.71875 112.824219 209.027344 118.460938 214.046875 Z M 118.460938 214.046875 " fill-opacity="1" fill-rule="nonzero"/><path fill="#542d34" d="M 118.71875 250.371094 C 120.527344 246.902344 122.285156 243.4375 123.886719 239.867188 C 125.542969 236.296875 127.039062 232.675781 128.488281 229.050781 C 128.386719 228.742188 128.230469 228.433594 128.125 228.070312 C 127.917969 228.070312 127.660156 228.121094 127.558594 228.378906 C 125.023438 234.949219 122.078125 241.417969 118.871094 247.730469 C 118.613281 248.25 118.355469 248.765625 118.097656 249.230469 C 117.0625 247.421875 115.976562 245.660156 114.789062 243.953125 C 116.390625 240.847656 117.941406 237.691406 119.390625 234.535156 C 121.355469 230.242188 123.164062 225.894531 124.765625 221.5 C 124.609375 221.238281 124.457031 221.03125 124.300781 220.773438 C 124.09375 220.773438 123.886719 220.824219 123.785156 221.085938 C 120.992188 228.535156 117.734375 235.832031 114.117188 242.917969 C 113.136719 241.523438 112.101562 240.125 111.015625 238.78125 C 108.070312 235.105469 104.761719 231.640625 101.246094 228.535156 C 99.332031 226.878906 97.367188 225.277344 95.351562 223.773438 C 96.746094 222.585938 98.246094 221.445312 99.695312 220.308594 C 103.828125 217.203125 108.222656 214.359375 113.03125 212.390625 C 113.601562 212.132812 114.167969 211.925781 114.738281 211.773438 C 114.996094 211.667969 115.097656 211.460938 115.046875 211.253906 C 114.789062 211.097656 114.582031 210.945312 114.324219 210.789062 C 114.324219 210.789062 114.273438 210.789062 114.273438 210.789062 C 109.308594 212.496094 104.761719 215.289062 100.519531 218.34375 C 98.453125 219.84375 96.386719 221.445312 94.472656 223.101562 C 92.820312 221.914062 91.113281 220.824219 89.40625 219.738281 C 90.800781 218.496094 92.25 217.308594 93.75 216.222656 C 97.988281 213.21875 102.640625 210.890625 107.601562 209.289062 C 108.222656 209.082031 108.894531 208.875 109.566406 208.71875 C 109.828125 208.667969 109.929688 208.460938 109.980469 208.253906 C 109.671875 208.097656 109.359375 207.941406 109 207.789062 C 103.984375 209.234375 99.175781 211.359375 94.78125 214.253906 C 92.558594 215.703125 90.390625 217.359375 88.425781 219.222656 C 84.132812 216.6875 79.636719 214.515625 74.984375 212.753906 C 74.3125 212.496094 73.691406 212.238281 73.019531 212.03125 C 72.96875 212.03125 72.914062 212.03125 72.863281 211.976562 C 72.65625 212.132812 72.503906 212.238281 72.296875 212.390625 C 72.242188 212.652344 72.296875 212.910156 72.605469 213.011719 C 77.621094 214.824219 82.480469 217.050781 87.082031 219.6875 C 87.234375 219.792969 87.390625 219.894531 87.597656 220 C 86.148438 221.394531 84.804688 222.84375 83.566406 224.34375 C 83.359375 224.601562 83.152344 224.863281 82.996094 225.070312 C 82.582031 224.808594 82.222656 224.550781 81.808594 224.34375 C 77.722656 221.808594 73.433594 219.636719 68.988281 217.824219 C 68.417969 217.617188 67.902344 217.359375 67.332031 217.152344 C 67.125 217.410156 66.917969 217.667969 66.710938 217.929688 C 66.765625 218.03125 66.867188 218.136719 66.96875 218.1875 C 71.417969 219.894531 75.707031 222.015625 79.792969 224.394531 C 80.671875 224.914062 81.496094 225.429688 82.375 225.949219 C 79.792969 229.363281 77.621094 233.140625 75.914062 237.125 C 75.035156 239.195312 74.3125 241.261719 73.691406 243.4375 C 72.554688 241.9375 71.46875 240.332031 70.433594 238.726562 C 67.746094 234.433594 65.574219 229.828125 64.335938 224.914062 C 64.179688 224.292969 64.023438 223.671875 63.921875 223 C 63.867188 222.742188 63.664062 222.585938 63.457031 222.585938 C 63.25 222.894531 63.09375 223.207031 62.9375 223.515625 C 64.023438 228.484375 65.988281 233.296875 68.574219 237.691406 C 70.019531 240.125 71.625 242.453125 73.328125 244.730469 C 72.761719 246.800781 72.347656 248.972656 71.984375 251.09375 C 70.382812 249.023438 68.882812 246.851562 67.539062 244.625 C 64.902344 240.226562 62.679688 235.519531 60.820312 230.707031 C 60.664062 230.347656 60.300781 230.347656 60.042969 230.5 C 59.992188 230.707031 59.941406 230.914062 59.835938 231.175781 C 62.785156 238.832031 66.660156 246.179688 71.777344 252.59375 C 71.15625 257.457031 71.105469 262.425781 71.675781 267.289062 C 71.726562 267.804688 71.777344 268.324219 71.882812 268.839844 C 72.191406 269.097656 72.449219 269.304688 72.761719 269.566406 C 72.914062 269.460938 73.019531 269.304688 72.96875 269.046875 C 72.242188 263.976562 72.191406 258.855469 72.707031 253.785156 C 73.121094 254.300781 73.585938 254.820312 74 255.335938 C 75.242188 256.683594 76.484375 258.027344 77.828125 259.269531 C 77.515625 263.355469 77.621094 267.496094 78.136719 271.582031 C 78.1875 272.101562 78.292969 272.617188 78.394531 273.136719 C 78.707031 273.289062 79.066406 273.445312 79.429688 273.601562 C 79.53125 273.496094 79.53125 273.34375 79.53125 273.1875 C 78.808594 268.890625 78.652344 264.496094 78.914062 260.148438 C 84.132812 264.804688 90.234375 268.425781 96.902344 270.652344 C 95.402344 272.667969 93.902344 274.636719 92.351562 276.550781 C 92.25 276.652344 92.25 276.757812 92.25 276.808594 C 92.664062 276.808594 93.078125 276.859375 93.4375 276.859375 C 94.988281 274.894531 96.488281 272.929688 97.988281 270.960938 C 99.953125 271.53125 101.96875 271.996094 103.984375 272.308594 C 103.15625 273.496094 102.277344 274.6875 101.398438 275.824219 C 101.296875 275.980469 101.296875 276.136719 101.296875 276.238281 C 101.761719 276.136719 102.175781 276.085938 102.640625 275.980469 C 103.519531 274.84375 104.347656 273.652344 105.171875 272.460938 C 107.191406 272.722656 109.257812 272.824219 111.324219 272.722656 C 111.84375 272.460938 112.308594 272.203125 112.824219 271.894531 C 112.722656 271.738281 112.566406 271.582031 112.308594 271.632812 C 110.136719 271.738281 108.015625 271.6875 105.898438 271.480469 C 106.984375 269.925781 108.070312 268.375 109.101562 266.769531 C 111.066406 266.875 113.082031 266.824219 115.046875 266.617188 C 115.769531 266.5625 116.496094 266.460938 117.21875 266.304688 C 117.425781 266.824219 117.683594 267.339844 117.890625 267.859375 C 117.941406 267.960938 118.046875 268.0625 118.097656 268.117188 C 118.355469 267.910156 118.613281 267.652344 118.871094 267.445312 C 118.871094 267.445312 118.871094 267.445312 118.871094 267.390625 C 117.582031 264.234375 116.082031 261.183594 114.375 258.234375 C 115.667969 256.007812 116.960938 253.734375 118.199219 251.457031 C 119.855469 254.507812 121.25 257.664062 122.492188 260.871094 C 122.699219 261.390625 122.855469 261.90625 123.058594 262.371094 C 123.113281 262.476562 123.164062 262.578125 123.265625 262.632812 C 123.527344 262.320312 123.730469 262.011719 123.9375 261.699219 C 122.441406 257.820312 120.683594 254.042969 118.71875 250.371094 Z M 94.523438 224.550781 C 96.128906 225.742188 97.730469 226.929688 99.28125 228.226562 C 102.898438 231.277344 106.207031 234.589844 109.207031 238.210938 C 110.757812 240.074219 112.203125 241.988281 113.601562 244.003906 C 112.359375 246.332031 111.117188 248.660156 109.773438 250.9375 C 107.863281 248.195312 105.847656 245.558594 103.675781 243.023438 C 100.519531 239.402344 97.109375 235.984375 93.4375 232.882812 C 92.199219 231.792969 90.855469 230.761719 89.5625 229.726562 C 89.976562 229.207031 90.335938 228.742188 90.75 228.277344 C 91.886719 226.984375 93.179688 225.742188 94.523438 224.550781 Z M 109.152344 251.972656 C 106.671875 256.214844 104.035156 260.40625 101.246094 264.441406 C 100.210938 264.183594 99.230469 263.875 98.246094 263.511719 C 94.679688 262.21875 91.527344 260.40625 88.476562 258.078125 C 85.476562 255.855469 82.6875 253.421875 80.101562 250.785156 C 80.722656 247.730469 81.550781 244.730469 82.6875 241.832031 C 84.238281 237.796875 86.304688 233.96875 88.941406 230.554688 C 89.769531 231.175781 90.59375 231.847656 91.421875 232.519531 C 95.09375 235.519531 98.558594 238.832031 101.710938 242.402344 C 104.347656 245.453125 106.878906 248.660156 109.152344 251.972656 Z M 88.527344 220.617188 C 90.234375 221.652344 91.941406 222.792969 93.59375 223.929688 C 92.558594 224.863281 91.527344 225.84375 90.59375 226.828125 C 89.921875 227.550781 89.25 228.277344 88.632812 229.050781 C 87.082031 227.863281 85.476562 226.777344 83.824219 225.691406 C 85.269531 223.929688 86.875 222.222656 88.527344 220.617188 Z M 78.1875 255.386719 C 78.085938 256.214844 77.980469 256.992188 77.929688 257.820312 C 76.121094 256.0625 74.414062 254.199219 72.8125 252.230469 C 73.121094 250.058594 73.535156 247.886719 74.054688 245.765625 C 75.085938 247.058594 76.171875 248.351562 77.363281 249.542969 C 77.878906 250.058594 78.34375 250.578125 78.859375 251.144531 C 78.601562 252.59375 78.34375 253.992188 78.1875 255.386719 Z M 74.414062 244.523438 C 74.933594 242.761719 75.5 241.003906 76.121094 239.347656 C 77.878906 234.796875 80.257812 230.5 83.203125 226.621094 C 84.855469 227.707031 86.460938 228.792969 88.011719 229.984375 C 85.734375 232.984375 83.824219 236.296875 82.375 239.710938 C 80.980469 243.023438 79.945312 246.4375 79.171875 249.957031 C 77.464844 248.195312 75.914062 246.386719 74.414062 244.523438 Z M 97.523438 269.71875 C 93.542969 268.476562 89.769531 266.667969 86.253906 264.441406 C 83.667969 262.785156 81.1875 260.871094 78.914062 258.804688 C 78.964844 258.390625 78.964844 257.976562 79.015625 257.5625 C 79.171875 255.75 79.429688 253.941406 79.792969 252.128906 C 82.015625 254.300781 84.339844 256.371094 86.820312 258.285156 C 89.613281 260.40625 92.558594 262.371094 95.816406 263.769531 C 97.367188 264.441406 98.96875 265.011719 100.574219 265.476562 C 99.589844 266.875 98.558594 268.269531 97.523438 269.71875 Z M 104.554688 271.324219 C 102.539062 271.066406 100.519531 270.601562 98.558594 270.03125 C 99.589844 268.582031 100.625 267.132812 101.660156 265.683594 C 103.621094 266.203125 105.691406 266.511719 107.707031 266.667969 C 106.722656 268.269531 105.640625 269.824219 104.554688 271.324219 Z M 108.429688 265.683594 C 106.363281 265.527344 104.347656 265.21875 102.332031 264.753906 C 104.140625 262.113281 105.898438 259.371094 107.601562 256.628906 C 108.328125 255.441406 109.050781 254.199219 109.773438 252.957031 C 109.929688 253.214844 110.085938 253.421875 110.238281 253.679688 C 111.222656 255.179688 112.152344 256.683594 112.980469 258.234375 C 111.582031 260.769531 110.03125 263.199219 108.429688 265.683594 Z M 116.648438 265.320312 C 114.324219 265.683594 111.996094 265.839844 109.671875 265.734375 C 111.066406 263.613281 112.359375 261.492188 113.652344 259.320312 C 114.738281 261.285156 115.71875 263.304688 116.648438 265.320312 Z M 113.652344 257.199219 C 113.136719 256.320312 112.667969 255.492188 112.152344 254.664062 C 111.582031 253.734375 111.015625 252.851562 110.394531 251.972656 C 111.738281 249.695312 112.980469 247.367188 114.21875 245.09375 C 115.152344 246.488281 116.03125 247.886719 116.855469 249.335938 C 117.0625 249.695312 117.269531 250.058594 117.476562 250.421875 C 116.238281 252.644531 114.996094 254.921875 113.652344 257.199219 Z M 113.652344 257.199219 " fill-opacity="1" fill-rule="nonzero"/><path fill="#542d34" d="M 126.367188 224.242188 C 124.351562 220.410156 121.664062 216.945312 118.460938 214.101562 C 115.71875 211.617188 112.566406 209.597656 109.207031 208.046875 C 109.722656 208.875 110.1875 209.703125 110.652344 210.53125 C 113.859375 216.6875 115.304688 223.773438 114.582031 230.707031 C 112.617188 250.523438 94.988281 265.011719 75.191406 263.046875 C 71.210938 262.632812 67.4375 261.597656 63.972656 260.042969 C 69.710938 269.152344 79.429688 275.617188 90.957031 276.757812 C 110.757812 278.722656 128.386719 264.234375 130.347656 244.417969 C 131.019531 237.433594 129.574219 230.398438 126.367188 224.242188 Z M 126.367188 224.242188 " fill-opacity="0.15" fill-rule="nonzero"/><path fill="#542d34" d="M 126.367188 224.242188 C 124.714844 221.085938 122.59375 218.1875 120.113281 215.703125 C 120.371094 216.167969 120.628906 216.636719 120.890625 217.152344 C 124.09375 223.308594 125.542969 230.398438 124.816406 237.332031 C 122.855469 257.148438 105.226562 271.632812 85.425781 269.667969 C 76.742188 268.789062 69.039062 264.910156 63.351562 259.113281 C 68.988281 268.738281 78.964844 275.617188 90.90625 276.757812 C 110.707031 278.722656 128.332031 264.234375 130.296875 244.417969 C 131.019531 237.433594 129.574219 230.398438 126.367188 224.242188 Z M 126.367188 224.242188 " fill-opacity="0.15" fill-rule="nonzero"/><path fill="#8a4654" d="M 158.886719 140.214844 C 155.320312 134.007812 152.214844 127.488281 149.632812 120.8125 C 146.945312 113.777344 144.925781 106.53125 144.925781 98.925781 C 144.980469 91.0625 147.097656 83.25 151.90625 76.9375 C 156.144531 71.609375 161.933594 67.625 168.242188 65.191406 C 182.820312 59.65625 198.949219 63.328125 211.820312 71.453125 C 218.179688 75.488281 224.023438 80.507812 228.46875 86.613281 C 232.601562 92.304688 235.5 99.132812 235.238281 106.273438 C 235.136719 109.429688 234.257812 112.691406 232.242188 115.171875 C 230.226562 117.707031 227.019531 118.949219 223.96875 117.554688 C 220.609375 116.054688 218.75 112.378906 218.800781 108.808594 C 218.851562 104.929688 220.609375 101.253906 222.832031 98.152344 C 230.640625 87.492188 245.164062 83.921875 257.726562 84.90625 C 270.394531 85.886719 282.230469 91.890625 290.296875 101.667969 C 294.328125 106.53125 297.324219 112.121094 299.289062 118.070312 C 300.425781 121.484375 301.253906 125.054688 301.566406 128.675781 C 301.925781 133.023438 301.410156 137.371094 300.167969 141.558594 C 298.773438 146.425781 296.652344 151.132812 293.707031 155.21875 C 291.433594 158.375 288.796875 161.171875 285.953125 163.757812 C 276.90625 172.085938 266.308594 178.710938 255.660156 184.867188 C 251.988281 186.988281 248.320312 189.007812 244.597656 190.972656 C 243.976562 191.28125 244.441406 192.265625 245.0625 191.957031 C 257.933594 185.125 270.804688 177.726562 282.128906 168.515625 C 288.226562 163.550781 294.222656 157.808594 297.738281 150.667969 C 301.71875 142.699219 303.789062 133.800781 302.132812 124.953125 C 300.945312 118.382812 298.515625 112.070312 295 106.378906 C 288.125 95.355469 277.113281 87.542969 264.394531 84.800781 C 251.574219 82.058594 236.324219 83.972656 226.191406 92.875 C 221.023438 97.425781 216.007812 105.03125 218.078125 112.222656 C 219.007812 115.378906 221.59375 118.226562 224.847656 119.003906 C 227.898438 119.726562 230.898438 118.382812 232.863281 116 C 237.308594 110.722656 236.84375 102.753906 234.878906 96.597656 C 232.601562 89.5625 228.003906 83.457031 222.675781 78.4375 C 211.148438 67.574219 194.917969 60.019531 178.738281 61.621094 C 164.519531 63.070312 150.925781 71.816406 146.066406 85.628906 C 143.324219 93.496094 143.324219 102.238281 145.1875 110.308594 C 146.890625 117.605469 149.839844 124.640625 153.042969 131.367188 C 154.542969 134.523438 156.144531 137.628906 157.902344 140.628906 C 158.265625 141.25 159.246094 140.785156 158.886719 140.214844 Z M 158.886719 140.214844 " fill-opacity="1" fill-rule="nonzero"/><path fill="#f0d5d1" d="M 175.429688 224.65625 C 174.289062 223.722656 173.152344 222.84375 172.015625 221.914062 L 153.5625 230.292969 C 153.507812 230.347656 153.40625 230.347656 153.355469 230.398438 C 152.0625 231.175781 138.878906 239.195312 139.136719 239.761719 C 139.394531 240.332031 154.078125 235.519531 155.472656 235.054688 C 155.523438 235.054688 155.628906 235.003906 155.679688 234.949219 L 176.566406 225.484375 C 176.152344 225.277344 175.789062 224.964844 175.429688 224.65625 Z M 175.429688 224.65625 " fill-opacity="1" fill-rule="nonzero"/><path fill="#f0b49e" d="M 175.429688 224.707031 L 156.09375 233.449219 C 156.042969 233.503906 155.9375 233.503906 155.886719 233.554688 C 154.800781 233.917969 145.394531 236.96875 141.359375 237.953125 C 139.914062 238.933594 138.984375 239.660156 139.085938 239.816406 C 139.34375 240.382812 154.027344 235.570312 155.421875 235.105469 C 155.472656 235.105469 155.578125 235.054688 155.628906 235.003906 L 176.511719 225.535156 C 176.152344 225.277344 175.789062 224.964844 175.429688 224.707031 Z M 175.429688 224.707031 " fill-opacity="0.5" fill-rule="nonzero"/><path fill="#f0b49e" d="M 175.429688 224.65625 C 175.117188 224.394531 174.808594 224.136719 174.496094 223.878906 L 160.179688 230.347656 C 160.125 230.398438 160.023438 230.398438 159.972656 230.449219 C 158.988281 230.761719 150.976562 233.347656 146.632812 234.484375 C 142.859375 236.867188 138.929688 239.402344 139.085938 239.761719 C 139.34375 240.332031 154.027344 235.519531 155.421875 235.054688 C 155.472656 235.054688 155.578125 235.003906 155.628906 234.949219 L 176.511719 225.484375 C 176.152344 225.277344 175.789062 224.964844 175.429688 224.65625 Z M 175.429688 224.65625 " fill-opacity="0.5" fill-rule="nonzero"/><path fill="#f0d5d1" d="M 244.699219 192.109375 L 244.285156 191.128906 C 243.820312 190.09375 242.582031 189.625 241.597656 190.09375 L 187.164062 214.773438 C 188.660156 215.960938 190.109375 217.203125 191.558594 218.445312 L 243.664062 194.851562 C 244.699219 194.386719 245.164062 193.144531 244.699219 192.109375 Z M 244.699219 192.109375 " fill-opacity="1" fill-rule="nonzero"/><path fill="#f0b49e" d="M 244.855469 192.730469 C 244.648438 192.9375 244.441406 193.144531 244.132812 193.25 L 190.523438 217.566406 C 190.886719 217.875 191.195312 218.136719 191.558594 218.445312 L 243.664062 194.851562 C 244.492188 194.4375 244.957031 193.609375 244.855469 192.730469 Z M 244.855469 192.730469 " fill-opacity="0.5" fill-rule="nonzero"/><path fill="#f0b49e" d="M 244.699219 192.109375 L 244.597656 191.851562 L 189.644531 216.738281 C 190.316406 217.308594 190.9375 217.875 191.609375 218.445312 L 243.71875 194.851562 C 244.699219 194.386719 245.164062 193.144531 244.699219 192.109375 Z M 244.699219 192.109375 " fill-opacity="0.5" fill-rule="nonzero"/><path fill="#f0d5d1" d="M 184.371094 192.421875 C 185.871094 191.542969 187.371094 190.714844 188.921875 189.9375 L 162.195312 140.734375 C 161.625 139.75 160.382812 139.386719 159.402344 139.90625 L 158.472656 140.421875 C 157.488281 140.992188 157.128906 142.234375 157.644531 143.214844 Z M 184.371094 192.421875 " fill-opacity="1" fill-rule="nonzero"/><path fill="#f0b49e" d="M 184.371094 192.421875 C 184.679688 192.214844 184.992188 192.058594 185.300781 191.851562 L 157.695312 141.09375 C 157.28125 141.714844 157.230469 142.542969 157.59375 143.214844 Z M 184.371094 192.421875 " fill-opacity="0.5" fill-rule="nonzero"/><path fill="#f0b49e" d="M 184.371094 192.421875 C 184.886719 192.109375 185.40625 191.800781 185.972656 191.488281 L 158.214844 140.527344 C 157.386719 141.09375 157.074219 142.285156 157.59375 143.164062 Z M 184.371094 192.421875 " fill-opacity="0.5" fill-rule="nonzero"/></svg>