<svg xmlns="http://www.w3.org/2000/svg" xmlns:xlink="http://www.w3.org/1999/xlink" width="500" zoomAndPan="magnify" viewBox="0 0 375 374.999991" height="500" preserveAspectRatio="xMidYMid meet" version="1.0"><path fill="#bd5e67" d="M 127.285156 189.128906 C 131.136719 192.535156 134.324219 196.609375 136.765625 201.199219 C 140.617188 208.527344 142.246094 216.894531 141.433594 225.1875 C 139.136719 248.734375 118.101562 265.988281 94.550781 263.617188 C 71 261.25 53.742188 240.367188 56.039062 216.746094 C 58.335938 193.128906 79.367188 175.949219 102.921875 178.320312 C 112.03125 179.207031 120.546875 183.132812 127.285156 189.128906 Z M 127.285156 189.128906 " fill-opacity="1" fill-rule="nonzero"/><path fill="#542d34" d="M 127.730469 232.296875 C 129.878906 228.226562 131.953125 224.078125 133.878906 219.859375 C 135.804688 215.710938 137.582031 211.417969 139.285156 207.195312 C 139.136719 206.679688 138.914062 206.234375 138.765625 205.714844 C 138.46875 205.714844 138.175781 205.863281 138.027344 206.160156 C 134.988281 214.007812 131.507812 221.636719 127.730469 229.113281 C 127.433594 229.632812 127.136719 230.222656 126.917969 230.742188 C 125.730469 228.667969 124.472656 226.671875 123.140625 224.746094 C 125.066406 221.117188 126.84375 217.414062 128.546875 213.636719 C 130.839844 208.527344 132.988281 203.421875 134.988281 198.164062 C 134.765625 197.792969 134.472656 197.421875 134.25 197.050781 C 133.953125 197.050781 133.730469 197.199219 133.582031 197.496094 C 130.324219 206.308594 126.472656 214.898438 122.175781 223.265625 C 120.992188 221.636719 119.804688 220.007812 118.546875 218.449219 C 113.214844 211.785156 106.917969 205.863281 100.03125 200.753906 C 101.660156 199.347656 103.363281 198.015625 105.066406 196.757812 C 110.546875 192.609375 116.472656 188.90625 122.917969 186.613281 C 123.214844 186.464844 123.363281 186.242188 123.363281 186.019531 C 122.992188 185.722656 122.621094 185.5 122.25 185.28125 C 116.398438 187.351562 110.992188 190.609375 105.957031 194.238281 C 103.511719 196.015625 101.070312 197.867188 98.773438 199.867188 C 96.847656 198.535156 94.921875 197.199219 92.921875 196.015625 C 94.550781 194.609375 96.179688 193.203125 97.957031 192.015625 C 102.992188 188.464844 108.546875 185.722656 114.398438 183.796875 C 115.214844 183.578125 115.957031 183.355469 116.769531 183.132812 C 117.140625 183.058594 117.289062 182.761719 117.363281 182.464844 C 116.917969 182.242188 116.398438 182.019531 115.882812 181.800781 C 109.957031 183.503906 104.253906 186.019531 99.070312 189.425781 C 96.402344 191.128906 93.882812 193.128906 91.589844 195.273438 C 85.8125 191.871094 79.664062 188.980469 73.292969 186.6875 C 73.292969 186.6875 73.222656 186.6875 73.222656 186.6875 C 72.925781 186.910156 72.628906 187.203125 72.257812 187.425781 C 72.257812 187.722656 72.40625 188.019531 72.703125 188.167969 C 78.847656 190.386719 84.773438 193.128906 90.328125 196.386719 C 88.699219 198.015625 87.070312 199.71875 85.664062 201.496094 C 85.441406 201.792969 85.21875 202.011719 85.070312 202.308594 C 84.625 202.011719 84.183594 201.71875 83.738281 201.496094 C 78.257812 198.164062 72.554688 195.273438 66.554688 192.980469 C 66.257812 193.351562 65.886719 193.71875 65.59375 194.089844 C 65.667969 194.238281 65.8125 194.3125 65.960938 194.386719 C 72.332031 196.832031 78.40625 199.941406 84.109375 203.566406 C 81.070312 207.640625 78.554688 212.007812 76.554688 216.675781 C 75.515625 219.042969 74.628906 221.488281 73.886719 224.003906 C 72.554688 222.226562 71.367188 220.449219 70.183594 218.597656 C 66.628906 212.898438 63.816406 206.605469 62.480469 199.941406 C 62.40625 199.570312 62.183594 199.421875 61.890625 199.347656 C 61.59375 199.792969 61.371094 200.234375 61.074219 200.753906 C 62.332031 206.679688 64.703125 212.304688 67.738281 217.488281 C 69.445312 220.375 71.367188 223.191406 73.367188 225.78125 C 72.703125 228.152344 72.257812 230.59375 71.8125 233.039062 C 70.035156 230.667969 68.332031 228.226562 66.777344 225.632812 C 63.59375 220.375 60.925781 214.824219 58.703125 209.046875 C 58.554688 208.601562 58.039062 208.527344 57.742188 208.675781 C 57.59375 209.046875 57.519531 209.492188 57.445312 209.863281 C 60.925781 218.894531 65.519531 227.558594 71.589844 235.109375 C 70.851562 240.886719 70.851562 246.734375 71.441406 252.511719 C 71.515625 253.105469 71.589844 253.621094 71.664062 254.214844 C 72.109375 254.585938 72.554688 254.878906 73 255.25 C 73.21875 255.101562 73.292969 254.878906 73.292969 254.511719 C 72.480469 248.585938 72.332031 242.589844 73 236.664062 C 73.441406 237.257812 73.960938 237.777344 74.40625 238.292969 C 75.8125 239.851562 77.292969 241.40625 78.921875 242.886719 C 78.554688 248.363281 78.703125 253.84375 79.589844 259.25 C 80.109375 259.472656 80.554688 259.695312 81.070312 259.988281 C 81.144531 259.839844 81.21875 259.695312 81.21875 259.472656 C 80.40625 254.4375 80.183594 249.328125 80.480469 244.292969 C 86.625 249.699219 93.734375 253.992188 101.585938 256.507812 C 99.882812 258.804688 98.105469 261.101562 96.253906 263.394531 C 96.179688 263.542969 96.105469 263.691406 96.105469 263.765625 C 96.699219 263.765625 97.292969 263.839844 97.882812 263.839844 C 99.660156 261.617188 101.4375 259.324219 103.140625 256.953125 C 105.363281 257.621094 107.660156 258.140625 109.957031 258.507812 C 108.992188 259.839844 108.03125 261.25 106.992188 262.582031 C 106.84375 262.804688 106.84375 262.953125 106.84375 263.171875 C 107.511719 263.027344 108.105469 262.953125 108.769531 262.804688 C 109.734375 261.472656 110.695312 260.136719 111.660156 258.804688 C 113.957031 259.101562 116.324219 259.175781 118.621094 259.175781 C 119.363281 258.804688 120.027344 258.433594 120.769531 257.992188 C 120.621094 257.769531 120.398438 257.546875 120.027344 257.621094 C 117.585938 257.769531 115.066406 257.695312 112.621094 257.472656 C 113.882812 255.695312 115.066406 253.917969 116.25 252.140625 C 118.621094 252.289062 120.992188 252.214844 123.289062 251.992188 C 124.101562 251.917969 124.917969 251.769531 125.804688 251.621094 C 126.027344 252.214844 126.324219 252.808594 126.546875 253.398438 C 126.621094 253.546875 126.695312 253.695312 126.84375 253.769531 C 127.210938 253.472656 127.582031 253.105469 127.953125 252.808594 C 126.398438 249.105469 124.621094 245.476562 122.695312 241.996094 C 124.175781 239.40625 125.65625 236.8125 127.066406 234.222656 C 129.285156 238.367188 131.136719 242.589844 132.691406 247.03125 C 132.765625 247.179688 132.839844 247.328125 132.988281 247.402344 C 133.359375 246.957031 133.65625 246.515625 134.027344 245.996094 C 132.101562 241.109375 130.101562 236.59375 127.730469 232.296875 Z M 98.773438 201.792969 C 100.699219 203.199219 102.550781 204.605469 104.328125 206.085938 C 110.769531 211.492188 116.472656 217.859375 121.289062 224.746094 C 119.878906 227.410156 118.398438 230.074219 116.917969 232.742188 C 114.695312 229.484375 112.324219 226.449219 109.734375 223.484375 C 104.699219 217.710938 99.144531 212.378906 93.070312 207.789062 C 93.515625 207.269531 93.957031 206.679688 94.402344 206.160156 C 95.734375 204.605469 97.21875 203.199219 98.773438 201.792969 Z M 116.027344 234.222656 C 113.140625 239.257812 110.03125 244.144531 106.695312 248.882812 C 105.511719 248.511719 104.253906 248.144531 103.066406 247.773438 C 98.847656 246.21875 95.144531 244.070312 91.515625 241.40625 C 88.035156 238.8125 84.699219 236 81.589844 232.890625 C 82.332031 229.261719 83.367188 225.707031 84.699219 222.226562 C 86.476562 217.488281 88.921875 213.046875 92.03125 209.046875 C 92.996094 209.789062 94.03125 210.601562 94.996094 211.417969 C 103.066406 217.933594 110.179688 225.632812 116.027344 234.222656 Z M 91.664062 197.125 C 93.660156 198.3125 95.585938 199.570312 97.511719 200.902344 C 96.328125 202.011719 95.144531 203.125 94.03125 204.234375 C 93.21875 205.050781 92.476562 205.9375 91.738281 206.824219 C 89.957031 205.492188 88.105469 204.234375 86.253906 202.976562 C 87.960938 200.902344 89.738281 198.902344 91.664062 197.125 Z M 79.21875 238.222656 C 79.070312 239.109375 78.996094 239.996094 78.921875 240.886719 C 76.851562 238.886719 74.925781 236.738281 73.074219 234.519531 C 73.441406 232 73.886719 229.558594 74.480469 227.113281 C 75.664062 228.59375 76.925781 230.074219 78.257812 231.484375 C 78.847656 232.074219 79.367188 232.667969 79.960938 233.261719 C 79.738281 234.960938 79.441406 236.59375 79.21875 238.222656 Z M 75 225.335938 C 75.589844 223.265625 76.257812 221.265625 76.996094 219.265625 C 79.070312 213.933594 81.886719 208.824219 85.292969 204.234375 C 87.144531 205.417969 88.996094 206.753906 90.773438 208.085938 C 85.515625 214.972656 82.183594 223.117188 80.332031 231.558594 C 78.480469 229.558594 76.703125 227.484375 75 225.335938 Z M 102.253906 255.175781 C 97.511719 253.695312 93.070312 251.546875 88.921875 248.882812 C 85.886719 246.957031 82.996094 244.738281 80.332031 242.292969 C 80.40625 241.847656 80.40625 241.332031 80.480469 240.886719 C 80.699219 238.8125 80.996094 236.738281 81.367188 234.667969 C 83.960938 237.257812 86.699219 239.628906 89.664062 241.847656 C 93.070312 244.441406 96.550781 246.734375 100.476562 248.363281 C 102.253906 249.105469 104.03125 249.773438 105.808594 250.214844 C 104.625 251.917969 103.511719 253.546875 102.253906 255.175781 Z M 110.695312 257.101562 C 108.402344 256.804688 106.105469 256.289062 103.882812 255.621094 C 105.066406 253.992188 106.253906 252.289062 107.4375 250.660156 C 109.734375 251.253906 112.03125 251.621094 114.324219 251.84375 C 113.140625 253.621094 111.957031 255.324219 110.695312 257.101562 Z M 115.289062 250.363281 C 112.917969 250.214844 110.621094 249.847656 108.328125 249.328125 C 110.472656 246.21875 112.472656 243.109375 114.472656 239.851562 C 115.363281 238.441406 116.175781 237.035156 116.992188 235.628906 C 117.140625 235.851562 117.289062 236.074219 117.4375 236.371094 C 118.546875 238.074219 119.660156 239.851562 120.695312 241.625 C 118.917969 244.589844 117.140625 247.476562 115.289062 250.363281 Z M 124.992188 249.992188 C 122.398438 250.363281 119.730469 250.511719 117.066406 250.4375 C 118.621094 248.070312 120.101562 245.625 121.582031 243.183594 C 122.769531 245.402344 123.878906 247.699219 124.992188 249.992188 Z M 121.582031 240.144531 C 120.398438 238.074219 119.140625 236.148438 117.804688 234.148438 C 119.363281 231.558594 120.769531 228.890625 122.175781 226.226562 C 123.214844 227.78125 124.25 229.410156 125.214844 231.039062 C 125.433594 231.484375 125.65625 231.851562 125.953125 232.296875 C 124.546875 234.960938 123.140625 237.554688 121.582031 240.144531 Z M 121.582031 240.144531 " fill-opacity="1" fill-rule="nonzero"/><path fill="#542d34" d="M 136.691406 201.199219 C 134.324219 196.609375 131.0625 192.535156 127.210938 189.128906 C 123.953125 186.242188 120.25 183.796875 116.25 181.949219 C 116.84375 182.910156 117.4375 183.871094 117.953125 184.910156 C 121.804688 192.238281 123.433594 200.605469 122.621094 208.898438 C 120.324219 232.445312 99.289062 249.699219 75.738281 247.328125 C 71 246.882812 66.480469 245.625 62.332031 243.773438 C 69.148438 254.585938 80.699219 262.285156 94.402344 263.617188 C 117.953125 265.914062 138.988281 248.734375 141.285156 225.1875 C 142.246094 216.96875 140.542969 208.527344 136.691406 201.199219 Z M 136.691406 201.199219 " fill-opacity="0.15" fill-rule="nonzero"/><path fill="#542d34" d="M 136.691406 201.199219 C 134.765625 197.421875 132.175781 194.015625 129.210938 191.054688 C 129.507812 191.648438 129.878906 192.164062 130.175781 192.757812 C 134.027344 200.089844 135.65625 208.457031 134.839844 216.746094 C 132.546875 240.292969 111.511719 257.546875 87.960938 255.175781 C 77.589844 254.140625 68.480469 249.550781 61.667969 242.664062 C 68.40625 254.066406 80.257812 262.285156 94.476562 263.691406 C 118.027344 265.988281 139.0625 248.808594 141.359375 225.261719 C 142.246094 216.96875 140.542969 208.527344 136.691406 201.199219 Z M 136.691406 201.199219 " fill-opacity="0.15" fill-rule="nonzero"/><path fill="#8a4654" d="M 276.449219 188.90625 C 280.300781 192.3125 283.484375 196.386719 285.929688 200.976562 C 289.78125 208.308594 291.410156 216.675781 290.597656 224.96875 C 288.300781 248.511719 267.265625 265.765625 243.714844 263.394531 C 220.160156 261.027344 202.90625 240.070312 205.273438 216.527344 C 207.570312 192.980469 228.605469 175.726562 252.15625 178.097656 C 261.191406 178.984375 269.710938 182.910156 276.449219 188.90625 Z M 276.449219 188.90625 " fill-opacity="1" fill-rule="nonzero"/><path fill="#542d34" d="M 276.894531 232.074219 C 279.042969 228.003906 281.117188 223.855469 283.042969 219.636719 C 284.96875 215.488281 286.746094 211.195312 288.449219 206.972656 C 288.300781 206.457031 288.078125 206.011719 287.929688 205.492188 C 287.632812 205.492188 287.335938 205.640625 287.1875 205.9375 C 284.152344 213.785156 280.671875 221.414062 276.894531 228.890625 C 276.597656 229.410156 276.300781 230 276.078125 230.519531 C 274.894531 228.445312 273.636719 226.449219 272.300781 224.523438 C 274.226562 220.894531 276.003906 217.191406 277.707031 213.417969 C 280.003906 208.308594 282.152344 203.199219 284.152344 197.941406 C 283.929688 197.570312 283.632812 197.199219 283.410156 196.832031 C 283.117188 196.832031 282.894531 196.976562 282.746094 197.273438 C 279.414062 206.085938 275.636719 214.675781 271.339844 223.042969 C 270.15625 221.414062 268.96875 219.785156 267.710938 218.230469 C 262.378906 211.566406 256.082031 205.640625 249.195312 200.53125 C 250.824219 199.125 252.527344 197.792969 254.230469 196.535156 C 259.710938 192.386719 265.636719 188.683594 272.078125 186.390625 C 272.449219 186.242188 272.523438 186.019531 272.523438 185.796875 C 272.152344 185.5 271.785156 185.28125 271.414062 185.058594 C 265.5625 187.128906 260.15625 190.386719 255.121094 194.015625 C 252.675781 195.792969 250.230469 197.644531 247.933594 199.644531 C 246.011719 198.3125 244.085938 196.976562 242.085938 195.792969 C 243.640625 194.386719 245.34375 192.980469 247.121094 191.796875 C 252.15625 188.242188 257.710938 185.5 263.5625 183.578125 C 264.304688 183.355469 265.117188 183.132812 265.933594 182.910156 C 266.304688 182.835938 266.453125 182.539062 266.523438 182.242188 C 266.082031 182.019531 265.5625 181.800781 265.042969 181.578125 C 259.117188 183.28125 253.417969 185.796875 248.230469 189.203125 C 245.566406 190.90625 243.046875 192.90625 240.75 195.054688 C 234.898438 191.648438 228.828125 188.757812 222.457031 186.464844 C 222.457031 186.464844 222.382812 186.464844 222.382812 186.464844 C 222.085938 186.6875 221.71875 186.980469 221.421875 187.203125 C 221.421875 187.5 221.496094 187.796875 221.863281 187.945312 C 228.011719 190.167969 233.9375 192.90625 239.492188 196.164062 C 237.863281 197.792969 236.234375 199.496094 234.828125 201.273438 C 234.605469 201.570312 234.382812 201.792969 234.234375 202.085938 C 233.789062 201.792969 233.34375 201.496094 232.902344 201.273438 C 227.421875 197.941406 221.71875 195.054688 215.71875 192.757812 C 215.421875 193.128906 215.050781 193.5 214.753906 193.867188 C 214.828125 194.015625 214.976562 194.089844 215.125 194.164062 C 221.496094 196.609375 227.566406 199.71875 233.269531 203.347656 C 230.234375 207.417969 227.714844 211.789062 225.714844 216.453125 C 224.679688 218.820312 223.863281 221.265625 223.125 223.78125 C 221.792969 222.003906 220.53125 220.226562 219.421875 218.378906 C 215.867188 212.675781 213.050781 206.382812 211.71875 199.71875 C 211.644531 199.347656 211.421875 199.199219 211.125 199.125 C 210.828125 199.570312 210.609375 200.015625 210.3125 200.53125 C 211.570312 206.457031 213.941406 212.082031 216.976562 217.265625 C 218.679688 220.152344 220.605469 222.96875 222.605469 225.558594 C 221.9375 227.929688 221.496094 230.371094 221.050781 232.816406 C 219.199219 230.445312 217.570312 228.003906 216.015625 225.410156 C 212.828125 220.152344 210.164062 214.601562 207.941406 208.824219 C 207.792969 208.382812 207.273438 208.308594 206.980469 208.457031 C 206.832031 208.824219 206.757812 209.269531 206.609375 209.640625 C 210.089844 218.671875 214.679688 227.335938 220.753906 234.890625 C 220.015625 240.664062 220.015625 246.515625 220.605469 252.289062 C 220.679688 252.882812 220.753906 253.398438 220.828125 253.992188 C 221.273438 254.363281 221.71875 254.660156 222.160156 255.027344 C 222.382812 254.878906 222.457031 254.660156 222.457031 254.289062 C 221.644531 248.363281 221.496094 242.367188 222.160156 236.445312 C 222.605469 237.035156 223.125 237.554688 223.570312 238.074219 C 224.976562 239.628906 226.457031 241.183594 228.085938 242.664062 C 227.714844 248.144531 227.863281 253.621094 228.753906 259.027344 C 229.199219 259.25 229.714844 259.472656 230.234375 259.769531 C 230.308594 259.621094 230.382812 259.472656 230.382812 259.25 C 229.566406 254.214844 229.34375 249.105469 229.640625 244.070312 C 235.789062 249.476562 242.972656 253.769531 250.75 256.289062 C 249.046875 258.582031 247.269531 260.878906 245.417969 263.171875 C 245.34375 263.320312 245.269531 263.46875 245.269531 263.542969 C 245.863281 263.542969 246.453125 263.617188 247.046875 263.617188 C 248.824219 261.398438 250.601562 259.101562 252.304688 256.730469 C 254.527344 257.398438 256.824219 257.917969 259.117188 258.285156 C 258.15625 259.621094 257.191406 261.027344 256.15625 262.359375 C 256.007812 262.582031 256.007812 262.730469 256.007812 262.953125 C 256.675781 262.804688 257.265625 262.730469 257.933594 262.582031 C 258.898438 261.25 259.859375 259.914062 260.824219 258.582031 C 263.117188 258.878906 265.488281 258.953125 267.785156 258.953125 C 268.523438 258.582031 269.265625 258.210938 269.933594 257.769531 C 269.785156 257.546875 269.5625 257.324219 269.191406 257.398438 C 266.746094 257.546875 264.230469 257.472656 261.785156 257.25 C 263.042969 255.472656 264.230469 253.695312 265.414062 251.917969 C 267.785156 252.066406 270.15625 251.992188 272.449219 251.769531 C 273.265625 251.695312 274.078125 251.546875 274.96875 251.402344 C 275.191406 251.992188 275.488281 252.585938 275.710938 253.179688 C 275.78125 253.324219 275.855469 253.472656 276.003906 253.546875 C 276.375 253.25 276.746094 252.882812 277.117188 252.585938 C 275.5625 248.882812 273.785156 245.253906 271.859375 241.773438 C 273.339844 239.183594 274.820312 236.59375 276.226562 234 C 278.449219 238.148438 280.300781 242.367188 281.855469 246.808594 C 281.929688 246.957031 282.003906 247.105469 282.152344 247.179688 C 282.523438 246.734375 282.820312 246.292969 283.1875 245.773438 C 281.265625 240.886719 279.265625 236.371094 276.894531 232.074219 Z M 247.933594 201.570312 C 249.859375 202.976562 251.636719 204.382812 253.488281 205.863281 C 259.933594 211.269531 265.636719 217.636719 270.449219 224.523438 C 269.042969 227.1875 267.5625 229.855469 266.082031 232.519531 C 263.859375 229.261719 261.488281 226.226562 258.898438 223.265625 C 253.859375 217.488281 248.304688 212.15625 242.234375 207.566406 C 242.675781 207.046875 243.121094 206.457031 243.566406 205.9375 C 244.898438 204.382812 246.378906 202.902344 247.933594 201.570312 Z M 265.265625 234 C 262.304688 239.035156 259.265625 243.921875 255.933594 248.660156 C 254.75 248.289062 253.488281 247.921875 252.304688 247.550781 C 248.082031 245.996094 244.378906 243.847656 240.75 241.183594 C 237.269531 238.589844 233.9375 235.777344 230.828125 232.667969 C 231.566406 229.039062 232.605469 225.484375 233.863281 222.003906 C 235.640625 217.265625 238.085938 212.824219 241.195312 208.824219 C 242.234375 209.566406 243.195312 210.378906 244.160156 211.195312 C 252.230469 217.636719 259.339844 225.410156 265.265625 234 Z M 240.898438 196.832031 C 242.898438 198.015625 244.824219 199.273438 246.75 200.605469 C 245.566406 201.71875 244.378906 202.828125 243.269531 203.9375 C 242.453125 204.753906 241.714844 205.640625 240.972656 206.53125 C 239.195312 205.195312 237.34375 203.9375 235.492188 202.679688 C 237.121094 200.679688 238.972656 198.679688 240.898438 196.832031 Z M 228.382812 238 C 228.234375 238.886719 228.160156 239.777344 228.085938 240.664062 C 226.011719 238.664062 224.085938 236.519531 222.234375 234.296875 C 222.605469 231.777344 223.050781 229.335938 223.644531 226.890625 C 224.828125 228.371094 226.160156 229.855469 227.421875 231.261719 C 228.011719 231.851562 228.53125 232.445312 229.125 233.039062 C 228.902344 234.667969 228.605469 236.371094 228.382812 238 Z M 224.160156 225.113281 C 224.753906 223.042969 225.421875 221.042969 226.160156 219.042969 C 228.234375 213.710938 231.050781 208.601562 234.457031 204.011719 C 236.308594 205.195312 238.160156 206.53125 239.9375 207.863281 C 234.679688 214.75 231.34375 222.894531 229.492188 231.335938 C 227.714844 229.335938 225.863281 227.261719 224.160156 225.113281 Z M 251.492188 254.953125 C 246.75 253.472656 242.308594 251.328125 238.160156 248.660156 C 235.121094 246.734375 232.234375 244.515625 229.566406 242.070312 C 229.566406 241.625 229.640625 241.109375 229.714844 240.664062 C 229.9375 238.589844 230.234375 236.519531 230.605469 234.445312 C 233.195312 237.035156 235.9375 239.40625 238.898438 241.625 C 242.234375 244.21875 245.863281 246.515625 249.714844 248.144531 C 251.492188 248.882812 253.269531 249.550781 255.046875 249.992188 C 253.859375 251.695312 252.675781 253.324219 251.492188 254.953125 Z M 259.859375 256.878906 C 257.5625 256.582031 255.269531 256.066406 253.046875 255.398438 C 254.230469 253.769531 255.414062 252.066406 256.601562 250.4375 C 258.898438 251.03125 261.191406 251.402344 263.488281 251.621094 C 262.304688 253.398438 261.117188 255.101562 259.859375 256.878906 Z M 264.453125 250.140625 C 262.082031 249.992188 259.785156 249.625 257.488281 249.105469 C 259.636719 245.996094 261.636719 242.886719 263.636719 239.628906 C 264.527344 238.222656 265.339844 236.8125 266.15625 235.40625 C 266.304688 235.628906 266.453125 235.851562 266.597656 236.148438 C 267.710938 237.851562 268.820312 239.628906 269.859375 241.40625 C 268.15625 244.367188 266.304688 247.253906 264.453125 250.140625 Z M 274.152344 249.773438 C 271.5625 250.140625 268.894531 250.289062 266.230469 250.214844 C 267.785156 247.847656 269.265625 245.402344 270.746094 242.960938 C 271.933594 245.179688 273.117188 247.476562 274.152344 249.773438 Z M 270.820312 239.925781 C 269.636719 237.851562 268.375 235.925781 267.117188 233.925781 C 268.597656 231.335938 270.082031 228.667969 271.488281 226.003906 C 272.523438 227.558594 273.5625 229.1875 274.449219 230.816406 C 274.671875 231.261719 274.894531 231.632812 275.191406 232.074219 C 273.785156 234.742188 272.300781 237.332031 270.820312 239.925781 Z M 270.820312 239.925781 " fill-opacity="1" fill-rule="nonzero"/><path fill="#542d34" d="M 285.929688 200.976562 C 283.558594 196.386719 280.300781 192.3125 276.449219 188.90625 C 273.191406 186.019531 269.488281 183.578125 265.488281 181.726562 C 266.082031 182.6875 266.671875 183.648438 267.191406 184.6875 C 271.042969 192.015625 272.671875 200.382812 271.859375 208.675781 C 269.5625 232.222656 248.527344 249.476562 224.976562 247.105469 C 220.234375 246.660156 215.71875 245.402344 211.570312 243.550781 C 218.382812 254.363281 229.9375 262.0625 243.640625 263.394531 C 267.191406 265.691406 288.226562 248.511719 290.523438 224.96875 C 291.410156 216.675781 289.707031 208.308594 285.929688 200.976562 Z M 285.929688 200.976562 " fill-opacity="0.15" fill-rule="nonzero"/><path fill="#542d34" d="M 285.929688 200.976562 C 284.003906 197.199219 281.410156 193.792969 278.449219 190.832031 C 278.746094 191.425781 279.117188 191.941406 279.414062 192.535156 C 283.261719 199.867188 284.894531 208.234375 284.078125 216.527344 C 281.78125 240.070312 260.75 257.324219 237.195312 254.953125 C 226.828125 253.917969 217.71875 249.328125 210.902344 242.441406 C 217.570312 253.84375 229.492188 262.0625 243.714844 263.46875 C 267.265625 265.765625 288.300781 248.585938 290.597656 225.039062 C 291.410156 216.675781 289.707031 208.308594 285.929688 200.976562 Z M 285.929688 200.976562 " fill-opacity="0.15" fill-rule="nonzero"/><path fill="#f0b49e" d="M 354.511719 227.855469 C 360.289062 234.148438 365.027344 241.480469 368.214844 249.476562 C 373.398438 262.285156 374.804688 276.5 372.066406 290.125 C 364.289062 328.925781 326.589844 354.101562 287.78125 346.324219 C 248.972656 338.550781 223.789062 300.863281 231.492188 262.0625 C 239.269531 223.265625 276.96875 198.089844 315.777344 205.789062 C 330.738281 208.824219 344.292969 216.746094 354.511719 227.855469 Z M 354.511719 227.855469 " fill-opacity="1" fill-rule="nonzero"/><path fill="#542d34" d="M 371.25 258.953125 C 371.175781 258.582031 371.027344 258.140625 370.953125 257.769531 C 370.582031 257.695312 370.140625 257.769531 369.992188 258.140625 C 363.621094 270.726562 356.585938 282.945312 348.882812 294.789062 C 348.21875 295.828125 347.476562 296.863281 346.808594 297.898438 C 345.03125 293.902344 343.105469 289.976562 341.03125 286.203125 C 344.882812 280.351562 348.585938 274.355469 352.066406 268.28125 C 356.289062 261.101562 360.214844 253.695312 363.917969 246.292969 C 364.363281 245.402344 364.808594 244.441406 365.25 243.550781 C 365.25 243.476562 365.324219 243.476562 365.324219 243.402344 C 365.175781 243.183594 365.027344 242.886719 364.957031 242.664062 C 364.585938 242.515625 364.066406 242.589844 363.84375 243.035156 C 360.214844 250.4375 356.289062 257.769531 352.214844 264.949219 C 348.363281 271.613281 344.367188 278.203125 340.144531 284.644531 C 338.367188 281.535156 336.589844 278.5 334.589844 275.464844 C 329.480469 267.617188 323.703125 260.210938 317.332031 253.324219 C 313.851562 249.550781 310.148438 245.996094 306.296875 242.589844 C 309.332031 240.441406 312.445312 238.367188 315.628906 236.445312 C 324.441406 231.113281 333.773438 226.226562 343.699219 223.339844 C 344.808594 222.96875 345.996094 222.671875 347.105469 222.449219 C 347.625 222.300781 347.773438 221.855469 347.699219 221.488281 C 347.476562 221.339844 347.253906 221.117188 347.03125 220.894531 C 346.957031 220.894531 346.882812 220.894531 346.882812 220.894531 C 336.738281 223.339844 327.109375 227.929688 318.148438 233.1875 C 313.703125 235.777344 309.257812 238.515625 305.039062 241.554688 C 301.851562 238.8125 298.59375 236.148438 295.261719 233.628906 C 295.261719 233.628906 295.1875 233.554688 295.1875 233.554688 C 298.296875 231.261719 301.558594 229.113281 304.964844 227.113281 C 313.925781 222.003906 323.703125 218.304688 333.847656 216.15625 C 335.183594 215.859375 336.441406 215.636719 337.773438 215.414062 C 338.21875 215.339844 338.367188 215.046875 338.367188 214.675781 C 337.996094 214.453125 337.550781 214.15625 337.179688 213.933594 C 326.8125 215.785156 316.738281 219.117188 307.40625 224.003906 C 302.667969 226.523438 298.148438 229.335938 293.929688 232.519531 C 285.855469 226.597656 277.265625 221.414062 268.304688 216.894531 C 267.117188 216.304688 265.859375 215.710938 264.601562 215.117188 C 263.710938 214.675781 263.117188 216.15625 264.007812 216.527344 C 273.5625 221.042969 282.746094 226.449219 291.410156 232.59375 C 291.78125 232.890625 292.226562 233.1875 292.59375 233.480469 C 289.335938 236 286.300781 238.738281 283.335938 241.625 C 282.894531 242.070312 282.375 242.589844 281.929688 243.109375 C 281.117188 242.441406 280.300781 241.847656 279.484375 241.183594 C 271.859375 235.40625 263.785156 230.222656 255.414062 225.78125 C 254.378906 225.261719 253.34375 224.671875 252.304688 224.152344 C 252.304688 224.152344 252.304688 224.152344 252.230469 224.152344 C 251.933594 224.449219 251.636719 224.746094 251.34375 225.039062 C 251.34375 225.261719 251.492188 225.484375 251.785156 225.632812 C 260.230469 229.929688 268.304688 234.890625 275.929688 240.441406 C 277.632812 241.699219 279.339844 242.960938 280.96875 244.292969 C 275.042969 250.660156 270.007812 257.695312 265.859375 265.320312 C 263.636719 269.320312 261.710938 273.539062 260.007812 277.761719 C 257.933594 274.503906 256.082031 271.097656 254.304688 267.617188 C 249.714844 258.433594 246.304688 248.660156 244.75 238.515625 C 244.601562 237.257812 244.378906 236 244.304688 234.742188 C 244.230469 234.296875 243.9375 234.074219 243.566406 234.148438 C 243.269531 234.519531 243.046875 234.890625 242.824219 235.257812 C 243.9375 245.550781 247.046875 255.621094 251.34375 265.023438 C 253.636719 270.058594 256.378906 274.871094 259.265625 279.539062 C 257.636719 283.832031 256.304688 288.199219 255.195312 292.644531 C 252.378906 288.199219 249.859375 283.609375 247.566406 278.945312 C 243.492188 270.578125 240.234375 261.914062 237.640625 253.03125 C 237.269531 251.917969 236.972656 250.808594 236.679688 249.699219 C 236.457031 248.957031 235.492188 248.957031 235.195312 249.402344 C 235.195312 249.476562 235.121094 249.476562 235.121094 249.550781 C 235.121094 249.625 235.121094 249.773438 235.121094 249.917969 C 237.640625 258.953125 240.75 267.914062 244.675781 276.5 C 247.566406 282.796875 250.898438 288.941406 254.675781 294.789062 C 252.453125 304.34375 251.417969 314.191406 251.566406 323.964844 C 251.566406 325.074219 251.636719 326.183594 251.636719 327.296875 C 252.007812 327.667969 252.378906 327.960938 252.675781 328.332031 C 252.972656 328.183594 253.195312 327.960938 253.121094 327.519531 C 252.75 317.375 253.5625 307.15625 255.636719 297.160156 C 255.710938 296.9375 255.710938 296.714844 255.785156 296.492188 C 256.75 297.898438 257.710938 299.308594 258.675781 300.640625 C 260.75 303.527344 263.042969 306.265625 265.339844 309.007812 C 263.933594 317.078125 263.265625 325.371094 263.5625 333.515625 C 263.5625 334.625 263.636719 335.738281 263.710938 336.773438 C 264.15625 337.070312 264.527344 337.292969 264.96875 337.515625 C 265.117188 337.367188 265.265625 337.144531 265.265625 336.847656 C 264.671875 328.035156 265.191406 319.078125 266.671875 310.339844 C 270.082031 314.042969 273.710938 317.523438 277.632812 320.707031 C 284.746094 326.554688 292.59375 331.441406 300.964844 335.144531 C 298.296875 338.105469 295.484375 341.066406 292.742188 343.957031 C 292.003906 344.695312 291.335938 345.4375 290.597656 346.175781 C 290.449219 346.324219 290.375 346.472656 290.375 346.621094 C 290.964844 346.695312 291.484375 346.769531 292.003906 346.84375 C 295.558594 343.214844 299.039062 339.511719 302.445312 335.738281 C 306.371094 337.367188 310.445312 338.699219 314.59375 339.734375 C 312.59375 342.03125 310.519531 344.324219 308.445312 346.621094 C 308.296875 346.769531 308.222656 346.992188 308.296875 347.140625 C 308.964844 347.066406 309.628906 346.992188 310.222656 346.917969 C 312.296875 344.695312 314.296875 342.402344 316.296875 340.105469 C 319.925781 340.921875 323.628906 341.511719 327.332031 341.808594 C 327.921875 341.882812 328.515625 341.882812 329.183594 341.957031 C 329.921875 341.660156 330.738281 341.289062 331.480469 340.921875 C 331.40625 340.699219 331.183594 340.476562 330.886719 340.476562 C 326.367188 340.328125 321.925781 339.734375 317.554688 338.773438 C 320.148438 335.738281 322.738281 332.699219 325.183594 329.589844 C 329.257812 330.257812 333.332031 330.554688 337.402344 330.480469 C 338.886719 330.480469 340.292969 330.40625 341.773438 330.332031 C 342.144531 331.441406 342.515625 332.480469 342.808594 333.589844 C 342.882812 333.8125 343.03125 334.035156 343.253906 334.183594 C 343.625 333.886719 343.996094 333.664062 344.367188 333.441406 C 344.367188 333.441406 344.367188 333.441406 344.367188 333.367188 C 342.367188 326.777344 339.996094 320.410156 337.253906 314.117188 C 340.441406 309.746094 343.550781 305.378906 346.511719 300.9375 C 349.253906 307.453125 351.550781 314.117188 353.402344 320.929688 C 353.699219 321.964844 353.917969 322.925781 354.214844 323.964844 C 354.289062 324.1875 354.363281 324.335938 354.585938 324.40625 C 354.957031 324.039062 355.328125 323.59375 355.625 323.222656 C 353.550781 315.078125 350.882812 307.082031 347.625 299.382812 C 351.992188 292.867188 356.140625 286.203125 360.066406 279.390625 C 363.992188 272.875 367.695312 265.988281 371.25 258.953125 Z M 305.113281 243.625 C 308.148438 246.292969 311.109375 249.105469 313.925781 252.066406 C 320.441406 258.730469 326.367188 265.988281 331.550781 273.6875 C 334.292969 277.761719 336.8125 281.90625 339.179688 286.203125 C 336.21875 290.71875 333.109375 295.234375 329.921875 299.675781 C 326.664062 293.753906 323.109375 288.050781 319.183594 282.5 C 313.703125 274.652344 307.554688 267.246094 300.890625 260.359375 C 298.519531 257.917969 296.078125 255.546875 293.632812 253.25 C 294.519531 252.363281 295.410156 251.476562 296.296875 250.660156 C 298.816406 248.363281 301.484375 246.21875 304.222656 244.21875 C 304.59375 243.996094 304.890625 243.773438 305.113281 243.625 Z M 329.035156 301.011719 C 327.777344 302.789062 326.441406 304.5625 325.109375 306.339844 C 320.515625 312.5625 315.628906 318.558594 310.667969 324.480469 C 308.964844 323.816406 307.335938 323.148438 305.703125 322.410156 C 301.558594 320.484375 297.484375 318.1875 293.78125 315.449219 C 291.335938 313.671875 288.964844 311.746094 286.746094 309.671875 C 281.042969 304.5625 275.78125 298.9375 270.894531 293.011719 C 272.746094 287.089844 274.96875 281.316406 277.707031 275.835938 C 281.558594 267.988281 286.597656 260.65625 292.59375 254.289062 C 294.226562 255.769531 295.855469 257.324219 297.410156 258.953125 C 304.074219 265.617188 310.296875 272.800781 315.851562 280.425781 C 320.738281 287.015625 325.109375 293.902344 329.035156 301.011719 Z M 294.003906 234.59375 C 297.410156 237.109375 300.667969 239.777344 303.925781 242.589844 C 301.558594 244.367188 299.1875 246.21875 296.964844 248.144531 C 295.484375 249.476562 294.003906 250.808594 292.667969 252.214844 C 289.632812 249.476562 286.523438 246.808594 283.335938 244.21875 C 286.597656 240.738281 290.152344 237.480469 294.003906 234.59375 Z M 265.5625 269.320312 C 269.933594 260.65625 275.5625 252.585938 282.152344 245.402344 C 282.152344 245.402344 282.226562 245.328125 282.226562 245.328125 C 285.410156 247.847656 288.523438 250.511719 291.558594 253.324219 C 289.78125 255.175781 288.152344 257.101562 286.597656 259.101562 C 283.410156 263.101562 280.597656 267.320312 278.152344 271.835938 C 274.746094 278.128906 271.933594 284.792969 269.785156 291.679688 C 266.671875 287.757812 263.710938 283.683594 261.042969 279.464844 C 262.378906 275.984375 263.859375 272.578125 265.5625 269.320312 Z M 266.96875 302.046875 C 266.597656 303.75 266.230469 305.453125 265.859375 307.230469 C 264.527344 305.75 263.265625 304.195312 262.082031 302.640625 C 260.082031 300.046875 258.15625 297.382812 256.378906 294.570312 C 257.414062 290.050781 258.75 285.609375 260.378906 281.316406 C 262.453125 284.5 264.671875 287.609375 266.96875 290.644531 C 267.710938 291.605469 268.449219 292.570312 269.265625 293.53125 C 268.375 296.269531 267.636719 299.160156 266.96875 302.046875 Z M 302.222656 334.183594 C 294.742188 331 287.78125 326.777344 281.335938 321.890625 C 276.226562 317.964844 271.488281 313.523438 267.191406 308.710938 C 267.339844 307.894531 267.488281 307.082031 267.636719 306.265625 C 268.375 302.492188 269.339844 298.640625 270.375 294.9375 C 274.597656 300.046875 279.191406 304.933594 284.003906 309.453125 C 289.335938 314.414062 295.039062 318.78125 301.484375 322.1875 C 304.074219 323.59375 306.816406 324.777344 309.554688 325.816406 C 307.1875 328.628906 304.742188 331.367188 302.222656 334.183594 Z M 316 338.699219 C 312.222656 337.808594 308.519531 336.625 304.890625 335.21875 C 304.519531 335.070312 304.148438 334.921875 303.777344 334.773438 C 305.410156 332.921875 307.039062 331.070312 308.667969 329.222656 C 309.480469 328.257812 310.371094 327.296875 311.183594 326.257812 C 315.257812 327.738281 319.40625 328.851562 323.628906 329.589844 C 321.109375 332.699219 318.515625 335.738281 316 338.699219 Z M 324.664062 328.257812 C 320.441406 327.519531 316.222656 326.480469 312.148438 325.074219 C 316.371094 320.113281 320.441406 315.003906 324.367188 309.820312 C 326.21875 307.453125 327.996094 305.007812 329.773438 302.566406 C 330.144531 303.230469 330.441406 303.898438 330.8125 304.492188 C 332.441406 307.675781 333.996094 310.933594 335.476562 314.191406 C 331.996094 318.929688 328.367188 323.667969 324.664062 328.257812 Z M 341.328125 329.148438 C 336.367188 329.441406 331.332031 329.222656 326.441406 328.554688 C 329.773438 324.40625 333.035156 320.113281 336.21875 315.820312 C 338.144531 320.1875 339.847656 324.628906 341.328125 329.148438 Z M 336.589844 312.785156 C 335.699219 310.859375 334.8125 308.933594 333.847656 307.007812 C 332.886719 305.082031 331.847656 303.082031 330.8125 301.160156 C 333.550781 297.308594 336.292969 293.457031 338.886719 289.535156 C 339.253906 288.941406 339.699219 288.347656 340.070312 287.683594 C 341.699219 290.71875 343.253906 293.828125 344.660156 296.9375 C 345.03125 297.753906 345.402344 298.566406 345.773438 299.457031 C 342.808594 303.972656 339.699219 308.414062 336.589844 312.785156 Z M 336.589844 312.785156 " fill-opacity="1" fill-rule="nonzero"/><path fill="#542d34" d="M 368.214844 249.476562 C 364.957031 241.480469 360.289062 234.148438 354.511719 227.855469 C 349.550781 222.449219 343.773438 217.785156 337.402344 214.082031 C 338.292969 215.785156 339.03125 217.5625 339.773438 219.339844 C 344.957031 232.148438 346.367188 246.367188 343.625 259.988281 C 335.847656 298.789062 298.148438 323.964844 259.339844 316.1875 C 251.492188 314.632812 244.230469 311.820312 237.714844 308.117188 C 247.269531 327.222656 265.265625 341.882812 287.78125 346.398438 C 326.589844 354.175781 364.363281 328.925781 372.066406 290.125 C 374.804688 276.574219 373.398438 262.359375 368.214844 249.476562 Z M 368.214844 249.476562 " fill-opacity="0.15" fill-rule="nonzero"/><path fill="#542d34" d="M 368.214844 249.476562 C 365.546875 242.886719 361.917969 236.8125 357.476562 231.335938 C 357.917969 232.296875 358.363281 233.332031 358.734375 234.296875 C 363.917969 247.105469 365.324219 261.324219 362.585938 274.945312 C 354.808594 313.746094 317.109375 338.921875 278.300781 331.21875 C 261.265625 327.8125 246.824219 318.632812 236.679688 306.046875 C 245.9375 326.109375 264.378906 341.660156 287.78125 346.324219 C 326.589844 354.101562 364.363281 328.851562 372.066406 290.050781 C 374.804688 276.574219 373.398438 262.359375 368.214844 249.476562 Z M 368.214844 249.476562 " fill-opacity="0.15" fill-rule="nonzero"/><path fill="#8a4654" d="M 235.34375 200.753906 C 243.121094 207.714844 249.640625 216.007812 254.527344 225.261719 C 262.304688 240.144531 265.710938 257.175781 264.082031 273.910156 C 259.339844 321.816406 216.753906 356.765625 168.910156 352.027344 C 121.066406 347.289062 86.109375 304.636719 90.847656 256.804688 C 95.585938 208.972656 138.175781 174.023438 186.019531 178.761719 C 204.386719 180.539062 221.71875 188.539062 235.34375 200.753906 Z M 235.34375 200.753906 " fill-opacity="1" fill-rule="nonzero"/><path fill="#542d34" d="M 235.34375 288.347656 C 235.789062 287.535156 236.234375 286.644531 236.679688 285.832031 C 240.675781 278.277344 244.453125 270.578125 248.007812 262.804688 C 251.566406 254.953125 254.972656 247.03125 258.15625 239.035156 C 258.527344 238.074219 258.898438 237.109375 259.265625 236.148438 C 259.117188 235.777344 259.042969 235.480469 258.898438 235.109375 C 258.527344 234.960938 258.007812 235.035156 257.859375 235.480469 C 254.75 243.476562 251.417969 251.402344 247.933594 259.175781 C 244.453125 266.949219 240.75 274.652344 236.824219 282.203125 C 236.085938 283.683594 235.269531 285.238281 234.457031 286.71875 C 231.789062 281.980469 228.902344 277.390625 225.863281 272.875 C 229.863281 265.320312 233.566406 257.621094 237.121094 249.773438 C 241.269531 240.589844 245.195312 231.335938 248.824219 221.929688 C 249.269531 220.746094 249.714844 219.5625 250.15625 218.378906 C 250.527344 217.414062 249.046875 216.894531 248.75 217.785156 C 245.195312 227.1875 241.417969 236.519531 237.269531 245.699219 C 233.417969 254.363281 229.273438 262.953125 224.902344 271.394531 C 222.382812 267.765625 219.71875 264.210938 216.976562 260.730469 C 209.867188 251.84375 202.015625 243.625 193.5 236.074219 C 188.757812 231.925781 183.796875 227.929688 178.761719 224.226562 C 182.390625 221.117188 186.09375 218.082031 189.871094 215.265625 C 199.792969 207.789062 210.460938 200.976562 222.011719 196.3125 C 223.347656 195.792969 224.679688 195.273438 226.085938 194.757812 C 227.050781 194.460938 226.382812 193.054688 225.421875 193.351562 C 213.570312 197.496094 202.609375 204.160156 192.386719 211.492188 C 187.203125 215.191406 182.167969 219.117188 177.351562 223.339844 C 173.132812 220.300781 168.761719 217.488281 164.316406 214.75 C 164.242188 214.675781 164.171875 214.675781 164.097656 214.601562 C 167.652344 211.34375 171.429688 208.308594 175.355469 205.492188 C 185.574219 198.164062 196.980469 192.609375 208.976562 188.757812 C 210.535156 188.242188 212.015625 187.796875 213.570312 187.351562 C 214.015625 187.203125 214.238281 186.835938 214.164062 186.464844 C 213.792969 186.316406 213.421875 186.09375 213.050781 185.945312 C 200.757812 189.425781 188.90625 194.683594 178.242188 201.644531 C 172.761719 205.269531 167.578125 209.269531 162.761719 213.710938 C 152.246094 207.492188 141.210938 202.234375 129.878906 197.792969 C 128.324219 197.199219 126.84375 196.609375 125.285156 196.089844 C 124.324219 195.792969 123.804688 197.199219 124.695312 197.496094 C 136.839844 201.863281 148.617188 207.269531 159.800781 213.710938 C 160.394531 214.082031 160.984375 214.453125 161.578125 214.75 C 157.949219 218.230469 154.542969 221.855469 151.355469 225.78125 C 150.765625 226.523438 150.171875 227.1875 149.652344 227.929688 C 148.542969 227.261719 147.507812 226.523438 146.394531 225.855469 C 136.542969 219.785156 126.25 214.527344 115.511719 210.15625 C 114.175781 209.640625 112.84375 209.046875 111.511719 208.527344 C 111.4375 208.527344 111.363281 208.457031 111.289062 208.457031 C 110.992188 208.75 110.769531 209.046875 110.472656 209.34375 C 110.546875 209.566406 110.621094 209.789062 110.917969 209.9375 C 121.65625 214.082031 132.027344 219.117188 141.949219 224.96875 C 144.246094 226.300781 146.46875 227.707031 148.691406 229.113281 C 142.320312 237.480469 136.988281 246.734375 132.839844 256.4375 C 130.621094 261.691406 128.695312 267.023438 127.136719 272.503906 C 124.101562 268.578125 121.289062 264.582031 118.695312 260.433594 C 112.179688 249.992188 106.917969 238.664062 103.882812 226.742188 C 103.511719 225.261719 103.140625 223.707031 102.847656 222.226562 C 102.773438 221.710938 102.328125 221.5625 101.957031 221.636719 C 101.734375 222.003906 101.585938 222.300781 101.363281 222.671875 C 103.882812 234.964844 108.769531 246.660156 115.066406 257.398438 C 118.546875 263.320312 122.398438 268.949219 126.621094 274.355469 C 125.140625 279.90625 123.953125 285.460938 123.140625 291.164062 C 118.992188 285.90625 115.214844 280.351562 111.734375 274.652344 C 105.957031 265.097656 100.996094 255.027344 96.847656 244.664062 C 96.328125 243.402344 95.808594 242.144531 95.367188 240.886719 C 94.996094 239.996094 93.589844 240.589844 93.957031 241.554688 C 98.03125 252.140625 102.847656 262.433594 108.546875 272.207031 C 112.84375 279.539062 117.585938 286.644531 122.917969 293.308594 C 121.363281 305.082031 121.363281 317.003906 122.621094 328.777344 C 122.769531 330.257812 122.992188 331.738281 123.140625 333.144531 C 123.507812 333.441406 123.878906 333.738281 124.25 334.035156 C 124.546875 333.886719 124.769531 333.664062 124.695312 333.21875 C 122.992188 321.003906 122.769531 308.488281 124.101562 296.199219 C 124.175781 295.753906 124.175781 295.308594 124.25 294.9375 C 125.507812 296.492188 126.84375 298.046875 128.175781 299.601562 C 131.210938 302.933594 134.324219 306.191406 137.65625 309.304688 C 136.914062 319.226562 137.136719 329.296875 138.394531 339.144531 C 138.542969 340.550781 138.765625 341.882812 138.988281 343.289062 C 139.433594 343.511719 139.878906 343.734375 140.320312 343.957031 C 140.46875 343.808594 140.542969 343.585938 140.542969 343.289062 C 138.691406 332.554688 138.320312 321.519531 139.0625 310.636719 C 143.582031 314.707031 148.394531 318.484375 153.429688 321.890625 C 162.761719 328.183594 172.910156 333.21875 183.648438 336.699219 C 183.722656 336.699219 183.796875 336.773438 183.945312 336.773438 C 180.980469 340.773438 177.945312 344.769531 174.835938 348.621094 C 174.019531 349.582031 173.28125 350.621094 172.464844 351.582031 C 172.390625 351.730469 172.316406 351.878906 172.316406 351.953125 C 172.910156 351.953125 173.503906 352.027344 174.09375 352.027344 C 178.019531 347.140625 181.796875 342.179688 185.5 337.21875 C 190.609375 338.773438 195.796875 339.957031 201.054688 340.699219 C 199.5 342.917969 197.867188 345.140625 196.238281 347.363281 C 195.574219 348.175781 194.980469 349.066406 194.386719 349.878906 C 194.238281 350.101562 194.238281 350.324219 194.238281 350.472656 C 194.90625 350.324219 195.5 350.175781 196.164062 350.101562 C 198.386719 347.066406 200.609375 344.03125 202.832031 340.921875 C 207.347656 341.511719 211.941406 341.734375 216.53125 341.660156 C 217.347656 341.660156 218.160156 341.585938 218.976562 341.585938 C 219.71875 341.214844 220.382812 340.773438 221.125 340.402344 C 220.976562 340.179688 220.753906 339.957031 220.382812 340.03125 C 214.828125 340.402344 209.347656 340.179688 203.867188 339.511719 C 206.089844 336.328125 208.3125 333.070312 210.535156 329.8125 C 211.125 328.925781 211.71875 328.035156 212.3125 327.148438 C 217.199219 327.445312 222.085938 327.296875 226.976562 326.777344 C 228.828125 326.554688 230.753906 326.332031 232.605469 326.035156 C 232.605469 326.109375 232.679688 326.183594 232.679688 326.183594 C 233.269531 327.445312 233.789062 328.777344 234.382812 330.035156 C 234.457031 330.332031 234.679688 330.40625 234.898438 330.480469 C 235.195312 330.183594 235.492188 329.960938 235.789062 329.664062 C 235.789062 329.589844 235.789062 329.515625 235.714844 329.367188 C 232.53125 321.667969 228.828125 314.265625 224.753906 307.007812 C 228.160156 301.230469 231.417969 295.457031 234.53125 289.605469 C 238.675781 297.308594 242.378906 305.230469 245.417969 313.375 C 245.863281 314.558594 246.304688 315.746094 246.675781 316.929688 C 246.75 317.152344 246.824219 317.226562 246.972656 317.300781 C 247.269531 316.855469 247.640625 316.410156 247.933594 315.96875 C 244.527344 306.710938 240.308594 297.382812 235.34375 288.347656 Z M 177.574219 225.484375 C 181.648438 228.445312 185.574219 231.484375 189.425781 234.742188 C 198.089844 242.070312 206.164062 250.140625 213.421875 258.878906 C 217.199219 263.46875 220.828125 268.207031 224.160156 273.09375 C 221.050781 279.09375 217.792969 284.941406 214.386719 290.792969 C 209.644531 283.90625 204.535156 277.242188 199.128906 270.949219 C 191.574219 262.210938 183.351562 253.992188 174.539062 246.515625 C 171.355469 243.773438 168.09375 241.183594 164.761719 238.664062 C 165.800781 237.332031 166.910156 236.074219 168.019531 234.742188 C 170.761719 231.632812 173.796875 228.816406 176.835938 226.078125 C 177.058594 225.855469 177.351562 225.707031 177.574219 225.484375 Z M 213.496094 292.273438 C 212.089844 294.640625 210.683594 297.011719 209.273438 299.382812 C 204.386719 307.453125 199.277344 315.300781 193.945312 323.074219 C 191.425781 322.410156 188.832031 321.59375 186.390625 320.707031 C 181.277344 318.855469 176.390625 316.632812 171.796875 313.820312 C 168.613281 311.894531 165.503906 309.746094 162.539062 307.527344 C 155.207031 302.121094 148.320312 296.125 141.953125 289.679688 C 143.507812 282.128906 145.582031 274.722656 148.320312 267.542969 C 152.097656 257.621094 157.28125 248.289062 163.726562 239.851562 C 165.949219 241.480469 168.09375 243.253906 170.242188 244.957031 C 179.132812 252.214844 187.5 260.210938 195.128906 268.800781 C 201.792969 276.207031 207.941406 284.054688 213.496094 292.273438 Z M 163.058594 215.859375 C 167.578125 218.597656 171.945312 221.414062 176.242188 224.523438 C 173.574219 226.890625 170.984375 229.410156 168.464844 232 C 166.6875 233.851562 165.058594 235.777344 163.503906 237.777344 C 159.429688 234.742188 155.28125 231.851562 150.988281 229.039062 C 154.691406 224.375 158.691406 219.933594 163.058594 215.859375 Z M 138.617188 300.714844 C 138.320312 303.007812 138.101562 305.304688 137.878906 307.601562 C 135.804688 305.675781 133.804688 303.675781 131.878906 301.601562 C 129.359375 298.863281 126.917969 296.050781 124.546875 293.160156 C 125.285156 287.460938 126.398438 281.832031 127.878906 276.207031 C 130.695312 279.683594 133.582031 283.015625 136.617188 286.277344 C 137.804688 287.609375 139.0625 288.867188 140.320312 290.125 C 139.65625 293.605469 139.0625 297.160156 138.617188 300.714844 Z M 140.394531 288.050781 C 136.175781 283.683594 132.175781 279.09375 128.398438 274.355469 C 129.582031 269.984375 130.988281 265.691406 132.621094 261.46875 C 136.914062 250.4375 142.617188 239.996094 149.800781 230.59375 C 149.875 230.519531 149.949219 230.371094 150.023438 230.296875 C 154.320312 233.039062 158.46875 235.925781 162.539062 239.035156 C 160.761719 241.332031 159.058594 243.773438 157.503906 246.144531 C 154.023438 251.402344 151.136719 256.953125 148.617188 262.730469 C 145.0625 270.949219 142.46875 279.613281 140.617188 288.421875 C 140.542969 288.199219 140.46875 288.125 140.394531 288.050781 Z M 184.980469 335.738281 C 175.28125 332.699219 166.023438 328.332031 157.503906 322.925781 C 151.0625 318.855469 144.988281 314.191406 139.359375 309.007812 C 139.433594 307.894531 139.507812 306.785156 139.65625 305.75 C 140.101562 301.011719 140.765625 296.269531 141.65625 291.53125 C 147.210938 297.085938 153.132812 302.269531 159.355469 307.082031 C 166.097656 312.265625 173.207031 316.855469 181.054688 320.261719 C 184.980469 321.964844 189.054688 323.296875 193.128906 324.480469 C 193.054688 324.554688 192.980469 324.703125 192.90625 324.777344 C 190.3125 328.40625 187.648438 332.035156 184.980469 335.738281 Z M 202.089844 339.585938 C 197.203125 338.921875 192.386719 337.882812 187.722656 336.550781 C 187.351562 336.476562 186.90625 336.328125 186.539062 336.179688 C 188.390625 333.664062 190.242188 331.144531 192.019531 328.554688 C 192.90625 327.296875 193.796875 326.039062 194.683594 324.777344 C 199.867188 326.109375 205.128906 326.925781 210.460938 327.371094 C 207.71875 331.441406 204.980469 335.515625 202.089844 339.585938 Z M 211.421875 325.890625 C 206.089844 325.519531 200.757812 324.703125 195.574219 323.445312 C 200.089844 316.855469 204.460938 310.117188 208.683594 303.304688 C 210.609375 300.121094 212.535156 296.9375 214.457031 293.679688 C 215.050781 294.570312 215.570312 295.382812 216.164062 296.269531 C 218.53125 299.898438 220.753906 303.601562 222.902344 307.378906 C 219.273438 313.597656 215.421875 319.816406 211.421875 325.890625 Z M 231.863281 324.925781 C 225.714844 325.964844 219.421875 326.257812 213.199219 325.964844 C 216.828125 320.335938 220.382812 314.707031 223.789062 308.933594 C 226.679688 314.191406 229.34375 319.445312 231.863281 324.925781 Z M 224.457031 304.859375 C 224.234375 305.230469 224.011719 305.527344 223.863281 305.898438 C 222.53125 303.527344 221.125 301.230469 219.71875 298.9375 C 218.308594 296.640625 216.828125 294.421875 215.347656 292.199219 C 218.234375 287.164062 221.050781 282.128906 223.789062 277.019531 C 224.234375 276.207031 224.679688 275.316406 225.125 274.503906 C 227.566406 278.128906 229.863281 281.757812 232.011719 285.535156 C 232.605469 286.496094 233.121094 287.460938 233.640625 288.421875 C 230.679688 293.902344 227.640625 299.382812 224.457031 304.859375 Z M 224.457031 304.859375 " fill-opacity="1" fill-rule="nonzero"/><path fill="#542d34" d="M 254.527344 225.261719 C 249.714844 216.007812 243.121094 207.640625 235.34375 200.753906 C 228.679688 194.832031 221.125 189.871094 213.050781 186.167969 C 214.3125 188.09375 215.496094 190.167969 216.53125 192.238281 C 224.308594 207.121094 227.714844 224.152344 226.085938 240.886719 C 221.347656 288.71875 178.761719 323.667969 130.914062 318.929688 C 121.289062 317.964844 112.105469 315.449219 103.734375 311.746094 C 117.585938 333.738281 141.0625 349.285156 168.910156 352.027344 C 216.753906 356.765625 259.339844 321.816406 264.082031 273.984375 C 265.710938 257.175781 262.304688 240.144531 254.527344 225.261719 Z M 254.527344 225.261719 " fill-opacity="0.15" fill-rule="nonzero"/><path fill="#542d34" d="M 254.527344 225.261719 C 250.527344 217.636719 245.417969 210.675781 239.417969 204.605469 C 240.085938 205.714844 240.75 206.898438 241.34375 208.085938 C 249.121094 222.96875 252.527344 239.996094 250.898438 256.730469 C 246.15625 304.5625 203.570312 339.511719 155.726562 334.773438 C 134.691406 332.699219 116.175781 323.296875 102.328125 309.378906 C 115.953125 332.554688 140.101562 349.140625 168.910156 352.027344 C 216.753906 356.765625 259.339844 321.816406 264.082031 273.984375 C 265.710938 257.175781 262.304688 240.144531 254.527344 225.261719 Z M 254.527344 225.261719 " fill-opacity="0.15" fill-rule="nonzero"/><path fill="#f0d5d1" d="M 307.480469 282.425781 C 312.074219 286.496094 316 291.457031 318.886719 296.9375 C 323.480469 305.75 325.554688 315.894531 324.515625 325.816406 C 321.703125 354.175781 296.445312 374.90625 268.082031 372.09375 C 239.714844 369.277344 218.976562 344.03125 221.792969 315.671875 C 224.605469 287.3125 249.859375 266.578125 278.226562 269.394531 C 289.113281 270.503906 299.410156 275.167969 307.480469 282.425781 Z M 307.480469 282.425781 " fill-opacity="1" fill-rule="nonzero"/><path fill="#542d34" d="M 307.851562 334.402344 C 310.445312 329.441406 312.960938 324.480469 315.257812 319.375 C 317.628906 314.265625 319.777344 309.082031 321.851562 303.898438 C 321.703125 303.453125 321.480469 303.007812 321.332031 302.492188 C 321.035156 302.492188 320.664062 302.566406 320.589844 302.933594 C 316.886719 312.339844 312.742188 321.59375 308.148438 330.628906 C 307.777344 331.367188 307.40625 332.109375 307.039062 332.773438 C 305.554688 330.183594 304 327.667969 302.296875 325.222656 C 304.59375 320.78125 306.816406 316.261719 308.890625 311.746094 C 311.703125 305.601562 314.296875 299.382812 316.59375 293.085938 C 316.371094 292.71875 316.148438 292.421875 315.925781 292.050781 C 315.628906 292.050781 315.332031 292.125 315.183594 292.496094 C 311.183594 303.15625 306.519531 313.597656 301.335938 323.742188 C 299.925781 321.742188 298.445312 319.742188 296.890625 317.816406 C 292.667969 312.5625 288.003906 307.601562 282.894531 303.15625 C 280.152344 300.789062 277.339844 298.492188 274.449219 296.34375 C 276.449219 294.640625 278.523438 293.011719 280.671875 291.382812 C 286.597656 286.941406 292.890625 282.871094 299.78125 280.054688 C 300.59375 279.683594 301.410156 279.390625 302.222656 279.167969 C 302.59375 279.019531 302.742188 278.722656 302.667969 278.425781 C 302.296875 278.203125 302 277.984375 301.632812 277.761719 C 301.632812 277.761719 301.632812 277.761719 301.558594 277.761719 C 294.445312 280.203125 287.929688 284.203125 281.855469 288.570312 C 278.894531 290.71875 275.929688 293.011719 273.191406 295.382812 C 270.820312 293.679688 268.375 292.125 265.859375 290.570312 C 267.859375 288.792969 269.933594 287.089844 272.078125 285.535156 C 278.078125 281.242188 284.820312 277.910156 291.929688 275.613281 C 292.816406 275.316406 293.78125 275.019531 294.742188 274.796875 C 295.113281 274.722656 295.261719 274.429688 295.335938 274.132812 C 294.890625 273.910156 294.445312 273.6875 293.929688 273.464844 C 286.746094 275.539062 279.855469 278.574219 273.5625 282.722656 C 270.300781 284.792969 267.265625 287.164062 264.453125 289.828125 C 258.304688 286.203125 251.859375 283.089844 245.195312 280.574219 C 244.230469 280.203125 243.34375 279.832031 242.378906 279.539062 C 242.304688 279.539062 242.234375 279.539062 242.160156 279.464844 C 241.863281 279.6875 241.640625 279.832031 241.34375 280.054688 C 241.269531 280.425781 241.34375 280.796875 241.789062 280.945312 C 248.972656 283.535156 255.933594 286.71875 262.527344 290.496094 C 262.746094 290.644531 262.96875 290.792969 263.265625 290.941406 C 261.191406 292.941406 259.265625 295.011719 257.488281 297.160156 C 257.191406 297.53125 256.898438 297.902344 256.675781 298.195312 C 256.082031 297.828125 255.5625 297.457031 254.972656 297.160156 C 249.121094 293.53125 242.972656 290.421875 236.605469 287.832031 C 235.789062 287.535156 235.046875 287.164062 234.234375 286.867188 C 233.9375 287.238281 233.640625 287.609375 233.34375 287.976562 C 233.417969 288.125 233.566406 288.273438 233.714844 288.347656 C 240.085938 290.792969 246.230469 293.828125 252.082031 297.234375 C 253.34375 297.972656 254.527344 298.714844 255.785156 299.457031 C 252.082031 304.34375 248.972656 309.746094 246.527344 315.449219 C 245.269531 318.410156 244.230469 321.371094 243.34375 324.480469 C 241.714844 322.335938 240.160156 320.039062 238.675781 317.746094 C 234.828125 311.597656 231.714844 305.007812 229.9375 297.972656 C 229.714844 297.085938 229.492188 296.199219 229.34375 295.234375 C 229.273438 294.863281 228.976562 294.640625 228.679688 294.640625 C 228.382812 295.085938 228.160156 295.53125 227.9375 295.976562 C 229.492188 303.082031 232.308594 309.96875 236.011719 316.261719 C 238.085938 319.742188 240.382812 323.074219 242.824219 326.332031 C 242.011719 329.296875 241.417969 332.40625 240.898438 335.441406 C 238.601562 332.480469 236.457031 329.367188 234.53125 326.183594 C 230.753906 319.890625 227.566406 313.152344 224.902344 306.265625 C 224.679688 305.75 224.160156 305.75 223.789062 305.972656 C 223.71875 306.265625 223.644531 306.5625 223.496094 306.933594 C 227.714844 317.890625 233.269531 328.40625 240.601562 337.589844 C 239.714844 344.546875 239.640625 351.65625 240.453125 358.617188 C 240.527344 359.355469 240.601562 360.097656 240.75 360.835938 C 241.195312 361.207031 241.566406 361.503906 242.011719 361.875 C 242.234375 361.726562 242.378906 361.503906 242.308594 361.132812 C 241.269531 353.878906 241.195312 346.546875 241.9375 339.292969 C 242.527344 340.03125 243.195312 340.773438 243.789062 341.511719 C 245.566406 343.4375 247.34375 345.363281 249.269531 347.140625 C 248.824219 352.988281 248.972656 358.914062 249.714844 364.761719 C 249.785156 365.503906 249.933594 366.242188 250.082031 366.984375 C 250.527344 367.207031 251.046875 367.429688 251.566406 367.648438 C 251.636719 367.5 251.710938 367.28125 251.710938 367.058594 C 250.675781 360.910156 250.453125 354.617188 250.824219 348.398438 C 258.304688 355.0625 267.042969 360.246094 276.597656 363.429688 C 274.449219 366.316406 272.300781 369.128906 270.082031 371.871094 C 270.007812 372.019531 269.933594 372.167969 269.933594 372.242188 C 270.523438 372.242188 271.117188 372.316406 271.710938 372.316406 C 273.929688 369.5 276.078125 366.6875 278.226562 363.875 C 281.042969 364.6875 283.855469 365.355469 286.746094 365.796875 C 285.558594 367.5 284.300781 369.203125 283.042969 370.832031 C 282.894531 371.054688 282.894531 371.277344 282.894531 371.425781 C 283.558594 371.277344 284.152344 371.203125 284.820312 371.054688 C 286.078125 369.425781 287.261719 367.722656 288.449219 366.019531 C 291.335938 366.390625 294.300781 366.539062 297.261719 366.390625 C 298.003906 366.019531 298.667969 365.652344 299.410156 365.207031 C 299.261719 364.984375 299.039062 364.761719 298.667969 364.835938 C 295.632812 364.984375 292.519531 364.910156 289.484375 364.613281 C 291.039062 362.394531 292.519531 360.171875 294.078125 357.875 C 296.890625 358.023438 299.78125 357.949219 302.59375 357.652344 C 303.628906 357.578125 304.667969 357.433594 305.703125 357.210938 C 306 357.949219 306.371094 358.691406 306.667969 359.429688 C 306.742188 359.578125 306.890625 359.726562 307.039062 359.800781 C 307.40625 359.503906 307.777344 359.136719 308.148438 358.839844 C 308.148438 358.839844 308.148438 358.839844 308.148438 358.765625 C 306.296875 354.246094 304.148438 349.878906 301.777344 345.660156 C 303.628906 342.476562 305.480469 339.21875 307.261719 335.960938 C 309.628906 340.328125 311.703125 344.84375 313.40625 349.433594 C 313.703125 350.175781 313.925781 350.914062 314.222656 351.582031 C 314.296875 351.730469 314.371094 351.878906 314.519531 351.953125 C 314.886719 351.507812 315.183594 351.0625 315.554688 350.621094 C 313.183594 345.066406 310.742188 339.585938 307.851562 334.402344 Z M 273.191406 297.457031 C 275.488281 299.160156 277.78125 300.863281 279.929688 302.714844 C 285.113281 307.082031 289.855469 311.820312 294.152344 317.003906 C 296.371094 319.667969 298.445312 322.410156 300.445312 325.296875 C 298.667969 328.628906 296.890625 331.960938 294.964844 335.21875 C 292.226562 331.292969 289.335938 327.519531 286.226562 323.890625 C 281.707031 318.707031 276.820312 313.820312 271.5625 309.378906 C 269.710938 307.824219 267.859375 306.339844 266.007812 304.859375 C 266.597656 304.121094 267.117188 303.453125 267.785156 302.789062 C 269.414062 300.9375 271.265625 299.160156 273.191406 297.457031 Z M 294.152344 336.699219 C 290.597656 342.769531 286.820312 348.769531 282.820312 354.542969 C 281.339844 354.175781 279.929688 353.730469 278.449219 353.210938 C 273.265625 351.359375 268.820312 348.769531 264.453125 345.4375 C 260.15625 342.253906 256.15625 338.773438 252.453125 334.996094 C 253.34375 330.628906 254.527344 326.332031 256.15625 322.1875 C 258.378906 316.410156 261.339844 310.933594 265.117188 306.046875 C 266.304688 306.933594 267.488281 307.894531 268.671875 308.859375 C 273.929688 313.152344 278.894531 317.890625 283.410156 323 C 287.261719 327.371094 290.890625 331.960938 294.152344 336.699219 Z M 264.671875 291.828125 C 267.191406 293.308594 269.5625 294.9375 271.933594 296.566406 C 270.449219 297.898438 268.96875 299.308594 267.636719 300.714844 C 266.671875 301.75 265.710938 302.789062 264.820312 303.898438 C 262.601562 302.195312 260.304688 300.640625 257.933594 299.085938 C 260.007812 296.566406 262.230469 294.050781 264.671875 291.828125 Z M 249.785156 341.585938 C 249.640625 342.769531 249.492188 343.882812 249.417969 345.066406 C 246.824219 342.550781 244.378906 339.882812 242.085938 337.070312 C 242.527344 333.960938 243.121094 330.851562 243.863281 327.8125 C 245.34375 329.664062 246.898438 331.515625 248.601562 333.21875 C 249.34375 333.960938 250.007812 334.699219 250.75 335.515625 C 250.378906 337.589844 250.082031 339.585938 249.785156 341.585938 Z M 244.378906 326.039062 C 245.121094 323.519531 245.863281 321.003906 246.824219 318.632812 C 249.34375 312.117188 252.75 305.972656 256.898438 300.417969 C 259.265625 301.972656 261.5625 303.527344 263.785156 305.230469 C 260.527344 309.523438 257.785156 314.265625 255.710938 319.152344 C 253.710938 323.890625 252.230469 328.777344 251.121094 333.8125 C 248.75 331.292969 246.527344 328.703125 244.378906 326.039062 Z M 277.488281 362.097656 C 271.785156 360.320312 266.378906 357.726562 261.339844 354.542969 C 257.636719 352.175781 254.082031 349.433594 250.898438 346.472656 C 250.972656 345.882812 250.972656 345.289062 251.046875 344.695312 C 251.34375 342.105469 251.636719 339.511719 252.15625 336.921875 C 255.339844 340.03125 258.675781 342.992188 262.230469 345.734375 C 266.230469 348.769531 270.449219 351.582031 275.117188 353.582031 C 277.339844 354.542969 279.632812 355.359375 281.929688 356.023438 C 280.449219 357.949219 278.96875 360.023438 277.488281 362.097656 Z M 287.632812 364.390625 C 284.746094 364.023438 281.855469 363.355469 279.042969 362.539062 C 280.523438 360.46875 282.003906 358.394531 283.484375 356.320312 C 286.300781 357.0625 289.261719 357.507812 292.152344 357.726562 C 290.667969 360.023438 289.1875 362.171875 287.632812 364.390625 Z M 293.113281 356.320312 C 290.152344 356.097656 287.261719 355.65625 284.375 354.988281 C 286.964844 351.210938 289.484375 347.289062 291.929688 343.363281 C 292.964844 341.660156 294.003906 339.882812 295.039062 338.105469 C 295.261719 338.476562 295.484375 338.773438 295.707031 339.144531 C 297.113281 341.289062 298.371094 343.4375 299.632812 345.660156 C 297.632812 349.214844 295.410156 352.765625 293.113281 356.320312 Z M 304.890625 355.804688 C 301.558594 356.320312 298.222656 356.542969 294.890625 356.394531 C 296.816406 353.359375 298.742188 350.324219 300.59375 347.214844 C 302.148438 350.027344 303.628906 352.839844 304.890625 355.804688 Z M 300.667969 344.179688 C 299.925781 342.917969 299.261719 341.734375 298.445312 340.550781 C 297.632812 339.21875 296.816406 337.957031 295.929688 336.699219 C 297.78125 333.441406 299.632812 330.109375 301.410156 326.851562 C 302.742188 328.851562 304 330.851562 305.1875 332.921875 C 305.484375 333.441406 305.777344 333.960938 306.074219 334.476562 C 304.371094 337.660156 302.519531 340.921875 300.667969 344.179688 Z M 300.667969 344.179688 " fill-opacity="1" fill-rule="nonzero"/><path fill="#542d34" d="M 318.886719 296.9375 C 316 291.457031 312.148438 286.496094 307.480469 282.425781 C 303.558594 278.871094 299.039062 275.984375 294.226562 273.761719 C 294.964844 274.945312 295.632812 276.132812 296.296875 277.316406 C 300.890625 286.128906 302.964844 296.269531 301.925781 306.191406 C 299.113281 334.550781 273.859375 355.285156 245.492188 352.472656 C 239.789062 351.878906 234.382812 350.398438 229.417969 348.175781 C 237.640625 361.207031 251.566406 370.464844 268.007812 372.09375 C 296.371094 374.90625 321.628906 354.175781 324.441406 325.816406 C 325.480469 315.894531 323.480469 305.824219 318.886719 296.9375 Z M 318.886719 296.9375 " fill-opacity="0.15" fill-rule="nonzero"/><path fill="#542d34" d="M 318.886719 296.9375 C 316.519531 292.421875 313.480469 288.273438 309.925781 284.71875 C 310.296875 285.386719 310.667969 286.054688 311.039062 286.792969 C 315.628906 295.605469 317.703125 305.75 316.664062 315.671875 C 313.851562 344.03125 288.597656 364.761719 260.230469 361.949219 C 247.789062 360.691406 236.75 355.136719 228.605469 346.84375 C 236.679688 360.617188 250.972656 370.464844 268.082031 372.09375 C 296.445312 374.90625 321.703125 354.175781 324.515625 325.816406 C 325.480469 315.894531 323.480469 305.824219 318.886719 296.9375 Z M 318.886719 296.9375 " fill-opacity="0.15" fill-rule="nonzero"/><path fill="#f0b49e" d="M 88.699219 229.855469 C 93.292969 233.925781 97.21875 238.886719 100.105469 244.367188 C 104.699219 253.175781 106.769531 263.320312 105.734375 273.242188 C 102.921875 301.601562 77.664062 322.335938 49.296875 319.519531 C 20.933594 316.707031 0.195312 291.457031 3.007812 263.101562 C 5.824219 234.742188 31.078125 214.007812 59.445312 216.820312 C 70.257812 217.933594 80.628906 222.671875 88.699219 229.855469 Z M 88.699219 229.855469 " fill-opacity="1" fill-rule="nonzero"/><path fill="#542d34" d="M 89.070312 281.832031 C 91.664062 276.871094 94.179688 271.910156 96.476562 266.800781 C 98.847656 261.691406 100.996094 256.507812 103.066406 251.328125 C 102.921875 250.882812 102.699219 250.4375 102.550781 249.917969 C 102.253906 249.917969 101.882812 249.992188 101.734375 250.363281 C 98.105469 259.769531 93.882812 269.023438 89.292969 278.054688 C 88.921875 278.796875 88.550781 279.539062 88.179688 280.203125 C 86.699219 277.613281 85.144531 275.09375 83.441406 272.652344 C 85.738281 268.207031 87.960938 263.691406 90.03125 259.175781 C 92.847656 253.03125 95.441406 246.808594 97.734375 240.515625 C 97.511719 240.144531 97.292969 239.851562 97.070312 239.480469 C 96.773438 239.480469 96.476562 239.554688 96.328125 239.925781 C 92.328125 250.585938 87.664062 261.027344 82.480469 271.171875 C 81.070312 269.171875 79.589844 267.171875 78.035156 265.246094 C 73.8125 259.988281 69.074219 255.027344 64.035156 250.585938 C 61.296875 248.214844 58.480469 245.921875 55.59375 243.773438 C 57.59375 242.070312 59.742188 240.441406 61.816406 238.8125 C 67.738281 234.371094 74.035156 230.296875 80.921875 227.484375 C 81.738281 227.113281 82.550781 226.816406 83.367188 226.597656 C 83.738281 226.449219 83.886719 226.152344 83.8125 225.855469 C 83.441406 225.632812 83.144531 225.410156 82.773438 225.1875 C 82.773438 225.1875 82.699219 225.1875 82.699219 225.1875 C 75.589844 227.632812 69.074219 231.632812 63 236 C 60.039062 238.148438 57.074219 240.441406 54.335938 242.8125 C 51.964844 241.109375 49.519531 239.554688 47.078125 238 C 49.074219 236.222656 51.148438 234.519531 53.296875 232.964844 C 59.371094 228.667969 66.035156 225.335938 73.148438 223.042969 C 74.035156 222.746094 75 222.449219 75.960938 222.226562 C 76.332031 222.152344 76.480469 221.855469 76.554688 221.5625 C 76.109375 221.339844 75.664062 221.117188 75.144531 220.894531 C 67.960938 222.96875 61.074219 226.003906 54.777344 230.148438 C 51.59375 232.222656 48.484375 234.59375 45.667969 237.257812 C 39.523438 233.628906 33.078125 230.519531 26.414062 228.003906 C 25.449219 227.632812 24.5625 227.261719 23.597656 226.964844 C 23.523438 226.964844 23.449219 226.964844 23.375 226.890625 C 23.078125 227.113281 22.859375 227.261719 22.5625 227.484375 C 22.488281 227.855469 22.5625 228.226562 23.007812 228.371094 C 30.191406 230.964844 37.152344 234.148438 43.742188 237.925781 C 43.964844 238.074219 44.1875 238.222656 44.484375 238.367188 C 42.410156 240.367188 40.484375 242.441406 38.707031 244.589844 C 38.410156 244.957031 38.113281 245.328125 37.894531 245.625 C 37.300781 245.253906 36.78125 244.886719 36.1875 244.589844 C 30.339844 240.960938 24.191406 237.851562 17.820312 235.257812 C 17.007812 234.964844 16.265625 234.59375 15.453125 234.296875 C 15.15625 234.667969 14.859375 235.035156 14.5625 235.40625 C 14.636719 235.554688 14.785156 235.703125 14.933594 235.777344 C 21.300781 238.222656 27.449219 241.257812 33.300781 244.664062 C 34.558594 245.402344 35.746094 246.144531 37.003906 246.882812 C 33.300781 251.769531 30.191406 257.175781 27.746094 262.878906 C 26.488281 265.839844 25.449219 268.800781 24.5625 271.910156 C 22.933594 269.765625 21.375 267.46875 19.894531 265.171875 C 16.042969 259.027344 12.933594 252.4375 11.15625 245.402344 C 10.933594 244.515625 10.710938 243.625 10.5625 242.664062 C 10.488281 242.292969 10.191406 242.070312 9.898438 242.070312 C 9.601562 242.515625 9.378906 242.960938 9.15625 243.402344 C 10.710938 250.511719 13.527344 257.398438 17.230469 263.691406 C 19.304688 267.171875 21.597656 270.503906 24.042969 273.761719 C 23.226562 276.722656 22.636719 279.832031 22.117188 282.871094 C 19.820312 279.90625 17.671875 276.796875 15.746094 273.613281 C 11.96875 267.320312 8.785156 260.582031 6.121094 253.695312 C 5.898438 253.179688 5.378906 253.179688 5.007812 253.398438 C 4.933594 253.695312 4.859375 253.992188 4.710938 254.363281 C 8.933594 265.320312 14.488281 275.835938 21.820312 285.015625 C 20.933594 291.976562 20.859375 299.085938 21.671875 306.046875 C 21.746094 306.785156 21.820312 307.527344 21.96875 308.265625 C 22.414062 308.636719 22.785156 308.933594 23.226562 309.304688 C 23.449219 309.15625 23.597656 308.933594 23.523438 308.5625 C 22.488281 301.304688 22.414062 293.976562 23.152344 286.71875 C 23.746094 287.460938 24.414062 288.199219 25.003906 288.941406 C 26.78125 290.867188 28.5625 292.792969 30.484375 294.570312 C 30.042969 300.417969 30.191406 306.339844 30.929688 312.191406 C 31.003906 312.929688 31.152344 313.671875 31.300781 314.414062 C 31.746094 314.632812 32.265625 314.855469 32.78125 315.078125 C 32.929688 314.929688 32.929688 314.707031 32.929688 314.484375 C 31.894531 308.339844 31.671875 302.046875 32.042969 295.828125 C 39.523438 302.492188 48.261719 307.675781 57.816406 310.859375 C 55.667969 313.746094 53.519531 316.558594 51.296875 319.300781 C 51.148438 319.445312 51.148438 319.59375 51.148438 319.667969 C 51.742188 319.667969 52.335938 319.742188 52.851562 319.742188 C 55.074219 316.929688 57.222656 314.117188 59.371094 311.300781 C 62.183594 312.117188 65.074219 312.785156 67.960938 313.226562 C 66.777344 314.929688 65.519531 316.632812 64.257812 318.261719 C 64.109375 318.484375 64.109375 318.707031 64.109375 318.855469 C 64.777344 318.707031 65.371094 318.632812 66.035156 318.484375 C 67.296875 316.855469 68.480469 315.152344 69.664062 313.449219 C 72.554688 313.820312 75.515625 313.96875 78.480469 313.820312 C 79.21875 313.449219 79.886719 313.078125 80.628906 312.636719 C 80.480469 312.414062 80.257812 312.191406 79.886719 312.265625 C 76.777344 312.414062 73.738281 312.339844 70.703125 312.042969 C 72.257812 309.820312 73.8125 307.601562 75.292969 305.304688 C 78.109375 305.453125 80.996094 305.378906 83.8125 305.082031 C 84.847656 305.007812 85.886719 304.859375 86.921875 304.636719 C 87.21875 305.378906 87.589844 306.121094 87.886719 306.859375 C 87.960938 307.007812 88.105469 307.15625 88.179688 307.230469 C 88.550781 306.933594 88.921875 306.5625 89.292969 306.265625 C 89.292969 306.265625 89.292969 306.265625 89.292969 306.191406 C 87.441406 301.675781 85.292969 297.308594 82.847656 293.085938 C 84.699219 289.902344 86.550781 286.644531 88.328125 283.386719 C 90.699219 287.757812 92.699219 292.273438 94.476562 296.863281 C 94.773438 297.605469 94.996094 298.34375 95.292969 299.011719 C 95.367188 299.160156 95.441406 299.308594 95.585938 299.382812 C 95.957031 298.9375 96.253906 298.492188 96.550781 298.046875 C 94.402344 292.496094 91.882812 287.089844 89.070312 281.832031 Z M 54.410156 244.886719 C 56.703125 246.585938 59 248.289062 61.222656 250.140625 C 66.40625 254.511719 71.148438 259.25 75.441406 264.433594 C 77.664062 267.097656 79.738281 269.835938 81.738281 272.726562 C 79.960938 276.058594 78.183594 279.390625 76.257812 282.648438 C 73.515625 278.722656 70.628906 274.945312 67.519531 271.320312 C 63 266.136719 58.113281 261.25 52.851562 256.804688 C 51.074219 255.25 49.148438 253.769531 47.296875 252.289062 C 47.890625 251.546875 48.410156 250.882812 49.003906 250.214844 C 50.632812 248.363281 52.484375 246.585938 54.410156 244.886719 Z M 75.367188 284.128906 C 71.8125 290.199219 68.035156 296.199219 64.035156 301.972656 C 62.554688 301.601562 61.148438 301.160156 59.742188 300.640625 C 54.628906 298.789062 50.113281 296.199219 45.742188 292.867188 C 41.449219 289.679688 37.449219 286.203125 33.746094 282.425781 C 34.632812 278.054688 35.820312 273.761719 37.449219 269.617188 C 39.671875 263.839844 42.632812 258.359375 46.410156 253.472656 C 47.59375 254.363281 48.78125 255.324219 49.964844 256.289062 C 55.222656 260.582031 60.1875 265.320312 64.703125 270.429688 C 68.480469 274.796875 72.109375 279.390625 75.367188 284.128906 Z M 45.816406 239.257812 C 48.261719 240.738281 50.707031 242.367188 53.074219 243.996094 C 51.59375 245.328125 50.113281 246.734375 48.78125 248.144531 C 47.816406 249.179688 46.855469 250.214844 45.964844 251.328125 C 43.742188 249.625 41.449219 248.070312 39.078125 246.515625 C 41.152344 243.996094 43.449219 241.554688 45.816406 239.257812 Z M 31.003906 289.015625 C 30.855469 290.199219 30.707031 291.308594 30.632812 292.496094 C 28.042969 289.976562 25.597656 287.3125 23.300781 284.5 C 23.746094 281.386719 24.339844 278.277344 25.078125 275.242188 C 26.5625 277.09375 28.117188 278.945312 29.820312 280.648438 C 30.558594 281.386719 31.226562 282.128906 31.96875 282.945312 C 31.597656 285.015625 31.226562 287.015625 31.003906 289.015625 Z M 25.597656 273.464844 C 26.339844 270.949219 27.152344 268.429688 28.042969 266.0625 C 30.558594 259.546875 33.96875 253.398438 38.1875 247.847656 C 40.558594 249.402344 42.855469 250.957031 45.078125 252.660156 C 41.816406 256.953125 39.078125 261.691406 37.003906 266.578125 C 35.003906 271.320312 33.523438 276.207031 32.410156 281.242188 C 29.96875 278.722656 27.746094 276.132812 25.597656 273.464844 Z M 58.703125 309.523438 C 53 307.75 47.59375 305.15625 42.558594 301.972656 C 38.855469 299.601562 35.300781 296.863281 32.042969 293.902344 C 32.117188 293.308594 32.117188 292.71875 32.191406 292.125 C 32.410156 289.535156 32.78125 286.941406 33.300781 284.351562 C 36.484375 287.460938 39.816406 290.421875 43.375 293.160156 C 47.371094 296.199219 51.59375 299.011719 56.261719 301.011719 C 58.480469 301.972656 60.777344 302.789062 63.074219 303.453125 C 61.667969 305.453125 60.1875 307.453125 58.703125 309.523438 Z M 68.777344 311.820312 C 65.886719 311.449219 63 310.785156 60.1875 309.96875 C 61.667969 307.894531 63.148438 305.824219 64.628906 303.75 C 67.445312 304.492188 70.40625 304.933594 73.292969 305.15625 C 71.886719 307.453125 70.332031 309.671875 68.777344 311.820312 Z M 74.332031 303.75 C 71.367188 303.527344 68.480469 303.082031 65.59375 302.417969 C 68.183594 298.640625 70.703125 294.714844 73.148438 290.792969 C 74.183594 289.089844 75.21875 287.3125 76.257812 285.535156 C 76.480469 285.90625 76.703125 286.203125 76.921875 286.570312 C 78.332031 288.71875 79.664062 290.867188 80.847656 293.085938 C 78.847656 296.714844 76.628906 300.195312 74.332031 303.75 Z M 86.109375 303.230469 C 82.773438 303.75 79.441406 303.972656 76.109375 303.824219 C 78.109375 300.789062 79.960938 297.753906 81.8125 294.640625 C 83.367188 297.457031 84.773438 300.34375 86.109375 303.230469 Z M 81.8125 291.605469 C 81.070312 290.347656 80.40625 289.164062 79.664062 287.976562 C 78.847656 286.644531 78.035156 285.386719 77.144531 284.128906 C 79.070312 280.871094 80.847656 277.539062 82.625 274.28125 C 83.960938 276.28125 85.21875 278.277344 86.402344 280.351562 C 86.699219 280.871094 86.996094 281.386719 87.292969 281.90625 C 85.515625 285.089844 83.738281 288.347656 81.8125 291.605469 Z M 81.8125 291.605469 " fill-opacity="1" fill-rule="nonzero"/><path fill="#542d34" d="M 100.03125 244.441406 C 97.144531 238.960938 93.292969 234 88.699219 229.929688 C 84.773438 226.375 80.257812 223.484375 75.441406 221.265625 C 76.183594 222.449219 76.851562 223.632812 77.515625 224.820312 C 82.109375 233.628906 84.183594 243.773438 83.144531 253.695312 C 80.332031 282.054688 55.074219 302.789062 26.710938 299.972656 C 21.007812 299.382812 15.601562 297.898438 10.636719 295.679688 C 18.859375 308.710938 32.78125 317.964844 49.296875 319.59375 C 77.664062 322.410156 102.921875 301.675781 105.734375 273.316406 C 106.695312 263.320312 104.625 253.25 100.03125 244.441406 Z M 100.03125 244.441406 " fill-opacity="0.15" fill-rule="nonzero"/><path fill="#542d34" d="M 100.03125 244.441406 C 97.660156 239.925781 94.625 235.777344 91.070312 232.222656 C 91.441406 232.890625 91.808594 233.554688 92.179688 234.296875 C 96.773438 243.109375 98.847656 253.25 97.808594 263.171875 C 94.996094 291.53125 69.738281 312.265625 41.375 309.453125 C 28.929688 308.191406 17.894531 302.640625 9.75 294.347656 C 17.820312 308.117188 32.117188 317.964844 49.222656 319.59375 C 77.589844 322.410156 102.847656 301.675781 105.660156 273.316406 C 106.695312 263.320312 104.625 253.25 100.03125 244.441406 Z M 100.03125 244.441406 " fill-opacity="0.15" fill-rule="nonzero"/><path fill="#8a4654" d="M 146.617188 124.191406 C 141.507812 115.308594 137.0625 105.976562 133.359375 96.425781 C 129.507812 86.355469 126.621094 75.988281 126.621094 65.105469 C 126.695312 53.851562 129.730469 42.671875 136.617188 33.636719 C 142.691406 26.011719 150.988281 20.308594 160.023438 16.828125 C 180.910156 8.90625 204.015625 14.164062 222.457031 25.789062 C 231.566406 31.5625 239.9375 38.746094 246.304688 47.484375 C 252.230469 55.628906 256.378906 65.402344 256.007812 75.621094 C 255.859375 80.136719 254.601562 84.800781 251.710938 88.355469 C 248.824219 91.984375 244.230469 93.761719 239.863281 91.761719 C 235.046875 89.613281 232.382812 84.355469 232.457031 79.25 C 232.53125 73.695312 235.046875 68.4375 238.234375 63.996094 C 249.417969 48.742188 270.226562 43.632812 288.226562 45.039062 C 306.371094 46.445312 323.332031 55.035156 334.886719 69.03125 C 340.664062 75.988281 344.957031 83.988281 347.773438 92.503906 C 349.402344 97.390625 350.585938 102.496094 351.03125 107.679688 C 351.550781 113.902344 350.808594 120.121094 349.03125 126.117188 C 347.03125 133.078125 343.996094 139.816406 339.773438 145.664062 C 336.515625 150.183594 332.738281 154.179688 328.664062 157.882812 C 315.703125 169.804688 300.519531 179.28125 285.261719 188.09375 C 280.003906 191.128906 274.746094 194.015625 269.414062 196.832031 C 268.523438 197.273438 269.191406 198.679688 270.082031 198.238281 C 288.523438 188.464844 306.964844 177.875 323.183594 164.695312 C 331.921875 157.585938 340.515625 149.367188 345.550781 139.148438 C 351.253906 127.746094 354.214844 115.011719 351.847656 102.351562 C 350.140625 92.945312 346.660156 83.914062 341.625 75.769531 C 331.773438 59.996094 316 48.816406 297.78125 44.890625 C 279.414062 40.96875 257.5625 43.707031 243.046875 56.441406 C 235.640625 62.957031 228.457031 73.84375 231.417969 84.136719 C 232.753906 88.652344 236.457031 92.722656 241.121094 93.835938 C 245.492188 94.871094 249.785156 92.945312 252.601562 89.539062 C 258.972656 81.988281 258.304688 70.585938 255.488281 61.773438 C 252.230469 51.703125 245.640625 42.964844 238.011719 35.785156 C 221.496094 20.234375 198.238281 9.425781 175.058594 11.71875 C 154.691406 13.792969 135.210938 26.304688 128.25 46.078125 C 124.324219 57.332031 124.324219 69.84375 126.992188 81.394531 C 129.433594 91.835938 133.65625 101.90625 138.25 111.53125 C 140.394531 116.046875 142.691406 120.492188 145.210938 124.785156 C 145.726562 125.671875 147.136719 125.007812 146.617188 124.191406 Z M 146.617188 124.191406 " fill-opacity="1" fill-rule="nonzero"/><path fill="#f0d5d1" d="M 170.316406 245.03125 C 168.6875 243.699219 167.058594 242.441406 165.429688 241.109375 L 138.988281 253.105469 C 138.914062 253.179688 138.765625 253.179688 138.691406 253.25 C 136.839844 254.363281 117.953125 265.839844 118.324219 266.652344 C 118.695312 267.46875 139.730469 260.582031 141.730469 259.914062 C 141.804688 259.914062 141.953125 259.839844 142.023438 259.769531 L 171.945312 246.21875 C 171.355469 245.921875 170.835938 245.476562 170.316406 245.03125 Z M 170.316406 245.03125 " fill-opacity="1" fill-rule="nonzero"/><path fill="#f0b49e" d="M 170.316406 245.105469 L 142.617188 257.621094 C 142.542969 257.695312 142.394531 257.695312 142.320312 257.769531 C 140.765625 258.285156 127.285156 262.65625 121.511719 264.0625 C 119.4375 265.46875 118.101562 266.503906 118.25 266.726562 C 118.621094 267.542969 139.65625 260.65625 141.65625 259.988281 C 141.730469 259.988281 141.878906 259.914062 141.953125 259.839844 L 171.871094 246.292969 C 171.355469 245.921875 170.835938 245.476562 170.316406 245.105469 Z M 170.316406 245.105469 " fill-opacity="0.5" fill-rule="nonzero"/><path fill="#f0b49e" d="M 170.316406 245.03125 C 169.871094 244.664062 169.429688 244.292969 168.984375 243.921875 L 148.46875 253.175781 C 148.394531 253.25 148.246094 253.25 148.171875 253.324219 C 146.765625 253.769531 135.285156 257.472656 129.0625 259.101562 C 123.65625 262.507812 118.027344 266.136719 118.25 266.652344 C 118.621094 267.46875 139.65625 260.582031 141.65625 259.914062 C 141.730469 259.914062 141.878906 259.839844 141.953125 259.769531 L 171.871094 246.21875 C 171.355469 245.921875 170.835938 245.476562 170.316406 245.03125 Z M 170.316406 245.03125 " fill-opacity="0.5" fill-rule="nonzero"/><path fill="#f0d5d1" d="M 269.5625 198.460938 L 268.96875 197.050781 C 268.304688 195.570312 266.523438 194.90625 265.117188 195.570312 L 187.128906 230.890625 C 189.277344 232.59375 191.351562 234.371094 193.425781 236.148438 L 268.082031 202.382812 C 269.5625 201.71875 270.226562 199.941406 269.5625 198.460938 Z M 269.5625 198.460938 " fill-opacity="1" fill-rule="nonzero"/><path fill="#f0b49e" d="M 269.785156 199.347656 C 269.488281 199.644531 269.191406 199.941406 268.746094 200.089844 L 191.945312 234.890625 C 192.460938 235.332031 192.90625 235.703125 193.425781 236.148438 L 268.082031 202.382812 C 269.265625 201.792969 269.933594 200.605469 269.785156 199.347656 Z M 269.785156 199.347656 " fill-opacity="0.5" fill-rule="nonzero"/><path fill="#f0b49e" d="M 269.5625 198.460938 L 269.414062 198.089844 L 190.683594 233.703125 C 191.648438 234.519531 192.535156 235.332031 193.5 236.148438 L 268.15625 202.382812 C 269.5625 201.71875 270.226562 199.941406 269.5625 198.460938 Z M 269.5625 198.460938 " fill-opacity="0.5" fill-rule="nonzero"/><path fill="#f0d5d1" d="M 183.128906 198.902344 C 185.277344 197.644531 187.425781 196.460938 189.648438 195.347656 L 151.355469 124.933594 C 150.542969 123.527344 148.765625 123.007812 147.359375 123.75 L 146.023438 124.488281 C 144.617188 125.304688 144.097656 127.082031 144.839844 128.488281 Z M 183.128906 198.902344 " fill-opacity="1" fill-rule="nonzero"/><path fill="#f0b49e" d="M 183.128906 198.902344 C 183.574219 198.605469 184.019531 198.386719 184.464844 198.089844 L 144.914062 125.453125 C 144.320312 126.339844 144.246094 127.523438 144.765625 128.488281 Z M 183.128906 198.902344 " fill-opacity="0.5" fill-rule="nonzero"/><path fill="#f0b49e" d="M 183.128906 198.902344 C 183.871094 198.460938 184.613281 198.015625 185.425781 197.570312 L 145.65625 124.636719 C 144.46875 125.453125 144.023438 127.15625 144.765625 128.414062 Z M 183.128906 198.902344 " fill-opacity="0.5" fill-rule="nonzero"/></svg>