<svg xmlns="http://www.w3.org/2000/svg" xmlns:xlink="http://www.w3.org/1999/xlink" width="500" zoomAndPan="magnify" viewBox="0 0 375 262.499992" height="350" preserveAspectRatio="xMidYMid meet" version="1.0"><defs><g/></defs><g fill="#f6964b" fill-opacity="1"><g transform="translate(0.356469, 92.632018)"><g><path d="M 13.328125 -62.296875 C 13.203125 -62.296875 13.019531 -62.207031 12.78125 -62.03125 C 12.539062 -61.851562 12.300781 -61.523438 12.0625 -61.046875 C 11.820312 -60.566406 11.625 -59.875 11.46875 -58.96875 C 11.320312 -58.070312 11.25 -56.875 11.25 -55.375 L 11.25 -0.8125 L 21.421875 -0.8125 C 23.648438 -1.050781 25.675781 -1.378906 27.5 -1.796875 C 29.332031 -2.222656 31.015625 -2.71875 32.546875 -3.28125 C 34.078125 -3.851562 35.515625 -4.5 36.859375 -5.21875 C 38.210938 -5.9375 39.582031 -6.71875 40.96875 -7.5625 L 41.78125 -7.5625 L 41.78125 0.09375 L 34.03125 0.09375 L 31.6875 0 L 2.703125 0 L 2.703125 -0.8125 C 2.816406 -0.8125 2.992188 -0.882812 3.234375 -1.03125 C 3.472656 -1.1875 3.695312 -1.519531 3.90625 -2.03125 C 4.125 -2.539062 4.320312 -3.242188 4.5 -4.140625 C 4.675781 -5.035156 4.765625 -6.238281 4.765625 -7.75 L 4.765625 -55.375 C 4.765625 -56.875 4.675781 -58.070312 4.5 -58.96875 C 4.320312 -59.875 4.125 -60.566406 3.90625 -61.046875 C 3.695312 -61.523438 3.472656 -61.851562 3.234375 -62.03125 C 2.992188 -62.207031 2.816406 -62.296875 2.703125 -62.296875 L 2.703125 -63.109375 L 13.328125 -63.109375 Z M 13.328125 -62.296875 "/></g></g></g><g fill="#f6964b" fill-opacity="1"><g transform="translate(40.324406, 92.632018)"><g><path d="M 3.0625 -15.9375 C 2.28125 -18.875 2.097656 -21.78125 2.515625 -24.65625 C 2.941406 -27.539062 3.859375 -30.195312 5.265625 -32.625 C 6.671875 -35.0625 8.515625 -37.179688 10.796875 -38.984375 C 13.078125 -40.785156 15.691406 -42.078125 18.640625 -42.859375 C 21.753906 -43.691406 24.753906 -43.882812 27.640625 -43.4375 C 30.523438 -42.988281 33.132812 -42.101562 35.46875 -40.78125 C 37.8125 -39.457031 39.820312 -37.773438 41.5 -35.734375 C 43.1875 -33.703125 44.390625 -31.484375 45.109375 -29.078125 C 42.941406 -29.078125 40.613281 -28.988281 38.125 -28.8125 C 35.632812 -28.632812 33.367188 -28.300781 31.328125 -27.8125 C 33.015625 -27.875 34.5625 -27.585938 35.96875 -26.953125 C 37.375 -26.328125 38.585938 -25.472656 39.609375 -24.390625 C 40.628906 -23.316406 41.4375 -22.054688 42.03125 -20.609375 C 42.632812 -19.171875 43 -17.671875 43.125 -16.109375 C 43.363281 -12.867188 42.6875 -10.0625 41.09375 -7.6875 C 39.507812 -5.320312 37.410156 -3.460938 34.796875 -2.109375 C 32.179688 -0.765625 29.253906 0.0078125 26.015625 0.21875 C 22.773438 0.4375 19.640625 0.00390625 16.609375 -1.078125 C 13.578125 -2.160156 10.832031 -3.914062 8.375 -6.34375 C 5.914062 -8.78125 4.144531 -11.976562 3.0625 -15.9375 Z M 8.375 -22.421875 C 8.550781 -20.679688 8.820312 -19.0625 9.1875 -17.5625 C 10.320312 -13.238281 12.0625 -9.84375 14.40625 -7.375 C 16.75 -4.914062 19.285156 -3.234375 22.015625 -2.328125 C 24.742188 -1.429688 27.488281 -1.238281 30.25 -1.75 C 33.007812 -2.257812 35.410156 -3.296875 37.453125 -4.859375 C 39.492188 -6.421875 40.976562 -8.414062 41.90625 -10.84375 C 42.84375 -13.28125 42.859375 -16 41.953125 -19 C 41.472656 -20.613281 40.691406 -22.082031 39.609375 -23.40625 C 38.535156 -24.726562 37.21875 -25.703125 35.65625 -26.328125 C 34.09375 -26.960938 32.320312 -27.203125 30.34375 -27.046875 C 28.363281 -26.898438 26.257812 -26.164062 24.03125 -24.84375 C 21.875 -23.582031 19.757812 -22.695312 17.6875 -22.1875 C 15.613281 -21.675781 13.707031 -21.484375 11.96875 -21.609375 C 11.3125 -21.671875 10.679688 -21.742188 10.078125 -21.828125 C 9.484375 -21.921875 8.914062 -22.117188 8.375 -22.421875 Z M 38.171875 -29.53125 C 37.328125 -31.445312 36.242188 -33.289062 34.921875 -35.0625 C 33.609375 -36.832031 32.125 -38.347656 30.46875 -39.609375 C 28.820312 -40.867188 27.007812 -41.769531 25.03125 -42.3125 C 23.050781 -42.851562 20.976562 -42.820312 18.8125 -42.21875 C 16.769531 -41.6875 15.054688 -40.757812 13.671875 -39.4375 C 12.296875 -38.113281 11.203125 -36.582031 10.390625 -34.84375 C 9.585938 -33.101562 9.019531 -31.210938 8.6875 -29.171875 C 8.351562 -27.128906 8.25 -25.117188 8.375 -23.140625 C 9.394531 -22.660156 10.59375 -22.359375 11.96875 -22.234375 C 13.65625 -22.117188 15.503906 -22.316406 17.515625 -22.828125 C 19.523438 -23.335938 21.578125 -24.191406 23.671875 -25.390625 C 26.191406 -26.828125 28.710938 -27.84375 31.234375 -28.4375 C 33.753906 -29.039062 36.066406 -29.40625 38.171875 -29.53125 Z M 38.171875 -29.53125 "/></g></g></g><g fill="#f6964b" fill-opacity="1"><g transform="translate(83.172954, 92.632018)"><g><path d="M 2.25 -43.390625 C 2.613281 -43.390625 3.273438 -43.476562 4.234375 -43.65625 C 5.191406 -43.84375 6.164062 -44.335938 7.15625 -45.140625 C 8.144531 -45.953125 9.015625 -47.179688 9.765625 -48.828125 C 10.515625 -50.484375 10.890625 -52.785156 10.890625 -55.734375 L 17.203125 -55.734375 C 17.203125 -52.128906 16.476562 -49.347656 15.03125 -47.390625 C 13.59375 -45.441406 11.429688 -44.109375 8.546875 -43.390625 L 22.0625 -43.390625 L 22.0625 -42.765625 L 14.21875 -42.765625 L 14.21875 -16.75 C 14.21875 -15.664062 14.273438 -14.359375 14.390625 -12.828125 C 14.515625 -11.296875 14.769531 -9.796875 15.15625 -8.328125 C 15.550781 -6.859375 16.125 -5.519531 16.875 -4.3125 C 17.625 -3.113281 18.628906 -2.304688 19.890625 -1.890625 C 21.148438 -1.472656 22.378906 -1.472656 23.578125 -1.890625 C 24.785156 -2.304688 25.882812 -2.960938 26.875 -3.859375 C 27.863281 -4.765625 28.75 -5.785156 29.53125 -6.921875 C 30.3125 -8.066406 30.941406 -9.148438 31.421875 -10.171875 C 31.785156 -11.015625 32.128906 -11.898438 32.453125 -12.828125 C 32.785156 -13.753906 33.101562 -14.726562 33.40625 -15.75 L 34.21875 -15.75 C 33.914062 -14.675781 33.597656 -13.640625 33.265625 -12.640625 C 32.929688 -11.648438 32.554688 -10.738281 32.140625 -9.90625 C 31.597656 -8.644531 30.921875 -7.410156 30.109375 -6.203125 C 29.304688 -5.003906 28.394531 -3.910156 27.375 -2.921875 C 26.351562 -1.929688 25.210938 -1.132812 23.953125 -0.53125 C 22.691406 0.0625 21.3125 0.359375 19.8125 0.359375 C 17.34375 0.359375 15.34375 -0.148438 13.8125 -1.171875 C 12.289062 -2.191406 11.09375 -3.507812 10.21875 -5.125 C 9.34375 -6.75 8.738281 -8.582031 8.40625 -10.625 C 8.082031 -12.664062 7.921875 -14.707031 7.921875 -16.75 L 7.921875 -37.265625 C 7.921875 -38.773438 7.410156 -40.066406 6.390625 -41.140625 C 5.367188 -42.222656 3.988281 -42.765625 2.25 -42.765625 Z M 2.25 -43.390625 "/></g></g></g><g fill="#f6964b" fill-opacity="1"><g transform="translate(115.129211, 92.632018)"><g/></g></g><g fill="#f6964b" fill-opacity="1"><g transform="translate(130.702022, 92.632018)"><g><path d="M 40.421875 0 L 32.140625 0 L 32.140625 -23.234375 C 31.722656 -20.523438 31.210938 -18.0625 30.609375 -15.84375 C 30.003906 -13.625 29.316406 -11.644531 28.546875 -9.90625 C 27.941406 -8.644531 27.25 -7.410156 26.46875 -6.203125 C 25.6875 -5.003906 24.769531 -3.910156 23.71875 -2.921875 C 22.664062 -1.929688 21.523438 -1.132812 20.296875 -0.53125 C 19.066406 0.0625 17.703125 0.359375 16.203125 0.359375 C 13.742188 0.359375 11.75 -0.148438 10.21875 -1.171875 C 8.6875 -2.191406 7.484375 -3.507812 6.609375 -5.125 C 5.742188 -6.75 5.144531 -8.582031 4.8125 -10.625 C 4.488281 -12.664062 4.328125 -14.707031 4.328125 -16.75 L 4.328125 -35.65625 C 4.328125 -37.15625 4.234375 -38.351562 4.046875 -39.25 C 3.867188 -40.15625 3.675781 -40.847656 3.46875 -41.328125 C 3.257812 -41.804688 3.035156 -42.132812 2.796875 -42.3125 C 2.554688 -42.488281 2.375 -42.578125 2.25 -42.578125 L 2.25 -43.390625 L 10.625 -43.390625 L 10.625 -16.75 C 10.625 -15.664062 10.679688 -14.359375 10.796875 -12.828125 C 10.921875 -11.296875 11.175781 -9.796875 11.5625 -8.328125 C 11.957031 -6.859375 12.53125 -5.519531 13.28125 -4.3125 C 14.03125 -3.113281 15.035156 -2.304688 16.296875 -1.890625 C 17.554688 -1.472656 18.785156 -1.472656 19.984375 -1.890625 C 21.179688 -2.304688 22.273438 -2.960938 23.265625 -3.859375 C 24.265625 -4.765625 25.148438 -5.785156 25.921875 -6.921875 C 26.703125 -8.066406 27.332031 -9.148438 27.8125 -10.171875 C 29.132812 -13.054688 30.1875 -16.582031 30.96875 -20.75 C 31.75 -24.925781 32.140625 -29.894531 32.140625 -35.65625 C 32.140625 -37.15625 32.046875 -38.351562 31.859375 -39.25 C 31.679688 -40.15625 31.488281 -40.847656 31.28125 -41.328125 C 31.070312 -41.804688 30.847656 -42.132812 30.609375 -42.3125 C 30.367188 -42.488281 30.191406 -42.578125 30.078125 -42.578125 L 30.078125 -43.390625 L 38.359375 -43.390625 L 38.359375 -7.75 C 38.359375 -6.238281 38.429688 -5.035156 38.578125 -4.140625 C 38.722656 -3.242188 38.914062 -2.539062 39.15625 -2.03125 C 39.40625 -1.519531 39.648438 -1.1875 39.890625 -1.03125 C 40.128906 -0.882812 40.304688 -0.8125 40.421875 -0.8125 Z M 40.421875 0 "/></g></g></g><g fill="#f6964b" fill-opacity="1"><g transform="translate(168.869581, 92.632018)"><g><path d="M 33.40625 -27.1875 C 33.40625 -28.445312 33.054688 -29.8125 32.359375 -31.28125 C 31.671875 -32.75 30.726562 -34.1875 29.53125 -35.59375 C 28.332031 -37.007812 26.96875 -38.269531 25.4375 -39.375 C 23.90625 -40.488281 22.3125 -41.300781 20.65625 -41.8125 C 19.007812 -42.320312 17.359375 -42.441406 15.703125 -42.171875 C 14.054688 -41.910156 12.570312 -41.085938 11.25 -39.703125 C 9.988281 -38.441406 9.390625 -36.957031 9.453125 -35.25 C 9.515625 -33.539062 10.234375 -31.992188 11.609375 -30.609375 C 12.628906 -29.585938 14.144531 -28.566406 16.15625 -27.546875 C 18.164062 -26.523438 20.820312 -25.597656 24.125 -24.765625 C 26.582031 -24.097656 28.648438 -23.3125 30.328125 -22.40625 C 32.015625 -21.507812 33.398438 -20.550781 34.484375 -19.53125 C 36.222656 -17.789062 37.242188 -15.835938 37.546875 -13.671875 C 37.847656 -11.515625 37.394531 -9.359375 36.1875 -7.203125 C 35.59375 -6.179688 34.890625 -5.234375 34.078125 -4.359375 C 33.265625 -3.492188 32.378906 -2.789062 31.421875 -2.25 C 30.460938 -1.59375 29.394531 -1.035156 28.21875 -0.578125 C 27.050781 -0.128906 25.835938 0.226562 24.578125 0.5 C 23.316406 0.769531 22.054688 0.945312 20.796875 1.03125 C 19.535156 1.125 18.335938 1.140625 17.203125 1.078125 C 15.035156 0.898438 12.765625 0.4375 10.390625 -0.3125 C 8.023438 -1.0625 5.550781 -2.21875 2.96875 -3.78125 L 2.25 -4.234375 L 4.40625 -14.21875 L 5.125 -14.046875 C 5.007812 -13.503906 5.128906 -12.8125 5.484375 -11.96875 C 5.847656 -11.132812 6.300781 -10.265625 6.84375 -9.359375 C 7.382812 -8.460938 7.953125 -7.640625 8.546875 -6.890625 C 9.148438 -6.140625 9.660156 -5.582031 10.078125 -5.21875 C 11.285156 -4.019531 12.609375 -3.070312 14.046875 -2.375 C 15.484375 -1.6875 16.984375 -1.195312 18.546875 -0.90625 C 20.046875 -0.601562 21.53125 -0.476562 23 -0.53125 C 24.46875 -0.59375 25.863281 -0.804688 27.1875 -1.171875 C 27.90625 -1.347656 28.566406 -1.570312 29.171875 -1.84375 C 29.773438 -2.113281 30.40625 -2.429688 31.0625 -2.796875 C 31.664062 -3.210938 32.207031 -3.660156 32.6875 -4.140625 C 33.101562 -4.617188 33.472656 -5.128906 33.796875 -5.671875 C 34.128906 -6.210938 34.359375 -6.78125 34.484375 -7.375 C 34.597656 -8.34375 34.535156 -9.21875 34.296875 -10 C 33.878906 -11.132812 33.175781 -12.109375 32.1875 -12.921875 C 31.195312 -13.734375 30.039062 -14.421875 28.71875 -14.984375 C 27.394531 -15.554688 25.96875 -16.050781 24.4375 -16.46875 C 22.90625 -16.894531 21.390625 -17.347656 19.890625 -17.828125 C 17.015625 -18.671875 14.476562 -19.867188 12.28125 -21.421875 C 10.09375 -22.984375 8.503906 -24.769531 7.515625 -26.78125 C 6.523438 -28.789062 6.222656 -30.9375 6.609375 -33.21875 C 7.003906 -35.5 8.375 -37.8125 10.71875 -40.15625 C 12.269531 -41.769531 14.320312 -42.769531 16.875 -43.15625 C 19.425781 -43.550781 22.007812 -43.550781 24.625 -43.15625 C 27.238281 -42.769531 29.609375 -42.050781 31.734375 -41 C 33.867188 -39.957031 35.328125 -38.773438 36.109375 -37.453125 L 33.859375 -27.1875 Z M 33.40625 -27.1875 "/></g></g></g><g fill="#f6964b" fill-opacity="1"><g transform="translate(0.356469, 177.782321)"><g><path d="M 2.25 -40.15625 L 10.71875 -43.390625 L 10.71875 -7.75 C 10.71875 -6.238281 10.789062 -5.035156 10.9375 -4.140625 C 11.082031 -3.242188 11.273438 -2.539062 11.515625 -2.03125 C 11.765625 -1.519531 12.007812 -1.1875 12.25 -1.03125 C 12.488281 -0.882812 12.664062 -0.8125 12.78125 -0.8125 L 12.78125 0 L 2.34375 0 L 2.34375 -0.8125 C 2.519531 -0.8125 2.726562 -0.882812 2.96875 -1.03125 C 3.207031 -1.1875 3.429688 -1.519531 3.640625 -2.03125 C 3.859375 -2.539062 4.054688 -3.242188 4.234375 -4.140625 C 4.410156 -5.035156 4.5 -6.238281 4.5 -7.75 L 4.5 -35.5625 C 4.257812 -37.1875 3.925781 -38.238281 3.5 -38.71875 C 3.082031 -39.195312 2.753906 -39.4375 2.515625 -39.4375 Z M 6.9375 -50.6875 C 5.726562 -50.6875 4.71875 -51.09375 3.90625 -51.90625 C 3.101562 -52.71875 2.703125 -53.722656 2.703125 -54.921875 C 2.703125 -56.117188 3.101562 -57.125 3.90625 -57.9375 C 4.71875 -58.75 5.726562 -59.15625 6.9375 -59.15625 C 8.132812 -59.15625 9.132812 -58.75 9.9375 -57.9375 C 10.75 -57.125 11.15625 -56.117188 11.15625 -54.921875 C 11.15625 -53.722656 10.75 -52.71875 9.9375 -51.90625 C 9.132812 -51.09375 8.132812 -50.6875 6.9375 -50.6875 Z M 6.9375 -50.6875 "/></g></g></g><g fill="#f6964b" fill-opacity="1"><g transform="translate(10.888222, 177.782321)"><g><path d="M 2.25 -43.390625 L 10.53125 -43.390625 L 10.53125 -20.078125 C 10.894531 -22.835938 11.390625 -25.328125 12.015625 -27.546875 C 12.648438 -29.765625 13.359375 -31.742188 14.140625 -33.484375 C 14.734375 -34.742188 15.421875 -35.972656 16.203125 -37.171875 C 16.984375 -38.378906 17.898438 -39.476562 18.953125 -40.46875 C 20.003906 -41.457031 21.144531 -42.25 22.375 -42.84375 C 23.601562 -43.445312 24.96875 -43.75 26.46875 -43.75 C 28.925781 -43.75 30.921875 -43.238281 32.453125 -42.21875 C 33.984375 -41.195312 35.179688 -39.875 36.046875 -38.25 C 36.921875 -36.632812 37.523438 -34.804688 37.859375 -32.765625 C 38.191406 -30.722656 38.359375 -28.6875 38.359375 -26.65625 L 38.359375 -7.75 C 38.359375 -6.238281 38.429688 -5.035156 38.578125 -4.140625 C 38.722656 -3.242188 38.914062 -2.539062 39.15625 -2.03125 C 39.40625 -1.519531 39.648438 -1.1875 39.890625 -1.03125 C 40.128906 -0.882812 40.304688 -0.8125 40.421875 -0.8125 L 40.421875 0 L 29.984375 0 L 29.984375 -0.8125 C 30.097656 -0.8125 30.273438 -0.882812 30.515625 -1.03125 C 30.753906 -1.1875 30.976562 -1.519531 31.1875 -2.03125 C 31.40625 -2.539062 31.601562 -3.242188 31.78125 -4.140625 C 31.957031 -5.035156 32.046875 -6.238281 32.046875 -7.75 L 32.046875 -26.65625 C 32.046875 -27.726562 31.984375 -29.03125 31.859375 -30.5625 C 31.742188 -32.09375 31.488281 -33.59375 31.09375 -35.0625 C 30.707031 -36.53125 30.140625 -37.863281 29.390625 -39.0625 C 28.640625 -40.269531 27.632812 -41.082031 26.375 -41.5 C 25.113281 -41.925781 23.882812 -41.910156 22.6875 -41.453125 C 21.488281 -41.003906 20.394531 -40.328125 19.40625 -39.421875 C 18.414062 -38.523438 17.53125 -37.503906 16.75 -36.359375 C 15.96875 -35.222656 15.335938 -34.144531 14.859375 -33.125 C 13.535156 -30.25 12.484375 -26.722656 11.703125 -22.546875 C 10.921875 -18.378906 10.53125 -13.445312 10.53125 -7.75 C 10.53125 -6.238281 10.601562 -5.035156 10.75 -4.140625 C 10.90625 -3.242188 11.101562 -2.539062 11.34375 -2.03125 C 11.582031 -1.519531 11.820312 -1.1875 12.0625 -1.03125 C 12.300781 -0.882812 12.484375 -0.8125 12.609375 -0.8125 L 12.609375 0 L 2.25 0 L 2.25 -0.8125 C 2.375 -0.8125 2.554688 -0.882812 2.796875 -1.03125 C 3.035156 -1.1875 3.257812 -1.519531 3.46875 -2.03125 C 3.675781 -2.539062 3.867188 -3.242188 4.046875 -4.140625 C 4.234375 -5.035156 4.328125 -6.238281 4.328125 -7.75 L 4.328125 -35.65625 C 4.328125 -37.09375 4.234375 -38.273438 4.046875 -39.203125 C 3.867188 -40.140625 3.675781 -40.847656 3.46875 -41.328125 C 3.257812 -41.804688 3.035156 -42.132812 2.796875 -42.3125 C 2.554688 -42.488281 2.375 -42.578125 2.25 -42.578125 Z M 2.25 -43.390625 "/></g></g></g><g fill="#f6964b" fill-opacity="1"><g transform="translate(49.055784, 177.782321)"><g><path d="M 33.40625 -27.1875 C 33.40625 -28.445312 33.054688 -29.8125 32.359375 -31.28125 C 31.671875 -32.75 30.726562 -34.1875 29.53125 -35.59375 C 28.332031 -37.007812 26.96875 -38.269531 25.4375 -39.375 C 23.90625 -40.488281 22.3125 -41.300781 20.65625 -41.8125 C 19.007812 -42.320312 17.359375 -42.441406 15.703125 -42.171875 C 14.054688 -41.910156 12.570312 -41.085938 11.25 -39.703125 C 9.988281 -38.441406 9.390625 -36.957031 9.453125 -35.25 C 9.515625 -33.539062 10.234375 -31.992188 11.609375 -30.609375 C 12.628906 -29.585938 14.144531 -28.566406 16.15625 -27.546875 C 18.164062 -26.523438 20.820312 -25.597656 24.125 -24.765625 C 26.582031 -24.097656 28.648438 -23.3125 30.328125 -22.40625 C 32.015625 -21.507812 33.398438 -20.550781 34.484375 -19.53125 C 36.222656 -17.789062 37.242188 -15.835938 37.546875 -13.671875 C 37.847656 -11.515625 37.394531 -9.359375 36.1875 -7.203125 C 35.59375 -6.179688 34.890625 -5.234375 34.078125 -4.359375 C 33.265625 -3.492188 32.378906 -2.789062 31.421875 -2.25 C 30.460938 -1.59375 29.394531 -1.035156 28.21875 -0.578125 C 27.050781 -0.128906 25.835938 0.226562 24.578125 0.5 C 23.316406 0.769531 22.054688 0.945312 20.796875 1.03125 C 19.535156 1.125 18.335938 1.140625 17.203125 1.078125 C 15.035156 0.898438 12.765625 0.4375 10.390625 -0.3125 C 8.023438 -1.0625 5.550781 -2.21875 2.96875 -3.78125 L 2.25 -4.234375 L 4.40625 -14.21875 L 5.125 -14.046875 C 5.007812 -13.503906 5.128906 -12.8125 5.484375 -11.96875 C 5.847656 -11.132812 6.300781 -10.265625 6.84375 -9.359375 C 7.382812 -8.460938 7.953125 -7.640625 8.546875 -6.890625 C 9.148438 -6.140625 9.660156 -5.582031 10.078125 -5.21875 C 11.285156 -4.019531 12.609375 -3.070312 14.046875 -2.375 C 15.484375 -1.6875 16.984375 -1.195312 18.546875 -0.90625 C 20.046875 -0.601562 21.53125 -0.476562 23 -0.53125 C 24.46875 -0.59375 25.863281 -0.804688 27.1875 -1.171875 C 27.90625 -1.347656 28.566406 -1.570312 29.171875 -1.84375 C 29.773438 -2.113281 30.40625 -2.429688 31.0625 -2.796875 C 31.664062 -3.210938 32.207031 -3.660156 32.6875 -4.140625 C 33.101562 -4.617188 33.472656 -5.128906 33.796875 -5.671875 C 34.128906 -6.210938 34.359375 -6.78125 34.484375 -7.375 C 34.597656 -8.34375 34.535156 -9.21875 34.296875 -10 C 33.878906 -11.132812 33.175781 -12.109375 32.1875 -12.921875 C 31.195312 -13.734375 30.039062 -14.421875 28.71875 -14.984375 C 27.394531 -15.554688 25.96875 -16.050781 24.4375 -16.46875 C 22.90625 -16.894531 21.390625 -17.347656 19.890625 -17.828125 C 17.015625 -18.671875 14.476562 -19.867188 12.28125 -21.421875 C 10.09375 -22.984375 8.503906 -24.769531 7.515625 -26.78125 C 6.523438 -28.789062 6.222656 -30.9375 6.609375 -33.21875 C 7.003906 -35.5 8.375 -37.8125 10.71875 -40.15625 C 12.269531 -41.769531 14.320312 -42.769531 16.875 -43.15625 C 19.425781 -43.550781 22.007812 -43.550781 24.625 -43.15625 C 27.238281 -42.769531 29.609375 -42.050781 31.734375 -41 C 33.867188 -39.957031 35.328125 -38.773438 36.109375 -37.453125 L 33.859375 -27.1875 Z M 33.40625 -27.1875 "/></g></g></g><g fill="#f6964b" fill-opacity="1"><g transform="translate(84.522781, 177.782321)"><g><path d="M 10.53125 -19.09375 C 10.945312 -22.09375 11.546875 -24.820312 12.328125 -27.28125 C 13.109375 -29.738281 14.039062 -31.957031 15.125 -33.9375 C 16.925781 -37.414062 19.085938 -39.9375 21.609375 -41.5 C 21.847656 -41.6875 22.207031 -41.898438 22.6875 -42.140625 C 24.25 -43.097656 25.898438 -43.695312 27.640625 -43.9375 C 29.378906 -44.175781 31.148438 -44.144531 32.953125 -43.84375 C 36.078125 -43.300781 38.644531 -42.28125 40.65625 -40.78125 C 42.664062 -39.28125 44.191406 -37.460938 45.234375 -35.328125 C 46.285156 -33.203125 46.882812 -30.894531 47.03125 -28.40625 C 47.1875 -25.914062 46.976562 -23.394531 46.40625 -20.84375 C 45.84375 -18.289062 44.914062 -15.8125 43.625 -13.40625 C 42.332031 -11.007812 40.785156 -8.878906 38.984375 -7.015625 C 36.765625 -4.734375 34.164062 -2.890625 31.1875 -1.484375 C 28.21875 -0.078125 24.90625 0.625 21.25 0.625 C 19.6875 0.625 18.019531 0.457031 16.25 0.125 C 14.476562 -0.195312 12.570312 -0.78125 10.53125 -1.625 L 10.53125 13.953125 C 10.769531 15.515625 11.097656 16.535156 11.515625 17.015625 C 11.941406 17.492188 12.242188 17.734375 12.421875 17.734375 L 12.78125 18.546875 L 4.328125 21.78125 L 4.328125 -35.5625 C 4.328125 -37.0625 4.234375 -38.257812 4.046875 -39.15625 C 3.867188 -40.0625 3.675781 -40.753906 3.46875 -41.234375 C 3.257812 -41.710938 3.035156 -42.039062 2.796875 -42.21875 C 2.554688 -42.40625 2.375 -42.5 2.25 -42.5 L 2.25 -43.3125 L 10.53125 -43.3125 Z M 10.53125 -2.34375 C 14.3125 -0.84375 17.914062 -0.09375 21.34375 -0.09375 C 24.519531 -0.207031 27.273438 -1.03125 29.609375 -2.5625 C 31.953125 -4.09375 33.875 -6.238281 35.375 -9 C 36.519531 -10.976562 37.40625 -13.363281 38.03125 -16.15625 C 38.664062 -18.945312 38.96875 -21.78125 38.9375 -24.65625 C 38.90625 -27.539062 38.515625 -30.289062 37.765625 -32.90625 C 37.015625 -35.519531 35.800781 -37.664062 34.125 -39.34375 C 32.5625 -40.90625 30.832031 -41.925781 28.9375 -42.40625 C 27.050781 -42.882812 25.085938 -42.613281 23.046875 -41.59375 C 21.910156 -40.9375 20.875 -40.140625 19.9375 -39.203125 C 19.007812 -38.273438 18.125 -37.210938 17.28125 -36.015625 C 15.78125 -33.796875 14.550781 -31.304688 13.59375 -28.546875 C 12.632812 -25.785156 11.914062 -22.992188 11.4375 -20.171875 L 10.890625 -16.296875 C 10.710938 -14.378906 10.625 -12.398438 10.625 -10.359375 L 10.53125 -10.359375 Z M 10.53125 -2.34375 "/></g></g></g><g fill="#f6964b" fill-opacity="1"><g transform="translate(129.441753, 177.782321)"><g><path d="M 2.25 -40.15625 L 10.71875 -43.390625 L 10.71875 -7.75 C 10.71875 -6.238281 10.789062 -5.035156 10.9375 -4.140625 C 11.082031 -3.242188 11.273438 -2.539062 11.515625 -2.03125 C 11.765625 -1.519531 12.007812 -1.1875 12.25 -1.03125 C 12.488281 -0.882812 12.664062 -0.8125 12.78125 -0.8125 L 12.78125 0 L 2.34375 0 L 2.34375 -0.8125 C 2.519531 -0.8125 2.726562 -0.882812 2.96875 -1.03125 C 3.207031 -1.1875 3.429688 -1.519531 3.640625 -2.03125 C 3.859375 -2.539062 4.054688 -3.242188 4.234375 -4.140625 C 4.410156 -5.035156 4.5 -6.238281 4.5 -7.75 L 4.5 -35.5625 C 4.257812 -37.1875 3.925781 -38.238281 3.5 -38.71875 C 3.082031 -39.195312 2.753906 -39.4375 2.515625 -39.4375 Z M 6.9375 -50.6875 C 5.726562 -50.6875 4.71875 -51.09375 3.90625 -51.90625 C 3.101562 -52.71875 2.703125 -53.722656 2.703125 -54.921875 C 2.703125 -56.117188 3.101562 -57.125 3.90625 -57.9375 C 4.71875 -58.75 5.726562 -59.15625 6.9375 -59.15625 C 8.132812 -59.15625 9.132812 -58.75 9.9375 -57.9375 C 10.75 -57.125 11.15625 -56.117188 11.15625 -54.921875 C 11.15625 -53.722656 10.75 -52.71875 9.9375 -51.90625 C 9.132812 -51.09375 8.132812 -50.6875 6.9375 -50.6875 Z M 6.9375 -50.6875 "/></g></g></g><g fill="#f6964b" fill-opacity="1"><g transform="translate(139.973502, 177.782321)"><g><path d="M 34.65625 -34.75 C 35.132812 -32.46875 35.738281 -31.414062 36.46875 -31.59375 L 36.734375 -30.875 L 31.875 -28.984375 L 31.59375 -28.90625 L 26.921875 -27.09375 L 26.921875 -27.90625 C 27.578125 -28.332031 28.023438 -29.007812 28.265625 -29.9375 C 28.503906 -30.863281 28.625 -31.75 28.625 -32.59375 C 28.507812 -33.613281 28.34375 -34.617188 28.125 -35.609375 C 27.914062 -36.597656 27.601562 -37.507812 27.1875 -38.34375 C 26.769531 -39.1875 26.210938 -39.894531 25.515625 -40.46875 C 24.828125 -41.039062 24.003906 -41.382812 23.046875 -41.5 C 20.523438 -41.863281 18.484375 -41.742188 16.921875 -41.140625 C 15.359375 -40.546875 14.128906 -39.644531 13.234375 -38.4375 C 12.335938 -37.238281 11.691406 -35.84375 11.296875 -34.25 C 10.910156 -32.664062 10.6875 -31.03125 10.625 -29.34375 L 10.625 -7.75 C 10.625 -6.238281 10.695312 -5.035156 10.84375 -4.140625 C 11 -3.242188 11.195312 -2.539062 11.4375 -2.03125 C 11.675781 -1.519531 11.914062 -1.1875 12.15625 -1.03125 C 12.394531 -0.882812 12.570312 -0.8125 12.6875 -0.8125 L 12.6875 0 L 2.25 0 L 2.25 -0.8125 C 2.425781 -0.8125 2.632812 -0.882812 2.875 -1.03125 C 3.113281 -1.1875 3.335938 -1.519531 3.546875 -2.03125 C 3.765625 -2.539062 3.960938 -3.242188 4.140625 -4.140625 C 4.316406 -5.035156 4.40625 -6.238281 4.40625 -7.75 L 4.40625 -35.65625 C 4.40625 -37.15625 4.316406 -38.351562 4.140625 -39.25 C 3.960938 -40.15625 3.765625 -40.847656 3.546875 -41.328125 C 3.335938 -41.804688 3.113281 -42.132812 2.875 -42.3125 C 2.632812 -42.488281 2.425781 -42.578125 2.25 -42.578125 L 2.25 -43.390625 L 10.625 -43.390625 L 10.625 -34.84375 C 10.925781 -36.101562 11.375 -37.285156 11.96875 -38.390625 C 12.570312 -39.503906 13.367188 -40.453125 14.359375 -41.234375 C 15.347656 -42.015625 16.5625 -42.628906 18 -43.078125 C 19.445312 -43.523438 21.191406 -43.75 23.234375 -43.75 C 26.648438 -43.75 29.273438 -42.910156 31.109375 -41.234375 C 32.941406 -39.554688 34.125 -37.394531 34.65625 -34.75 Z M 34.65625 -34.75 "/></g></g></g><g fill="#f6964b" fill-opacity="1"><g transform="translate(174.450289, 177.782321)"><g><path d="M 3.0625 -15.9375 C 2.28125 -18.875 2.097656 -21.78125 2.515625 -24.65625 C 2.941406 -27.539062 3.859375 -30.195312 5.265625 -32.625 C 6.671875 -35.0625 8.515625 -37.179688 10.796875 -38.984375 C 13.078125 -40.785156 15.691406 -42.078125 18.640625 -42.859375 C 21.753906 -43.691406 24.753906 -43.882812 27.640625 -43.4375 C 30.523438 -42.988281 33.132812 -42.101562 35.46875 -40.78125 C 37.8125 -39.457031 39.820312 -37.773438 41.5 -35.734375 C 43.1875 -33.703125 44.390625 -31.484375 45.109375 -29.078125 C 42.941406 -29.078125 40.613281 -28.988281 38.125 -28.8125 C 35.632812 -28.632812 33.367188 -28.300781 31.328125 -27.8125 C 33.015625 -27.875 34.5625 -27.585938 35.96875 -26.953125 C 37.375 -26.328125 38.585938 -25.472656 39.609375 -24.390625 C 40.628906 -23.316406 41.4375 -22.054688 42.03125 -20.609375 C 42.632812 -19.171875 43 -17.671875 43.125 -16.109375 C 43.363281 -12.867188 42.6875 -10.0625 41.09375 -7.6875 C 39.507812 -5.320312 37.410156 -3.460938 34.796875 -2.109375 C 32.179688 -0.765625 29.253906 0.0078125 26.015625 0.21875 C 22.773438 0.4375 19.640625 0.00390625 16.609375 -1.078125 C 13.578125 -2.160156 10.832031 -3.914062 8.375 -6.34375 C 5.914062 -8.78125 4.144531 -11.976562 3.0625 -15.9375 Z M 8.375 -22.421875 C 8.550781 -20.679688 8.820312 -19.0625 9.1875 -17.5625 C 10.320312 -13.238281 12.0625 -9.84375 14.40625 -7.375 C 16.75 -4.914062 19.285156 -3.234375 22.015625 -2.328125 C 24.742188 -1.429688 27.488281 -1.238281 30.25 -1.75 C 33.007812 -2.257812 35.410156 -3.296875 37.453125 -4.859375 C 39.492188 -6.421875 40.976562 -8.414062 41.90625 -10.84375 C 42.84375 -13.28125 42.859375 -16 41.953125 -19 C 41.472656 -20.613281 40.691406 -22.082031 39.609375 -23.40625 C 38.535156 -24.726562 37.21875 -25.703125 35.65625 -26.328125 C 34.09375 -26.960938 32.320312 -27.203125 30.34375 -27.046875 C 28.363281 -26.898438 26.257812 -26.164062 24.03125 -24.84375 C 21.875 -23.582031 19.757812 -22.695312 17.6875 -22.1875 C 15.613281 -21.675781 13.707031 -21.484375 11.96875 -21.609375 C 11.3125 -21.671875 10.679688 -21.742188 10.078125 -21.828125 C 9.484375 -21.921875 8.914062 -22.117188 8.375 -22.421875 Z M 38.171875 -29.53125 C 37.328125 -31.445312 36.242188 -33.289062 34.921875 -35.0625 C 33.609375 -36.832031 32.125 -38.347656 30.46875 -39.609375 C 28.820312 -40.867188 27.007812 -41.769531 25.03125 -42.3125 C 23.050781 -42.851562 20.976562 -42.820312 18.8125 -42.21875 C 16.769531 -41.6875 15.054688 -40.757812 13.671875 -39.4375 C 12.296875 -38.113281 11.203125 -36.582031 10.390625 -34.84375 C 9.585938 -33.101562 9.019531 -31.210938 8.6875 -29.171875 C 8.351562 -27.128906 8.25 -25.117188 8.375 -23.140625 C 9.394531 -22.660156 10.59375 -22.359375 11.96875 -22.234375 C 13.65625 -22.117188 15.503906 -22.316406 17.515625 -22.828125 C 19.523438 -23.335938 21.578125 -24.191406 23.671875 -25.390625 C 26.191406 -26.828125 28.710938 -27.84375 31.234375 -28.4375 C 33.753906 -29.039062 36.066406 -29.40625 38.171875 -29.53125 Z M 38.171875 -29.53125 "/></g></g></g><g fill="#f6964b" fill-opacity="1"><g transform="translate(217.298834, 177.782321)"><g/></g></g><g fill="#f6964b" fill-opacity="1"><g transform="translate(232.871645, 177.782321)"><g><path d="M 11.34375 2.875 C 10.6875 3.351562 10.359375 3.894531 10.359375 4.5 C 10.359375 5.101562 10.476562 5.644531 10.71875 6.125 C 11.5 7.738281 12.457031 9.191406 13.59375 10.484375 C 14.738281 11.773438 15.941406 12.613281 17.203125 13 C 18.460938 13.394531 19.691406 13.15625 20.890625 12.28125 C 22.085938 11.414062 23.195312 9.601562 24.21875 6.84375 L 26.734375 0 L 26.46875 0 L 9.546875 -39.078125 C 9.003906 -40.273438 8.492188 -41.15625 8.015625 -41.71875 C 7.535156 -42.289062 6.90625 -42.578125 6.125 -42.578125 L 6.125 -43.390625 L 17.5625 -43.390625 L 17.5625 -42.578125 C 15.875 -42.578125 15.507812 -41.5 16.46875 -39.34375 L 29.890625 -8.28125 L 41.140625 -38.171875 C 41.503906 -39.191406 41.609375 -39.988281 41.453125 -40.5625 C 41.304688 -41.132812 41.082031 -41.566406 40.78125 -41.859375 C 40.425781 -42.222656 39.945312 -42.460938 39.34375 -42.578125 L 39.34375 -43.390625 L 47 -43.390625 L 47 -42.578125 C 45.976562 -42.578125 44.972656 -42.15625 43.984375 -41.3125 C 42.992188 -40.476562 42.257812 -39.375 41.78125 -38 L 24.84375 7.015625 C 23.644531 10.378906 22.21875 12.929688 20.5625 14.671875 C 18.914062 16.410156 17.128906 17.367188 15.203125 17.546875 C 13.285156 17.734375 11.257812 17.148438 9.125 15.796875 C 7 14.453125 4.890625 12.398438 2.796875 9.640625 L 2.25 9 L 10.796875 2.25 Z M 11.34375 2.875 "/></g></g></g><g fill="#f6964b" fill-opacity="1"><g transform="translate(277.610586, 177.782321)"><g><path d="M 3.0625 -16.46875 C 2.28125 -19.414062 2.097656 -22.328125 2.515625 -25.203125 C 2.941406 -28.085938 3.859375 -30.742188 5.265625 -33.171875 C 6.671875 -35.609375 8.515625 -37.722656 10.796875 -39.515625 C 13.078125 -41.316406 15.691406 -42.609375 18.640625 -43.390625 C 21.578125 -44.171875 24.484375 -44.351562 27.359375 -43.9375 C 30.242188 -43.519531 32.914062 -42.601562 35.375 -41.1875 C 37.84375 -39.78125 39.972656 -37.9375 41.765625 -35.65625 C 43.566406 -33.375 44.859375 -30.757812 45.640625 -27.8125 C 46.421875 -24.875 46.601562 -21.960938 46.1875 -19.078125 C 45.769531 -16.203125 44.851562 -13.546875 43.4375 -11.109375 C 42.03125 -8.679688 40.1875 -6.566406 37.90625 -4.765625 C 35.625 -2.972656 33.015625 -1.6875 30.078125 -0.90625 C 27.128906 -0.125 24.210938 0.0546875 21.328125 -0.359375 C 18.453125 -0.773438 15.785156 -1.6875 13.328125 -3.09375 C 10.867188 -4.507812 8.738281 -6.359375 6.9375 -8.640625 C 5.132812 -10.921875 3.84375 -13.53125 3.0625 -16.46875 Z M 39.53125 -26.203125 C 38.925781 -28.359375 37.992188 -30.5625 36.734375 -32.8125 C 35.472656 -35.0625 33.941406 -37.039062 32.140625 -38.75 C 30.335938 -40.46875 28.296875 -41.726562 26.015625 -42.53125 C 23.734375 -43.34375 21.332031 -43.421875 18.8125 -42.765625 C 16.289062 -42.109375 14.265625 -40.863281 12.734375 -39.03125 C 11.203125 -37.195312 10.078125 -35.09375 9.359375 -32.71875 C 8.640625 -30.351562 8.28125 -27.863281 8.28125 -25.25 C 8.28125 -22.644531 8.582031 -20.257812 9.1875 -18.09375 C 9.78125 -15.9375 10.707031 -13.71875 11.96875 -11.4375 C 13.226562 -9.15625 14.757812 -7.171875 16.5625 -5.484375 C 18.363281 -3.804688 20.40625 -2.546875 22.6875 -1.703125 C 24.96875 -0.867188 27.367188 -0.8125 29.890625 -1.53125 C 32.410156 -2.1875 34.453125 -3.429688 36.015625 -5.265625 C 37.578125 -7.097656 38.71875 -9.195312 39.4375 -11.5625 C 40.15625 -13.9375 40.5 -16.425781 40.46875 -19.03125 C 40.4375 -21.644531 40.125 -24.035156 39.53125 -26.203125 Z M 39.53125 -26.203125 "/></g></g></g><g fill="#f6964b" fill-opacity="1"><g transform="translate(321.809422, 177.782321)"><g><path d="M 40.421875 0 L 32.140625 0 L 32.140625 -23.234375 C 31.722656 -20.523438 31.210938 -18.0625 30.609375 -15.84375 C 30.003906 -13.625 29.316406 -11.644531 28.546875 -9.90625 C 27.941406 -8.644531 27.25 -7.410156 26.46875 -6.203125 C 25.6875 -5.003906 24.769531 -3.910156 23.71875 -2.921875 C 22.664062 -1.929688 21.523438 -1.132812 20.296875 -0.53125 C 19.066406 0.0625 17.703125 0.359375 16.203125 0.359375 C 13.742188 0.359375 11.75 -0.148438 10.21875 -1.171875 C 8.6875 -2.191406 7.484375 -3.507812 6.609375 -5.125 C 5.742188 -6.75 5.144531 -8.582031 4.8125 -10.625 C 4.488281 -12.664062 4.328125 -14.707031 4.328125 -16.75 L 4.328125 -35.65625 C 4.328125 -37.15625 4.234375 -38.351562 4.046875 -39.25 C 3.867188 -40.15625 3.675781 -40.847656 3.46875 -41.328125 C 3.257812 -41.804688 3.035156 -42.132812 2.796875 -42.3125 C 2.554688 -42.488281 2.375 -42.578125 2.25 -42.578125 L 2.25 -43.390625 L 10.625 -43.390625 L 10.625 -16.75 C 10.625 -15.664062 10.679688 -14.359375 10.796875 -12.828125 C 10.921875 -11.296875 11.175781 -9.796875 11.5625 -8.328125 C 11.957031 -6.859375 12.53125 -5.519531 13.28125 -4.3125 C 14.03125 -3.113281 15.035156 -2.304688 16.296875 -1.890625 C 17.554688 -1.472656 18.785156 -1.472656 19.984375 -1.890625 C 21.179688 -2.304688 22.273438 -2.960938 23.265625 -3.859375 C 24.265625 -4.765625 25.148438 -5.785156 25.921875 -6.921875 C 26.703125 -8.066406 27.332031 -9.148438 27.8125 -10.171875 C 29.132812 -13.054688 30.1875 -16.582031 30.96875 -20.75 C 31.75 -24.925781 32.140625 -29.894531 32.140625 -35.65625 C 32.140625 -37.15625 32.046875 -38.351562 31.859375 -39.25 C 31.679688 -40.15625 31.488281 -40.847656 31.28125 -41.328125 C 31.070312 -41.804688 30.847656 -42.132812 30.609375 -42.3125 C 30.367188 -42.488281 30.191406 -42.578125 30.078125 -42.578125 L 30.078125 -43.390625 L 38.359375 -43.390625 L 38.359375 -7.75 C 38.359375 -6.238281 38.429688 -5.035156 38.578125 -4.140625 C 38.722656 -3.242188 38.914062 -2.539062 39.15625 -2.03125 C 39.40625 -1.519531 39.648438 -1.1875 39.890625 -1.03125 C 40.128906 -0.882812 40.304688 -0.8125 40.421875 -0.8125 Z M 40.421875 0 "/></g></g></g><g fill="#f6964b" fill-opacity="1"><g transform="translate(359.97698, 177.782321)"><g><path d="M 6.75 -7.828125 C 7.894531 -7.828125 8.851562 -7.4375 9.625 -6.65625 C 10.40625 -5.875 10.796875 -4.945312 10.796875 -3.875 C 10.796875 -2.789062 10.40625 -1.875 9.625 -1.125 C 8.851562 -0.375 7.894531 0 6.75 0 C 5.664062 0 4.71875 -0.375 3.90625 -1.125 C 3.101562 -1.875 2.703125 -2.789062 2.703125 -3.875 C 2.703125 -4.945312 3.101562 -5.875 3.90625 -6.65625 C 4.71875 -7.4375 5.664062 -7.828125 6.75 -7.828125 Z M 6.75 -7.828125 "/></g></g></g><g fill="#ea8b54" fill-opacity="1"><g transform="translate(0.356469, 242.218517)"><g><path d="M 12.5 -2.765625 C 13.039062 -1.835938 13.46875 -1.179688 13.78125 -0.796875 C 14.101562 -0.421875 14.34375 -0.234375 14.5 -0.234375 L 14.5 0 L 11.328125 0 L 11.328125 -0.234375 C 11.398438 -0.234375 11.453125 -0.253906 11.484375 -0.296875 C 11.515625 -0.347656 11.507812 -0.453125 11.46875 -0.609375 C 11.425781 -0.765625 11.34375 -0.972656 11.21875 -1.234375 C 11.101562 -1.503906 10.921875 -1.863281 10.671875 -2.3125 L 6 -10.5625 L 3.140625 -7.734375 L 3.140625 -2.171875 C 3.140625 -1.773438 3.164062 -1.441406 3.21875 -1.171875 C 3.269531 -0.910156 3.320312 -0.710938 3.375 -0.578125 C 3.4375 -0.441406 3.5 -0.347656 3.5625 -0.296875 C 3.632812 -0.253906 3.695312 -0.234375 3.75 -0.234375 L 3.75 0 L 0.765625 0 L 0.765625 -0.234375 C 0.796875 -0.234375 0.84375 -0.253906 0.90625 -0.296875 C 0.976562 -0.347656 1.039062 -0.441406 1.09375 -0.578125 C 1.15625 -0.710938 1.210938 -0.910156 1.265625 -1.171875 C 1.316406 -1.441406 1.34375 -1.773438 1.34375 -2.171875 L 1.34375 -15.609375 C 1.34375 -16.035156 1.316406 -16.375 1.265625 -16.625 C 1.210938 -16.875 1.15625 -17.066406 1.09375 -17.203125 C 1.039062 -17.335938 0.976562 -17.429688 0.90625 -17.484375 C 0.84375 -17.535156 0.796875 -17.5625 0.765625 -17.5625 L 0.765625 -17.796875 L 3.75 -17.796875 L 3.75 -17.5625 C 3.695312 -17.5625 3.632812 -17.535156 3.5625 -17.484375 C 3.5 -17.429688 3.4375 -17.335938 3.375 -17.203125 C 3.320312 -17.066406 3.269531 -16.875 3.21875 -16.625 C 3.164062 -16.375 3.140625 -16.035156 3.140625 -15.609375 L 3.140625 -8.03125 L 9.984375 -14.84375 C 10.828125 -15.707031 11.34375 -16.375 11.53125 -16.84375 C 11.726562 -17.320312 11.441406 -17.5625 10.671875 -17.5625 L 10.671875 -17.796875 L 14.71875 -17.796875 L 14.71875 -17.5625 C 14.363281 -17.5625 13.984375 -17.46875 13.578125 -17.28125 C 13.171875 -17.09375 12.757812 -16.851562 12.34375 -16.5625 C 11.9375 -16.28125 11.535156 -15.96875 11.140625 -15.625 C 10.742188 -15.28125 10.394531 -14.957031 10.09375 -14.65625 L 7.34375 -11.90625 Z M 12.5 -2.765625 "/></g></g></g><g fill="#ea8b54" fill-opacity="1"><g transform="translate(17.104888, 242.218517)"><g><path d="M 15.109375 -2.515625 L 17.078125 0 L 14.78125 0 L 2.65625 -15.390625 L 2.65625 -4.15625 C 2.65625 -3.5625 2.6875 -3.023438 2.75 -2.546875 C 2.820312 -2.066406 2.90625 -1.648438 3 -1.296875 C 3.09375 -0.953125 3.191406 -0.6875 3.296875 -0.5 C 3.410156 -0.320312 3.519531 -0.234375 3.625 -0.234375 L 3.625 0 L 1.46875 0 L 1.46875 -0.234375 C 1.570312 -0.234375 1.675781 -0.320312 1.78125 -0.5 C 1.894531 -0.6875 2 -0.953125 2.09375 -1.296875 C 2.1875 -1.648438 2.265625 -2.066406 2.328125 -2.546875 C 2.398438 -3.023438 2.4375 -3.5625 2.4375 -4.15625 L 2.4375 -15.65625 L 0.765625 -17.796875 L 3.0625 -17.796875 L 14.875 -2.78125 L 14.875 -13.65625 C 14.875 -14.25 14.835938 -14.785156 14.765625 -15.265625 C 14.703125 -15.742188 14.625 -16.148438 14.53125 -16.484375 C 14.4375 -16.828125 14.332031 -17.09375 14.21875 -17.28125 C 14.113281 -17.46875 14.007812 -17.5625 13.90625 -17.5625 L 13.90625 -17.796875 L 16.0625 -17.796875 L 16.0625 -17.5625 C 15.96875 -17.5625 15.863281 -17.46875 15.75 -17.28125 C 15.644531 -17.09375 15.546875 -16.828125 15.453125 -16.484375 C 15.359375 -16.148438 15.273438 -15.742188 15.203125 -15.265625 C 15.140625 -14.785156 15.109375 -14.25 15.109375 -13.65625 Z M 15.109375 -2.515625 "/></g></g></g><g fill="#ea8b54" fill-opacity="1"><g transform="translate(36.209691, 242.218517)"><g><path d="M 3.75 -17.5625 C 3.695312 -17.5625 3.632812 -17.535156 3.5625 -17.484375 C 3.5 -17.429688 3.4375 -17.335938 3.375 -17.203125 C 3.320312 -17.066406 3.269531 -16.875 3.21875 -16.625 C 3.164062 -16.375 3.140625 -16.035156 3.140625 -15.609375 L 3.140625 -2.171875 C 3.140625 -1.773438 3.164062 -1.441406 3.21875 -1.171875 C 3.269531 -0.910156 3.320312 -0.710938 3.375 -0.578125 C 3.4375 -0.441406 3.5 -0.347656 3.5625 -0.296875 C 3.632812 -0.253906 3.695312 -0.234375 3.75 -0.234375 L 3.75 0 L 0.765625 0 L 0.765625 -0.234375 C 0.796875 -0.234375 0.84375 -0.253906 0.90625 -0.296875 C 0.976562 -0.347656 1.039062 -0.441406 1.09375 -0.578125 C 1.15625 -0.710938 1.210938 -0.910156 1.265625 -1.171875 C 1.316406 -1.441406 1.34375 -1.773438 1.34375 -2.171875 L 1.34375 -15.609375 C 1.34375 -16.035156 1.316406 -16.375 1.265625 -16.625 C 1.210938 -16.875 1.15625 -17.066406 1.09375 -17.203125 C 1.039062 -17.335938 0.976562 -17.429688 0.90625 -17.484375 C 0.84375 -17.535156 0.796875 -17.5625 0.765625 -17.5625 L 0.765625 -17.796875 L 3.75 -17.796875 Z M 3.75 -17.5625 "/></g></g></g><g fill="#ea8b54" fill-opacity="1"><g transform="translate(41.986972, 242.218517)"><g><path d="M 15.203125 -15.640625 L 14.984375 -15.640625 C 14.609375 -16.046875 14.242188 -16.375 13.890625 -16.625 C 13.535156 -16.875 13.128906 -17.066406 12.671875 -17.203125 C 12.210938 -17.335938 11.675781 -17.429688 11.0625 -17.484375 C 10.457031 -17.535156 9.726562 -17.5625 8.875 -17.5625 L 8.875 -2.171875 C 8.875 -1.773438 8.894531 -1.441406 8.9375 -1.171875 C 8.976562 -0.910156 9.03125 -0.710938 9.09375 -0.578125 C 9.164062 -0.441406 9.234375 -0.347656 9.296875 -0.296875 C 9.367188 -0.253906 9.421875 -0.234375 9.453125 -0.234375 L 9.453125 0 L 6.484375 0 L 6.484375 -0.234375 C 6.515625 -0.234375 6.5625 -0.253906 6.625 -0.296875 C 6.695312 -0.347656 6.765625 -0.441406 6.828125 -0.578125 C 6.890625 -0.710938 6.945312 -0.910156 7 -1.171875 C 7.050781 -1.441406 7.078125 -1.773438 7.078125 -2.171875 L 7.078125 -17.5625 C 6.210938 -17.5625 5.472656 -17.535156 4.859375 -17.484375 C 4.253906 -17.429688 3.726562 -17.335938 3.28125 -17.203125 C 2.832031 -17.066406 2.429688 -16.875 2.078125 -16.625 C 1.722656 -16.375 1.359375 -16.046875 0.984375 -15.640625 L 0.765625 -15.640625 L 0.765625 -17.796875 L 15.203125 -17.796875 Z M 15.203125 -15.640625 "/></g></g></g><g fill="#ea8b54" fill-opacity="1"><g transform="translate(59.216799, 242.218517)"><g><path d="M 13.859375 -17.5625 C 13.828125 -17.5625 13.773438 -17.535156 13.703125 -17.484375 C 13.640625 -17.429688 13.570312 -17.335938 13.5 -17.203125 C 13.4375 -17.066406 13.382812 -16.875 13.34375 -16.625 C 13.300781 -16.375 13.28125 -16.035156 13.28125 -15.609375 L 13.28125 -2.171875 C 13.28125 -1.773438 13.300781 -1.441406 13.34375 -1.171875 C 13.382812 -0.910156 13.4375 -0.710938 13.5 -0.578125 C 13.570312 -0.441406 13.640625 -0.347656 13.703125 -0.296875 C 13.773438 -0.253906 13.828125 -0.234375 13.859375 -0.234375 L 13.859375 0 L 10.875 0 L 10.875 -0.234375 C 10.90625 -0.234375 10.953125 -0.253906 11.015625 -0.296875 C 11.085938 -0.347656 11.148438 -0.441406 11.203125 -0.578125 C 11.265625 -0.710938 11.320312 -0.910156 11.375 -1.171875 C 11.425781 -1.441406 11.453125 -1.773438 11.453125 -2.171875 L 11.453125 -10.4375 L 3.140625 -10.4375 L 3.140625 -2.171875 C 3.140625 -1.773438 3.160156 -1.441406 3.203125 -1.171875 C 3.242188 -0.910156 3.296875 -0.710938 3.359375 -0.578125 C 3.429688 -0.441406 3.5 -0.347656 3.5625 -0.296875 C 3.632812 -0.253906 3.6875 -0.234375 3.71875 -0.234375 L 3.71875 0 L 0.765625 0 L 0.765625 -0.234375 C 0.796875 -0.234375 0.84375 -0.253906 0.90625 -0.296875 C 0.976562 -0.347656 1.039062 -0.441406 1.09375 -0.578125 C 1.15625 -0.710938 1.210938 -0.910156 1.265625 -1.171875 C 1.316406 -1.441406 1.34375 -1.773438 1.34375 -2.171875 L 1.34375 -15.609375 C 1.34375 -16.035156 1.316406 -16.375 1.265625 -16.625 C 1.210938 -16.875 1.15625 -17.066406 1.09375 -17.203125 C 1.039062 -17.335938 0.976562 -17.429688 0.90625 -17.484375 C 0.84375 -17.535156 0.796875 -17.5625 0.765625 -17.5625 L 0.765625 -17.796875 L 3.71875 -17.796875 L 3.71875 -17.5625 C 3.6875 -17.5625 3.632812 -17.535156 3.5625 -17.484375 C 3.5 -17.429688 3.429688 -17.335938 3.359375 -17.203125 C 3.296875 -17.066406 3.242188 -16.875 3.203125 -16.625 C 3.160156 -16.375 3.140625 -16.035156 3.140625 -15.609375 L 3.140625 -10.671875 L 11.453125 -10.671875 L 11.453125 -15.609375 C 11.453125 -16.035156 11.425781 -16.375 11.375 -16.625 C 11.320312 -16.875 11.265625 -17.066406 11.203125 -17.203125 C 11.148438 -17.335938 11.085938 -17.429688 11.015625 -17.484375 C 10.953125 -17.535156 10.90625 -17.5625 10.875 -17.5625 L 10.875 -17.796875 L 13.859375 -17.796875 Z M 13.859375 -17.5625 "/></g></g></g><g fill="#ea8b54" fill-opacity="1"><g transform="translate(75.103745, 242.218517)"><g><path d="M 1.34375 -15.609375 C 1.34375 -16.035156 1.316406 -16.375 1.265625 -16.625 C 1.210938 -16.875 1.15625 -17.066406 1.09375 -17.203125 C 1.039062 -17.335938 0.976562 -17.429688 0.90625 -17.484375 C 0.84375 -17.535156 0.796875 -17.5625 0.765625 -17.5625 L 0.765625 -17.796875 L 3.71875 -17.796875 L 3.71875 -17.5625 C 3.6875 -17.5625 3.632812 -17.535156 3.5625 -17.484375 C 3.5 -17.429688 3.429688 -17.335938 3.359375 -17.203125 C 3.296875 -17.066406 3.242188 -16.875 3.203125 -16.625 C 3.160156 -16.375 3.140625 -16.035156 3.140625 -15.609375 L 3.140625 -6.6875 C 3.128906 -5.457031 3.28125 -4.367188 3.59375 -3.421875 C 3.726562 -3.015625 3.910156 -2.613281 4.140625 -2.21875 C 4.367188 -1.820312 4.65625 -1.46875 5 -1.15625 C 5.351562 -0.851562 5.769531 -0.609375 6.25 -0.421875 C 6.726562 -0.242188 7.289062 -0.15625 7.9375 -0.15625 C 8.5625 -0.15625 9.226562 -0.238281 9.9375 -0.40625 C 10.644531 -0.570312 11.300781 -0.890625 11.90625 -1.359375 C 12.519531 -1.835938 13.023438 -2.503906 13.421875 -3.359375 C 13.816406 -4.210938 14.015625 -5.320312 14.015625 -6.6875 L 14.015625 -13.65625 C 14.015625 -14.25 13.976562 -14.785156 13.90625 -15.265625 C 13.84375 -15.742188 13.765625 -16.148438 13.671875 -16.484375 C 13.578125 -16.828125 13.472656 -17.09375 13.359375 -17.28125 C 13.253906 -17.46875 13.148438 -17.5625 13.046875 -17.5625 L 13.046875 -17.796875 L 15.203125 -17.796875 L 15.203125 -17.5625 C 15.097656 -17.5625 14.988281 -17.46875 14.875 -17.28125 C 14.769531 -17.09375 14.671875 -16.828125 14.578125 -16.484375 C 14.492188 -16.148438 14.414062 -15.742188 14.34375 -15.265625 C 14.28125 -14.785156 14.25 -14.25 14.25 -13.65625 L 14.25 -6.6875 C 14.25 -5.625 14.128906 -4.71875 13.890625 -3.96875 C 13.648438 -3.21875 13.34375 -2.585938 12.96875 -2.078125 C 12.601562 -1.566406 12.1875 -1.164062 11.71875 -0.875 C 11.257812 -0.582031 10.800781 -0.359375 10.34375 -0.203125 C 9.882812 -0.046875 9.457031 0.0507812 9.0625 0.09375 C 8.664062 0.132812 8.347656 0.15625 8.109375 0.15625 C 7.867188 0.15625 7.535156 0.128906 7.109375 0.078125 C 6.679688 0.0234375 6.210938 -0.0820312 5.703125 -0.25 C 5.191406 -0.414062 4.675781 -0.648438 4.15625 -0.953125 C 3.644531 -1.265625 3.179688 -1.671875 2.765625 -2.171875 C 2.359375 -2.679688 2.019531 -3.300781 1.75 -4.03125 C 1.476562 -4.769531 1.34375 -5.65625 1.34375 -6.6875 Z M 1.34375 -15.609375 "/></g></g></g><g fill="#ea8b54" fill-opacity="1"><g transform="translate(92.333572, 242.218517)"><g><path d="M 0.765625 0 L 0.765625 -0.234375 C 0.796875 -0.234375 0.84375 -0.253906 0.90625 -0.296875 C 0.976562 -0.347656 1.039062 -0.441406 1.09375 -0.578125 C 1.15625 -0.710938 1.210938 -0.910156 1.265625 -1.171875 C 1.316406 -1.441406 1.34375 -1.773438 1.34375 -2.171875 L 1.34375 -15.609375 C 1.34375 -16.035156 1.316406 -16.375 1.265625 -16.625 C 1.210938 -16.875 1.15625 -17.066406 1.09375 -17.203125 C 1.039062 -17.335938 0.976562 -17.429688 0.90625 -17.484375 C 0.84375 -17.535156 0.796875 -17.5625 0.765625 -17.5625 L 0.765625 -17.796875 L 0.984375 -17.796875 C 1.742188 -17.804688 2.535156 -17.851562 3.359375 -17.9375 C 4.179688 -18.019531 4.953125 -18.0625 5.671875 -18.0625 C 6.960938 -18.0625 8.046875 -17.957031 8.921875 -17.75 C 9.796875 -17.539062 10.503906 -17.25 11.046875 -16.875 C 11.585938 -16.507812 11.976562 -16.066406 12.21875 -15.546875 C 12.457031 -15.035156 12.578125 -14.472656 12.578125 -13.859375 C 12.578125 -13.335938 12.488281 -12.851562 12.3125 -12.40625 C 12.144531 -11.957031 11.867188 -11.554688 11.484375 -11.203125 C 11.109375 -10.847656 10.613281 -10.546875 10 -10.296875 C 9.382812 -10.054688 8.628906 -9.882812 7.734375 -9.78125 C 8.628906 -9.675781 9.460938 -9.5 10.234375 -9.25 C 11.015625 -9.007812 11.6875 -8.6875 12.25 -8.28125 C 12.820312 -7.875 13.269531 -7.390625 13.59375 -6.828125 C 13.925781 -6.273438 14.09375 -5.640625 14.09375 -4.921875 C 14.09375 -3.921875 13.863281 -3.101562 13.40625 -2.46875 C 12.945312 -1.832031 12.332031 -1.332031 11.5625 -0.96875 C 10.800781 -0.613281 9.910156 -0.363281 8.890625 -0.21875 C 7.878906 -0.0703125 6.804688 0 5.671875 0 Z M 12.296875 -4.921875 C 12.296875 -5.679688 12.148438 -6.328125 11.859375 -6.859375 C 11.578125 -7.390625 11.21875 -7.828125 10.78125 -8.171875 C 10.351562 -8.515625 9.875 -8.785156 9.34375 -8.984375 C 8.8125 -9.191406 8.300781 -9.347656 7.8125 -9.453125 C 7.332031 -9.554688 6.90625 -9.617188 6.53125 -9.640625 C 6.164062 -9.671875 5.914062 -9.6875 5.78125 -9.6875 L 3.140625 -9.6875 L 3.140625 -0.234375 L 5.671875 -0.234375 C 6.910156 -0.242188 8.007812 -0.410156 8.96875 -0.734375 C 9.375 -0.867188 9.773438 -1.050781 10.171875 -1.28125 C 10.566406 -1.507812 10.921875 -1.785156 11.234375 -2.109375 C 11.546875 -2.441406 11.800781 -2.835938 12 -3.296875 C 12.195312 -3.765625 12.296875 -4.304688 12.296875 -4.921875 Z M 5.671875 -9.90625 L 5.671875 -9.890625 C 6.234375 -9.890625 6.8125 -9.945312 7.40625 -10.0625 C 8.007812 -10.175781 8.5625 -10.382812 9.0625 -10.6875 C 9.5625 -11 9.972656 -11.410156 10.296875 -11.921875 C 10.628906 -12.441406 10.796875 -13.085938 10.796875 -13.859375 C 10.796875 -14.640625 10.628906 -15.285156 10.296875 -15.796875 C 9.972656 -16.316406 9.5625 -16.726562 9.0625 -17.03125 C 8.5625 -17.332031 8.007812 -17.546875 7.40625 -17.671875 C 6.8125 -17.804688 6.234375 -17.875 5.671875 -17.875 C 5.285156 -17.875 4.875 -17.851562 4.4375 -17.8125 C 4.007812 -17.78125 3.578125 -17.75 3.140625 -17.71875 L 3.140625 -9.90625 Z M 5.671875 -9.90625 "/></g></g></g></svg>