<svg xmlns="http://www.w3.org/2000/svg" xmlns:xlink="http://www.w3.org/1999/xlink" width="500" zoomAndPan="magnify" viewBox="0 0 375 149.999998" height="200" preserveAspectRatio="xMidYMid meet" version="1.0"><defs><g/></defs><g fill="#f6964b" fill-opacity="1"><g transform="translate(0.000003125, 102.236149)"><g><path d="M 56.96875 -12.59375 C 59.425781 -8.351562 61.382812 -5.367188 62.84375 -3.640625 C 64.3125 -1.910156 65.394531 -1.046875 66.09375 -1.046875 L 66.09375 0 L 51.65625 0 L 51.65625 -1.046875 C 51.957031 -1.046875 52.1875 -1.160156 52.34375 -1.390625 C 52.5 -1.617188 52.476562 -2.078125 52.28125 -2.765625 C 52.09375 -3.460938 51.726562 -4.425781 51.1875 -5.65625 C 50.644531 -6.894531 49.796875 -8.515625 48.640625 -10.515625 L 27.390625 -48.1875 L 14.328125 -35.234375 L 14.328125 -9.9375 C 14.328125 -8.082031 14.441406 -6.554688 14.671875 -5.359375 C 14.898438 -4.171875 15.148438 -3.269531 15.421875 -2.65625 C 15.691406 -2.039062 15.976562 -1.617188 16.28125 -1.390625 C 16.59375 -1.160156 16.863281 -1.046875 17.09375 -1.046875 L 17.09375 0 L 3.46875 0 L 3.46875 -1.046875 C 3.625 -1.046875 3.851562 -1.160156 4.15625 -1.390625 C 4.46875 -1.617188 4.757812 -2.039062 5.03125 -2.65625 C 5.300781 -3.269531 5.550781 -4.171875 5.78125 -5.359375 C 6.007812 -6.554688 6.125 -8.082031 6.125 -9.9375 L 6.125 -71.171875 C 6.125 -73.097656 6.007812 -74.640625 5.78125 -75.796875 C 5.550781 -76.953125 5.300781 -77.835938 5.03125 -78.453125 C 4.757812 -79.066406 4.46875 -79.488281 4.15625 -79.71875 C 3.851562 -79.957031 3.625 -80.078125 3.46875 -80.078125 L 3.46875 -81.109375 L 17.09375 -81.109375 L 17.09375 -80.078125 C 16.863281 -80.078125 16.59375 -79.957031 16.28125 -79.71875 C 15.976562 -79.488281 15.691406 -79.066406 15.421875 -78.453125 C 15.148438 -77.835938 14.898438 -76.953125 14.671875 -75.796875 C 14.441406 -74.640625 14.328125 -73.097656 14.328125 -71.171875 L 14.328125 -36.625 L 45.53125 -67.703125 C 49.375 -71.640625 51.738281 -74.6875 52.625 -76.84375 C 53.507812 -79 52.179688 -80.078125 48.640625 -80.078125 L 48.640625 -81.109375 L 67.125 -81.109375 L 67.125 -80.078125 C 65.507812 -80.078125 63.773438 -79.648438 61.921875 -78.796875 C 60.078125 -77.953125 58.210938 -76.875 56.328125 -75.5625 C 54.441406 -74.257812 52.59375 -72.816406 50.78125 -71.234375 C 48.96875 -69.648438 47.367188 -68.164062 45.984375 -66.78125 L 33.515625 -54.3125 Z M 56.96875 -12.59375 "/></g></g></g><g fill="#f6964b" fill-opacity="1"><g transform="translate(70.595557, 102.236149)"><g><path d="M 2.890625 -55.6875 L 13.515625 -55.6875 L 13.515625 -25.765625 C 13.984375 -29.304688 14.617188 -32.5 15.421875 -35.34375 C 16.234375 -38.195312 17.140625 -40.742188 18.140625 -42.984375 C 18.910156 -44.597656 19.796875 -46.175781 20.796875 -47.71875 C 21.796875 -49.257812 22.96875 -50.664062 24.3125 -51.9375 C 25.664062 -53.207031 27.128906 -54.226562 28.703125 -55 C 30.285156 -55.769531 32.039062 -56.15625 33.96875 -56.15625 C 37.125 -56.15625 39.679688 -55.5 41.640625 -54.1875 C 43.609375 -52.882812 45.148438 -51.191406 46.265625 -49.109375 C 47.390625 -47.023438 48.160156 -44.671875 48.578125 -42.046875 C 49.003906 -39.429688 49.21875 -36.816406 49.21875 -34.203125 L 49.21875 -9.9375 C 49.21875 -8.007812 49.3125 -6.46875 49.5 -5.3125 C 49.695312 -4.15625 49.945312 -3.25 50.25 -2.59375 C 50.5625 -1.945312 50.875 -1.523438 51.1875 -1.328125 C 51.5 -1.140625 51.726562 -1.046875 51.875 -1.046875 L 51.875 0 L 38.484375 0 L 38.484375 -1.046875 C 38.628906 -1.046875 38.851562 -1.140625 39.15625 -1.328125 C 39.46875 -1.523438 39.757812 -1.945312 40.03125 -2.59375 C 40.300781 -3.25 40.550781 -4.15625 40.78125 -5.3125 C 41.019531 -6.46875 41.140625 -8.007812 41.140625 -9.9375 L 41.140625 -34.203125 C 41.140625 -35.585938 41.0625 -37.257812 40.90625 -39.21875 C 40.75 -41.1875 40.421875 -43.113281 39.921875 -45 C 39.421875 -46.894531 38.6875 -48.609375 37.71875 -50.140625 C 36.757812 -51.679688 35.472656 -52.722656 33.859375 -53.265625 C 32.234375 -53.804688 30.648438 -53.785156 29.109375 -53.203125 C 27.578125 -52.628906 26.175781 -51.765625 24.90625 -50.609375 C 23.632812 -49.453125 22.492188 -48.140625 21.484375 -46.671875 C 20.484375 -45.210938 19.675781 -43.828125 19.0625 -42.515625 C 17.363281 -38.816406 16.015625 -34.289062 15.015625 -28.9375 C 14.015625 -23.582031 13.515625 -17.25 13.515625 -9.9375 C 13.515625 -8.007812 13.609375 -6.46875 13.796875 -5.3125 C 13.992188 -4.15625 14.242188 -3.25 14.546875 -2.59375 C 14.859375 -1.945312 15.171875 -1.523438 15.484375 -1.328125 C 15.796875 -1.140625 16.023438 -1.046875 16.171875 -1.046875 L 16.171875 0 L 2.890625 0 L 2.890625 -1.046875 C 3.046875 -1.046875 3.273438 -1.140625 3.578125 -1.328125 C 3.890625 -1.523438 4.179688 -1.945312 4.453125 -2.59375 C 4.722656 -3.25 4.972656 -4.15625 5.203125 -5.3125 C 5.429688 -6.46875 5.546875 -8.007812 5.546875 -9.9375 L 5.546875 -45.75 C 5.546875 -47.601562 5.429688 -49.125 5.203125 -50.3125 C 4.972656 -51.507812 4.722656 -52.414062 4.453125 -53.03125 C 4.179688 -53.644531 3.890625 -54.066406 3.578125 -54.296875 C 3.273438 -54.535156 3.046875 -54.65625 2.890625 -54.65625 Z M 2.890625 -55.6875 "/></g></g></g><g fill="#f6964b" fill-opacity="1"><g transform="translate(125.36198, 102.236149)"><g><path d="M 2.890625 -51.53125 L 13.75 -55.6875 L 13.75 -9.9375 C 13.75 -8.007812 13.84375 -6.46875 14.03125 -5.3125 C 14.226562 -4.15625 14.476562 -3.25 14.78125 -2.59375 C 15.09375 -1.945312 15.398438 -1.523438 15.703125 -1.328125 C 16.015625 -1.140625 16.25 -1.046875 16.40625 -1.046875 L 16.40625 0 L 3 0 L 3 -1.046875 C 3.226562 -1.046875 3.5 -1.140625 3.8125 -1.328125 C 4.125 -1.523438 4.410156 -1.945312 4.671875 -2.59375 C 4.941406 -3.25 5.191406 -4.15625 5.421875 -5.3125 C 5.660156 -6.46875 5.78125 -8.007812 5.78125 -9.9375 L 5.78125 -45.640625 C 5.46875 -47.722656 5.039062 -49.070312 4.5 -49.6875 C 3.96875 -50.300781 3.546875 -50.609375 3.234375 -50.609375 Z M 8.890625 -65.046875 C 7.359375 -65.046875 6.070312 -65.566406 5.03125 -66.609375 C 3.988281 -67.648438 3.46875 -68.941406 3.46875 -70.484375 C 3.46875 -72.023438 3.988281 -73.316406 5.03125 -74.359375 C 6.070312 -75.398438 7.359375 -75.921875 8.890625 -75.921875 C 10.429688 -75.921875 11.722656 -75.398438 12.765625 -74.359375 C 13.804688 -73.316406 14.328125 -72.023438 14.328125 -70.484375 C 14.328125 -68.941406 13.804688 -67.648438 12.765625 -66.609375 C 11.722656 -65.566406 10.429688 -65.046875 8.890625 -65.046875 Z M 8.890625 -65.046875 "/></g></g></g><g fill="#f6964b" fill-opacity="1"><g transform="translate(144.657325, 102.236149)"><g><path d="M 2.890625 -55.6875 C 3.347656 -55.6875 4.191406 -55.800781 5.421875 -56.03125 C 6.660156 -56.269531 7.914062 -56.90625 9.1875 -57.9375 C 10.457031 -58.976562 11.570312 -60.554688 12.53125 -62.671875 C 13.5 -64.796875 13.984375 -67.75 13.984375 -71.53125 L 22.0625 -71.53125 C 22.0625 -66.90625 21.132812 -63.335938 19.28125 -60.828125 C 17.4375 -58.328125 14.671875 -56.613281 10.984375 -55.6875 L 28.3125 -55.6875 L 28.3125 -54.890625 L 18.25 -54.890625 L 18.25 -21.484375 C 18.25 -20.097656 18.328125 -18.421875 18.484375 -16.453125 C 18.640625 -14.492188 18.96875 -12.570312 19.46875 -10.6875 C 19.96875 -8.800781 20.695312 -7.085938 21.65625 -5.546875 C 22.625 -4.003906 23.914062 -2.960938 25.53125 -2.421875 C 27.15625 -1.890625 28.734375 -1.890625 30.265625 -2.421875 C 31.804688 -2.960938 33.210938 -3.8125 34.484375 -4.96875 C 35.753906 -6.125 36.890625 -7.429688 37.890625 -8.890625 C 38.898438 -10.359375 39.710938 -11.75 40.328125 -13.0625 C 40.785156 -14.132812 41.226562 -15.265625 41.65625 -16.453125 C 42.082031 -17.648438 42.488281 -18.90625 42.875 -20.21875 L 43.90625 -20.21875 C 43.519531 -18.832031 43.113281 -17.503906 42.6875 -16.234375 C 42.269531 -14.960938 41.789062 -13.785156 41.25 -12.703125 C 40.550781 -11.085938 39.679688 -9.507812 38.640625 -7.96875 C 37.609375 -6.425781 36.4375 -5.019531 35.125 -3.75 C 33.8125 -2.476562 32.347656 -1.457031 30.734375 -0.6875 C 29.117188 0.0820312 27.347656 0.46875 25.421875 0.46875 C 22.265625 0.46875 19.703125 -0.1875 17.734375 -1.5 C 15.773438 -2.8125 14.234375 -4.503906 13.109375 -6.578125 C 11.992188 -8.660156 11.222656 -11.007812 10.796875 -13.625 C 10.378906 -16.25 10.171875 -18.867188 10.171875 -21.484375 L 10.171875 -47.84375 C 10.171875 -49.757812 9.515625 -51.410156 8.203125 -52.796875 C 6.890625 -54.191406 5.117188 -54.890625 2.890625 -54.890625 Z M 2.890625 -55.6875 "/></g></g></g><g fill="#f6964b" fill-opacity="1"><g transform="translate(191.451435, 102.236149)"><g><path d="M 63.203125 -80.078125 C 63.046875 -80.078125 62.8125 -79.957031 62.5 -79.71875 C 62.195312 -79.488281 61.890625 -79.066406 61.578125 -78.453125 C 61.273438 -77.835938 61.023438 -76.953125 60.828125 -75.796875 C 60.640625 -74.640625 60.546875 -73.097656 60.546875 -71.171875 L 60.546875 -9.9375 C 60.546875 -8.082031 60.640625 -6.554688 60.828125 -5.359375 C 61.023438 -4.171875 61.273438 -3.269531 61.578125 -2.65625 C 61.890625 -2.039062 62.195312 -1.617188 62.5 -1.390625 C 62.8125 -1.160156 63.046875 -1.046875 63.203125 -1.046875 L 63.203125 0 L 49.5625 0 L 49.5625 -1.046875 C 49.71875 -1.046875 49.945312 -1.160156 50.25 -1.390625 C 50.5625 -1.617188 50.851562 -2.039062 51.125 -2.65625 C 51.394531 -3.269531 51.644531 -4.171875 51.875 -5.359375 C 52.113281 -6.554688 52.234375 -8.082031 52.234375 -9.9375 L 52.234375 -47.609375 L 14.328125 -47.609375 L 14.328125 -9.9375 C 14.328125 -8.082031 14.421875 -6.554688 14.609375 -5.359375 C 14.804688 -4.171875 15.054688 -3.269531 15.359375 -2.65625 C 15.671875 -2.039062 15.976562 -1.617188 16.28125 -1.390625 C 16.59375 -1.160156 16.828125 -1.046875 16.984375 -1.046875 L 16.984375 0 L 3.46875 0 L 3.46875 -1.046875 C 3.625 -1.046875 3.851562 -1.160156 4.15625 -1.390625 C 4.46875 -1.617188 4.757812 -2.039062 5.03125 -2.65625 C 5.300781 -3.269531 5.550781 -4.171875 5.78125 -5.359375 C 6.007812 -6.554688 6.125 -8.082031 6.125 -9.9375 L 6.125 -71.171875 C 6.125 -73.097656 6.007812 -74.640625 5.78125 -75.796875 C 5.550781 -76.953125 5.300781 -77.835938 5.03125 -78.453125 C 4.757812 -79.066406 4.46875 -79.488281 4.15625 -79.71875 C 3.851562 -79.957031 3.625 -80.078125 3.46875 -80.078125 L 3.46875 -81.109375 L 16.984375 -81.109375 L 16.984375 -80.078125 C 16.828125 -80.078125 16.59375 -79.957031 16.28125 -79.71875 C 15.976562 -79.488281 15.671875 -79.066406 15.359375 -78.453125 C 15.054688 -77.835938 14.804688 -76.953125 14.609375 -75.796875 C 14.421875 -74.640625 14.328125 -73.097656 14.328125 -71.171875 L 14.328125 -48.640625 L 52.234375 -48.640625 L 52.234375 -71.171875 C 52.234375 -73.097656 52.113281 -74.640625 51.875 -75.796875 C 51.644531 -76.953125 51.394531 -77.835938 51.125 -78.453125 C 50.851562 -79.066406 50.5625 -79.488281 50.25 -79.71875 C 49.945312 -79.957031 49.71875 -80.078125 49.5625 -80.078125 L 49.5625 -81.109375 L 63.203125 -81.109375 Z M 63.203125 -80.078125 "/></g></g></g><g fill="#f6964b" fill-opacity="1"><g transform="translate(258.118581, 102.236149)"><g><path d="M 51.875 0 L 41.25 0 L 41.25 -29.8125 C 40.707031 -26.34375 40.050781 -23.179688 39.28125 -20.328125 C 38.507812 -17.484375 37.625 -14.941406 36.625 -12.703125 C 35.851562 -11.085938 34.96875 -9.507812 33.96875 -7.96875 C 32.96875 -6.425781 31.789062 -5.019531 30.4375 -3.75 C 29.09375 -2.476562 27.628906 -1.457031 26.046875 -0.6875 C 24.472656 0.0820312 22.722656 0.46875 20.796875 0.46875 C 17.640625 0.46875 15.078125 -0.1875 13.109375 -1.5 C 11.148438 -2.8125 9.609375 -4.503906 8.484375 -6.578125 C 7.367188 -8.660156 6.597656 -11.007812 6.171875 -13.625 C 5.753906 -16.25 5.546875 -18.867188 5.546875 -21.484375 L 5.546875 -45.75 C 5.546875 -47.675781 5.429688 -49.21875 5.203125 -50.375 C 4.972656 -51.53125 4.722656 -52.414062 4.453125 -53.03125 C 4.179688 -53.644531 3.890625 -54.066406 3.578125 -54.296875 C 3.273438 -54.535156 3.046875 -54.65625 2.890625 -54.65625 L 2.890625 -55.6875 L 13.640625 -55.6875 L 13.640625 -21.484375 C 13.640625 -20.097656 13.710938 -18.421875 13.859375 -16.453125 C 14.015625 -14.492188 14.34375 -12.570312 14.84375 -10.6875 C 15.34375 -8.800781 16.070312 -7.085938 17.03125 -5.546875 C 18 -4.003906 19.289062 -2.960938 20.90625 -2.421875 C 22.53125 -1.890625 24.113281 -1.890625 25.65625 -2.421875 C 27.195312 -2.960938 28.601562 -3.8125 29.875 -4.96875 C 31.144531 -6.125 32.28125 -7.429688 33.28125 -8.890625 C 34.28125 -10.359375 35.085938 -11.75 35.703125 -13.0625 C 37.398438 -16.757812 38.75 -21.285156 39.75 -26.640625 C 40.75 -31.992188 41.25 -38.363281 41.25 -45.75 C 41.25 -47.675781 41.132812 -49.21875 40.90625 -50.375 C 40.675781 -51.53125 40.425781 -52.414062 40.15625 -53.03125 C 39.882812 -53.644531 39.59375 -54.066406 39.28125 -54.296875 C 38.976562 -54.535156 38.75 -54.65625 38.59375 -54.65625 L 38.59375 -55.6875 L 49.21875 -55.6875 L 49.21875 -9.9375 C 49.21875 -8.007812 49.3125 -6.46875 49.5 -5.3125 C 49.695312 -4.15625 49.945312 -3.25 50.25 -2.59375 C 50.5625 -1.945312 50.875 -1.523438 51.1875 -1.328125 C 51.5 -1.140625 51.726562 -1.046875 51.875 -1.046875 Z M 51.875 0 "/></g></g></g><g fill="#f6964b" fill-opacity="1"><g transform="translate(312.885004, 102.236149)"><g><path d="M 13.75 -25.078125 C 14.289062 -28.773438 15.039062 -32.125 16 -35.125 C 16.96875 -38.125 18.101562 -40.859375 19.40625 -43.328125 C 21.875 -47.867188 24.6875 -51.144531 27.84375 -53.15625 C 28.15625 -53.382812 28.617188 -53.648438 29.234375 -53.953125 C 31.234375 -55.109375 33.347656 -55.859375 35.578125 -56.203125 C 37.816406 -56.554688 40.054688 -56.539062 42.296875 -56.15625 C 46.296875 -55.457031 49.585938 -54.144531 52.171875 -52.21875 C 54.753906 -50.300781 56.71875 -47.972656 58.0625 -45.234375 C 59.40625 -42.503906 60.191406 -39.539062 60.421875 -36.34375 C 60.660156 -33.144531 60.394531 -29.90625 59.625 -26.625 C 58.851562 -23.351562 57.65625 -20.175781 56.03125 -17.09375 C 54.414062 -14.019531 52.453125 -11.285156 50.140625 -8.890625 C 47.296875 -5.960938 43.945312 -3.570312 40.09375 -1.71875 C 36.238281 0.125 32.003906 1.003906 27.390625 0.921875 C 23.378906 1.003906 18.832031 0.0820312 13.75 -1.84375 L 13.0625 -2.203125 C 11.289062 -2.816406 9.785156 -2.890625 8.546875 -2.421875 C 7.316406 -1.960938 6.703125 -1.15625 6.703125 0 L 5.65625 0 L 5.65625 -73.609375 C 5.425781 -75.609375 5.039062 -76.914062 4.5 -77.53125 C 3.96875 -78.144531 3.546875 -78.453125 3.234375 -78.453125 L 2.890625 -79.5 L 13.75 -83.546875 Z M 13.75 -2.765625 C 16.21875 -1.765625 18.585938 -1.050781 20.859375 -0.625 C 23.128906 -0.207031 25.34375 0.0351562 27.5 0.109375 C 31.582031 -0.0351562 35.101562 -1.109375 38.0625 -3.109375 C 41.03125 -5.117188 43.519531 -7.894531 45.53125 -11.4375 C 46.914062 -13.976562 48.007812 -17.039062 48.8125 -20.625 C 49.625 -24.207031 50.03125 -27.847656 50.03125 -31.546875 C 50.03125 -35.242188 49.53125 -38.765625 48.53125 -42.109375 C 47.53125 -45.460938 45.953125 -48.21875 43.796875 -50.375 C 41.785156 -52.375 39.585938 -53.679688 37.203125 -54.296875 C 34.816406 -54.921875 32.316406 -54.578125 29.703125 -53.265625 C 26.773438 -51.566406 24.304688 -49.179688 22.296875 -46.109375 C 20.296875 -43.179688 18.695312 -39.941406 17.5 -36.390625 C 16.3125 -32.847656 15.410156 -29.304688 14.796875 -25.765625 C 14.484375 -24.066406 14.25 -22.375 14.09375 -20.6875 C 13.863281 -18.601562 13.75 -16.484375 13.75 -14.328125 Z M 13.75 -2.765625 "/></g></g></g></svg>