<svg xmlns="http://www.w3.org/2000/svg" xmlns:xlink="http://www.w3.org/1999/xlink" width="500" zoomAndPan="magnify" viewBox="0 0 375 374.999991" height="500" preserveAspectRatio="xMidYMid meet" version="1.0"><defs><clipPath id="2ba185fc1f"><path d="M 13 142.144531 L 362 142.144531 L 362 374.644531 L 13 374.644531 Z M 13 142.144531 " clip-rule="nonzero"/></clipPath><clipPath id="4ce50793df"><path d="M 84.535156 0 L 283 0 L 283 248.25 L 84.535156 248.25 Z M 84.535156 0 " clip-rule="nonzero"/></clipPath></defs><g clip-path="url(#2ba185fc1f)"><path fill="#000000" d="M 348.984375 205.496094 L 354.125 167.542969 C 354.277344 165.882812 354.050781 164.292969 353.519531 162.933594 C 352.839844 161.195312 351.933594 160.285156 350.722656 160.210938 C 348.910156 160.058594 346.941406 161.875 344.597656 165.65625 C 340.136719 172.988281 335.222656 189.773438 332.125 201.339844 C 332.503906 187.503906 333.183594 156.734375 331.898438 148.039062 C 331.367188 144.5625 330.539062 142.824219 329.175781 142.445312 C 328.117188 142.144531 326.910156 142.898438 325.699219 144.488281 C 324.566406 146 323.734375 147.8125 323.28125 149.777344 C 321.464844 157.1875 319.878906 164.21875 318.367188 170.796875 C 318.0625 163.460938 317.308594 158.699219 316.625 155.828125 C 316.398438 154.691406 315.492188 153.9375 314.433594 153.710938 C 313.300781 153.484375 312.242188 153.9375 311.5625 154.917969 C 308.160156 159.910156 305.285156 170.945312 303.394531 179.792969 C 299.691406 184.175781 296.515625 189.46875 294.929688 194.082031 L 273.609375 255.542969 C 269.601562 258.265625 264.839844 261.441406 259.167969 265.222656 C 246.242188 273.6875 235.65625 286.917969 227.71875 304.382812 C 222.199219 316.480469 219.175781 329.484375 218.648438 343.015625 L 217.363281 374.84375 L 218.875 374.917969 L 220.160156 343.089844 C 220.6875 329.785156 223.710938 316.933594 229.082031 304.988281 C 236.867188 287.75 247.226562 274.824219 259.925781 266.429688 C 291.300781 245.792969 295.082031 241.558594 295.230469 241.332031 L 295.308594 241.257812 C 295.382812 241.179688 299.84375 234.527344 306.34375 227.875 C 312.316406 221.828125 321.164062 214.492188 329.855469 214.113281 C 330.839844 214.191406 333.257812 214.644531 333.789062 216.003906 C 334.167969 217.0625 333.335938 218.726562 331.292969 220.84375 C 323.960938 228.175781 297.800781 265.296875 292.433594 276.03125 L 293.796875 276.710938 C 298.9375 266.355469 325.246094 229.007812 332.351562 221.902344 C 334.921875 219.332031 335.828125 217.214844 335.222656 215.476562 C 334.542969 213.585938 332.125 212.90625 330.839844 212.679688 C 332.125 207.3125 339.609375 176.691406 345.882812 166.410156 C 348.605469 161.949219 350.117188 161.648438 350.570312 161.648438 C 351.328125 161.722656 351.78125 162.628906 352.082031 163.460938 C 352.539062 164.671875 352.6875 165.957031 352.613281 167.394531 L 347.472656 205.34375 C 346.941406 212.074219 345.507812 218.652344 343.164062 224.925781 L 329.328125 261.820312 C 327.136719 267.566406 323.960938 272.855469 319.878906 277.542969 L 288.503906 313.152344 C 283.363281 319.050781 280.035156 326.230469 278.976562 333.941406 L 273.457031 374.765625 L 274.96875 374.996094 L 280.488281 334.167969 C 281.472656 326.683594 284.648438 319.804688 289.636719 314.136719 L 321.011719 278.527344 C 325.246094 273.765625 328.496094 268.320312 330.6875 262.347656 L 344.523438 225.457031 C 347.019531 218.953125 348.453125 212.226562 348.984375 205.496094 Z M 324.640625 150.15625 C 325.09375 148.34375 325.851562 146.753906 326.832031 145.394531 C 327.738281 144.183594 328.421875 143.804688 328.722656 143.882812 C 328.875 143.957031 329.78125 144.335938 330.308594 148.191406 C 331.824219 158.925781 330.386719 205.496094 330.308594 207.914062 C 329.78125 210.109375 329.402344 211.769531 329.175781 212.601562 C 322.597656 213.058594 316.023438 217.0625 310.351562 221.902344 C 311.484375 214.265625 315.796875 186.292969 324.640625 150.15625 Z M 296.289062 194.535156 C 297.574219 190.90625 299.84375 186.746094 302.640625 183.042969 C 301.582031 188.183594 300.976562 192.039062 300.976562 192.417969 L 293.945312 240.425781 C 293.265625 241.105469 289.789062 244.28125 275.652344 253.957031 Z M 295.835938 237.777344 L 302.414062 192.644531 C 302.488281 192.34375 306.875 164.21875 312.695312 155.75 C 312.996094 155.296875 313.527344 155.070312 314.054688 155.222656 C 314.585938 155.296875 314.964844 155.675781 315.113281 156.203125 C 315.945312 159.757812 316.929688 166.335938 316.929688 177.296875 C 311.484375 203.078125 308.992188 220.917969 308.613281 223.488281 C 302.867188 228.707031 298.253906 234.527344 295.835938 237.777344 Z M 139.570312 304.308594 C 131.628906 286.769531 121.046875 273.613281 108.117188 265.144531 C 102.449219 261.441406 97.6875 258.191406 93.679688 255.46875 L 72.359375 194.003906 C 70.773438 189.394531 67.597656 184.101562 63.890625 179.714844 C 62.078125 170.945312 59.203125 159.832031 55.726562 154.917969 C 55.046875 154.011719 53.988281 153.558594 52.855469 153.710938 C 51.71875 153.9375 50.886719 154.769531 50.660156 155.828125 C 49.980469 158.699219 49.226562 163.460938 48.921875 170.796875 C 47.488281 164.21875 45.824219 157.113281 44.007812 149.777344 C 43.554688 147.8125 42.722656 146 41.589844 144.488281 C 40.378906 142.824219 39.171875 142.144531 38.113281 142.445312 C 36.75 142.824219 35.84375 144.5625 35.390625 148.039062 C 34.179688 156.734375 34.785156 187.503906 35.164062 201.339844 C 32.140625 189.773438 27.148438 172.988281 22.6875 165.65625 C 20.347656 161.800781 18.304688 160.058594 16.566406 160.210938 C 15.355469 160.285156 14.449219 161.269531 13.769531 162.933594 C 13.238281 164.371094 13.011719 165.882812 13.164062 167.621094 L 18.230469 205.496094 C 18.757812 212.300781 20.269531 219.027344 22.6875 225.457031 L 36.523438 262.273438 C 38.792969 268.246094 42.042969 273.6875 46.203125 278.453125 L 77.574219 314.058594 C 82.566406 319.730469 85.742188 326.609375 86.722656 334.09375 L 92.242188 374.917969 L 93.753906 374.691406 L 88.234375 333.867188 C 87.175781 326.15625 83.925781 318.898438 78.710938 313.078125 L 47.335938 277.46875 C 43.253906 272.855469 40.078125 267.566406 37.886719 261.742188 L 24.050781 224.851562 C 21.707031 218.574219 20.195312 212 19.742188 205.269531 L 14.601562 167.394531 C 14.523438 165.957031 14.675781 164.597656 15.128906 163.460938 C 15.433594 162.707031 15.960938 161.722656 16.640625 161.648438 C 17.171875 161.574219 18.683594 161.949219 21.328125 166.410156 C 27.753906 176.691406 35.238281 207.3125 36.523438 212.679688 C 35.238281 212.90625 32.820312 213.585938 32.140625 215.476562 C 31.460938 217.214844 32.441406 219.332031 35.011719 221.902344 C 42.117188 229.007812 68.429688 266.355469 73.570312 276.710938 L 74.929688 276.03125 C 69.5625 265.296875 43.480469 228.175781 36.070312 220.84375 C 34.03125 218.800781 33.121094 217.140625 33.574219 216.003906 C 34.105469 214.644531 36.523438 214.191406 37.507812 214.113281 C 46.125 214.417969 54.972656 221.75 60.945312 227.800781 C 67.445312 234.453125 71.90625 241.179688 71.980469 241.179688 L 72.058594 241.257812 C 72.207031 241.40625 75.988281 245.714844 107.363281 266.355469 C 120.0625 274.671875 130.421875 287.675781 138.207031 304.910156 C 143.574219 316.855469 146.601562 329.710938 147.128906 343.015625 L 148.414062 374.84375 L 149.925781 374.765625 L 148.640625 342.9375 C 148.113281 329.40625 145.085938 316.402344 139.570312 304.308594 Z M 70.921875 194.535156 L 91.5625 254.03125 C 77.425781 244.355469 73.945312 241.105469 73.265625 240.5 L 66.234375 192.417969 C 66.160156 191.964844 65.554688 188.183594 64.574219 183.042969 C 67.371094 186.746094 69.714844 190.828125 70.921875 194.535156 Z M 36.902344 148.191406 C 37.429688 144.335938 38.339844 143.957031 38.488281 143.882812 C 38.792969 143.804688 39.472656 144.183594 40.378906 145.394531 C 41.363281 146.753906 42.117188 148.34375 42.574219 150.15625 C 51.417969 186.292969 55.726562 214.265625 56.859375 221.902344 C 51.191406 217.0625 44.613281 213.058594 38.035156 212.601562 C 37.808594 211.769531 37.429688 210.109375 36.902344 207.914062 C 36.828125 205.570312 35.390625 159 36.902344 148.191406 Z M 58.601562 223.414062 C 58.222656 220.84375 55.726562 203 50.285156 177.222656 C 50.285156 166.257812 51.265625 159.683594 52.097656 156.128906 C 52.25 155.601562 52.628906 155.222656 53.15625 155.144531 C 53.6875 155.070312 54.214844 155.222656 54.515625 155.675781 C 60.339844 164.144531 64.800781 192.34375 64.800781 192.570312 L 71.375 237.703125 C 68.957031 234.527344 64.34375 228.707031 58.601562 223.414062 Z M 68.050781 358.664062 C 60.566406 356.925781 59.28125 355.640625 57.542969 348.15625 C 57.464844 347.777344 57.164062 347.550781 56.785156 347.550781 C 56.40625 347.550781 56.105469 347.777344 56.03125 348.15625 C 54.289062 355.640625 53.003906 356.925781 45.519531 358.664062 C 45.144531 358.738281 44.917969 359.042969 44.917969 359.421875 C 44.917969 359.796875 45.144531 360.101562 45.519531 360.175781 C 53.003906 361.914062 54.289062 363.199219 56.03125 370.683594 C 56.105469 371.0625 56.40625 371.289062 56.785156 371.289062 C 57.164062 371.289062 57.464844 371.0625 57.542969 370.683594 C 59.28125 363.199219 60.566406 361.914062 68.050781 360.175781 C 68.429688 360.101562 68.65625 359.796875 68.65625 359.421875 C 68.65625 359.042969 68.351562 358.738281 68.050781 358.664062 Z M 56.785156 367.511719 C 55.347656 362.671875 53.535156 360.855469 48.695312 359.421875 C 53.535156 357.984375 55.347656 356.167969 56.785156 351.332031 C 58.222656 356.167969 60.035156 357.984375 64.875 359.421875 C 60.035156 360.855469 58.222656 362.671875 56.785156 367.511719 Z M 358.660156 275.050781 C 358.660156 274.671875 358.433594 274.371094 358.054688 274.292969 C 352.839844 273.082031 352.007812 272.253906 350.796875 267.035156 C 350.722656 266.65625 350.421875 266.429688 350.042969 266.429688 C 349.664062 266.429688 349.363281 266.65625 349.285156 267.035156 C 348.078125 272.253906 347.246094 273.082031 342.027344 274.292969 C 341.652344 274.371094 341.425781 274.671875 341.425781 275.050781 C 341.425781 275.425781 341.652344 275.730469 342.027344 275.804688 C 347.246094 277.015625 348.078125 277.847656 349.285156 283.0625 C 349.363281 283.441406 349.664062 283.667969 350.042969 283.667969 C 350.421875 283.667969 350.722656 283.441406 350.796875 283.0625 C 352.007812 277.847656 352.839844 277.015625 358.054688 275.804688 C 358.433594 275.65625 358.660156 275.351562 358.660156 275.050781 Z M 350.117188 280.039062 C 349.136719 277.242188 347.925781 275.957031 345.128906 275.050781 C 347.925781 274.066406 349.210938 272.855469 350.117188 270.058594 C 351.101562 272.855469 352.308594 274.140625 355.109375 275.050781 C 352.308594 275.957031 351.023438 277.242188 350.117188 280.039062 Z M 44.839844 305.0625 C 42.949219 305.515625 41.589844 305.894531 40.605469 306.5 C 40.910156 307.105469 41.289062 307.785156 41.816406 308.691406 C 41.890625 308.84375 41.890625 309.144531 41.742188 309.296875 C 41.589844 309.449219 41.363281 309.449219 41.136719 309.371094 C 40.304688 308.84375 39.625 308.464844 38.945312 308.164062 C 38.339844 309.144531 37.960938 310.507812 37.507812 312.398438 C 37.429688 312.625 37.28125 312.773438 37.054688 312.773438 C 36.828125 312.773438 36.675781 312.625 36.601562 312.398438 C 36.144531 310.507812 35.769531 309.144531 35.164062 308.164062 C 34.558594 308.464844 33.878906 308.84375 32.972656 309.371094 C 32.894531 309.449219 32.820312 309.449219 32.746094 309.449219 C 32.59375 309.449219 32.515625 309.371094 32.441406 309.296875 C 32.289062 309.144531 32.289062 308.917969 32.367188 308.691406 C 32.894531 307.859375 33.273438 307.179688 33.574219 306.5 C 32.59375 305.894531 31.230469 305.515625 29.34375 305.0625 C 29.117188 304.988281 28.964844 304.835938 28.964844 304.609375 C 28.964844 304.382812 29.117188 304.230469 29.34375 304.15625 C 31.230469 303.703125 32.59375 303.324219 33.574219 302.71875 C 33.273438 302.113281 32.894531 301.433594 32.367188 300.527344 C 32.289062 300.375 32.289062 300.074219 32.441406 299.921875 C 32.59375 299.769531 32.820312 299.769531 33.046875 299.847656 C 33.878906 300.375 34.558594 300.753906 35.238281 301.054688 C 35.84375 300.074219 36.222656 298.710938 36.675781 296.824219 C 36.75 296.597656 36.902344 296.445312 37.128906 296.445312 C 37.355469 296.445312 37.507812 296.597656 37.582031 296.824219 C 38.035156 298.710938 38.414062 300.074219 39.019531 301.054688 C 39.625 300.753906 40.304688 300.375 41.210938 299.847656 C 41.363281 299.769531 41.589844 299.769531 41.816406 299.921875 C 41.96875 300.074219 41.96875 300.300781 41.890625 300.527344 C 41.363281 301.359375 40.984375 302.039062 40.683594 302.71875 C 41.664062 303.324219 43.027344 303.703125 44.917969 304.15625 C 45.144531 304.230469 45.292969 304.382812 45.292969 304.609375 C 45.292969 304.835938 45.066406 304.988281 44.839844 305.0625 Z M 318.667969 343.167969 C 318.820312 343.394531 318.742188 343.695312 318.59375 343.921875 C 318.441406 344.074219 318.289062 344.074219 318.140625 344.074219 C 318.0625 344.074219 317.910156 344.074219 317.835938 343.996094 C 316.777344 343.316406 315.871094 342.789062 315.039062 342.484375 C 314.28125 343.769531 313.753906 345.511719 313.148438 348.003906 C 313.074219 348.308594 312.847656 348.457031 312.542969 348.457031 C 312.242188 348.457031 312.015625 348.230469 311.9375 348.003906 C 311.335938 345.511719 310.804688 343.769531 310.050781 342.484375 C 309.21875 342.863281 308.3125 343.316406 307.253906 343.996094 C 307.023438 344.148438 306.722656 344.074219 306.496094 343.921875 C 306.269531 343.695312 306.269531 343.394531 306.421875 343.167969 C 307.101562 342.109375 307.628906 341.199219 307.933594 340.367188 C 306.648438 339.613281 304.910156 339.082031 302.414062 338.480469 C 302.109375 338.402344 301.960938 338.175781 301.960938 337.875 C 301.960938 337.570312 302.1875 337.34375 302.414062 337.269531 C 304.910156 336.664062 306.648438 336.136719 307.933594 335.378906 C 307.554688 334.546875 307.101562 333.640625 306.421875 332.582031 C 306.269531 332.355469 306.34375 332.054688 306.496094 331.824219 C 306.722656 331.597656 307.023438 331.597656 307.253906 331.75 C 308.308594 332.429688 309.21875 332.960938 310.050781 333.261719 C 310.804688 331.976562 311.335938 330.238281 311.9375 327.742188 C 312.015625 327.441406 312.242188 327.289062 312.542969 327.289062 C 312.847656 327.289062 313.074219 327.515625 313.148438 327.742188 C 313.753906 330.238281 314.28125 331.976562 315.039062 333.261719 C 315.871094 332.882812 316.777344 332.429688 317.835938 331.75 C 318.0625 331.597656 318.367188 331.675781 318.59375 331.824219 C 318.820312 332.054688 318.820312 332.355469 318.667969 332.582031 C 317.988281 333.640625 317.457031 334.546875 317.15625 335.378906 C 318.441406 336.136719 320.179688 336.664062 322.675781 337.269531 C 322.976562 337.34375 323.128906 337.570312 323.128906 337.875 C 323.128906 338.175781 322.902344 338.402344 322.675781 338.480469 C 320.179688 339.082031 318.441406 339.613281 317.15625 340.367188 C 317.457031 341.199219 317.988281 342.109375 318.667969 343.167969 Z M 358.207031 306.273438 C 356.167969 306.273438 354.425781 307.9375 354.425781 310.054688 C 354.425781 312.167969 356.089844 313.832031 358.207031 313.832031 C 360.324219 313.832031 361.988281 312.167969 361.988281 310.054688 C 361.988281 307.9375 360.25 306.273438 358.207031 306.273438 Z M 358.207031 312.246094 C 356.996094 312.246094 355.9375 311.261719 355.9375 309.976562 C 355.9375 308.691406 356.921875 307.710938 358.207031 307.710938 C 359.492188 307.710938 360.476562 308.691406 360.476562 309.976562 C 360.476562 311.261719 359.417969 312.246094 358.207031 312.246094 Z M 323.582031 362.21875 C 321.691406 362.21875 320.105469 363.804688 320.105469 365.695312 C 320.105469 367.585938 321.691406 369.171875 323.582031 369.171875 C 325.472656 369.171875 327.058594 367.585938 327.058594 365.695312 C 327.058594 363.804688 325.472656 362.21875 323.582031 362.21875 Z M 323.582031 367.660156 C 322.523438 367.660156 321.617188 366.753906 321.617188 365.695312 C 321.617188 364.636719 322.523438 363.730469 323.582031 363.730469 C 324.640625 363.730469 325.546875 364.636719 325.546875 365.695312 C 325.546875 366.753906 324.640625 367.660156 323.582031 367.660156 Z M 329.480469 303.476562 C 329.480469 304.382812 328.796875 305.0625 327.890625 305.0625 C 326.984375 305.0625 326.304688 304.382812 326.304688 303.476562 C 326.304688 302.570312 326.984375 301.886719 327.890625 301.886719 C 328.796875 301.886719 329.480469 302.570312 329.480469 303.476562 Z M 71.753906 333.035156 C 71.753906 334.019531 71 334.773438 70.015625 334.773438 C 69.03125 334.773438 68.277344 334.019531 68.277344 333.035156 C 68.277344 332.054688 69.03125 331.296875 70.015625 331.296875 C 71 331.296875 71.753906 332.054688 71.753906 333.035156 Z M 17.246094 332.28125 C 14.976562 332.28125 13.089844 334.167969 13.089844 336.4375 C 13.089844 338.707031 14.976562 340.597656 17.246094 340.597656 C 19.515625 340.597656 21.402344 338.707031 21.402344 336.4375 C 21.402344 334.167969 19.515625 332.28125 17.246094 332.28125 Z M 17.246094 339.082031 C 15.808594 339.082031 14.601562 337.875 14.601562 336.4375 C 14.601562 335 15.808594 333.792969 17.246094 333.792969 C 18.683594 333.792969 19.890625 335 19.890625 336.4375 C 19.890625 337.875 18.683594 339.082031 17.246094 339.082031 Z M 23.292969 267.113281 C 21.402344 267.113281 19.890625 268.625 19.890625 270.511719 C 19.890625 272.402344 21.402344 273.914062 23.292969 273.914062 C 25.183594 273.914062 26.695312 272.402344 26.695312 270.511719 C 26.773438 268.625 25.183594 267.113281 23.292969 267.113281 Z M 23.292969 272.402344 C 22.234375 272.402344 21.402344 271.570312 21.402344 270.511719 C 21.402344 269.457031 22.234375 268.625 23.292969 268.625 C 24.351562 268.625 25.183594 269.457031 25.183594 270.511719 C 25.183594 271.570312 24.351562 272.402344 23.292969 272.402344 Z M 23.292969 272.402344 " fill-opacity="1" fill-rule="nonzero"/></g><g clip-path="url(#4ce50793df)"><path fill="#000000" d="M 273.214844 125.972656 C 271 122.433594 268.460938 119.148438 265.59375 116.113281 C 262.726562 113.078125 259.589844 110.351562 256.183594 107.941406 C 252.773438 105.527344 249.164062 103.472656 245.347656 101.773438 C 241.535156 100.078125 237.589844 98.773438 233.515625 97.855469 C 229.109375 96.855469 224.644531 96.324219 220.125 96.265625 C 218.496094 67.246094 216.375 32.054688 216.054688 26.710938 C 220.160156 25.667969 226.308594 18.777344 228.453125 12.644531 C 229.996094 8.179688 229.480469 4.542969 226.964844 2.058594 C 225.378906 0.496094 223.492188 -0.0117188 221.550781 0.601562 C 218.265625 1.621094 215.101562 5.855469 213.613281 11.046875 C 210.703125 6.007812 206.84375 2.742188 203.472656 2.554688 C 202.09375 2.480469 200.121094 2.886719 198.589844 5.300781 C 196.75 8.199219 197.019531 11.746094 199.367188 15.589844 C 202.878906 21.320312 210.335938 26.335938 214.4375 26.796875 C 214.761719 32.113281 216.871094 67.257812 218.503906 96.261719 C 211.140625 96.351562 204.011719 97.695312 197.121094 100.292969 C 184.226562 75.128906 169.230469 46.199219 166.871094 41.648438 C 170.207031 39.019531 173.015625 30.238281 172.519531 23.765625 C 172.125 19.078125 170.171875 15.945312 166.855469 14.695312 C 164.773438 13.90625 162.851562 14.199219 161.308594 15.554688 C 158.726562 17.820312 157.566406 22.992188 158.308594 28.316406 C 153.617188 24.890625 148.789062 23.453125 145.628906 24.648438 C 144.328125 25.140625 142.699219 26.316406 142.277344 29.144531 C 141.78125 32.539062 143.460938 35.683594 147.160156 38.230469 C 151.445312 41.207031 157.726562 42.792969 162.171875 42.792969 C 163.300781 42.816406 164.40625 42.679688 165.492188 42.375 C 167.839844 46.921875 182.761719 75.746094 195.65625 100.882812 C 192.128906 102.308594 188.753906 104.039062 185.535156 106.066406 C 178.078125 110.75 171.863281 116.722656 166.890625 123.984375 L 166.5625 123.757812 C 166.519531 123.71875 166.472656 123.6875 166.421875 123.660156 C 161.785156 120.511719 156.765625 118.175781 151.371094 116.652344 L 151.34375 116.652344 C 149.753906 116.199219 148.132812 115.824219 146.476562 115.523438 C 144.792969 115.214844 143.097656 114.992188 141.390625 114.851562 C 139.683594 114.710938 137.976562 114.65625 136.261719 114.683594 C 134.550781 114.710938 132.84375 114.820312 131.140625 115.015625 C 129.441406 115.210938 127.753906 115.492188 126.078125 115.851562 C 124.40625 116.210938 122.753906 116.65625 121.125 117.179688 C 119.492188 117.703125 117.890625 118.304688 116.320312 118.984375 C 114.75 119.664062 113.214844 120.421875 111.71875 121.25 C 110.222656 122.082031 108.769531 122.984375 107.359375 123.960938 C 105.953125 124.933594 104.597656 125.972656 103.289062 127.082031 C 101.984375 128.1875 100.734375 129.355469 99.542969 130.585938 C 98.351562 131.816406 97.226562 133.101562 96.160156 134.441406 C 95.09375 135.78125 94.097656 137.171875 93.171875 138.609375 C 92.242188 140.050781 91.386719 141.53125 90.605469 143.054688 C 89.820312 144.574219 89.113281 146.132812 88.484375 147.726562 C 87.855469 149.316406 87.304688 150.9375 86.835938 152.582031 C 86.363281 154.226562 85.976562 155.894531 85.667969 157.578125 C 85.324219 159.484375 85.085938 161.40625 84.953125 163.34375 C 84.953125 163.355469 84.953125 163.371094 84.953125 163.382812 C 84.945312 163.445312 84.945312 163.503906 84.953125 163.566406 C 84.605469 168.871094 85.0625 174.105469 86.328125 179.269531 C 86.328125 179.394531 86.355469 179.515625 86.417969 179.625 C 87.59375 184.28125 89.375 188.6875 91.761719 192.855469 C 91.796875 193 91.871094 193.125 91.980469 193.230469 C 94.898438 198.238281 98.546875 202.644531 102.925781 206.449219 C 103 206.546875 103.089844 206.621094 103.199219 206.675781 C 105.863281 208.957031 108.730469 210.949219 111.796875 212.652344 C 112.253906 214.894531 112.878906 217.09375 113.675781 219.242188 C 114.472656 221.390625 115.425781 223.464844 116.542969 225.464844 C 117.660156 227.464844 118.921875 229.367188 120.332031 231.171875 C 121.742188 232.976562 123.285156 234.664062 124.957031 236.230469 C 126.625 237.800781 128.40625 239.230469 130.300781 240.519531 C 132.191406 241.8125 134.171875 242.953125 136.242188 243.9375 C 138.308594 244.921875 140.441406 245.746094 142.636719 246.402344 C 144.832031 247.058594 147.0625 247.542969 149.332031 247.851562 C 149.375 247.855469 149.414062 247.855469 149.453125 247.851562 L 149.484375 247.851562 C 150.632812 248.003906 151.796875 248.125 152.953125 248.183594 C 153.753906 248.230469 154.546875 248.25 155.339844 248.25 C 159.976562 248.257812 164.5 247.546875 168.910156 246.125 C 173.324219 244.703125 177.410156 242.632812 181.167969 239.921875 L 181.242188 239.867188 C 182.539062 238.929688 183.785156 237.925781 184.980469 236.855469 C 187.652344 234.460938 189.996094 231.78125 192.015625 228.816406 C 194.03125 225.847656 195.664062 222.683594 196.914062 219.320312 C 204.199219 222.078125 211.738281 223.457031 219.53125 223.460938 C 222.359375 223.453125 225.171875 223.257812 227.976562 222.878906 C 230.777344 222.496094 233.539062 221.929688 236.265625 221.179688 C 238.992188 220.429688 241.65625 219.5 244.257812 218.394531 C 246.863281 217.289062 249.378906 216.015625 251.8125 214.578125 C 254.246094 213.136719 256.570312 211.539062 258.789062 209.789062 C 261.011719 208.035156 263.105469 206.144531 265.070312 204.117188 C 267.039062 202.085938 268.863281 199.933594 270.542969 197.660156 C 272.222656 195.386719 273.746094 193.011719 275.109375 190.535156 C 276.472656 188.058594 277.667969 185.503906 278.691406 182.867188 C 279.710938 180.230469 280.554688 177.539062 281.21875 174.792969 C 281.882812 172.042969 282.363281 169.265625 282.65625 166.453125 C 282.949219 163.640625 283.054688 160.820312 282.96875 157.996094 C 282.886719 155.171875 282.617188 152.363281 282.160156 149.574219 C 281.703125 146.785156 281.0625 144.035156 280.238281 141.332031 C 279.414062 138.628906 278.414062 135.988281 277.238281 133.417969 C 276.0625 130.847656 274.722656 128.367188 273.214844 125.972656 Z M 148.039062 36.925781 C 145.832031 35.40625 143.308594 32.855469 143.824219 29.375 C 144.070312 27.714844 144.859375 26.625 146.164062 26.128906 C 146.769531 25.914062 147.394531 25.808594 148.039062 25.820312 C 151.015625 25.820312 155.199219 27.695312 158.949219 30.84375 C 159.082031 30.953125 159.230469 31.015625 159.402344 31.027344 C 159.574219 31.039062 159.730469 31.003906 159.878906 30.914062 C 160.023438 30.824219 160.128906 30.703125 160.195312 30.546875 C 160.257812 30.386719 160.273438 30.226562 160.234375 30.0625 C 158.972656 24.605469 159.882812 18.910156 162.351562 16.75 C 163.4375 15.796875 164.765625 15.601562 166.292969 16.179688 C 169.707031 17.460938 170.699219 21.082031 170.929688 23.894531 C 171.460938 30.472656 168.3125 39.019531 165.574219 40.632812 C 163.046875 42.050781 153.808594 40.902344 148.039062 36.925781 Z M 169.292969 244.328125 C 147.722656 237.839844 118.027344 212.054688 122.144531 176.855469 C 124.386719 174.105469 126.9375 171.671875 129.785156 169.554688 C 129.300781 173.542969 129.257812 177.539062 129.652344 181.539062 C 130.050781 185.535156 130.875 189.445312 132.136719 193.261719 L 132.136719 193.308594 C 133.195312 196.605469 134.507812 199.792969 136.074219 202.878906 C 138.878906 208.398438 142.328125 213.480469 146.421875 218.125 C 149.003906 221.066406 151.792969 223.792969 154.792969 226.304688 C 160.160156 230.847656 166.078125 234.5 172.542969 237.269531 L 172.574219 237.269531 L 172.632812 237.296875 C 174.683594 238.164062 176.777344 238.914062 178.910156 239.554688 C 175.90625 241.554688 172.703125 243.144531 169.292969 244.328125 Z M 96.113281 137.085938 C 111.316406 142.894531 123.359375 155.019531 128.742188 168.320312 C 125.960938 170.40625 123.457031 172.777344 121.226562 175.441406 C 119.199219 171.027344 116.515625 167.0625 113.171875 163.542969 C 106.382812 156.277344 97.566406 151.210938 89.367188 149.8125 C 91 145.242188 93.246094 141 96.113281 137.085938 Z M 148.632812 161.601562 C 141.578125 165.734375 136.277344 171.519531 131.164062 180.621094 C 130.789062 176.492188 130.921875 172.382812 131.570312 168.285156 C 136.765625 164.804688 142.457031 162.578125 148.632812 161.601562 Z M 139.941406 155.558594 C 136.734375 142.550781 140.15625 131.382812 151.347656 118.300781 C 156.125 119.695312 160.601562 121.753906 164.765625 124.476562 C 154.960938 133.402344 149.082031 145.796875 147.480469 160.175781 C 145.804688 160.46875 144.148438 160.855469 142.519531 161.34375 C 141.726562 159.492188 140.855469 157.667969 139.90625 155.890625 C 139.941406 155.78125 139.953125 155.671875 139.941406 155.558594 Z M 169.109375 123.542969 C 171.761719 123.695312 174.382812 124.039062 176.980469 124.582031 C 169.964844 131.851562 165.824219 143.1875 165.574219 155.996094 C 165.546875 157.578125 165.574219 159.160156 165.679688 160.730469 C 163.035156 160.09375 160.355469 159.703125 157.640625 159.554688 L 157.417969 159.554688 C 157.433594 156.34375 157.699219 153.152344 158.207031 149.980469 C 158.71875 146.808594 159.472656 143.695312 160.464844 140.640625 C 161.457031 137.585938 162.683594 134.625 164.132812 131.761719 C 165.585938 128.894531 167.25 126.15625 169.125 123.550781 Z M 177.433594 160.730469 C 177.480469 162.394531 177.617188 164.042969 177.8125 165.6875 C 176.890625 165.136719 175.945312 164.617188 174.976562 164.136719 C 174.910156 164.089844 174.835938 164.050781 174.753906 164.023438 C 172.34375 162.847656 169.847656 161.902344 167.265625 161.179688 C 167.160156 159.480469 167.113281 157.773438 167.148438 156.058594 C 167.390625 143.226562 171.636719 131.953125 178.800781 125.023438 C 182.113281 125.832031 185.328125 126.925781 188.453125 128.292969 C 181.128906 135.839844 177.019531 147.859375 177.433594 160.714844 Z M 136.871094 200.859375 C 135.664062 198.355469 134.632812 195.78125 133.765625 193.140625 C 141.703125 178.265625 156.851562 167.980469 174.34375 165.574219 C 178.90625 167.855469 182.933594 170.855469 186.429688 174.566406 C 167.453125 173.773438 146.730469 184.757812 136.871094 200.847656 Z M 155.808594 159.5 C 154.769531 159.5 153.734375 159.5 152.710938 159.570312 L 152.558594 159.570312 C 151.402344 159.644531 150.261719 159.757812 149.125 159.914062 C 150.746094 146.171875 156.359375 134.359375 165.644531 125.824219 C 162.46875 130.871094 160.042969 136.253906 158.371094 141.976562 C 156.703125 147.699219 155.847656 153.539062 155.808594 159.5 Z M 155.269531 161.074219 C 156.023438 161.074219 156.78125 161.074219 157.542969 161.132812 C 162.460938 161.390625 167.195312 162.46875 171.746094 164.363281 C 155.292969 167.339844 141.113281 177.09375 133.121094 191.019531 C 132.378906 188.445312 131.824219 185.828125 131.449219 183.175781 C 131.558594 183.105469 131.644531 183.011719 131.707031 182.898438 C 137.804688 171.578125 143.753906 165.449219 152.890625 161.152344 C 153.671875 161.105469 154.472656 161.078125 155.269531 161.078125 Z M 167.558594 193.269531 C 170.535156 203.996094 166.421875 219.089844 155.449219 224.75 C 152.953125 222.628906 150.609375 220.355469 148.417969 217.925781 C 150.214844 217.140625 151.808594 216.050781 153.195312 214.660156 C 154.582031 213.265625 155.664062 211.667969 156.441406 209.863281 C 158.085938 206.21875 158.507812 202.050781 157.546875 199.277344 C 160.691406 196.957031 164.03125 194.953125 167.558594 193.269531 Z M 178.777344 189.421875 C 184.269531 205.289062 178.195312 221.277344 163.160156 230.316406 C 163.117188 230.34375 163.082031 230.371094 163.046875 230.40625 C 160.871094 229 158.78125 227.476562 156.773438 225.84375 C 168.066406 219.5625 172.230469 203.761719 169.015625 192.625 C 172.15625 191.222656 175.402344 190.15625 178.761719 189.421875 Z M 156.199219 200.300781 C 156.71875 202.378906 156.558594 205.753906 154.996094 209.226562 C 154.265625 210.933594 153.234375 212.429688 151.898438 213.722656 C 150.5625 215.011719 149.027344 215.992188 147.296875 216.664062 C 146.15625 215.347656 145.074219 213.996094 144.042969 212.621094 C 147.542969 207.976562 151.589844 203.871094 156.183594 200.300781 Z M 172.914062 235.6875 C 170.011719 234.4375 167.210938 232.988281 164.515625 231.339844 C 172.335938 226.484375 177.875 219.734375 180.53125 211.769531 C 181.734375 208.085938 182.316406 204.304688 182.285156 200.433594 C 182.253906 196.558594 181.609375 192.789062 180.347656 189.125 C 183.171875 188.625 186.015625 188.417969 188.882812 188.503906 C 192.261719 194.425781 192.929688 202.636719 190.699219 211.128906 C 187.929688 221.628906 181.296875 230.773438 172.898438 235.6875 Z M 189.476562 186.945312 C 189.414062 186.933594 189.347656 186.933594 189.28125 186.945312 C 185.871094 186.804688 182.492188 187.070312 179.148438 187.738281 C 175.203125 188.53125 171.398438 189.769531 167.742188 191.449219 C 167.714844 191.460938 167.691406 191.46875 167.667969 191.484375 C 162.828125 193.746094 158.324219 196.554688 154.164062 199.910156 C 150.007812 203.261719 146.308594 207.066406 143.070312 211.316406 C 141.074219 208.53125 139.292969 205.617188 137.722656 202.570312 C 147.175781 186.285156 169.070312 174.804688 187.949219 176.257812 C 190.859375 179.675781 193.171875 183.457031 194.894531 187.601562 C 193.097656 187.253906 191.289062 187.035156 189.464844 186.945312 Z M 196.953125 188.519531 C 196.933594 188.410156 196.890625 188.304688 196.828125 188.210938 C 195.003906 183.410156 192.425781 179.050781 189.089844 175.136719 C 189.03125 175.003906 188.9375 174.894531 188.8125 174.8125 C 186.109375 171.699219 183.035156 169.011719 179.589844 166.746094 C 179.285156 164.730469 179.097656 162.703125 179.03125 160.664062 C 178.621094 147.996094 182.722656 136.203125 190 128.933594 C 193.820312 130.738281 197.445312 132.875 200.875 135.339844 C 194.988281 142.019531 191.78125 152.777344 192.28125 164.371094 C 192.78125 175.960938 196.742188 186.238281 202.957031 192.382812 C 201.5 192.90625 200.03125 193.375 198.546875 193.871094 C 198.121094 192.054688 197.582031 190.269531 196.9375 188.519531 Z M 225.5 181.167969 C 219.9375 177.199219 218.023438 171.527344 217.414062 167.433594 C 216.546875 161.628906 217.859375 156.574219 219.566406 153.9375 C 224.722656 160.863281 228.851562 168.351562 231.964844 176.402344 C 231.984375 176.449219 232.011719 176.492188 232.039062 176.53125 C 229.933594 178.144531 227.75 179.691406 225.488281 181.167969 Z M 215.847656 167.667969 C 216.734375 173.617188 219.640625 178.691406 224.070312 182.085938 C 221.292969 183.839844 218.445312 185.464844 215.527344 186.957031 C 202.9375 175.058594 203.863281 156.160156 211.929688 144.949219 C 214.28125 147.378906 216.492188 149.933594 218.558594 152.609375 C 216.105469 155.925781 214.988281 162.03125 215.832031 167.667969 Z M 214.03125 187.707031 C 210.953125 189.222656 207.8125 190.585938 204.609375 191.796875 C 198.359375 186.019531 194.339844 175.804688 193.84375 164.320312 C 193.347656 153.066406 196.449219 142.667969 202.128906 136.300781 C 205.1875 138.601562 208.070312 141.101562 210.777344 143.808594 C 202.273438 155.421875 201.152344 175.105469 214.015625 187.707031 Z M 199.53125 207.539062 C 207.058594 205.644531 214.289062 202.953125 221.222656 199.46875 C 228.15625 195.980469 234.628906 191.78125 240.636719 186.871094 C 259.011719 171.890625 270.820312 151.972656 274.082031 130.570312 C 276.226562 134.558594 277.910156 138.730469 279.140625 143.089844 C 271.242188 184.066406 232.785156 209.878906 198.304688 214.980469 C 198.917969 212.539062 199.320312 210.0625 199.515625 207.554688 Z M 272.78125 128.308594 C 267.796875 167.832031 233.960938 197.109375 199.628906 205.859375 C 199.785156 202.359375 199.53125 198.886719 198.867188 195.445312 C 200.804688 194.851562 202.722656 194.21875 204.609375 193.511719 C 204.667969 193.5 204.722656 193.476562 204.777344 193.449219 C 212.203125 190.667969 219.246094 187.117188 225.898438 182.804688 C 235.71875 176.507812 244.222656 168.765625 251.410156 159.578125 C 253.003906 157.53125 254.523438 155.390625 255.925781 153.214844 C 255.941406 153.199219 255.953125 153.179688 255.960938 153.160156 C 258.191406 149.714844 260.160156 146.125 261.867188 142.390625 C 264.941406 135.679688 266.988281 128.667969 268.007812 121.359375 C 269.390625 123.109375 270.679688 124.925781 271.875 126.8125 C 272.199219 127.3125 272.488281 127.808594 272.78125 128.308594 Z M 266.632812 119.667969 C 265.851562 126.269531 264.199219 132.648438 261.675781 138.800781 C 260.300781 124.953125 255.539062 114.207031 246.222656 103.9375 C 250.140625 105.804688 253.820312 108.066406 257.261719 110.71875 C 260.703125 113.371094 263.828125 116.351562 266.632812 119.667969 Z M 242.492188 102.316406 C 254.125 114.015625 259.308594 125.507812 260.34375 141.90625 C 259.042969 144.738281 257.582031 147.488281 255.964844 150.15625 C 254.851562 132.980469 242.675781 110.867188 227.449219 98.386719 C 229.355469 98.640625 231.253906 98.980469 233.144531 99.402344 C 236.335938 100.128906 239.453125 101.097656 242.492188 102.308594 Z M 200.714844 14.761719 C 199.316406 12.472656 198.042969 9.121094 199.925781 6.148438 C 200.785156 4.808594 201.871094 4.125 203.171875 4.125 L 203.382812 4.125 C 206.5 4.296875 210.511719 8.195312 213.144531 13.605469 C 213.21875 13.757812 213.332031 13.871094 213.480469 13.953125 C 213.628906 14.03125 213.789062 14.058594 213.957031 14.039062 C 214.125 14.015625 214.269531 13.949219 214.394531 13.832031 C 214.519531 13.71875 214.597656 13.578125 214.632812 13.410156 C 215.675781 7.957031 218.832031 3.074219 221.964844 2.101562 C 223.34375 1.671875 224.632812 2.03125 225.800781 3.179688 C 228.398438 5.738281 227.835938 9.449219 226.910156 12.101562 C 224.742188 18.335938 218.386719 24.890625 215.234375 25.230469 C 212.355469 25.507812 204.375 20.730469 200.714844 14.761719 Z M 218.863281 102.613281 C 218.875 102.820312 218.957031 103 219.105469 103.140625 C 219.257812 103.285156 219.441406 103.359375 219.648438 103.359375 L 219.695312 103.359375 C 219.914062 103.347656 220.09375 103.261719 220.242188 103.097656 C 220.386719 102.9375 220.453125 102.746094 220.445312 102.527344 C 220.359375 100.996094 220.269531 99.433594 220.179688 97.855469 C 221.609375 97.855469 223.042969 97.941406 224.476562 98.058594 C 240.726562 110.253906 254.398438 135.085938 254.46875 152.550781 C 253.425781 154.152344 252.324219 155.726562 251.175781 157.265625 C 245.320312 132.609375 225.5 109.101562 203.015625 100.046875 C 208.113281 98.648438 213.308594 97.917969 218.59375 97.855469 C 218.6875 99.457031 218.773438 101.050781 218.863281 102.613281 Z M 186.359375 107.398438 C 189.542969 105.394531 192.875 103.691406 196.363281 102.285156 L 200.253906 109.875 C 200.402344 110.164062 200.636719 110.308594 200.957031 110.308594 C 201.085938 110.304688 201.207031 110.277344 201.320312 110.21875 C 201.515625 110.117188 201.644531 109.964844 201.710938 109.753906 C 201.777344 109.546875 201.761719 109.347656 201.664062 109.152344 L 197.847656 101.714844 C 198.730469 101.382812 199.621094 101.078125 200.511719 100.792969 C 223.714844 109.222656 244.421875 133.550781 249.925781 158.890625 C 247.773438 161.648438 245.472656 164.28125 243.027344 166.785156 C 235.710938 138.320312 209.6875 113.734375 182.871094 109.765625 C 184.003906 108.929688 185.164062 108.148438 186.359375 107.398438 Z M 181.074219 111.125 C 208.085938 114.285156 234.675781 139.171875 241.695312 167.960938 C 241.707031 168 241.726562 168.039062 241.746094 168.078125 C 239.074219 170.710938 236.265625 173.191406 233.316406 175.515625 C 230.960938 169.46875 228.023438 163.722656 224.5 158.273438 C 220.980469 152.824219 216.945312 147.785156 212.398438 143.152344 C 209.320312 140.03125 206.015625 137.171875 202.480469 134.578125 C 198.617188 131.722656 194.503906 129.289062 190.144531 127.273438 L 190.113281 127.273438 C 186.441406 125.582031 182.640625 124.273438 178.707031 123.339844 C 175.910156 122.691406 173.078125 122.257812 170.210938 122.042969 C 173.375 117.949219 176.996094 114.308594 181.074219 111.125 Z M 146.175781 117.074219 C 147.363281 117.292969 148.527344 117.550781 149.675781 117.84375 C 142.671875 126.117188 135.5625 137.222656 137.628906 151.914062 C 135.363281 148.253906 132.773438 144.832031 129.867188 141.652344 C 129.894531 141.539062 129.894531 141.421875 129.867188 141.308594 C 128.234375 131.210938 129.992188 123.242188 135.382812 116.261719 C 139.007812 116.148438 142.605469 116.414062 146.175781 117.066406 Z M 120.335938 132.675781 C 119 129.886719 118.496094 124.25 120.128906 119.171875 C 124.40625 117.636719 128.808594 116.703125 133.339844 116.367188 C 127.320312 124.839844 127.234375 133.4375 128.050781 139.753906 C 125.671875 137.355469 123.128906 135.152344 120.410156 133.144531 C 120.4375 132.976562 120.414062 132.820312 120.335938 132.667969 Z M 118.28125 119.875 C 117.246094 123.800781 117.246094 127.730469 118.28125 131.65625 C 114.882812 129.339844 111.292969 127.382812 107.503906 125.785156 C 107.75 125.609375 108 125.417969 108.253906 125.242188 C 111.394531 123.078125 114.738281 121.285156 118.28125 119.867188 Z M 106.011719 126.917969 C 121.710938 133.183594 134.3125 146.191406 141.050781 161.867188 C 137.316406 163.132812 133.816406 164.863281 130.542969 167.066406 C 130.429688 167.113281 130.332031 167.183594 130.25 167.273438 L 130.0625 167.410156 C 124.476562 153.953125 112.367188 141.753906 97.105469 135.777344 C 99.703125 132.449219 102.671875 129.492188 106.011719 126.90625 Z M 88.871094 151.34375 C 101.953125 153.4375 114.925781 164.769531 120.074219 176.898438 C 117.601562 180.121094 115.609375 183.621094 114.09375 187.390625 C 113.460938 187.285156 112.828125 187.175781 112.195312 187.058594 C 108.84375 174.941406 98.441406 165.128906 86.582031 162.863281 C 86.714844 161.203125 86.921875 159.535156 87.226562 157.859375 C 87.632812 155.652344 88.179688 153.480469 88.871094 151.34375 Z M 111.363281 197.625 C 105.09375 196.351562 99.007812 194.492188 93.101562 192.046875 C 91.054688 188.46875 89.46875 184.699219 88.339844 180.734375 C 95.691406 184.34375 103.382812 186.9375 111.414062 188.523438 C 112.113281 188.664062 112.8125 188.78125 113.515625 188.902344 C 112.5 191.734375 111.78125 194.644531 111.363281 197.625 Z M 86.472656 164.457031 C 97.425781 166.628906 107.046875 175.574219 110.445312 186.707031 C 102.554688 185.027344 95.007812 182.367188 87.808594 178.722656 C 86.679688 174.03125 86.234375 169.277344 86.472656 164.457031 Z M 94.476562 194.304688 C 99.894531 196.40625 105.457031 198.027344 111.15625 199.164062 C 111.074219 199.945312 111.007812 200.726562 110.96875 201.519531 C 110.863281 203.582031 110.902344 205.644531 111.082031 207.703125 C 108.757812 207 106.402344 206.214844 104.015625 205.289062 C 100.308594 202.085938 97.128906 198.421875 94.476562 194.300781 Z M 107.992188 208.417969 C 109.089844 208.78125 110.179688 209.121094 111.265625 209.441406 C 111.316406 209.835938 111.363281 210.230469 111.421875 210.625 C 110.246094 209.929688 109.101562 209.191406 107.992188 208.410156 Z M 112.492188 203.765625 C 115.363281 221.230469 126.175781 235.914062 142.742188 244.789062 C 141.65625 244.453125 140.585938 244.074219 139.527344 243.652344 C 138.46875 243.234375 137.433594 242.769531 136.410156 242.265625 C 135.390625 241.761719 134.394531 241.21875 133.417969 240.636719 C 132.441406 240.054688 131.488281 239.433594 130.558594 238.773438 C 129.632812 238.117188 128.734375 237.421875 127.859375 236.691406 C 126.988281 235.960938 126.148438 235.195312 125.335938 234.398438 C 124.523438 233.601562 123.746094 232.773438 123 231.914062 C 122.253906 231.054688 121.546875 230.167969 120.871094 229.25 C 120.195312 228.335938 119.558594 227.394531 118.957031 226.429688 C 118.359375 225.460938 117.796875 224.472656 117.277344 223.460938 C 116.757812 222.453125 116.277344 221.421875 115.835938 220.371094 C 115.398438 219.324219 115 218.257812 114.644531 217.175781 C 114.292969 216.097656 113.980469 215.003906 113.714844 213.898438 C 113.445312 212.792969 113.222656 211.675781 113.042969 210.554688 C 112.867188 209.429688 112.730469 208.300781 112.644531 207.167969 C 112.554688 206.035156 112.511719 204.898438 112.511719 203.761719 Z M 153.046875 246.609375 C 151.882812 246.550781 150.738281 246.429688 149.578125 246.277344 C 127.316406 237.058594 113.757812 218.085938 113.296875 195.492188 C 114.480469 189.574219 116.816406 184.15625 120.304688 179.234375 C 118.957031 198.144531 127.0625 212.742188 134.332031 221.804688 C 142.867188 232.453125 154.796875 241.03125 166.652344 245.136719 C 162.195312 246.359375 157.660156 246.851562 153.046875 246.605469 Z M 183.929688 235.699219 C 182.859375 236.667969 181.742188 237.574219 180.597656 238.417969 C 178.601562 237.871094 176.644531 237.214844 174.71875 236.460938 C 182.988281 231.214844 189.472656 222.03125 192.222656 211.558594 C 194.449219 203.082031 193.898438 194.832031 190.734375 188.640625 C 192.355469 188.769531 193.960938 189.011719 195.546875 189.359375 C 196.265625 191.347656 196.832031 193.378906 197.25 195.453125 C 197.664062 197.527344 197.925781 199.617188 198.03125 201.730469 C 198.136719 203.84375 198.085938 205.949219 197.878906 208.054688 C 197.675781 210.160156 197.3125 212.238281 196.796875 214.289062 C 196.285156 216.339844 195.621094 218.34375 194.808594 220.292969 C 193.996094 222.246094 193.046875 224.128906 191.957031 225.941406 C 190.863281 227.753906 189.648438 229.476562 188.300781 231.105469 C 186.953125 232.738281 185.496094 234.261719 183.925781 235.675781 Z M 197.441406 217.851562 C 197.566406 217.46875 197.695312 217.082031 197.808594 216.695312 C 214.5625 214.332031 231.878906 207.1875 246.082031 196.652344 C 258.523438 187.417969 274.230469 171.367188 280.003906 146.574219 C 281.324219 152.589844 281.734375 158.664062 281.226562 164.800781 C 271.652344 196.125 245.246094 217.210938 210.566406 221.234375 C 208.929688 220.996094 207.300781 220.691406 205.671875 220.328125 C 202.871094 219.679688 200.128906 218.839844 197.441406 217.8125 Z M 252.449219 212.355469 C 249.835938 214.007812 247.113281 215.457031 244.277344 216.703125 C 241.445312 217.949219 238.535156 218.972656 235.546875 219.777344 C 232.5625 220.585938 229.53125 221.164062 226.457031 221.511719 C 223.378906 221.863281 220.296875 221.976562 217.203125 221.863281 C 231.613281 219.21875 244.792969 213.433594 255.644531 204.964844 C 261.046875 200.738281 265.820312 195.890625 269.960938 190.421875 C 274.101562 184.949219 277.472656 179.042969 280.074219 172.695312 C 280.007812 173.007812 279.945312 173.320312 279.875 173.625 C 278.980469 177.597656 277.707031 181.441406 276.050781 185.15625 C 274.394531 188.875 272.386719 192.394531 270.035156 195.714844 C 267.679688 199.035156 265.023438 202.089844 262.066406 204.886719 C 259.105469 207.679688 255.902344 210.15625 252.449219 212.3125 Z M 252.449219 212.355469 " fill-opacity="1" fill-rule="nonzero"/></g></svg>