<svg xmlns="http://www.w3.org/2000/svg" xmlns:xlink="http://www.w3.org/1999/xlink" width="500" zoomAndPan="magnify" viewBox="0 0 375 374.999991" height="500" preserveAspectRatio="xMidYMid meet" version="1.0"><defs><clipPath id="d26aff8981"><path d="M 41.027344 140.210938 L 337.277344 140.210938 L 337.277344 337.460938 L 41.027344 337.460938 Z M 41.027344 140.210938 " clip-rule="nonzero"/></clipPath><clipPath id="394532834d"><path d="M 102.027344 20 L 271 20 L 271 230.527344 L 102.027344 230.527344 Z M 102.027344 20 " clip-rule="nonzero"/></clipPath></defs><g clip-path="url(#d26aff8981)"><path fill="#000000" d="M 326.082031 193.886719 L 330.4375 161.730469 C 330.5625 160.324219 330.371094 158.976562 329.921875 157.824219 C 329.347656 156.351562 328.578125 155.582031 327.554688 155.519531 C 326.015625 155.390625 324.351562 156.925781 322.363281 160.128906 C 318.585938 166.34375 314.421875 180.5625 311.796875 190.363281 C 312.117188 178.640625 312.691406 152.570312 311.605469 145.207031 C 311.15625 142.257812 310.453125 140.785156 309.296875 140.464844 C 308.402344 140.210938 307.375 140.851562 306.351562 142.195312 C 305.390625 143.476562 304.6875 145.011719 304.300781 146.679688 C 302.765625 152.957031 301.417969 158.914062 300.136719 164.484375 C 299.882812 158.273438 299.242188 154.238281 298.664062 151.804688 C 298.472656 150.84375 297.703125 150.203125 296.808594 150.011719 C 295.847656 149.816406 294.949219 150.203125 294.375 151.035156 C 291.492188 155.261719 289.058594 164.613281 287.457031 172.109375 C 284.316406 175.824219 281.628906 180.308594 280.28125 184.214844 L 262.21875 236.289062 C 258.824219 238.597656 254.789062 241.285156 249.984375 244.488281 C 239.03125 251.664062 230.0625 262.871094 223.339844 277.667969 C 218.664062 287.917969 216.101562 298.933594 215.652344 310.398438 L 214.5625 337.367188 L 215.84375 337.429688 L 216.933594 310.464844 C 217.382812 299.191406 219.945312 288.300781 224.492188 278.179688 C 231.089844 263.578125 239.863281 252.625 250.625 245.515625 C 277.207031 228.027344 280.410156 224.441406 280.539062 224.246094 L 280.601562 224.183594 C 280.667969 224.121094 284.445312 218.484375 289.953125 212.847656 C 295.015625 207.722656 302.507812 201.507812 309.875 201.1875 C 310.707031 201.253906 312.757812 201.636719 313.207031 202.789062 C 313.527344 203.6875 312.820312 205.097656 311.089844 206.890625 C 304.878906 213.101562 282.714844 244.554688 278.167969 253.648438 L 279.320312 254.226562 C 283.675781 245.449219 305.96875 213.808594 311.988281 207.785156 C 314.167969 205.609375 314.933594 203.816406 314.421875 202.339844 C 313.847656 200.742188 311.796875 200.164062 310.707031 199.972656 C 311.796875 195.425781 318.136719 169.480469 323.453125 160.769531 C 325.761719 156.992188 327.042969 156.734375 327.425781 156.734375 C 328.066406 156.800781 328.449219 157.566406 328.707031 158.273438 C 329.089844 159.296875 329.21875 160.386719 329.15625 161.605469 L 324.800781 193.757812 C 324.351562 199.460938 323.132812 205.03125 321.148438 210.347656 L 309.425781 241.605469 C 307.570312 246.476562 304.878906 250.957031 301.417969 254.929688 L 274.835938 285.097656 C 270.480469 290.09375 267.664062 296.179688 266.765625 302.714844 L 262.089844 337.300781 L 263.371094 337.496094 L 268.046875 302.90625 C 268.878906 296.566406 271.570312 290.734375 275.796875 285.933594 L 302.378906 255.761719 C 305.96875 251.726562 308.722656 247.113281 310.578125 242.054688 L 322.300781 210.796875 C 324.414062 205.289062 325.632812 199.585938 326.082031 193.886719 Z M 305.453125 147 C 305.839844 145.460938 306.480469 144.117188 307.3125 142.964844 C 308.082031 141.9375 308.65625 141.617188 308.914062 141.683594 C 309.042969 141.746094 309.8125 142.066406 310.257812 145.332031 C 311.539062 154.429688 310.324219 193.886719 310.257812 195.9375 C 309.8125 197.792969 309.492188 199.203125 309.296875 199.90625 C 303.726562 200.292969 298.152344 203.6875 293.347656 207.785156 C 294.308594 201.316406 297.960938 177.617188 305.453125 147 Z M 281.433594 184.597656 C 282.523438 181.523438 284.445312 178 286.816406 174.863281 C 285.917969 179.21875 285.40625 182.484375 285.40625 182.804688 L 279.449219 223.480469 C 278.871094 224.054688 275.925781 226.746094 263.949219 234.945312 Z M 281.050781 221.238281 L 286.625 182.996094 C 286.6875 182.742188 290.402344 158.914062 295.335938 151.738281 C 295.589844 151.355469 296.039062 151.164062 296.488281 151.289062 C 296.9375 151.355469 297.257812 151.675781 297.382812 152.125 C 298.089844 155.132812 298.921875 160.707031 298.921875 169.996094 C 294.308594 191.835938 292.195312 206.953125 291.875 209.132812 C 287.007812 213.550781 283.101562 218.484375 281.050781 221.238281 Z M 148.652344 277.605469 C 141.925781 262.746094 132.957031 251.597656 122.003906 244.425781 C 117.203125 241.285156 113.167969 238.53125 109.769531 236.226562 L 91.707031 184.152344 C 90.363281 180.242188 87.671875 175.757812 84.535156 172.042969 C 82.996094 164.613281 80.5625 155.199219 77.617188 151.035156 C 77.039062 150.265625 76.144531 149.882812 75.183594 150.011719 C 74.222656 150.203125 73.515625 150.90625 73.324219 151.804688 C 72.75 154.238281 72.109375 158.273438 71.851562 164.484375 C 70.632812 158.914062 69.226562 152.890625 67.6875 146.679688 C 67.304688 145.011719 66.597656 143.476562 65.636719 142.195312 C 64.613281 140.785156 63.589844 140.210938 62.691406 140.464844 C 61.539062 140.785156 60.769531 142.257812 60.386719 145.207031 C 59.359375 152.570312 59.875 178.640625 60.195312 190.363281 C 57.632812 180.5625 53.402344 166.34375 49.625 160.128906 C 47.640625 156.863281 45.910156 155.390625 44.4375 155.519531 C 43.410156 155.582031 42.644531 156.414062 42.066406 157.824219 C 41.617188 159.042969 41.425781 160.324219 41.554688 161.796875 L 45.847656 193.886719 C 46.292969 199.652344 47.574219 205.351562 49.625 210.796875 L 61.347656 241.992188 C 63.269531 247.050781 66.023438 251.664062 69.546875 255.699219 L 96.128906 285.867188 C 100.355469 290.671875 103.046875 296.5 103.878906 302.839844 L 108.554688 337.429688 L 109.835938 337.238281 L 105.160156 302.648438 C 104.261719 296.117188 101.507812 289.96875 97.089844 285.035156 L 70.507812 254.867188 C 67.046875 250.957031 64.355469 246.472656 62.5 241.542969 L 50.777344 210.285156 C 48.792969 204.96875 47.511719 199.394531 47.125 193.695312 L 42.769531 161.605469 C 42.707031 160.386719 42.835938 159.234375 43.21875 158.273438 C 43.476562 157.632812 43.925781 156.800781 44.5 156.734375 C 44.949219 156.671875 46.230469 156.992188 48.472656 160.769531 C 53.917969 169.480469 60.257812 195.425781 61.347656 199.972656 C 60.257812 200.164062 58.207031 200.742188 57.632812 202.339844 C 57.054688 203.816406 57.886719 205.609375 60.066406 207.785156 C 66.085938 213.808594 88.378906 245.449219 92.734375 254.226562 L 93.886719 253.648438 C 89.339844 244.554688 67.238281 213.101562 60.960938 206.890625 C 59.234375 205.160156 58.464844 203.75 58.847656 202.789062 C 59.296875 201.636719 61.347656 201.253906 62.179688 201.1875 C 69.480469 201.445312 76.976562 207.65625 82.035156 212.78125 C 87.542969 218.417969 91.324219 224.121094 91.386719 224.121094 L 91.453125 224.183594 C 91.578125 224.3125 94.78125 227.964844 121.363281 245.449219 C 132.125 252.496094 140.902344 263.511719 147.5 278.117188 C 152.046875 288.238281 154.609375 299.125 155.058594 310.398438 L 156.144531 337.367188 L 157.425781 337.300781 L 156.339844 310.335938 C 155.890625 298.871094 153.328125 287.851562 148.652344 277.605469 Z M 90.492188 184.597656 L 107.976562 235.007812 C 96 226.808594 93.054688 224.054688 92.476562 223.542969 L 86.519531 182.804688 C 86.457031 182.421875 85.941406 179.21875 85.109375 174.863281 C 87.480469 178 89.464844 181.460938 90.492188 184.597656 Z M 61.667969 145.332031 C 62.117188 142.066406 62.882812 141.746094 63.011719 141.683594 C 63.269531 141.617188 63.84375 141.9375 64.613281 142.964844 C 65.445312 144.117188 66.085938 145.460938 66.472656 147 C 73.964844 177.617188 77.617188 201.316406 78.578125 207.785156 C 73.773438 203.6875 68.199219 200.292969 62.628906 199.90625 C 62.4375 199.203125 62.117188 197.792969 61.667969 195.9375 C 61.601562 193.949219 60.386719 154.492188 61.667969 145.332031 Z M 80.050781 209.066406 C 79.730469 206.890625 77.617188 191.773438 73.003906 169.929688 C 73.003906 160.644531 73.835938 155.070312 74.542969 152.058594 C 74.667969 151.609375 74.988281 151.289062 75.4375 151.226562 C 75.886719 151.164062 76.335938 151.289062 76.589844 151.675781 C 81.523438 158.847656 85.300781 182.742188 85.300781 182.933594 L 90.875 221.171875 C 88.824219 218.484375 84.917969 213.550781 80.050781 209.066406 Z M 88.058594 323.660156 C 81.714844 322.1875 80.625 321.097656 79.152344 314.753906 C 79.089844 314.433594 78.832031 314.242188 78.511719 314.242188 C 78.191406 314.242188 77.9375 314.433594 77.871094 314.753906 C 76.398438 321.097656 75.308594 322.1875 68.96875 323.660156 C 68.648438 323.722656 68.457031 323.980469 68.457031 324.300781 C 68.457031 324.621094 68.648438 324.875 68.96875 324.941406 C 75.308594 326.414062 76.398438 327.503906 77.871094 333.84375 C 77.9375 334.164062 78.191406 334.355469 78.511719 334.355469 C 78.832031 334.355469 79.089844 334.164062 79.152344 333.84375 C 80.625 327.503906 81.714844 326.414062 88.058594 324.941406 C 88.378906 324.875 88.570312 324.621094 88.570312 324.300781 C 88.570312 323.980469 88.3125 323.722656 88.058594 323.660156 Z M 78.511719 331.152344 C 77.296875 327.054688 75.757812 325.515625 71.660156 324.300781 C 75.757812 323.082031 77.296875 321.546875 78.511719 317.445312 C 79.730469 321.546875 81.265625 323.082031 85.367188 324.300781 C 81.265625 325.515625 79.730469 327.054688 78.511719 331.152344 Z M 334.277344 252.816406 C 334.277344 252.496094 334.085938 252.238281 333.765625 252.175781 C 329.347656 251.152344 328.640625 250.445312 327.617188 246.027344 C 327.554688 245.707031 327.296875 245.515625 326.976562 245.515625 C 326.65625 245.515625 326.402344 245.707031 326.335938 246.027344 C 325.3125 250.445312 324.605469 251.152344 320.1875 252.175781 C 319.867188 252.238281 319.675781 252.496094 319.675781 252.816406 C 319.675781 253.136719 319.867188 253.390625 320.1875 253.457031 C 324.605469 254.480469 325.3125 255.1875 326.335938 259.605469 C 326.402344 259.925781 326.65625 260.117188 326.976562 260.117188 C 327.296875 260.117188 327.554688 259.925781 327.617188 259.605469 C 328.640625 255.1875 329.347656 254.480469 333.765625 253.457031 C 334.085938 253.328125 334.277344 253.070312 334.277344 252.816406 Z M 327.042969 257.042969 C 326.207031 254.671875 325.183594 253.585938 322.8125 252.816406 C 325.183594 251.984375 326.273438 250.957031 327.042969 248.589844 C 327.875 250.957031 328.898438 252.046875 331.269531 252.816406 C 328.898438 253.585938 327.808594 254.671875 327.042969 257.042969 Z M 68.390625 278.246094 C 66.792969 278.628906 65.636719 278.949219 64.804688 279.460938 C 65.0625 279.976562 65.382812 280.550781 65.832031 281.320312 C 65.894531 281.449219 65.894531 281.703125 65.765625 281.832031 C 65.636719 281.960938 65.445312 281.960938 65.253906 281.894531 C 64.550781 281.449219 63.972656 281.128906 63.394531 280.871094 C 62.882812 281.703125 62.5625 282.855469 62.179688 284.457031 C 62.117188 284.652344 61.988281 284.777344 61.796875 284.777344 C 61.601562 284.777344 61.476562 284.652344 61.410156 284.457031 C 61.027344 282.855469 60.707031 281.703125 60.195312 280.871094 C 59.679688 281.128906 59.105469 281.449219 58.335938 281.894531 C 58.273438 281.960938 58.207031 281.960938 58.144531 281.960938 C 58.015625 281.960938 57.953125 281.894531 57.886719 281.832031 C 57.757812 281.703125 57.757812 281.511719 57.824219 281.320312 C 58.273438 280.613281 58.59375 280.039062 58.847656 279.460938 C 58.015625 278.949219 56.863281 278.628906 55.261719 278.246094 C 55.070312 278.179688 54.941406 278.054688 54.941406 277.859375 C 54.941406 277.667969 55.070312 277.539062 55.261719 277.476562 C 56.863281 277.09375 58.015625 276.773438 58.847656 276.257812 C 58.59375 275.746094 58.273438 275.171875 57.824219 274.402344 C 57.757812 274.273438 57.757812 274.019531 57.886719 273.890625 C 58.015625 273.761719 58.207031 273.761719 58.398438 273.824219 C 59.105469 274.273438 59.679688 274.59375 60.257812 274.851562 C 60.769531 274.019531 61.089844 272.863281 61.476562 271.261719 C 61.539062 271.070312 61.667969 270.941406 61.859375 270.941406 C 62.050781 270.941406 62.179688 271.070312 62.242188 271.261719 C 62.628906 272.863281 62.949219 274.019531 63.460938 274.851562 C 63.972656 274.59375 64.550781 274.273438 65.316406 273.824219 C 65.445312 273.761719 65.636719 273.761719 65.832031 273.890625 C 65.957031 274.019531 65.957031 274.210938 65.894531 274.402344 C 65.445312 275.105469 65.125 275.683594 64.871094 276.257812 C 65.703125 276.773438 66.855469 277.09375 68.457031 277.476562 C 68.648438 277.539062 68.777344 277.667969 68.777344 277.859375 C 68.777344 278.054688 68.585938 278.179688 68.390625 278.246094 Z M 300.394531 310.527344 C 300.523438 310.71875 300.457031 310.976562 300.332031 311.167969 C 300.203125 311.296875 300.074219 311.296875 299.945312 311.296875 C 299.882812 311.296875 299.753906 311.296875 299.691406 311.234375 C 298.792969 310.65625 298.023438 310.207031 297.320312 309.953125 C 296.679688 311.039062 296.230469 312.515625 295.71875 314.628906 C 295.65625 314.882812 295.460938 315.011719 295.207031 315.011719 C 294.949219 315.011719 294.757812 314.820312 294.695312 314.628906 C 294.179688 312.515625 293.734375 311.039062 293.09375 309.953125 C 292.386719 310.273438 291.621094 310.65625 290.722656 311.234375 C 290.53125 311.359375 290.273438 311.296875 290.082031 311.167969 C 289.890625 310.976562 289.890625 310.71875 290.019531 310.527344 C 290.59375 309.632812 291.042969 308.863281 291.300781 308.160156 C 290.210938 307.519531 288.738281 307.070312 286.625 306.558594 C 286.367188 306.492188 286.238281 306.300781 286.238281 306.042969 C 286.238281 305.789062 286.429688 305.597656 286.625 305.53125 C 288.738281 305.019531 290.210938 304.570312 291.300781 303.929688 C 290.980469 303.226562 290.59375 302.457031 290.019531 301.5625 C 289.890625 301.367188 289.953125 301.113281 290.082031 300.921875 C 290.273438 300.726562 290.53125 300.726562 290.722656 300.855469 C 291.621094 301.433594 292.386719 301.882812 293.09375 302.136719 C 293.734375 301.046875 294.179688 299.574219 294.695312 297.460938 C 294.757812 297.203125 294.949219 297.078125 295.207031 297.078125 C 295.460938 297.078125 295.65625 297.269531 295.71875 297.460938 C 296.230469 299.574219 296.679688 301.046875 297.320312 302.136719 C 298.023438 301.816406 298.792969 301.433594 299.691406 300.855469 C 299.882812 300.726562 300.136719 300.792969 300.332031 300.921875 C 300.523438 301.113281 300.523438 301.367188 300.394531 301.5625 C 299.816406 302.457031 299.371094 303.226562 299.113281 303.929688 C 300.203125 304.570312 301.675781 305.019531 303.789062 305.53125 C 304.046875 305.597656 304.175781 305.789062 304.175781 306.042969 C 304.175781 306.300781 303.980469 306.492188 303.789062 306.558594 C 301.675781 307.070312 300.203125 307.519531 299.113281 308.160156 C 299.371094 308.863281 299.816406 309.632812 300.394531 310.527344 Z M 333.894531 279.269531 C 332.164062 279.269531 330.691406 280.679688 330.691406 282.472656 C 330.691406 284.265625 332.101562 285.675781 333.894531 285.675781 C 335.6875 285.675781 337.097656 284.265625 337.097656 282.472656 C 337.097656 280.679688 335.625 279.269531 333.894531 279.269531 Z M 333.894531 284.332031 C 332.871094 284.332031 331.972656 283.496094 331.972656 282.410156 C 331.972656 281.320312 332.804688 280.488281 333.894531 280.488281 C 334.984375 280.488281 335.816406 281.320312 335.816406 282.410156 C 335.816406 283.496094 334.917969 284.332031 333.894531 284.332031 Z M 304.558594 326.667969 C 302.957031 326.667969 301.613281 328.015625 301.613281 329.617188 C 301.613281 331.21875 302.957031 332.5625 304.558594 332.5625 C 306.160156 332.5625 307.503906 331.21875 307.503906 329.617188 C 307.503906 328.015625 306.160156 326.667969 304.558594 326.667969 Z M 304.558594 331.28125 C 303.660156 331.28125 302.894531 330.511719 302.894531 329.617188 C 302.894531 328.71875 303.660156 327.949219 304.558594 327.949219 C 305.453125 327.949219 306.222656 328.71875 306.222656 329.617188 C 306.222656 330.511719 305.453125 331.28125 304.558594 331.28125 Z M 309.554688 276.898438 C 309.554688 277.667969 308.976562 278.246094 308.210938 278.246094 C 307.441406 278.246094 306.863281 277.667969 306.863281 276.898438 C 306.863281 276.132812 307.441406 275.554688 308.210938 275.554688 C 308.976562 275.554688 309.554688 276.132812 309.554688 276.898438 Z M 91.195312 301.945312 C 91.195312 302.777344 90.554688 303.417969 89.722656 303.417969 C 88.890625 303.417969 88.25 302.777344 88.25 301.945312 C 88.25 301.113281 88.890625 300.472656 89.722656 300.472656 C 90.554688 300.472656 91.195312 301.113281 91.195312 301.945312 Z M 45.011719 301.304688 C 43.089844 301.304688 41.488281 302.90625 41.488281 304.828125 C 41.488281 306.75 43.089844 308.351562 45.011719 308.351562 C 46.933594 308.351562 48.535156 306.75 48.535156 304.828125 C 48.535156 302.90625 46.933594 301.304688 45.011719 301.304688 Z M 45.011719 307.070312 C 43.796875 307.070312 42.769531 306.042969 42.769531 304.828125 C 42.769531 303.609375 43.796875 302.585938 45.011719 302.585938 C 46.230469 302.585938 47.253906 303.609375 47.253906 304.828125 C 47.253906 306.042969 46.230469 307.070312 45.011719 307.070312 Z M 50.136719 246.089844 C 48.535156 246.089844 47.253906 247.371094 47.253906 248.972656 C 47.253906 250.574219 48.535156 251.855469 50.136719 251.855469 C 51.738281 251.855469 53.019531 250.574219 53.019531 248.972656 C 53.082031 247.371094 51.738281 246.089844 50.136719 246.089844 Z M 50.136719 250.574219 C 49.242188 250.574219 48.535156 249.871094 48.535156 248.972656 C 48.535156 248.074219 49.242188 247.371094 50.136719 247.371094 C 51.035156 247.371094 51.738281 248.074219 51.738281 248.972656 C 51.738281 249.871094 51.035156 250.574219 50.136719 250.574219 Z M 50.136719 250.574219 " fill-opacity="1" fill-rule="nonzero"/></g><g clip-path="url(#394532834d)"><path fill="#000000" d="M 261.945312 126.722656 C 260.070312 123.71875 257.914062 120.925781 255.484375 118.351562 C 253.054688 115.773438 250.398438 113.460938 247.507812 111.414062 C 244.621094 109.363281 241.5625 107.621094 238.328125 106.179688 C 235.09375 104.738281 231.75 103.628906 228.296875 102.851562 C 224.5625 102 220.78125 101.550781 216.949219 101.5 C 215.566406 76.867188 213.773438 46.988281 213.5 42.453125 C 216.980469 41.570312 222.191406 35.71875 224.007812 30.511719 C 225.3125 26.722656 224.875 23.632812 222.746094 21.523438 C 221.402344 20.199219 219.804688 19.769531 218.15625 20.289062 C 215.375 21.152344 212.691406 24.75 211.429688 29.15625 C 208.964844 24.878906 205.691406 22.105469 202.835938 21.945312 C 201.667969 21.882812 199.992188 22.226562 198.695312 24.277344 C 197.136719 26.738281 197.367188 29.75 199.355469 33.011719 C 202.332031 37.878906 208.652344 42.136719 212.128906 42.527344 C 212.402344 47.039062 214.191406 76.875 215.574219 101.496094 C 209.332031 101.574219 203.292969 102.714844 197.449219 104.917969 C 186.523438 83.558594 173.8125 59 171.808594 55.132812 C 174.640625 52.902344 177.019531 45.449219 176.597656 39.953125 C 176.265625 35.972656 174.609375 33.3125 171.796875 32.253906 C 170.03125 31.585938 168.40625 31.832031 167.097656 32.980469 C 164.910156 34.90625 163.925781 39.296875 164.554688 43.816406 C 160.578125 40.90625 156.484375 39.6875 153.808594 40.703125 C 152.707031 41.121094 151.324219 42.121094 150.964844 44.519531 C 150.546875 47.402344 151.96875 50.070312 155.105469 52.234375 C 158.738281 54.757812 164.058594 56.105469 167.828125 56.105469 C 168.785156 56.128906 169.722656 56.007812 170.640625 55.753906 C 172.632812 59.613281 185.28125 84.082031 196.210938 105.421875 C 193.21875 106.632812 190.359375 108.101562 187.632812 109.824219 C 181.308594 113.796875 176.042969 118.867188 171.828125 125.035156 L 171.550781 124.839844 C 171.511719 124.808594 171.472656 124.78125 171.433594 124.757812 C 167.5 122.085938 163.246094 120.101562 158.675781 118.808594 L 158.648438 118.808594 C 157.304688 118.425781 155.929688 118.105469 154.527344 117.851562 C 153.097656 117.589844 151.660156 117.398438 150.214844 117.28125 C 148.769531 117.160156 147.320312 117.113281 145.867188 117.136719 C 144.417969 117.160156 142.96875 117.253906 141.527344 117.421875 C 140.085938 117.585938 138.65625 117.824219 137.238281 118.128906 C 135.820312 118.4375 134.417969 118.8125 133.035156 119.253906 C 131.65625 119.699219 130.296875 120.210938 128.964844 120.789062 C 127.636719 121.367188 126.335938 122.007812 125.066406 122.714844 C 123.796875 123.417969 122.566406 124.183594 121.371094 125.011719 C 120.179688 125.839844 119.027344 126.722656 117.921875 127.664062 C 116.8125 128.601562 115.757812 129.59375 114.746094 130.636719 C 113.738281 131.683594 112.78125 132.773438 111.878906 133.910156 C 110.976562 135.050781 110.132812 136.230469 109.34375 137.449219 C 108.558594 138.671875 107.832031 139.929688 107.167969 141.222656 C 106.503906 142.515625 105.90625 143.835938 105.375 145.1875 C 104.839844 146.539062 104.371094 147.914062 103.972656 149.3125 C 103.574219 150.707031 103.246094 152.121094 102.984375 153.550781 C 102.691406 155.171875 102.492188 156.804688 102.378906 158.445312 C 102.378906 158.457031 102.378906 158.46875 102.378906 158.480469 C 102.375 158.53125 102.375 158.585938 102.378906 158.636719 C 102.085938 163.140625 102.472656 167.582031 103.542969 171.964844 C 103.542969 172.074219 103.570312 172.175781 103.621094 172.269531 C 104.617188 176.222656 106.128906 179.964844 108.152344 183.5 C 108.179688 183.625 108.242188 183.730469 108.335938 183.820312 C 110.808594 188.074219 113.902344 191.8125 117.613281 195.039062 C 117.675781 195.125 117.75 195.1875 117.84375 195.234375 C 120.101562 197.171875 122.53125 198.859375 125.132812 200.304688 C 125.519531 202.210938 126.050781 204.078125 126.722656 205.902344 C 127.398438 207.726562 128.207031 209.484375 129.15625 211.183594 C 130.101562 212.882812 131.171875 214.496094 132.367188 216.03125 C 133.5625 217.5625 134.867188 218.996094 136.285156 220.324219 C 137.699219 221.65625 139.210938 222.871094 140.816406 223.964844 C 142.417969 225.0625 144.097656 226.03125 145.851562 226.867188 C 147.601562 227.703125 149.410156 228.402344 151.269531 228.957031 C 153.132812 229.515625 155.023438 229.925781 156.949219 230.191406 C 156.980469 230.191406 157.015625 230.191406 157.046875 230.191406 L 157.074219 230.191406 C 158.046875 230.316406 159.035156 230.421875 160.015625 230.472656 C 160.691406 230.511719 161.363281 230.527344 162.039062 230.527344 C 165.96875 230.535156 169.800781 229.933594 173.539062 228.722656 C 177.28125 227.515625 180.742188 225.761719 183.929688 223.457031 L 183.992188 223.410156 C 185.09375 222.613281 186.148438 221.761719 187.160156 220.855469 C 189.425781 218.820312 191.414062 216.546875 193.121094 214.027344 C 194.832031 211.511719 196.21875 208.824219 197.273438 205.96875 C 203.449219 208.308594 209.839844 209.480469 216.445312 209.480469 C 218.839844 209.476562 221.226562 209.3125 223.601562 208.988281 C 225.976562 208.664062 228.320312 208.183594 230.628906 207.546875 C 232.941406 206.910156 235.199219 206.121094 237.40625 205.183594 C 239.609375 204.246094 241.742188 203.164062 243.804688 201.941406 C 245.867188 200.71875 247.839844 199.363281 249.722656 197.875 C 251.601562 196.390625 253.375 194.785156 255.042969 193.058594 C 256.710938 191.335938 258.257812 189.511719 259.683594 187.578125 C 261.105469 185.648438 262.398438 183.632812 263.550781 181.53125 C 264.707031 179.429688 265.71875 177.257812 266.585938 175.023438 C 267.453125 172.785156 268.167969 170.5 268.730469 168.167969 C 269.292969 165.832031 269.699219 163.472656 269.949219 161.085938 C 270.195312 158.699219 270.285156 156.304688 270.214844 153.90625 C 270.144531 151.507812 269.914062 149.125 269.527344 146.757812 C 269.140625 144.386719 268.597656 142.054688 267.898438 139.761719 C 267.199219 137.464844 266.351562 135.226562 265.355469 133.042969 C 264.359375 130.859375 263.222656 128.753906 261.945312 126.722656 Z M 155.851562 51.128906 C 153.980469 49.835938 151.839844 47.671875 152.277344 44.71875 C 152.488281 43.308594 153.15625 42.378906 154.261719 41.960938 C 154.773438 41.777344 155.304688 41.6875 155.851562 41.699219 C 158.371094 41.699219 161.917969 43.289062 165.097656 45.960938 C 165.34375 46.171875 165.609375 46.191406 165.882812 46.023438 C 166.160156 45.851562 166.257812 45.613281 166.1875 45.296875 C 165.117188 40.667969 165.886719 35.832031 167.980469 33.996094 C 168.902344 33.1875 170.027344 33.023438 171.324219 33.511719 C 174.214844 34.601562 175.054688 37.675781 175.253906 40.0625 C 175.703125 45.648438 173.035156 52.902344 170.714844 54.273438 C 168.570312 55.476562 160.738281 54.503906 155.851562 51.128906 Z M 173.867188 227.199219 C 155.582031 221.6875 130.410156 199.800781 133.902344 169.917969 C 135.804688 167.582031 137.964844 165.519531 140.378906 163.722656 C 139.546875 170.578125 140.210938 177.285156 142.371094 183.84375 L 142.371094 183.886719 C 143.269531 186.683594 144.378906 189.390625 145.707031 192.011719 C 148.085938 196.695312 151.011719 201.011719 154.480469 204.953125 C 156.667969 207.449219 159.03125 209.765625 161.574219 211.898438 C 166.125 215.753906 171.140625 218.855469 176.617188 221.203125 L 176.644531 221.203125 L 176.695312 221.230469 C 178.433594 221.964844 180.207031 222.601562 182.015625 223.144531 C 179.472656 224.84375 176.753906 226.195312 173.867188 227.199219 Z M 111.835938 136.15625 C 124.726562 141.089844 134.929688 151.378906 139.496094 162.671875 C 137.136719 164.441406 135.015625 166.457031 133.121094 168.71875 C 131.40625 164.972656 129.128906 161.605469 126.296875 158.617188 C 120.542969 152.449219 113.070312 148.148438 106.121094 146.960938 C 107.503906 143.082031 109.410156 139.480469 111.835938 136.15625 Z M 156.355469 156.96875 C 150.375 160.476562 145.878906 165.386719 141.546875 173.117188 C 141.226562 169.609375 141.34375 166.121094 141.890625 162.644531 C 146.296875 159.6875 151.117188 157.796875 156.355469 156.96875 Z M 148.984375 151.839844 C 146.265625 140.792969 149.167969 131.316406 158.652344 120.207031 C 162.703125 121.390625 166.496094 123.140625 170.027344 125.453125 C 161.71875 133.027344 156.734375 143.550781 155.375 155.757812 C 153.953125 156.003906 152.554688 156.335938 151.171875 156.75 C 150.5 155.175781 149.757812 153.628906 148.957031 152.121094 C 148.988281 152.027344 148.996094 151.933594 148.984375 151.839844 Z M 173.710938 124.660156 C 175.957031 124.789062 178.179688 125.082031 180.378906 125.539062 C 174.433594 131.710938 170.921875 141.335938 170.714844 152.210938 C 170.6875 153.550781 170.714844 154.894531 170.800781 156.230469 C 168.558594 155.6875 166.289062 155.355469 163.988281 155.230469 L 163.796875 155.230469 C 163.8125 152.503906 164.035156 149.792969 164.46875 147.101562 C 164.902344 144.410156 165.539062 141.765625 166.382812 139.171875 C 167.222656 136.582031 168.261719 134.066406 169.492188 131.632812 C 170.722656 129.203125 172.132812 126.878906 173.722656 124.664062 Z M 180.761719 156.230469 C 180.804688 157.644531 180.917969 159.039062 181.085938 160.4375 C 180.304688 159.96875 179.503906 159.527344 178.683594 159.121094 C 178.625 159.078125 178.5625 159.046875 178.492188 159.023438 C 176.449219 158.027344 174.335938 157.222656 172.144531 156.613281 C 172.058594 155.167969 172.015625 153.71875 172.046875 152.265625 C 172.25 141.371094 175.847656 131.800781 181.921875 125.914062 C 184.730469 126.605469 187.457031 127.53125 190.101562 128.691406 C 183.894531 135.097656 180.414062 145.300781 180.761719 156.214844 Z M 146.382812 190.296875 C 145.363281 188.171875 144.484375 185.988281 143.753906 183.742188 C 150.476562 171.117188 163.320312 162.382812 178.144531 160.339844 C 182.011719 162.277344 185.425781 164.824219 188.386719 167.976562 C 172.304688 167.304688 154.742188 176.625 146.382812 190.285156 Z M 162.4375 155.183594 C 161.554688 155.183594 160.675781 155.183594 159.808594 155.242188 L 159.679688 155.242188 C 158.699219 155.308594 157.734375 155.402344 156.769531 155.535156 C 158.144531 143.871094 162.902344 133.839844 170.773438 126.597656 C 168.078125 130.878906 166.023438 135.449219 164.609375 140.308594 C 163.191406 145.164062 162.46875 150.125 162.4375 155.183594 Z M 161.980469 156.519531 C 162.617188 156.519531 163.261719 156.519531 163.902344 156.570312 C 168.074219 156.789062 172.085938 157.703125 175.941406 159.3125 C 162 161.839844 149.976562 170.117188 143.207031 181.941406 C 142.578125 179.757812 142.105469 177.535156 141.789062 175.285156 C 141.882812 175.222656 141.957031 175.144531 142.007812 175.046875 C 147.175781 165.4375 152.21875 160.234375 159.960938 156.585938 C 160.625 156.546875 161.300781 156.523438 161.980469 156.523438 Z M 172.394531 183.851562 C 174.917969 192.957031 171.433594 205.773438 162.128906 210.578125 C 160.015625 208.777344 158.027344 206.847656 156.167969 204.785156 C 157.695312 204.117188 159.046875 203.191406 160.21875 202.011719 C 161.394531 200.828125 162.3125 199.472656 162.96875 197.941406 C 164.367188 194.847656 164.722656 191.308594 163.90625 188.953125 C 166.574219 186.984375 169.402344 185.28125 172.394531 183.851562 Z M 181.902344 180.585938 C 186.558594 194.054688 181.410156 207.628906 168.667969 215.304688 C 168.632812 215.324219 168.597656 215.351562 168.570312 215.378906 C 166.726562 214.183594 164.953125 212.894531 163.253906 211.507812 C 172.824219 206.175781 176.355469 192.757812 173.628906 183.304688 C 176.289062 182.117188 179.042969 181.210938 181.890625 180.585938 Z M 162.765625 189.820312 C 163.207031 191.585938 163.070312 194.453125 161.746094 197.398438 C 161.128906 198.847656 160.253906 200.121094 159.121094 201.214844 C 157.988281 202.3125 156.6875 203.144531 155.21875 203.710938 C 154.253906 202.597656 153.335938 201.445312 152.460938 200.28125 C 155.429688 196.339844 158.859375 192.851562 162.753906 189.820312 Z M 176.933594 219.863281 C 174.472656 218.800781 172.097656 217.570312 169.8125 216.171875 C 176.441406 212.050781 181.136719 206.320312 183.390625 199.558594 C 184.40625 196.429688 184.902344 193.222656 184.875 189.933594 C 184.851562 186.644531 184.304688 183.445312 183.234375 180.335938 C 185.628906 179.910156 188.039062 179.734375 190.46875 179.808594 C 193.332031 184.832031 193.898438 191.804688 192.007812 199.015625 C 189.660156 207.929688 184.039062 215.691406 176.921875 219.863281 Z M 190.972656 178.480469 C 190.917969 178.472656 190.859375 178.472656 190.804688 178.480469 C 187.914062 178.363281 185.054688 178.589844 182.21875 179.15625 C 178.871094 179.828125 175.648438 180.878906 172.550781 182.308594 C 172.527344 182.316406 172.507812 182.324219 172.488281 182.335938 C 168.382812 184.257812 164.570312 186.640625 161.042969 189.488281 C 157.515625 192.335938 154.382812 195.566406 151.636719 199.175781 C 149.945312 196.808594 148.4375 194.335938 147.105469 191.75 C 155.117188 177.921875 173.675781 168.179688 189.679688 169.410156 C 192.144531 172.3125 194.105469 175.523438 195.5625 179.042969 C 194.042969 178.746094 192.507812 178.558594 190.960938 178.480469 Z M 197.308594 179.820312 C 197.289062 179.726562 197.257812 179.640625 197.203125 179.558594 C 195.65625 175.480469 193.46875 171.78125 190.644531 168.460938 C 190.59375 168.34375 190.515625 168.253906 190.410156 168.183594 C 188.117188 165.539062 185.511719 163.257812 182.589844 161.335938 C 182.332031 159.625 182.175781 157.902344 182.117188 156.175781 C 181.773438 145.417969 185.246094 135.40625 191.414062 129.234375 C 194.652344 130.769531 197.722656 132.582031 200.632812 134.675781 C 195.644531 140.34375 192.921875 149.476562 193.347656 159.316406 C 193.773438 169.160156 197.128906 177.882812 202.398438 183.101562 C 201.160156 183.546875 199.917969 183.941406 198.660156 184.363281 C 198.296875 182.820312 197.84375 181.304688 197.292969 179.820312 Z M 221.503906 173.578125 C 216.789062 170.210938 215.167969 165.394531 214.648438 161.917969 C 213.914062 156.992188 215.027344 152.703125 216.472656 150.460938 C 220.84375 156.339844 224.347656 162.699219 226.984375 169.535156 C 227 169.570312 227.023438 169.609375 227.046875 169.644531 C 225.261719 171.011719 223.410156 172.324219 221.492188 173.578125 Z M 213.320312 162.117188 C 214.074219 167.167969 216.539062 171.476562 220.289062 174.355469 C 217.9375 175.847656 215.523438 177.226562 213.054688 178.496094 C 202.378906 168.394531 203.167969 152.347656 210 142.832031 C 211.996094 144.894531 213.867188 147.0625 215.621094 149.335938 C 213.539062 152.148438 212.59375 157.332031 213.308594 162.117188 Z M 211.785156 179.128906 C 209.175781 180.417969 206.511719 181.574219 203.796875 182.601562 C 198.5 177.699219 195.09375 169.023438 194.671875 159.277344 C 194.25 149.722656 196.882812 140.894531 201.695312 135.492188 C 204.289062 137.441406 206.730469 139.566406 209.027344 141.863281 C 201.816406 151.722656 200.867188 168.429688 211.769531 179.128906 Z M 199.492188 195.96875 C 205.871094 194.359375 212 192.074219 217.878906 189.113281 C 223.757812 186.15625 229.242188 182.589844 234.335938 178.417969 C 249.90625 165.703125 259.914062 148.796875 262.679688 130.625 C 264.5 134.011719 265.925781 137.554688 266.96875 141.253906 C 260.273438 176.039062 227.679688 197.953125 198.453125 202.285156 C 198.972656 200.210938 199.316406 198.109375 199.480469 195.980469 Z M 261.578125 128.707031 C 257.355469 162.257812 228.675781 187.109375 199.578125 194.539062 C 199.710938 191.566406 199.496094 188.621094 198.929688 185.699219 C 200.574219 185.195312 202.199219 184.65625 203.796875 184.058594 C 203.847656 184.046875 203.894531 184.027344 203.941406 184.003906 C 210.234375 181.644531 216.203125 178.628906 221.84375 174.96875 C 230.164062 169.621094 237.371094 163.050781 243.464844 155.253906 C 244.816406 153.515625 246.101562 151.695312 247.292969 149.847656 C 247.304688 149.832031 247.316406 149.820312 247.324219 149.800781 C 249.214844 146.875 250.882812 143.828125 252.328125 140.660156 C 254.933594 134.960938 256.667969 129.011719 257.53125 122.804688 C 258.707031 124.289062 259.796875 125.832031 260.8125 127.433594 C 261.082031 127.859375 261.332031 128.28125 261.578125 128.707031 Z M 256.367188 121.367188 C 255.707031 126.976562 254.304688 132.390625 252.164062 137.613281 C 251 125.855469 246.964844 116.734375 239.066406 108.011719 C 245.789062 111.226562 251.554688 115.675781 256.367188 121.367188 Z M 235.90625 106.636719 C 245.765625 116.570312 250.160156 126.328125 251.039062 140.246094 C 249.933594 142.652344 248.695312 144.984375 247.328125 147.25 C 246.378906 132.671875 236.0625 113.898438 223.15625 103.304688 C 224.773438 103.519531 226.378906 103.808594 227.984375 104.167969 C 230.6875 104.78125 233.328125 105.605469 235.90625 106.632812 Z M 200.496094 32.308594 C 199.3125 30.367188 198.230469 27.523438 199.828125 24.996094 C 200.554688 23.859375 201.476562 23.28125 202.578125 23.28125 L 202.757812 23.28125 C 205.398438 23.425781 208.800781 26.734375 211.03125 31.328125 C 211.171875 31.613281 211.402344 31.738281 211.71875 31.695312 C 212.035156 31.65625 212.226562 31.476562 212.292969 31.164062 C 213.179688 26.535156 215.851562 22.386719 218.507812 21.5625 C 219.675781 21.195312 220.769531 21.503906 221.757812 22.476562 C 223.960938 24.648438 223.484375 27.800781 222.699219 30.050781 C 220.863281 35.34375 215.472656 40.90625 212.804688 41.199219 C 210.363281 41.433594 203.601562 37.375 200.496094 32.308594 Z M 215.878906 106.890625 C 215.886719 107.066406 215.957031 107.21875 216.085938 107.339844 C 216.214844 107.460938 216.367188 107.523438 216.546875 107.523438 L 216.582031 107.523438 C 216.769531 107.515625 216.921875 107.441406 217.046875 107.304688 C 217.171875 107.164062 217.226562 107.003906 217.21875 106.816406 C 217.148438 105.515625 217.070312 104.191406 216.996094 102.851562 C 218.207031 102.851562 219.421875 102.925781 220.636719 103.027344 C 234.410156 113.375 246 134.460938 246.058594 149.285156 C 245.175781 150.644531 244.242188 151.980469 243.265625 153.285156 C 238.300781 132.355469 221.503906 112.398438 202.449219 104.714844 C 206.769531 103.523438 211.167969 102.902344 215.652344 102.851562 C 215.730469 104.210938 215.800781 105.5625 215.878906 106.890625 Z M 188.328125 110.953125 C 191.027344 109.253906 193.851562 107.804688 196.808594 106.613281 L 200.105469 113.054688 C 200.230469 113.300781 200.429688 113.421875 200.703125 113.421875 C 200.8125 113.421875 200.914062 113.394531 201.011719 113.347656 C 201.175781 113.261719 201.285156 113.128906 201.34375 112.953125 C 201.398438 112.777344 201.382812 112.605469 201.300781 112.441406 L 198.066406 106.128906 C 198.816406 105.847656 199.570312 105.585938 200.324219 105.34375 C 219.992188 112.5 237.542969 133.15625 242.207031 154.667969 C 240.382812 157.007812 238.433594 159.242188 236.359375 161.367188 C 230.160156 137.203125 208.101562 116.332031 185.375 112.964844 C 186.332031 112.253906 187.316406 111.589844 188.328125 110.953125 Z M 183.847656 114.117188 C 206.742188 116.796875 229.28125 137.925781 235.230469 162.367188 C 235.242188 162.402344 235.257812 162.433594 235.277344 162.464844 C 233.007812 164.703125 230.628906 166.808594 228.128906 168.78125 C 226.132812 163.648438 223.644531 158.769531 220.65625 154.144531 C 217.671875 149.515625 214.253906 145.238281 210.402344 141.308594 C 207.789062 138.65625 204.988281 136.230469 201.992188 134.027344 C 198.71875 131.601562 195.234375 129.535156 191.535156 127.824219 L 191.511719 127.824219 C 188.398438 126.390625 185.175781 125.277344 181.84375 124.488281 C 179.472656 123.933594 177.070312 123.566406 174.644531 123.386719 C 177.324219 119.910156 180.390625 116.820312 183.847656 114.117188 Z M 154.269531 119.167969 C 155.277344 119.351562 156.265625 119.570312 157.238281 119.820312 C 151.300781 126.84375 145.273438 136.273438 147.027344 148.746094 C 145.105469 145.636719 142.910156 142.730469 140.449219 140.03125 C 140.472656 139.933594 140.472656 139.839844 140.449219 139.742188 C 139.0625 131.167969 140.554688 124.402344 145.125 118.476562 C 148.195312 118.378906 151.246094 118.609375 154.269531 119.160156 Z M 132.371094 132.414062 C 131.234375 130.042969 130.8125 125.257812 132.195312 120.949219 C 135.820312 119.644531 139.550781 118.851562 143.390625 118.566406 C 138.289062 125.757812 138.21875 133.058594 138.90625 138.421875 C 136.894531 136.382812 134.734375 134.511719 132.433594 132.808594 C 132.457031 132.667969 132.433594 132.53125 132.371094 132.40625 Z M 130.625 121.546875 C 129.75 124.878906 129.75 128.214844 130.625 131.546875 C 127.746094 129.578125 124.703125 127.917969 121.492188 126.5625 C 121.703125 126.410156 121.914062 126.25 122.128906 126.101562 C 124.792969 124.261719 127.625 122.742188 130.625 121.539062 Z M 120.226562 127.523438 C 133.535156 132.84375 144.214844 143.886719 149.929688 157.191406 C 146.761719 158.265625 143.792969 159.738281 141.019531 161.609375 C 140.925781 161.648438 140.84375 161.707031 140.773438 161.785156 L 140.613281 161.898438 C 135.878906 150.476562 125.617188 140.121094 112.679688 135.042969 C 114.878906 132.21875 117.398438 129.707031 120.226562 127.515625 Z M 105.699219 148.261719 C 116.789062 150.035156 127.785156 159.660156 132.148438 169.953125 C 130.050781 172.691406 128.363281 175.660156 127.078125 178.859375 C 126.539062 178.773438 126.007812 178.679688 125.46875 178.578125 C 122.628906 168.292969 113.8125 159.960938 103.757812 158.039062 C 103.871094 156.628906 104.050781 155.214844 104.304688 153.792969 C 104.652344 151.917969 105.117188 150.074219 105.699219 148.261719 Z M 124.761719 187.546875 C 119.453125 186.46875 114.292969 184.890625 109.285156 182.8125 C 107.550781 179.777344 106.207031 176.578125 105.25 173.210938 C 111.480469 176.273438 118 178.476562 124.808594 179.824219 C 125.402344 179.941406 125.996094 180.042969 126.585938 180.144531 C 125.726562 182.550781 125.117188 185.019531 124.761719 187.546875 Z M 103.667969 159.394531 C 112.953125 161.238281 121.105469 168.832031 123.984375 178.28125 C 117.296875 176.855469 110.902344 174.597656 104.800781 171.503906 C 103.84375 167.519531 103.464844 163.484375 103.667969 159.394531 Z M 110.449219 184.734375 C 115.046875 186.515625 119.757812 187.890625 124.589844 188.859375 C 124.519531 189.519531 124.464844 190.183594 124.429688 190.855469 C 124.339844 192.609375 124.371094 194.359375 124.527344 196.105469 C 122.554688 195.507812 120.558594 194.84375 118.539062 194.054688 C 115.394531 191.335938 112.699219 188.226562 110.449219 184.730469 Z M 121.910156 196.710938 C 122.835938 197.019531 123.761719 197.3125 124.683594 197.582031 C 124.726562 197.914062 124.761719 198.253906 124.8125 198.585938 C 123.816406 197.996094 122.847656 197.367188 121.910156 196.707031 Z M 125.722656 192.765625 C 128.15625 207.589844 137.316406 220.054688 151.359375 227.589844 C 149.515625 227.019531 147.726562 226.304688 145.996094 225.449219 C 144.261719 224.59375 142.609375 223.605469 141.035156 222.484375 C 139.460938 221.363281 137.984375 220.125 136.605469 218.769531 C 135.230469 217.414062 133.96875 215.957031 132.824219 214.398438 C 131.675781 212.84375 130.660156 211.203125 129.777344 209.484375 C 128.890625 207.765625 128.148438 205.988281 127.546875 204.148438 C 126.945312 202.308594 126.492188 200.4375 126.1875 198.527344 C 125.886719 196.617188 125.734375 194.695312 125.738281 192.757812 Z M 160.09375 229.132812 C 159.109375 229.085938 158.136719 228.984375 157.152344 228.851562 C 138.285156 221.027344 126.792969 204.917969 126.402344 185.738281 C 127.40625 180.71875 129.386719 176.117188 132.339844 171.9375 C 131.203125 187.992188 138.070312 200.382812 144.230469 208.078125 C 151.464844 217.117188 161.578125 224.398438 171.625 227.882812 C 167.847656 228.925781 164.007812 229.339844 160.09375 229.128906 Z M 186.269531 219.875 C 185.363281 220.695312 184.414062 221.464844 183.445312 222.179688 C 181.753906 221.714844 180.09375 221.160156 178.464844 220.519531 C 185.472656 216.066406 190.96875 208.269531 193.296875 199.378906 C 195.183594 192.183594 194.71875 185.179688 192.035156 179.921875 C 193.410156 180.035156 194.769531 180.238281 196.117188 180.53125 C 196.726562 182.222656 197.207031 183.945312 197.558594 185.707031 C 197.910156 187.464844 198.132812 189.242188 198.222656 191.035156 C 198.3125 192.828125 198.269531 194.617188 198.09375 196.40625 C 197.917969 198.191406 197.613281 199.957031 197.175781 201.695312 C 196.742188 203.4375 196.179688 205.136719 195.492188 206.796875 C 194.804688 208.453125 193.996094 210.050781 193.074219 211.589844 C 192.148438 213.128906 191.117188 214.589844 189.976562 215.972656 C 188.832031 217.359375 187.597656 218.652344 186.265625 219.855469 Z M 197.722656 204.722656 C 197.828125 204.398438 197.9375 204.070312 198.035156 203.742188 C 212.234375 201.734375 226.910156 195.667969 238.949219 186.722656 C 249.496094 178.886719 262.808594 165.257812 267.699219 144.210938 C 268.820312 149.316406 269.164062 154.476562 268.738281 159.683594 C 260.621094 186.277344 238.238281 204.179688 208.84375 207.59375 C 207.460938 207.390625 206.078125 207.132812 204.695312 206.820312 C 202.324219 206.273438 200 205.5625 197.722656 204.6875 Z M 244.347656 200.054688 C 239.890625 202.878906 235.113281 204.980469 230.019531 206.359375 C 224.929688 207.734375 219.746094 208.324219 214.472656 208.128906 C 226.683594 205.882812 237.855469 200.972656 247.054688 193.78125 C 251.632812 190.195312 255.679688 186.078125 259.1875 181.433594 C 262.699219 176.789062 265.554688 171.773438 267.757812 166.386719 C 267.703125 166.652344 267.648438 166.914062 267.589844 167.175781 C 266.832031 170.546875 265.753906 173.808594 264.347656 176.964844 C 262.945312 180.121094 261.246094 183.109375 259.25 185.929688 C 257.257812 188.746094 255.003906 191.34375 252.496094 193.714844 C 249.988281 196.085938 247.269531 198.1875 244.347656 200.019531 Z M 244.347656 200.054688 " fill-opacity="1" fill-rule="nonzero"/></g></svg>