<svg xmlns="http://www.w3.org/2000/svg" xmlns:xlink="http://www.w3.org/1999/xlink" width="300" zoomAndPan="magnify" viewBox="0 0 375 374.999991" height="500" preserveAspectRatio="xMidYMid meet" version="1.0"><defs><clipPath id="d94435763f"><path d="M 13 142.144531 L 362 142.144531 L 362 374.644531 L 13 374.644531 Z M 13 142.144531 " clip-rule="nonzero"/></clipPath><clipPath id="8bb2677563"><path d="M 84.535156 0 L 284 0 L 284 248.25 L 84.535156 248.25 Z M 84.535156 0 " clip-rule="nonzero"/></clipPath></defs><g clip-path="url(#d94435763f)"><path fill="#f6964b" d="M 348.984375 205.496094 L 354.125 167.542969 C 354.277344 165.882812 354.050781 164.292969 353.519531 162.933594 C 352.839844 161.195312 351.933594 160.285156 350.722656 160.210938 C 348.910156 160.058594 346.941406 161.875 344.597656 165.65625 C 340.136719 172.988281 335.222656 189.773438 332.125 201.339844 C 332.503906 187.503906 333.183594 156.734375 331.898438 148.039062 C 331.367188 144.5625 330.539062 142.824219 329.175781 142.445312 C 328.117188 142.144531 326.910156 142.898438 325.699219 144.488281 C 324.566406 146 323.734375 147.8125 323.28125 149.777344 C 321.464844 157.1875 319.878906 164.21875 318.367188 170.796875 C 318.0625 163.460938 317.308594 158.699219 316.625 155.828125 C 316.398438 154.691406 315.492188 153.9375 314.433594 153.710938 C 313.300781 153.484375 312.242188 153.9375 311.5625 154.917969 C 308.160156 159.910156 305.285156 170.945312 303.394531 179.792969 C 299.691406 184.175781 296.515625 189.46875 294.929688 194.082031 L 273.609375 255.542969 C 269.601562 258.265625 264.839844 261.441406 259.167969 265.222656 C 246.242188 273.6875 235.65625 286.917969 227.71875 304.382812 C 222.199219 316.480469 219.175781 329.484375 218.648438 343.015625 L 217.363281 374.84375 L 218.875 374.917969 L 220.160156 343.089844 C 220.6875 329.785156 223.710938 316.933594 229.082031 304.988281 C 236.867188 287.75 247.226562 274.824219 259.925781 266.429688 C 291.300781 245.792969 295.082031 241.558594 295.230469 241.332031 L 295.308594 241.257812 C 295.382812 241.179688 299.84375 234.527344 306.34375 227.875 C 312.316406 221.828125 321.164062 214.492188 329.855469 214.113281 C 330.839844 214.191406 333.257812 214.644531 333.789062 216.003906 C 334.167969 217.0625 333.335938 218.726562 331.292969 220.84375 C 323.960938 228.175781 297.800781 265.296875 292.433594 276.03125 L 293.796875 276.710938 C 298.9375 266.355469 325.246094 229.007812 332.351562 221.902344 C 334.921875 219.332031 335.828125 217.214844 335.222656 215.476562 C 334.542969 213.585938 332.125 212.90625 330.839844 212.679688 C 332.125 207.3125 339.609375 176.691406 345.882812 166.410156 C 348.605469 161.949219 350.117188 161.648438 350.570312 161.648438 C 351.328125 161.722656 351.78125 162.628906 352.082031 163.460938 C 352.539062 164.671875 352.6875 165.957031 352.613281 167.394531 L 347.472656 205.34375 C 346.941406 212.074219 345.507812 218.652344 343.164062 224.925781 L 329.328125 261.820312 C 327.136719 267.566406 323.960938 272.855469 319.878906 277.542969 L 288.503906 313.152344 C 283.363281 319.050781 280.035156 326.230469 278.976562 333.941406 L 273.457031 374.765625 L 274.96875 374.996094 L 280.488281 334.167969 C 281.472656 326.683594 284.648438 319.804688 289.636719 314.136719 L 321.011719 278.527344 C 325.246094 273.765625 328.496094 268.320312 330.6875 262.347656 L 344.523438 225.457031 C 347.019531 218.953125 348.453125 212.226562 348.984375 205.496094 Z M 324.640625 150.15625 C 325.09375 148.34375 325.851562 146.753906 326.832031 145.394531 C 327.738281 144.183594 328.421875 143.804688 328.722656 143.882812 C 328.875 143.957031 329.78125 144.335938 330.308594 148.191406 C 331.824219 158.925781 330.386719 205.496094 330.308594 207.914062 C 329.78125 210.109375 329.402344 211.769531 329.175781 212.601562 C 322.597656 213.058594 316.023438 217.0625 310.351562 221.902344 C 311.484375 214.265625 315.796875 186.292969 324.640625 150.15625 Z M 296.289062 194.535156 C 297.574219 190.90625 299.84375 186.746094 302.640625 183.042969 C 301.582031 188.183594 300.976562 192.039062 300.976562 192.417969 L 293.945312 240.425781 C 293.265625 241.105469 289.789062 244.28125 275.652344 253.957031 Z M 295.835938 237.777344 L 302.414062 192.644531 C 302.488281 192.34375 306.875 164.21875 312.695312 155.75 C 312.996094 155.296875 313.527344 155.070312 314.054688 155.222656 C 314.585938 155.296875 314.964844 155.675781 315.113281 156.203125 C 315.945312 159.757812 316.929688 166.335938 316.929688 177.296875 C 311.484375 203.078125 308.992188 220.917969 308.613281 223.488281 C 302.867188 228.707031 298.253906 234.527344 295.835938 237.777344 Z M 139.570312 304.308594 C 131.628906 286.769531 121.046875 273.613281 108.117188 265.144531 C 102.449219 261.441406 97.6875 258.191406 93.679688 255.46875 L 72.359375 194.003906 C 70.773438 189.394531 67.597656 184.101562 63.890625 179.714844 C 62.078125 170.945312 59.203125 159.832031 55.726562 154.917969 C 55.046875 154.011719 53.988281 153.558594 52.855469 153.710938 C 51.71875 153.9375 50.886719 154.769531 50.660156 155.828125 C 49.980469 158.699219 49.226562 163.460938 48.921875 170.796875 C 47.488281 164.21875 45.824219 157.113281 44.007812 149.777344 C 43.554688 147.8125 42.722656 146 41.589844 144.488281 C 40.378906 142.824219 39.171875 142.144531 38.113281 142.445312 C 36.75 142.824219 35.84375 144.5625 35.390625 148.039062 C 34.179688 156.734375 34.785156 187.503906 35.164062 201.339844 C 32.140625 189.773438 27.148438 172.988281 22.6875 165.65625 C 20.347656 161.800781 18.304688 160.058594 16.566406 160.210938 C 15.355469 160.285156 14.449219 161.269531 13.769531 162.933594 C 13.238281 164.371094 13.011719 165.882812 13.164062 167.621094 L 18.230469 205.496094 C 18.757812 212.300781 20.269531 219.027344 22.6875 225.457031 L 36.523438 262.273438 C 38.792969 268.246094 42.042969 273.6875 46.203125 278.453125 L 77.574219 314.058594 C 82.566406 319.730469 85.742188 326.609375 86.722656 334.09375 L 92.242188 374.917969 L 93.753906 374.691406 L 88.234375 333.867188 C 87.175781 326.15625 83.925781 318.898438 78.710938 313.078125 L 47.335938 277.46875 C 43.253906 272.855469 40.078125 267.566406 37.886719 261.742188 L 24.050781 224.851562 C 21.707031 218.574219 20.195312 212 19.742188 205.269531 L 14.601562 167.394531 C 14.523438 165.957031 14.675781 164.597656 15.128906 163.460938 C 15.433594 162.707031 15.960938 161.722656 16.640625 161.648438 C 17.171875 161.574219 18.683594 161.949219 21.328125 166.410156 C 27.753906 176.691406 35.238281 207.3125 36.523438 212.679688 C 35.238281 212.90625 32.820312 213.585938 32.140625 215.476562 C 31.460938 217.214844 32.441406 219.332031 35.011719 221.902344 C 42.117188 229.007812 68.429688 266.355469 73.570312 276.710938 L 74.929688 276.03125 C 69.5625 265.296875 43.480469 228.175781 36.070312 220.84375 C 34.03125 218.800781 33.121094 217.140625 33.574219 216.003906 C 34.105469 214.644531 36.523438 214.191406 37.507812 214.113281 C 46.125 214.417969 54.972656 221.75 60.945312 227.800781 C 67.445312 234.453125 71.90625 241.179688 71.980469 241.179688 L 72.058594 241.257812 C 72.207031 241.40625 75.988281 245.714844 107.363281 266.355469 C 120.0625 274.671875 130.421875 287.675781 138.207031 304.910156 C 143.574219 316.855469 146.601562 329.710938 147.128906 343.015625 L 148.414062 374.84375 L 149.925781 374.765625 L 148.640625 342.9375 C 148.113281 329.40625 145.085938 316.402344 139.570312 304.308594 Z M 70.921875 194.535156 L 91.5625 254.03125 C 77.425781 244.355469 73.945312 241.105469 73.265625 240.5 L 66.234375 192.417969 C 66.160156 191.964844 65.554688 188.183594 64.574219 183.042969 C 67.371094 186.746094 69.714844 190.828125 70.921875 194.535156 Z M 36.902344 148.191406 C 37.429688 144.335938 38.339844 143.957031 38.488281 143.882812 C 38.792969 143.804688 39.472656 144.183594 40.378906 145.394531 C 41.363281 146.753906 42.117188 148.34375 42.574219 150.15625 C 51.417969 186.292969 55.726562 214.265625 56.859375 221.902344 C 51.191406 217.0625 44.613281 213.058594 38.035156 212.601562 C 37.808594 211.769531 37.429688 210.109375 36.902344 207.914062 C 36.828125 205.570312 35.390625 159 36.902344 148.191406 Z M 58.601562 223.414062 C 58.222656 220.84375 55.726562 203 50.285156 177.222656 C 50.285156 166.257812 51.265625 159.683594 52.097656 156.128906 C 52.25 155.601562 52.628906 155.222656 53.15625 155.144531 C 53.6875 155.070312 54.214844 155.222656 54.515625 155.675781 C 60.339844 164.144531 64.800781 192.34375 64.800781 192.570312 L 71.375 237.703125 C 68.957031 234.527344 64.34375 228.707031 58.601562 223.414062 Z M 68.050781 358.664062 C 60.566406 356.925781 59.28125 355.640625 57.542969 348.15625 C 57.464844 347.777344 57.164062 347.550781 56.785156 347.550781 C 56.40625 347.550781 56.105469 347.777344 56.03125 348.15625 C 54.289062 355.640625 53.003906 356.925781 45.519531 358.664062 C 45.144531 358.738281 44.917969 359.042969 44.917969 359.421875 C 44.917969 359.796875 45.144531 360.101562 45.519531 360.175781 C 53.003906 361.914062 54.289062 363.199219 56.03125 370.683594 C 56.105469 371.0625 56.40625 371.289062 56.785156 371.289062 C 57.164062 371.289062 57.464844 371.0625 57.542969 370.683594 C 59.28125 363.199219 60.566406 361.914062 68.050781 360.175781 C 68.429688 360.101562 68.65625 359.796875 68.65625 359.421875 C 68.65625 359.042969 68.351562 358.738281 68.050781 358.664062 Z M 56.785156 367.511719 C 55.347656 362.671875 53.535156 360.855469 48.695312 359.421875 C 53.535156 357.984375 55.347656 356.167969 56.785156 351.332031 C 58.222656 356.167969 60.035156 357.984375 64.875 359.421875 C 60.035156 360.855469 58.222656 362.671875 56.785156 367.511719 Z M 358.660156 275.050781 C 358.660156 274.671875 358.433594 274.371094 358.054688 274.292969 C 352.839844 273.082031 352.007812 272.253906 350.796875 267.035156 C 350.722656 266.65625 350.421875 266.429688 350.042969 266.429688 C 349.664062 266.429688 349.363281 266.65625 349.285156 267.035156 C 348.078125 272.253906 347.246094 273.082031 342.027344 274.292969 C 341.652344 274.371094 341.425781 274.671875 341.425781 275.050781 C 341.425781 275.425781 341.652344 275.730469 342.027344 275.804688 C 347.246094 277.015625 348.078125 277.847656 349.285156 283.0625 C 349.363281 283.441406 349.664062 283.667969 350.042969 283.667969 C 350.421875 283.667969 350.722656 283.441406 350.796875 283.0625 C 352.007812 277.847656 352.839844 277.015625 358.054688 275.804688 C 358.433594 275.65625 358.660156 275.351562 358.660156 275.050781 Z M 350.117188 280.039062 C 349.136719 277.242188 347.925781 275.957031 345.128906 275.050781 C 347.925781 274.066406 349.210938 272.855469 350.117188 270.058594 C 351.101562 272.855469 352.308594 274.140625 355.109375 275.050781 C 352.308594 275.957031 351.023438 277.242188 350.117188 280.039062 Z M 44.839844 305.0625 C 42.949219 305.515625 41.589844 305.894531 40.605469 306.5 C 40.910156 307.105469 41.289062 307.785156 41.816406 308.691406 C 41.890625 308.84375 41.890625 309.144531 41.742188 309.296875 C 41.589844 309.449219 41.363281 309.449219 41.136719 309.371094 C 40.304688 308.84375 39.625 308.464844 38.945312 308.164062 C 38.339844 309.144531 37.960938 310.507812 37.507812 312.398438 C 37.429688 312.625 37.28125 312.773438 37.054688 312.773438 C 36.828125 312.773438 36.675781 312.625 36.601562 312.398438 C 36.144531 310.507812 35.769531 309.144531 35.164062 308.164062 C 34.558594 308.464844 33.878906 308.84375 32.972656 309.371094 C 32.894531 309.449219 32.820312 309.449219 32.746094 309.449219 C 32.59375 309.449219 32.515625 309.371094 32.441406 309.296875 C 32.289062 309.144531 32.289062 308.917969 32.367188 308.691406 C 32.894531 307.859375 33.273438 307.179688 33.574219 306.5 C 32.59375 305.894531 31.230469 305.515625 29.34375 305.0625 C 29.117188 304.988281 28.964844 304.835938 28.964844 304.609375 C 28.964844 304.382812 29.117188 304.230469 29.34375 304.15625 C 31.230469 303.703125 32.59375 303.324219 33.574219 302.71875 C 33.273438 302.113281 32.894531 301.433594 32.367188 300.527344 C 32.289062 300.375 32.289062 300.074219 32.441406 299.921875 C 32.59375 299.769531 32.820312 299.769531 33.046875 299.847656 C 33.878906 300.375 34.558594 300.753906 35.238281 301.054688 C 35.84375 300.074219 36.222656 298.710938 36.675781 296.824219 C 36.75 296.597656 36.902344 296.445312 37.128906 296.445312 C 37.355469 296.445312 37.507812 296.597656 37.582031 296.824219 C 38.035156 298.710938 38.414062 300.074219 39.019531 301.054688 C 39.625 300.753906 40.304688 300.375 41.210938 299.847656 C 41.363281 299.769531 41.589844 299.769531 41.816406 299.921875 C 41.96875 300.074219 41.96875 300.300781 41.890625 300.527344 C 41.363281 301.359375 40.984375 302.039062 40.683594 302.71875 C 41.664062 303.324219 43.027344 303.703125 44.917969 304.15625 C 45.144531 304.230469 45.292969 304.382812 45.292969 304.609375 C 45.292969 304.835938 45.066406 304.988281 44.839844 305.0625 Z M 318.667969 343.167969 C 318.820312 343.394531 318.742188 343.695312 318.59375 343.921875 C 318.441406 344.074219 318.289062 344.074219 318.140625 344.074219 C 318.0625 344.074219 317.910156 344.074219 317.835938 343.996094 C 316.777344 343.316406 315.871094 342.789062 315.039062 342.484375 C 314.28125 343.769531 313.753906 345.511719 313.148438 348.003906 C 313.074219 348.308594 312.847656 348.457031 312.542969 348.457031 C 312.242188 348.457031 312.015625 348.230469 311.9375 348.003906 C 311.335938 345.511719 310.804688 343.769531 310.050781 342.484375 C 309.21875 342.863281 308.3125 343.316406 307.253906 343.996094 C 307.023438 344.148438 306.722656 344.074219 306.496094 343.921875 C 306.269531 343.695312 306.269531 343.394531 306.421875 343.167969 C 307.101562 342.109375 307.628906 341.199219 307.933594 340.367188 C 306.648438 339.613281 304.910156 339.082031 302.414062 338.480469 C 302.109375 338.402344 301.960938 338.175781 301.960938 337.875 C 301.960938 337.570312 302.1875 337.34375 302.414062 337.269531 C 304.910156 336.664062 306.648438 336.136719 307.933594 335.378906 C 307.554688 334.546875 307.101562 333.640625 306.421875 332.582031 C 306.269531 332.355469 306.34375 332.054688 306.496094 331.824219 C 306.722656 331.597656 307.023438 331.597656 307.253906 331.75 C 308.308594 332.429688 309.21875 332.960938 310.050781 333.261719 C 310.804688 331.976562 311.335938 330.238281 311.9375 327.742188 C 312.015625 327.441406 312.242188 327.289062 312.542969 327.289062 C 312.847656 327.289062 313.074219 327.515625 313.148438 327.742188 C 313.753906 330.238281 314.28125 331.976562 315.039062 333.261719 C 315.871094 332.882812 316.777344 332.429688 317.835938 331.75 C 318.0625 331.597656 318.367188 331.675781 318.59375 331.824219 C 318.820312 332.054688 318.820312 332.355469 318.667969 332.582031 C 317.988281 333.640625 317.457031 334.546875 317.15625 335.378906 C 318.441406 336.136719 320.179688 336.664062 322.675781 337.269531 C 322.976562 337.34375 323.128906 337.570312 323.128906 337.875 C 323.128906 338.175781 322.902344 338.402344 322.675781 338.480469 C 320.179688 339.082031 318.441406 339.613281 317.15625 340.367188 C 317.457031 341.199219 317.988281 342.109375 318.667969 343.167969 Z M 358.207031 306.273438 C 356.167969 306.273438 354.425781 307.9375 354.425781 310.054688 C 354.425781 312.167969 356.089844 313.832031 358.207031 313.832031 C 360.324219 313.832031 361.988281 312.167969 361.988281 310.054688 C 361.988281 307.9375 360.25 306.273438 358.207031 306.273438 Z M 358.207031 312.246094 C 356.996094 312.246094 355.9375 311.261719 355.9375 309.976562 C 355.9375 308.691406 356.921875 307.710938 358.207031 307.710938 C 359.492188 307.710938 360.476562 308.691406 360.476562 309.976562 C 360.476562 311.261719 359.417969 312.246094 358.207031 312.246094 Z M 323.582031 362.21875 C 321.691406 362.21875 320.105469 363.804688 320.105469 365.695312 C 320.105469 367.585938 321.691406 369.171875 323.582031 369.171875 C 325.472656 369.171875 327.058594 367.585938 327.058594 365.695312 C 327.058594 363.804688 325.472656 362.21875 323.582031 362.21875 Z M 323.582031 367.660156 C 322.523438 367.660156 321.617188 366.753906 321.617188 365.695312 C 321.617188 364.636719 322.523438 363.730469 323.582031 363.730469 C 324.640625 363.730469 325.546875 364.636719 325.546875 365.695312 C 325.546875 366.753906 324.640625 367.660156 323.582031 367.660156 Z M 329.480469 303.476562 C 329.480469 304.382812 328.796875 305.0625 327.890625 305.0625 C 326.984375 305.0625 326.304688 304.382812 326.304688 303.476562 C 326.304688 302.570312 326.984375 301.886719 327.890625 301.886719 C 328.796875 301.886719 329.480469 302.570312 329.480469 303.476562 Z M 71.753906 333.035156 C 71.753906 334.019531 71 334.773438 70.015625 334.773438 C 69.03125 334.773438 68.277344 334.019531 68.277344 333.035156 C 68.277344 332.054688 69.03125 331.296875 70.015625 331.296875 C 71 331.296875 71.753906 332.054688 71.753906 333.035156 Z M 17.246094 332.28125 C 14.976562 332.28125 13.089844 334.167969 13.089844 336.4375 C 13.089844 338.707031 14.976562 340.597656 17.246094 340.597656 C 19.515625 340.597656 21.402344 338.707031 21.402344 336.4375 C 21.402344 334.167969 19.515625 332.28125 17.246094 332.28125 Z M 17.246094 339.082031 C 15.808594 339.082031 14.601562 337.875 14.601562 336.4375 C 14.601562 335 15.808594 333.792969 17.246094 333.792969 C 18.683594 333.792969 19.890625 335 19.890625 336.4375 C 19.890625 337.875 18.683594 339.082031 17.246094 339.082031 Z M 23.292969 267.113281 C 21.402344 267.113281 19.890625 268.625 19.890625 270.511719 C 19.890625 272.402344 21.402344 273.914062 23.292969 273.914062 C 25.183594 273.914062 26.695312 272.402344 26.695312 270.511719 C 26.773438 268.625 25.183594 267.113281 23.292969 267.113281 Z M 23.292969 272.402344 C 22.234375 272.402344 21.402344 271.570312 21.402344 270.511719 C 21.402344 269.457031 22.234375 268.625 23.292969 268.625 C 24.351562 268.625 25.183594 269.457031 25.183594 270.511719 C 25.183594 271.570312 24.351562 272.402344 23.292969 272.402344 Z M 23.292969 272.402344 " fill-opacity="1" fill-rule="nonzero"/></g><g clip-path="url(#8bb2677563)"><path fill="#f6964b" d="M 273.226562 126.011719 C 271.011719 122.46875 268.46875 119.183594 265.601562 116.144531 C 262.738281 113.109375 259.597656 110.382812 256.191406 107.96875 C 252.785156 105.558594 249.171875 103.5 245.359375 101.804688 C 241.542969 100.105469 237.597656 98.800781 233.523438 97.886719 C 229.117188 96.882812 224.652344 96.351562 220.132812 96.292969 C 218.503906 67.265625 216.382812 32.0625 216.0625 26.714844 C 220.167969 25.675781 226.316406 18.78125 228.460938 12.648438 C 230.003906 8.183594 229.488281 4.542969 226.972656 2.058594 C 225.386719 0.496094 223.5 -0.0117188 221.558594 0.601562 C 218.273438 1.621094 215.109375 5.855469 213.621094 11.050781 C 210.710938 6.011719 206.851562 2.742188 203.480469 2.554688 C 202.101562 2.480469 200.128906 2.886719 198.59375 5.300781 C 196.753906 8.203125 197.027344 11.75 199.375 15.59375 C 202.886719 21.324219 210.34375 26.34375 214.445312 26.804688 C 214.769531 32.121094 216.878906 67.273438 218.511719 96.289062 C 211.148438 96.378906 204.019531 97.722656 197.128906 100.320312 C 184.230469 75.152344 169.234375 46.210938 166.875 41.660156 C 170.210938 39.03125 173.019531 30.246094 172.523438 23.769531 C 172.132812 19.085938 170.175781 15.949219 166.859375 14.699219 C 164.777344 13.910156 162.855469 14.203125 161.316406 15.558594 C 158.730469 17.824219 157.570312 22.996094 158.3125 28.324219 C 153.621094 24.898438 148.792969 23.457031 145.632812 24.652344 C 144.332031 25.148438 142.703125 26.324219 142.28125 29.152344 C 141.785156 32.550781 143.464844 35.691406 147.164062 38.242188 C 151.449219 41.21875 157.730469 42.804688 162.175781 42.804688 C 163.304688 42.828125 164.410156 42.691406 165.496094 42.386719 C 167.847656 46.9375 182.769531 75.765625 195.664062 100.910156 C 192.136719 102.339844 188.761719 104.066406 185.542969 106.097656 C 178.082031 110.78125 171.867188 116.753906 166.894531 124.019531 L 166.566406 123.792969 C 166.523438 123.753906 166.476562 123.722656 166.429688 123.695312 C 161.789062 120.546875 156.769531 118.210938 151.375 116.6875 L 151.347656 116.6875 C 149.757812 116.234375 148.136719 115.855469 146.480469 115.554688 C 144.796875 115.25 143.101562 115.023438 141.394531 114.882812 C 139.6875 114.746094 137.976562 114.6875 136.265625 114.714844 C 134.554688 114.742188 132.847656 114.855469 131.144531 115.050781 C 129.445312 115.246094 127.757812 115.523438 126.082031 115.882812 C 124.410156 116.246094 122.757812 116.6875 121.125 117.210938 C 119.496094 117.734375 117.894531 118.335938 116.324219 119.015625 C 114.75 119.699219 113.21875 120.453125 111.71875 121.285156 C 110.222656 122.117188 108.769531 123.019531 107.363281 123.992188 C 105.953125 124.96875 104.597656 126.007812 103.289062 127.117188 C 101.984375 128.222656 100.734375 129.394531 99.546875 130.625 C 98.355469 131.855469 97.226562 133.140625 96.160156 134.480469 C 95.097656 135.820312 94.097656 137.210938 93.171875 138.648438 C 92.242188 140.089844 91.386719 141.570312 90.605469 143.09375 C 89.820312 144.617188 89.113281 146.175781 88.484375 147.765625 C 87.855469 149.359375 87.304688 150.976562 86.835938 152.625 C 86.363281 154.269531 85.976562 155.9375 85.667969 157.621094 C 85.324219 159.53125 85.085938 161.453125 84.953125 163.390625 C 84.953125 163.402344 84.953125 163.414062 84.953125 163.429688 C 84.945312 163.492188 84.945312 163.550781 84.953125 163.613281 C 84.605469 168.917969 85.0625 174.15625 86.328125 179.320312 C 86.328125 179.445312 86.355469 179.566406 86.417969 179.675781 C 87.59375 184.332031 89.375 188.742188 91.761719 192.910156 C 91.796875 193.054688 91.871094 193.179688 91.980469 193.285156 C 94.902344 198.296875 98.550781 202.703125 102.925781 206.507812 C 103 206.605469 103.089844 206.679688 103.199219 206.734375 C 105.867188 209.015625 108.730469 211.007812 111.800781 212.710938 C 112.253906 214.957031 112.882812 217.152344 113.675781 219.304688 C 114.472656 221.453125 115.429688 223.527344 116.542969 225.527344 C 117.660156 227.527344 118.925781 229.433594 120.335938 231.238281 C 121.746094 233.042969 123.285156 234.730469 124.957031 236.296875 C 126.628906 237.867188 128.410156 239.296875 130.304688 240.589844 C 132.195312 241.882812 134.175781 243.019531 136.242188 244.007812 C 138.3125 244.992188 140.445312 245.8125 142.640625 246.472656 C 144.835938 247.128906 147.066406 247.613281 149.335938 247.921875 C 149.378906 247.925781 149.417969 247.925781 149.457031 247.921875 L 149.488281 247.921875 C 150.636719 248.074219 151.800781 248.195312 152.957031 248.253906 C 153.757812 248.300781 154.550781 248.320312 155.34375 248.320312 C 159.980469 248.328125 164.503906 247.617188 168.917969 246.195312 C 173.328125 244.773438 177.414062 242.703125 181.171875 239.988281 L 181.246094 239.933594 C 182.546875 238.996094 183.792969 237.992188 184.984375 236.921875 C 187.65625 234.527344 190.003906 231.847656 192.019531 228.878906 C 194.039062 225.914062 195.671875 222.746094 196.917969 219.382812 C 204.207031 222.140625 211.746094 223.519531 219.539062 223.523438 C 222.367188 223.515625 225.179688 223.324219 227.984375 222.941406 C 230.785156 222.558594 233.550781 221.992188 236.277344 221.242188 C 239 220.492188 241.667969 219.5625 244.269531 218.457031 C 246.871094 217.351562 249.390625 216.078125 251.820312 214.636719 C 254.253906 213.195312 256.582031 211.597656 258.800781 209.847656 C 261.019531 208.097656 263.113281 206.203125 265.082031 204.171875 C 267.050781 202.144531 268.875 199.992188 270.554688 197.714844 C 272.234375 195.441406 273.757812 193.066406 275.121094 190.589844 C 276.484375 188.113281 277.679688 185.554688 278.703125 182.917969 C 279.722656 180.28125 280.566406 177.589844 281.230469 174.839844 C 281.894531 172.09375 282.375 169.3125 282.667969 166.5 C 282.960938 163.6875 283.0625 160.867188 282.980469 158.039062 C 282.898438 155.214844 282.628906 152.40625 282.171875 149.617188 C 281.714844 146.824219 281.074219 144.078125 280.25 141.371094 C 279.425781 138.667969 278.425781 136.027344 277.25 133.457031 C 276.074219 130.886719 274.730469 128.402344 273.226562 126.011719 Z M 148.042969 36.9375 C 145.835938 35.414062 143.3125 32.867188 143.828125 29.386719 C 144.074219 27.722656 144.863281 26.632812 146.167969 26.136719 C 146.773438 25.917969 147.398438 25.816406 148.042969 25.828125 C 151.019531 25.828125 155.203125 27.703125 158.953125 30.851562 C 159.085938 30.960938 159.234375 31.023438 159.40625 31.035156 C 159.578125 31.050781 159.734375 31.011719 159.882812 30.921875 C 160.027344 30.832031 160.132812 30.710938 160.199219 30.554688 C 160.265625 30.398438 160.277344 30.234375 160.238281 30.070312 C 158.980469 24.613281 159.886719 18.914062 162.355469 16.753906 C 163.441406 15.800781 164.769531 15.609375 166.300781 16.183594 C 169.710938 17.46875 170.703125 21.085938 170.9375 23.898438 C 171.464844 30.480469 168.316406 39.03125 165.578125 40.644531 C 163.050781 42.0625 153.8125 40.914062 148.042969 36.9375 Z M 169.300781 244.398438 C 147.726562 237.90625 118.027344 212.117188 122.144531 176.902344 C 124.390625 174.15625 126.9375 171.722656 129.789062 169.605469 C 129.300781 173.59375 129.257812 177.589844 129.65625 181.589844 C 130.050781 185.589844 130.878906 189.496094 132.136719 193.316406 L 132.136719 193.363281 C 133.199219 196.660156 134.511719 199.851562 136.074219 202.9375 C 138.882812 208.457031 142.332031 213.539062 146.425781 218.1875 C 149.007812 221.128906 151.796875 223.855469 154.796875 226.371094 C 160.167969 230.914062 166.082031 234.566406 172.546875 237.335938 L 172.578125 237.335938 L 172.636719 237.363281 C 174.6875 238.230469 176.78125 238.984375 178.914062 239.621094 C 175.914062 241.621094 172.707031 243.214844 169.300781 244.398438 Z M 96.113281 137.125 C 111.316406 142.9375 123.359375 155.0625 128.746094 168.367188 C 125.964844 170.453125 123.457031 172.828125 121.226562 175.492188 C 119.199219 171.078125 116.515625 167.109375 113.171875 163.585938 C 106.382812 156.324219 97.566406 151.253906 89.367188 149.855469 C 91 145.285156 93.246094 141.042969 96.113281 137.125 Z M 148.636719 161.648438 C 141.582031 165.78125 136.28125 171.566406 131.167969 180.671875 C 130.789062 176.542969 130.925781 172.429688 131.574219 168.335938 C 136.769531 164.851562 142.460938 162.625 148.636719 161.648438 Z M 139.945312 155.601562 C 136.734375 142.589844 140.15625 131.421875 151.351562 118.332031 C 156.128906 119.726562 160.605469 121.789062 164.769531 124.511719 C 154.964844 133.4375 149.085938 145.839844 147.484375 160.21875 C 145.804688 160.511719 144.152344 160.902344 142.523438 161.390625 C 141.730469 159.535156 140.855469 157.710938 139.910156 155.933594 C 139.945312 155.828125 139.957031 155.714844 139.945312 155.601562 Z M 169.117188 123.578125 C 171.765625 123.730469 174.390625 124.074219 176.988281 124.617188 C 169.96875 131.886719 165.828125 143.230469 165.578125 156.039062 C 165.550781 157.621094 165.578125 159.203125 165.683594 160.777344 C 163.039062 160.140625 160.359375 159.746094 157.644531 159.601562 L 157.421875 159.601562 C 157.4375 156.386719 157.703125 153.195312 158.214844 150.023438 C 158.722656 146.851562 159.476562 143.734375 160.46875 140.679688 C 161.464844 137.625 162.6875 134.664062 164.136719 131.796875 C 165.589844 128.929688 167.253906 126.195312 169.128906 123.585938 Z M 177.4375 160.777344 C 177.488281 162.441406 177.621094 164.089844 177.820312 165.734375 C 176.898438 165.183594 175.949219 164.664062 174.984375 164.183594 C 174.914062 164.136719 174.839844 164.097656 174.761719 164.070312 C 172.347656 162.894531 169.851562 161.949219 167.269531 161.226562 C 167.167969 159.527344 167.117188 157.820312 167.152344 156.105469 C 167.394531 143.269531 171.640625 131.992188 178.808594 125.058594 C 182.117188 125.871094 185.335938 126.960938 188.457031 128.332031 C 181.132812 135.878906 177.027344 147.902344 177.4375 160.761719 Z M 136.875 200.917969 C 135.667969 198.414062 134.632812 195.839844 133.769531 193.195312 C 141.703125 178.316406 156.855469 168.027344 174.347656 165.621094 C 178.910156 167.902344 182.9375 170.902344 186.433594 174.617188 C 167.460938 173.824219 146.734375 184.808594 136.875 200.902344 Z M 155.816406 159.546875 C 154.773438 159.546875 153.738281 159.546875 152.714844 159.617188 L 152.5625 159.617188 C 151.40625 159.691406 150.265625 159.804688 149.128906 159.957031 C 150.75 146.214844 156.363281 134.398438 165.648438 125.859375 C 162.472656 130.90625 160.046875 136.292969 158.378906 142.015625 C 156.707031 147.738281 155.851562 153.582031 155.816406 159.546875 Z M 155.273438 161.117188 C 156.027344 161.117188 156.785156 161.117188 157.546875 161.175781 C 162.464844 161.4375 167.203125 162.515625 171.75 164.410156 C 155.300781 167.386719 141.113281 177.140625 133.125 191.074219 C 132.382812 188.496094 131.824219 185.882812 131.453125 183.226562 C 131.5625 183.15625 131.648438 183.0625 131.710938 182.949219 C 137.808594 171.628906 143.757812 165.496094 152.894531 161.199219 C 153.675781 161.152344 154.476562 161.121094 155.273438 161.121094 Z M 167.5625 193.324219 C 170.539062 204.050781 166.429688 219.152344 155.453125 224.8125 C 152.957031 222.691406 150.613281 220.417969 148.421875 217.988281 C 150.21875 217.203125 151.8125 216.113281 153.199219 214.71875 C 154.585938 213.328125 155.667969 211.726562 156.445312 209.925781 C 158.089844 206.277344 158.511719 202.109375 157.550781 199.335938 C 160.695312 197.011719 164.035156 195.007812 167.5625 193.324219 Z M 178.78125 189.476562 C 184.277344 205.347656 178.203125 221.339844 163.164062 230.382812 C 163.125 230.40625 163.085938 230.4375 163.050781 230.472656 C 160.875 229.0625 158.785156 227.542969 156.777344 225.910156 C 168.070312 219.625 172.234375 203.820312 169.023438 192.679688 C 172.160156 191.277344 175.410156 190.210938 178.765625 189.476562 Z M 156.203125 200.355469 C 156.722656 202.433594 156.5625 205.8125 155 209.285156 C 154.269531 210.992188 153.238281 212.492188 151.902344 213.78125 C 150.566406 215.074219 149.03125 216.054688 147.300781 216.722656 C 146.160156 215.410156 145.078125 214.054688 144.046875 212.679688 C 147.546875 208.035156 151.59375 203.929688 156.1875 200.355469 Z M 172.917969 235.753906 C 170.015625 234.503906 167.214844 233.054688 164.519531 231.402344 C 172.339844 226.546875 177.878906 219.796875 180.539062 211.828125 C 181.738281 208.144531 182.324219 204.363281 182.292969 200.488281 C 182.261719 196.613281 181.613281 192.84375 180.355469 189.179688 C 183.175781 188.675781 186.023438 188.46875 188.890625 188.558594 C 192.265625 194.480469 192.9375 202.691406 190.703125 211.1875 C 187.9375 221.691406 181.300781 230.839844 172.90625 235.753906 Z M 189.484375 186.996094 C 189.417969 186.988281 189.351562 186.988281 189.285156 186.996094 C 185.878906 186.859375 182.5 187.121094 179.152344 187.789062 C 175.207031 188.585938 171.40625 189.824219 167.746094 191.503906 C 167.722656 191.511719 167.695312 191.523438 167.671875 191.539062 C 162.832031 193.800781 158.328125 196.609375 154.167969 199.964844 C 150.007812 203.320312 146.3125 207.125 143.074219 211.378906 C 141.078125 208.59375 139.296875 205.675781 137.726562 202.628906 C 147.179688 186.335938 169.078125 174.855469 187.957031 176.308594 C 190.863281 179.726562 193.179688 183.511719 194.898438 187.65625 C 193.105469 187.304688 191.296875 187.085938 189.46875 186.996094 Z M 196.957031 188.574219 C 196.9375 188.460938 196.898438 188.359375 196.835938 188.265625 C 195.007812 183.460938 192.429688 179.101562 189.097656 175.1875 C 189.035156 175.050781 188.945312 174.941406 188.820312 174.859375 C 186.117188 171.746094 183.039062 169.058594 179.59375 166.792969 C 179.289062 164.777344 179.101562 162.75 179.035156 160.710938 C 178.628906 148.039062 182.730469 136.242188 190.003906 128.972656 C 193.824219 130.777344 197.449219 132.910156 200.882812 135.378906 C 194.996094 142.058594 191.785156 152.820312 192.285156 164.417969 C 192.789062 176.011719 196.75 186.292969 202.964844 192.4375 C 201.507812 192.960938 200.039062 193.429688 198.554688 193.925781 C 198.128906 192.109375 197.589844 190.324219 196.945312 188.574219 Z M 225.511719 181.21875 C 219.945312 177.25 218.03125 171.578125 217.421875 167.480469 C 216.554688 161.671875 217.867188 156.621094 219.574219 153.980469 C 224.730469 160.90625 228.863281 168.398438 231.972656 176.453125 C 231.992188 176.496094 232.019531 176.539062 232.046875 176.582031 C 229.941406 178.195312 227.757812 179.742188 225.496094 181.21875 Z M 215.855469 167.714844 C 216.742188 173.664062 219.648438 178.742188 224.078125 182.136719 C 221.300781 183.890625 218.453125 185.515625 215.535156 187.011719 C 202.945312 175.109375 203.871094 156.203125 211.9375 144.988281 C 214.289062 147.421875 216.5 149.972656 218.566406 152.652344 C 216.113281 155.96875 214.996094 162.074219 215.839844 167.714844 Z M 214.039062 187.761719 C 210.960938 189.277344 207.820312 190.640625 204.617188 191.851562 C 198.367188 186.074219 194.34375 175.851562 193.847656 164.367188 C 193.351562 153.109375 196.457031 142.707031 202.136719 136.339844 C 205.195312 138.640625 208.078125 141.144531 210.785156 143.847656 C 202.28125 155.464844 201.160156 175.152344 214.023438 187.761719 Z M 199.539062 207.597656 C 207.066406 205.703125 214.296875 203.011719 221.230469 199.523438 C 228.164062 196.035156 234.636719 191.835938 240.644531 186.921875 C 259.019531 171.941406 270.828125 152.015625 274.09375 130.609375 C 276.238281 134.597656 277.921875 138.769531 279.152344 143.128906 C 271.25 184.121094 232.796875 209.9375 198.3125 215.042969 C 198.925781 212.601562 199.328125 210.125 199.523438 207.613281 Z M 272.792969 128.347656 C 267.808594 167.878906 233.972656 197.164062 199.636719 205.917969 C 199.792969 202.414062 199.539062 198.945312 198.871094 195.503906 C 200.8125 194.90625 202.730469 194.273438 204.617188 193.566406 C 204.675781 193.554688 204.730469 193.53125 204.785156 193.503906 C 212.210938 190.722656 219.253906 187.171875 225.90625 182.855469 C 235.726562 176.558594 244.230469 168.8125 251.417969 159.625 C 253.015625 157.578125 254.53125 155.433594 255.9375 153.257812 C 255.949219 153.242188 255.960938 153.222656 255.972656 153.203125 C 258.203125 149.753906 260.171875 146.164062 261.878906 142.429688 C 264.953125 135.71875 267 128.707031 268.015625 121.394531 C 269.402344 123.144531 270.691406 124.960938 271.886719 126.847656 C 272.207031 127.347656 272.5 127.84375 272.792969 128.347656 Z M 266.644531 119.703125 C 265.863281 126.308594 264.210938 132.6875 261.683594 138.839844 C 260.308594 124.988281 255.550781 114.242188 246.230469 103.964844 C 250.152344 105.835938 253.832031 108.097656 257.273438 110.75 C 260.710938 113.402344 263.835938 116.386719 266.644531 119.703125 Z M 242.5 102.34375 C 254.136719 114.046875 259.320312 125.542969 260.355469 141.945312 C 259.050781 144.777344 257.589844 147.527344 255.976562 150.199219 C 254.859375 133.019531 242.683594 110.898438 227.460938 98.414062 C 229.363281 98.671875 231.261719 99.007812 233.152344 99.433594 C 236.34375 100.15625 239.460938 101.125 242.5 102.339844 Z M 200.722656 14.765625 C 199.324219 12.476562 198.050781 9.125 199.933594 6.148438 C 200.792969 4.8125 201.878906 4.125 203.175781 4.125 L 203.390625 4.125 C 206.503906 4.300781 210.515625 8.199219 213.152344 13.609375 C 213.226562 13.761719 213.339844 13.875 213.488281 13.957031 C 213.636719 14.035156 213.796875 14.0625 213.964844 14.042969 C 214.132812 14.019531 214.277344 13.953125 214.402344 13.835938 C 214.527344 13.722656 214.605469 13.582031 214.640625 13.414062 C 215.683594 7.960938 218.839844 3.074219 221.972656 2.101562 C 223.351562 1.671875 224.640625 2.035156 225.808594 3.179688 C 228.40625 5.738281 227.847656 9.453125 226.917969 12.105469 C 224.75 18.339844 218.394531 24.898438 215.242188 25.238281 C 212.363281 25.515625 204.382812 20.734375 200.722656 14.765625 Z M 218.871094 102.640625 C 218.882812 102.851562 218.964844 103.027344 219.113281 103.171875 C 219.265625 103.316406 219.449219 103.390625 219.65625 103.390625 L 219.703125 103.390625 C 219.921875 103.378906 220.101562 103.289062 220.25 103.128906 C 220.394531 102.964844 220.460938 102.773438 220.453125 102.558594 C 220.367188 101.023438 220.277344 99.460938 220.1875 97.886719 C 221.617188 97.886719 223.050781 97.96875 224.484375 98.089844 C 240.734375 110.285156 254.410156 135.125 254.476562 152.59375 C 253.4375 154.195312 252.335938 155.773438 251.183594 157.308594 C 245.328125 132.644531 225.511719 109.132812 203.023438 100.078125 C 208.121094 98.675781 213.316406 97.945312 218.601562 97.886719 C 218.695312 99.488281 218.78125 101.078125 218.871094 102.640625 Z M 186.363281 107.425781 C 189.546875 105.425781 192.882812 103.722656 196.367188 102.3125 L 200.261719 109.90625 C 200.40625 110.195312 200.640625 110.339844 200.964844 110.339844 C 201.09375 110.335938 201.214844 110.308594 201.328125 110.25 C 201.523438 110.148438 201.652344 109.996094 201.71875 109.785156 C 201.785156 109.578125 201.769531 109.378906 201.667969 109.183594 L 197.855469 101.742188 C 198.738281 101.414062 199.625 101.105469 200.519531 100.820312 C 223.722656 109.253906 244.429688 133.589844 249.933594 158.9375 C 247.78125 161.695312 245.480469 164.328125 243.035156 166.832031 C 235.722656 138.359375 209.695312 113.765625 182.878906 109.796875 C 184.007812 108.960938 185.167969 108.179688 186.363281 107.425781 Z M 181.078125 111.15625 C 208.09375 114.316406 234.683594 139.210938 241.703125 168.007812 C 241.71875 168.046875 241.734375 168.085938 241.757812 168.125 C 239.082031 170.761719 236.273438 173.242188 233.324219 175.566406 C 230.96875 169.519531 228.03125 163.769531 224.507812 158.320312 C 220.988281 152.867188 216.953125 147.828125 212.40625 143.195312 C 209.328125 140.070312 206.019531 137.210938 202.488281 134.613281 C 198.625 131.761719 194.511719 129.324219 190.148438 127.308594 L 190.121094 127.308594 C 186.449219 125.617188 182.644531 124.308594 178.710938 123.375 C 175.914062 122.726562 173.082031 122.292969 170.21875 122.078125 C 173.378906 117.980469 177 114.339844 181.078125 111.15625 Z M 146.179688 117.109375 C 147.367188 117.324219 148.53125 117.582031 149.679688 117.875 C 142.675781 126.152344 135.566406 137.261719 137.632812 151.957031 C 135.363281 148.296875 132.777344 144.875 129.871094 141.691406 C 129.898438 141.578125 129.898438 141.464844 129.871094 141.351562 C 128.234375 131.246094 129.996094 123.277344 135.386719 116.292969 C 139.011719 116.179688 142.609375 116.449219 146.179688 117.097656 Z M 120.339844 132.714844 C 119 129.921875 118.5 124.285156 120.132812 119.207031 C 124.40625 117.671875 128.8125 116.734375 133.34375 116.398438 C 127.324219 124.875 127.238281 133.472656 128.050781 139.792969 C 125.675781 137.394531 123.128906 135.1875 120.414062 133.179688 C 120.441406 133.015625 120.414062 132.855469 120.339844 132.707031 Z M 118.28125 119.910156 C 117.246094 123.835938 117.246094 127.765625 118.28125 131.695312 C 114.886719 129.375 111.292969 127.417969 107.503906 125.820312 C 107.753906 125.644531 108 125.453125 108.253906 125.277344 C 111.398438 123.113281 114.738281 121.320312 118.28125 119.898438 Z M 106.011719 126.953125 C 121.714844 133.222656 134.316406 146.234375 141.054688 161.910156 C 137.320312 163.175781 133.816406 164.910156 130.546875 167.113281 C 130.433594 167.160156 130.335938 167.230469 130.253906 167.324219 L 130.066406 167.457031 C 124.480469 153.996094 112.371094 141.796875 97.105469 135.816406 C 99.703125 132.484375 102.671875 129.527344 106.011719 126.941406 Z M 88.871094 151.386719 C 101.953125 153.480469 114.929688 164.816406 120.078125 176.949219 C 117.601562 180.171875 115.609375 183.671875 114.09375 187.441406 C 113.460938 187.339844 112.832031 187.230469 112.195312 187.109375 C 108.84375 174.988281 98.445312 165.175781 86.582031 162.910156 C 86.714844 161.246094 86.921875 159.582031 87.226562 157.90625 C 87.632812 155.695312 88.183594 153.523438 88.871094 151.386719 Z M 111.363281 197.679688 C 105.097656 196.410156 99.007812 194.546875 93.101562 192.101562 C 91.058594 188.523438 89.46875 184.75 88.339844 180.789062 C 95.691406 184.394531 103.382812 186.992188 111.417969 188.578125 C 112.117188 188.71875 112.816406 188.835938 113.515625 188.957031 C 112.5 191.789062 111.78125 194.699219 111.363281 197.679688 Z M 86.472656 164.503906 C 97.425781 166.675781 107.046875 175.625 110.445312 186.757812 C 102.554688 185.078125 95.007812 182.417969 87.808594 178.773438 C 86.679688 174.082031 86.234375 169.324219 86.472656 164.503906 Z M 94.476562 194.363281 C 99.898438 196.460938 105.457031 198.082031 111.160156 199.222656 C 111.074219 200 111.011719 200.785156 110.972656 201.578125 C 110.863281 203.640625 110.902344 205.703125 111.085938 207.761719 C 108.757812 207.058594 106.402344 206.273438 104.019531 205.347656 C 100.308594 202.140625 97.128906 198.476562 94.476562 194.355469 Z M 107.996094 208.476562 C 109.089844 208.839844 110.179688 209.183594 111.269531 209.503906 C 111.316406 209.894531 111.363281 210.292969 111.421875 210.683594 C 110.246094 209.988281 109.101562 209.25 107.996094 208.472656 Z M 112.492188 203.824219 C 115.367188 221.292969 126.175781 235.980469 142.746094 244.859375 C 141.660156 244.523438 140.585938 244.144531 139.53125 243.722656 C 138.472656 243.300781 137.433594 242.839844 136.414062 242.335938 C 135.394531 241.832031 134.394531 241.289062 133.417969 240.707031 C 132.441406 240.121094 131.492188 239.5 130.5625 238.84375 C 129.636719 238.183594 128.734375 237.488281 127.863281 236.757812 C 126.992188 236.027344 126.148438 235.261719 125.339844 234.464844 C 124.527344 233.667969 123.75 232.839844 123.003906 231.980469 C 122.257812 231.121094 121.546875 230.234375 120.871094 229.316406 C 120.199219 228.402344 119.5625 227.460938 118.960938 226.492188 C 118.359375 225.527344 117.800781 224.535156 117.277344 223.527344 C 116.757812 222.515625 116.277344 221.484375 115.839844 220.433594 C 115.398438 219.382812 115.003906 218.320312 114.648438 217.238281 C 114.292969 216.15625 113.984375 215.0625 113.714844 213.957031 C 113.449219 212.851562 113.226562 211.738281 113.046875 210.613281 C 112.867188 209.488281 112.734375 208.359375 112.644531 207.226562 C 112.554688 206.09375 112.511719 204.957031 112.511719 203.820312 Z M 153.050781 246.679688 C 151.886719 246.621094 150.742188 246.5 149.582031 246.347656 C 127.316406 237.125 113.757812 218.148438 113.296875 195.546875 C 114.480469 189.628906 116.816406 184.207031 120.304688 179.285156 C 118.960938 198.199219 127.066406 212.800781 134.335938 221.867188 C 142.871094 232.519531 154.804688 241.097656 166.65625 245.207031 C 162.199219 246.429688 157.667969 246.921875 153.050781 246.671875 Z M 183.933594 235.769531 C 182.863281 236.734375 181.746094 237.644531 180.601562 238.484375 C 178.609375 237.9375 176.648438 237.285156 174.726562 236.527344 C 182.992188 231.28125 189.480469 222.09375 192.226562 211.621094 C 194.453125 203.140625 193.902344 194.886719 190.738281 188.691406 C 192.359375 188.824219 193.964844 189.0625 195.554688 189.410156 C 196.273438 191.402344 196.839844 193.433594 197.253906 195.507812 C 197.671875 197.582031 197.933594 199.675781 198.039062 201.789062 C 198.144531 203.898438 198.09375 206.007812 197.886719 208.113281 C 197.679688 210.21875 197.320312 212.296875 196.804688 214.347656 C 196.289062 216.402344 195.628906 218.402344 194.816406 220.355469 C 194.003906 222.3125 193.050781 224.195312 191.960938 226.007812 C 190.871094 227.816406 189.652344 229.539062 188.308594 231.171875 C 186.960938 232.804688 185.5 234.328125 183.929688 235.742188 Z M 197.449219 217.914062 C 197.574219 217.53125 197.703125 217.144531 197.816406 216.757812 C 214.570312 214.394531 231.886719 207.246094 246.089844 196.707031 C 258.535156 187.472656 274.242188 171.414062 280.015625 146.617188 C 281.335938 152.632812 281.742188 158.710938 281.238281 164.847656 C 271.664062 196.179688 245.253906 217.273438 210.570312 221.296875 C 208.9375 221.058594 207.308594 220.753906 205.675781 220.386719 C 202.875 219.742188 200.132812 218.902344 197.449219 217.875 Z M 252.460938 212.414062 C 249.84375 214.070312 247.121094 215.519531 244.289062 216.765625 C 241.457031 218.007812 238.542969 219.035156 235.558594 219.839844 C 232.570312 220.648438 229.539062 221.226562 226.464844 221.574219 C 223.390625 221.925781 220.304688 222.042969 217.210938 221.925781 C 231.621094 219.28125 244.800781 213.496094 255.652344 205.023438 C 261.058594 200.796875 265.832031 195.945312 269.972656 190.476562 C 274.113281 185.003906 277.484375 179.09375 280.082031 172.742188 C 280.019531 173.054688 279.953125 173.367188 279.886719 173.675781 C 278.992188 177.648438 277.714844 181.492188 276.058594 185.210938 C 274.402344 188.929688 272.398438 192.449219 270.046875 195.769531 C 267.691406 199.089844 265.035156 202.148438 262.074219 204.941406 C 259.117188 207.738281 255.910156 210.214844 252.460938 212.375 Z M 252.460938 212.414062 " fill-opacity="1" fill-rule="nonzero"/></g></svg>